<svg width="188" height="130" viewBox="0 0 188 130" fill="none" xmlns="http://www.w3.org/2000/svg">
<path d="M9.60501 61.6367C10.4152 56.7756 12.5689 55.7083 17.4762 56.5436C27.1145 58.1842 22.018 79.4131 20.6594 85.4817C19.0454 92.6908 17.4183 99.5499 17.4183 106.954C17.4183 109.346 17.1669 111.908 17.5051 114.275C18.0032 117.761 20.3933 119.674 22.8876 121.799C26.2999 124.706 30.3026 125.902 34.6075 125.185" stroke="#B38A3B" stroke-opacity="0.71" stroke-width="3" stroke-linecap="round"/>
<path d="M147.119 59.5533C146.712 57.5209 145.927 54.9184 143.588 54.8653C141.335 54.8141 139.346 54.8126 138.785 57.4118C137.67 62.574 139.329 66.9535 140.984 71.7651C142.654 76.6213 144.313 81.9049 145.498 86.8997C146.431 90.8297 146.077 95.0142 146.077 99.0248C146.077 104.071 145.69 108.291 142.981 112.626C139.605 118.027 132.474 120.969 127.325 116.851" stroke="#B38A3B" stroke-opacity="0.71" stroke-width="3" stroke-linecap="round"/>
<path d="M30.9129 62.4697C34.1912 61.7294 37.3515 61.2332 40.6975 60.8986C41.1823 60.8501 41.3476 60.9241 41.8112 61.177C43.1983 61.9336 44.515 62.8177 45.8086 63.7226C51.203 67.4962 55.6267 72.2863 59.8093 77.3255C59.8475 77.3715 60.9016 78.456 60.7639 78.5784C60.0132 79.2457 56.9965 79.1129 56.15 79.2347C53.6484 79.5947 51.1694 80.09 48.6922 80.5871C47.8704 80.752 45.5993 81.6646 44.7346 81.2831C44.3386 81.1084 43.2248 79.7373 43.2033 79.712C41.9595 78.2484 40.7514 76.7547 39.5242 75.2771C37.4957 72.835 35.3861 70.4388 33.4784 67.8989C32.7024 66.8658 31.8624 65.676 31.4499 64.4385" stroke="#B38A3B" stroke-opacity="0.71" stroke-width="3" stroke-linecap="round"/>
<path d="M57.7609 61.5748C59.4577 60.9522 61.1437 60.2956 62.8521 59.7054C63.2791 59.5579 64.1534 59.127 64.6817 59.2679C66.2632 59.6896 68.0079 61.4727 69.236 62.43C71.1911 63.954 72.9889 65.5633 74.6155 67.4317C77.0717 70.253 79.1527 73.3609 81.7849 76.033C82.355 76.6117 82.9258 77.2139 83.525 77.7632C83.9346 78.1386 81.0668 78.315 80.9894 78.32C77.734 78.5296 74.5829 78.3872 71.3639 78.9962C70.5735 79.1457 69.8252 77.7066 69.3951 77.2262C68.4035 76.1189 67.3332 75.0848 66.2827 74.0343C64.5026 72.2542 63.1796 70.209 61.7981 68.1178C60.4329 66.0512 59.0826 63.929 58.2979 61.5748" stroke="#B38A3B" stroke-opacity="0.71" stroke-width="3" stroke-linecap="round"/>
<path d="M77.9864 60.143C80.6771 59.7125 83.6567 59.8133 86.3988 59.785C87.2968 59.7757 88.1954 59.785 89.0935 59.785C90.0492 59.785 90.4905 61.4785 90.7939 62.1118C92.3111 65.2787 93.8254 68.4111 95.537 71.4788C96.5546 73.3024 97.2894 75.2993 98.4704 77.0274C98.6059 77.2255 101.537 80.6093 101.135 80.6866C99.8213 80.9393 98.3346 80.7393 96.9988 80.8258C95.7818 80.9047 94.5628 81.023 93.3594 81.2236C93.1501 81.2585 92.7459 81.4677 92.544 81.3827C91.4257 80.9118 90.6439 78.7281 90.1575 77.7831C88.2153 74.0096 86.147 70.7794 83.3163 67.6206C81.797 65.9253 80.0839 64.1515 79.4183 61.9328" stroke="#B38A3B" stroke-opacity="0.71" stroke-width="3" stroke-linecap="round"/>
<path d="M98.2119 62.1118C100.912 62.0561 103.559 61.5133 106.246 61.4058C106.764 61.3851 107.484 61.2175 107.818 61.7141C109.034 63.5266 110.027 65.5204 111.188 67.372C112.461 69.4001 113.848 71.3622 114.957 73.4874C115.559 74.6397 116.135 75.7999 116.866 76.8782C117.586 77.9388 113.433 78.2228 112.849 78.3001C111.43 78.4882 109.926 79.0466 108.514 79.1155C107.073 79.1858 106.83 78.683 105.928 77.445C104.7 75.7597 103.559 74.0441 102.508 72.2444C101.648 70.7731 100.532 69.5306 99.5643 68.1377C98.8179 67.0636 97.675 65.6476 97.675 64.2596" stroke="#B38A3B" stroke-opacity="0.71" stroke-width="3" stroke-linecap="round"/>
<path d="M118.437 63.1857C121.213 62.8584 124.403 62.1279 127.218 62.4797C127.736 62.5444 128.02 63.1938 128.212 63.5934C129.02 65.275 129.403 67.0794 130.409 68.6746C131.252 70.0099 132.196 71.2629 132.955 72.6521C133.532 73.7073 134.011 74.8108 134.785 75.7446C134.933 75.9235 135.885 76.7415 135.242 76.9676C134.156 77.3497 132.846 77.3864 131.722 77.5444C129.56 77.8481 127.368 78.0748 125.239 78.5686C124.761 78.6793 123.245 79.2706 122.733 78.9365C122.118 78.5354 121.756 76.9229 121.52 76.3312C120.862 74.6858 120.133 73.0577 119.591 71.3693C118.849 69.0609 118.029 66.7681 117.363 64.4386" stroke="#B38A3B" stroke-opacity="0.71" stroke-width="3" stroke-linecap="round"/>
<path d="M22.8586 69.9872C25.4184 69.4996 28.265 68.8846 30.8732 69.4502C32.0439 69.7041 33.1912 70.1159 34.3137 70.5241" stroke="#B38A3B" stroke-opacity="0.71" stroke-width="3" stroke-linecap="round"/>
<path d="M54.0022 68.9133C55.8772 69.2063 57.5699 70.1188 59.4911 70.1662C60.4748 70.1905 61.4267 70.3452 62.4145 70.3452" stroke="#B38A3B" stroke-opacity="0.71" stroke-width="3" stroke-linecap="round"/>
<path d="M76.7334 69.6292C79.5709 69.6472 82.3742 69.7292 85.1458 70.3451" stroke="#B38A3B" stroke-opacity="0.71" stroke-width="3" stroke-linecap="round"/>
<path d="M95.8851 70.1661C97.4389 70.189 98.9849 70.3451 100.539 70.3451" stroke="#B38A3B" stroke-opacity="0.71" stroke-width="3" stroke-linecap="round"/>
<path d="M113.247 69.0922C114.507 69.341 115.875 69.2419 117.085 69.6291C117.483 69.7566 117.847 69.8081 118.258 69.8081" stroke="#B38A3B" stroke-opacity="0.71" stroke-width="3" stroke-linecap="round"/>
<path d="M132.756 69.2712H139.916" stroke="#B38A3B" stroke-opacity="0.71" stroke-width="3" stroke-linecap="round"/>
<path d="M8.46293 80.525C8.46293 79.2565 8.57521 78.6539 9.96557 78.5907C11.6376 78.5147 13.6772 79.1493 14.706 80.5582C15.5645 81.7341 15.3665 83.6695 14.3158 84.6345C13.1156 85.7367 11.4018 86.0741 9.82444 86.1703C8.41641 86.2562 6.88456 86.3608 5.59046 85.7137C4.36226 85.0996 3.39686 84.2764 2.73461 83.0654C2.0437 81.802 2.16313 80.3617 2.18668 78.9643C2.26107 74.5505 6.18491 71.0386 10.4305 70.405C13.1346 70.0014 15.9865 70.1909 18.7075 70.2888C20.4579 70.3517 22.2062 70.3696 23.9543 70.4797C24.8966 70.5391 25.8728 70.7067 26.6939 70.214" stroke="#B38A3B" stroke-opacity="0.71" stroke-width="3" stroke-linecap="round"/>
<path d="M149.828 72.7546C149.743 72.372 148.545 72.077 148.276 72.4059C147.802 72.9842 147.462 74.8378 147.686 75.5108C147.99 76.4222 149.115 77.001 149.886 77.4368C151.065 78.1034 152.578 78.5046 153.929 78.1508C156.883 77.3776 158.944 74.4921 158.944 71.5259C158.944 69.0737 157.475 67.4836 155.208 66.7108C152.731 65.8665 149.66 65.4665 147.063 65.9221C145.874 66.1307 144.871 67.0523 143.768 67.5077C142.429 68.0604 141.004 68.4403 139.6 68.7862C137.829 69.2229 136.069 69.1928 134.287 69.467" stroke="#B38A3B" stroke-opacity="0.71" stroke-width="3" stroke-linecap="round"/>
<path d="M7.78425 118.327C8.70287 118.327 10.5757 118.665 11.358 118.027C12.0744 117.443 11.8437 115.011 11.4125 114.317C10.3808 112.655 6.60746 112.537 4.96074 112.966C2.8394 113.52 1.61347 117.565 2.10995 119.336C3.02292 122.594 6.3037 126.04 9.40743 127.343C12.4686 128.628 15.2712 127.677 18.0416 126.184C27.6274 121.018 38.7506 119.311 49.223 116.758C56.173 115.064 63.1023 113.507 70.2016 112.544C81.5935 110.998 93.2257 111.424 104.684 111.698C112.818 111.892 120.913 112.13 129.004 113.035C132.045 113.374 134.53 114.323 137.366 115.326C138.439 115.706 139.63 116.079 139.63 117.345" stroke="#B38A3B" stroke-opacity="0.71" stroke-width="3" stroke-linecap="round"/>
<path d="M152.97 113.343C150.908 113.239 149.382 112.752 149.922 110.457C150.256 109.037 152.613 108.836 153.719 108.78C156.907 108.619 160.911 108.784 162.803 111.811C163.843 113.475 163.888 116.328 162.641 117.907C160.518 120.595 156.832 121.362 153.617 121.448C152.19 121.486 150.711 121.536 149.292 121.346C147.707 121.134 146.171 120.54 144.644 120.086C143.272 119.678 142.041 119.087 140.796 118.392C139.726 117.795 138.864 116.759 137.952 115.948" stroke="#B38A3B" stroke-opacity="0.71" stroke-width="3" stroke-linecap="round"/>
<path d="M171.658 52.9849C173.468 52.9849 174.484 53.1859 175.632 54.7264C176.971 56.5233 178.308 59.0858 180.535 59.9342C181.811 60.4201 184.205 60.7657 184.915 59.2071C186.935 54.7709 181.658 49.5258 179.132 46.4582C174.82 41.2224 169.908 36.5191 165.284 31.5451C162.963 29.0478 160.848 26.4961 158.808 23.7672C157.574 22.1167 156.93 21.2293 156.745 19.202" stroke="#B38A3B" stroke-opacity="0.71" stroke-width="3" stroke-linecap="round"/>
<path d="M133.006 28.0282C135.611 28.5018 138.13 31.7317 140.463 33.0499C140.697 33.1827 142.341 34.4477 141.562 33.4388C140.51 32.0774 139.371 30.7519 138.281 29.4146C134.913 25.2804 139.044 20.3802 142.001 17.2406C148.598 10.2375 157.284 4.15199 166.941 2.49654C171.254 1.75712 175.202 1.65682 179.267 3.51104C181.482 4.52154 183.655 5.84577 185.422 7.53523C186.022 8.10905 186.36 8.52415 185.388 8.54973C181.857 8.64265 178.316 8.42311 174.786 8.58355C171.916 8.71403 169.299 9.73466 166.62 10.6802C161.403 12.5214 154.484 13.4254 150.557 17.6802C148.56 19.8435 146.381 23.5432 145.789 26.5064" stroke="#B38A3B" stroke-opacity="0.71" stroke-width="3" stroke-linecap="round"/>
<path d="M176.431 56.603C175.201 54.1425 172.8 53.4212 170.533 52.414C167.54 51.0836 167.198 47.1775 165.952 44.5231C164.909 42.3022 163.866 40.1294 162.623 38.0118C162.017 36.9788 161.119 35.1418 159.782 34.8605C158.665 34.6252 157.305 34.5063 156.447 35.3541C155.799 35.9952 154.644 38.0326 156.27 38.2649" stroke="#B38A3B" stroke-opacity="0.71" stroke-width="3" stroke-linecap="round"/>
</svg>
