<svg width="218" height="178" viewBox="0 0 218 178" fill="none" xmlns="http://www.w3.org/2000/svg">
<path d="M15.6404 46.4803C15.6404 42.2334 17.4097 39.8662 21.7663 38.6349C26.7415 37.2289 30.1541 39.8183 30.9443 44.8468C32.318 53.5883 31.9893 63.5796 31.0303 72.4023C29.319 88.1459 24.6399 103.663 26.6455 119.647C27.3233 125.049 27.9539 130.524 29.0743 135.853C30.5026 142.647 32.8967 151.019 37.6935 156.273C40.0231 158.824 45.9265 160.417 49.3004 159.067" stroke="#B38A3B" stroke-opacity="0.71" stroke-width="3" stroke-linecap="round"/>
<path d="M200.943 45.6386C195.629 44.2721 191.046 42.864 189.636 49.5978C188.725 53.9531 189.019 57.5917 190.017 61.8942C191.904 70.0302 192.255 78.1192 192.568 86.4489C193.149 101.916 191.975 116.771 185.525 131.104C182.85 137.049 176.133 141.439 170.792 144.999" stroke="#B38A3B" stroke-opacity="0.71" stroke-width="3" stroke-linecap="round"/>
<path d="M39.8364 51.2356C43.3237 50.5538 46.8067 49.8713 50.2683 49.0671C51.1257 48.8679 53.0727 47.9579 53.9205 48.7703C55.1827 49.9799 56.1626 51.533 57.3217 52.8335C59.9725 55.8076 62.9725 58.263 66.0416 60.7772C70.554 64.4739 74.354 69.0648 79.1213 72.4417C79.6295 72.8016 81.1489 73.1409 80.6507 73.5146C78.1736 75.3724 73.3768 76.131 70.5156 76.9842C67.6624 77.835 64.791 78.4925 61.8871 79.1299C61.2859 79.2619 59.0444 80.2217 58.3718 79.7234C54.4851 76.8445 51.2808 72.0352 47.9628 68.4927C44.6528 64.9588 39.4255 59.8503 39.4255 54.5227" stroke="#B38A3B" stroke-opacity="0.71" stroke-width="3" stroke-linecap="round"/>
<path d="M71.7622 50.4481C75.164 49.4393 79.1961 47.8716 82.4356 49.8324C86.5342 52.3131 90.7954 54.5124 94.7752 57.1854C97.219 58.8268 99.6235 60.5257 102.056 62.184C103.951 63.4766 106.063 64.6019 107.875 66.0115C108.759 66.699 102.713 69.9648 102.116 70.2977C100.738 71.0662 99.3271 71.7744 97.9627 72.5676C97.5881 72.7854 96.2337 73.9793 95.6928 73.763C94.7731 73.3951 93.8246 72.2263 93.1331 71.6017C90.6863 69.3917 88.134 67.3829 85.5024 65.3957C81.034 62.0215 76.7861 58.8711 73.5371 54.2876C72.6652 53.0577 71.654 51.9173 71.3275 50.4481" stroke="#B38A3B" stroke-opacity="0.71" stroke-width="3" stroke-linecap="round"/>
<path d="M97.19 51.0995C99.5004 50.2708 101.831 49.4993 104.193 48.8296C105.184 48.5487 107.213 47.605 108.238 48.3829C110.43 50.0474 112.086 52.479 113.912 54.5044C117.149 58.0936 120.748 61.3076 124.646 64.1636C126.68 65.6534 128.823 66.9812 130.973 68.2929C131.028 68.3262 133.282 69.4737 133.231 69.7055C133.026 70.6249 129.647 71.5077 129.041 71.746C126.781 72.6349 124.514 73.4918 122.268 74.4144C120.017 75.3389 118.7 73.2777 117.233 71.6977C114.559 68.8186 111.898 65.9223 109.24 63.0286C106.406 59.9439 103.642 56.7684 100.426 54.0697C99.5543 53.3384 98.3953 52.5883 97.8903 51.5221C97.3557 50.3936 97.9501 50.3935 98.7113 50.0129" stroke="#B38A3B" stroke-opacity="0.71" stroke-width="3" stroke-linecap="round"/>
<path d="M121.314 51.0999C124.005 50.714 126.695 50.3363 129.367 49.8321C130.511 49.6163 131.905 49.0652 133.086 49.4096C133.999 49.6759 134.82 50.214 135.585 50.7618C138.162 52.6055 140.511 54.7556 142.926 56.7988C145.806 59.235 148.551 61.7659 151.354 64.2847C152.012 64.8759 152.687 65.4675 153.43 65.9509C153.993 66.3166 155 66.5787 155.411 67.1341C156.233 68.2455 150.117 72.3176 149.168 72.5191C147.369 72.9014 145.266 71.5607 143.795 70.7563C140.918 69.1823 138.194 67.2805 135.416 65.5404C131.362 63.0011 127.27 60.4328 124.055 56.835C123.157 55.8305 122.183 54.8753 122.183 53.4906" stroke="#B38A3B" stroke-opacity="0.71" stroke-width="3" stroke-linecap="round"/>
<path d="M150.436 53.0557C156.042 52.5662 160.35 52.2029 165.203 55.543C168.128 57.5565 170.247 60.5101 172.822 62.9081C175.712 65.5999 178.899 67.9292 182.118 70.2008C182.45 70.4345 183.956 71.3705 184.026 71.9153C184.165 72.9918 176.47 74.0918 175.792 74.2093C174.287 74.4701 171.948 75.2907 170.479 74.4025C167.012 72.3067 163.815 69.236 160.941 66.4096C157.238 62.7691 153.785 58.9365 151.306 54.3597" stroke="#B38A3B" stroke-opacity="0.71" stroke-width="3" stroke-linecap="round"/>
<path d="M12.4311 68.4559C14.1131 68.4559 17.3404 68.1206 17.6155 70.3904C17.9843 73.4325 16.0701 74.7055 13.321 75.362C10.6308 76.0045 5.80243 76.7131 4.13221 73.9692C2.00939 70.4817 0.748977 64.0977 3.90008 60.8341C9.1664 55.3797 19.622 56.7465 26.2046 58.5514C30.1602 59.636 33.7771 60.099 37.8502 60.099" stroke="#B38A3B" stroke-opacity="0.71" stroke-width="3" stroke-linecap="round"/>
<path d="M62.2244 57.3133C65.9316 57.3133 69.7787 56.9651 73.367 56.9651" stroke="#B38A3B" stroke-opacity="0.71" stroke-width="3" stroke-linecap="round"/>
<path d="M95.3042 56.6172H101.224" stroke="#B38A3B" stroke-opacity="0.71" stroke-width="3" stroke-linecap="round"/>
<path d="M116.545 57.313H122.812" stroke="#B38A3B" stroke-opacity="0.71" stroke-width="3" stroke-linecap="round"/>
<path d="M144.749 58.0098C147.071 58.1712 149.386 58.358 151.714 58.358" stroke="#B38A3B" stroke-opacity="0.71" stroke-width="3" stroke-linecap="round"/>
<path d="M171.213 60.0989C177.068 60.0989 182.923 60.0989 188.778 60.0989C192.349 60.0989 195.907 59.8452 199.476 59.7701C203.379 59.6879 208.623 58.8773 212.108 61.0275C214.499 62.5025 216.97 65.2405 216.325 68.2624C215.29 73.1096 208.702 73.3856 204.757 73.3308C202.673 73.3018 197.916 70.7404 199.998 67.9142C200.682 66.9868 202.554 67.0631 203.596 67.0631" stroke="#B38A3B" stroke-opacity="0.71" stroke-width="3" stroke-linecap="round"/>
<path d="M27.336 171.585C27.7686 176.776 20.6193 177.085 17.7099 174.095C15.6123 171.939 15.7177 167.228 17.1147 164.753C19.6828 160.204 27.4408 160.143 31.8903 159.992C37.2336 159.811 42.3438 160.375 47.494 161.829C52.805 163.329 57.689 165.509 63.2012 166.384C78.4265 168.8 94.9656 168.435 110.349 167.781C116.261 167.529 122.087 166.295 127.945 165.53C136.116 164.463 144.393 163.605 152.424 161.7C164.489 158.838 180.583 148.567 192.74 156.628C196.124 158.871 200.651 164.503 199.623 168.945C198.631 173.233 191.845 173.914 188.341 173.914C185.547 173.914 183.34 172.588 184.149 169.463C184.441 168.333 185.084 167.288 186.167 166.927" stroke="#B38A3B" stroke-opacity="0.71" stroke-width="3" stroke-linecap="round"/>
<path d="M49.0618 92.9857C51.7959 95.0003 53.7943 96.1992 54.0052 92.0337C54.1768 88.6451 61.085 89.9516 62.9399 91.0816C70.2443 95.5314 61.3173 106.502 59.0951 111.038C55.5864 118.2 54.1156 126.207 55.7995 134.107C56.3302 136.597 57.5028 139.449 59.3514 141.321C61.7582 143.759 61.26 142.005 63.892 143.738" stroke="#B38A3B" stroke-opacity="0.71" stroke-width="3" stroke-linecap="round"/>
<path d="M84.6545 87.383C85.6608 88.6066 86.9994 91.8032 88.0965 90.6603C89.2378 89.4715 88.3483 86.6627 89.5612 85.1677C90.9125 83.5022 92.9998 84.5993 93.937 86.0648C96.0156 89.3149 95.5804 93.8431 94.999 97.4346C93.3682 107.507 88.1449 116.809 88.6092 127.223C88.8323 132.227 89.3017 140.58 95.2004 141.76" stroke="#B38A3B" stroke-opacity="0.71" stroke-width="3" stroke-linecap="round"/>
<path d="M108.053 88.7016C108.053 88.7019 110.041 93.2349 110.708 92.9492C111.413 92.6469 111.15 88.5862 111.513 87.7678C113.121 84.1502 120.051 86.179 121.125 89.2692C122.082 92.0201 121.657 95.0927 121.235 97.8926C120.029 105.9 117.889 113.742 116.988 121.804C116.355 127.466 115.815 134.173 119.221 139.161C120.971 141.722 122.898 141.973 125.52 142.749" stroke="#B38A3B" stroke-opacity="0.71" stroke-width="3" stroke-linecap="round"/>
<path d="M135.077 88.3717C136.03 89.988 137.344 93.4078 138.629 90.0745C139.085 88.8896 139.302 85.2745 141.375 85.3325C147.474 85.5031 145.958 97.8209 145.476 100.932C143.73 112.201 140.365 123.728 142.254 135.242C142.938 139.411 144.624 142.932 148.918 143.738" stroke="#B38A3B" stroke-opacity="0.71" stroke-width="3" stroke-linecap="round"/>
<path d="M158.146 87.0539C158.439 88.7532 160.585 94.3239 162.009 90.4593C162.231 89.858 162.769 84.5862 164.957 86.3215C167.639 88.4498 167.734 93.4261 167.593 96.3364C167.05 107.541 162.444 118.24 160.16 129.128C158.937 134.957 157.781 141.357 162.43 145.715" stroke="#B38A3B" stroke-opacity="0.71" stroke-width="3" stroke-linecap="round"/>
<path d="M23.1202 47.1848C22.0815 51.7174 13.9751 49.7234 16.8982 44.8516" stroke="#B38A3B" stroke-opacity="0.71" stroke-width="3" stroke-linecap="round"/>
<path d="M194.226 51.0745C195.641 53.3174 197.462 55.008 200.319 54.0558C202.188 53.4328 202.998 51.45 202.998 49.6054C202.998 47.155 200.918 46.424 198.893 46.019" stroke="#B38A3B" stroke-opacity="0.71" stroke-width="3" stroke-linecap="round"/>
<path d="M57.008 2C50.993 4.15538 46.2071 11.4572 48.6128 17.82C50.6209 23.1311 57.5486 25.1006 62.6399 25.1183C68.284 25.1379 74.2427 21.3075 74.3467 15.1622C74.4453 9.33372 69.7493 4.85335 64.4328 3.41325C59.5059 2.07867 55.8941 4.27781 54.7299 9.23501C54.001 12.3385 55.1761 17.1555 58.9486 17.7989C61.7426 18.2754 65.2242 12.4479 62.9352 10.5217C62.5934 10.2341 62.2355 10.3483 61.9438 10.5428" stroke="#B38A3B" stroke-opacity="0.71" stroke-width="3" stroke-linecap="round"/>
<path d="M74.663 22.1226C77.3724 23.1718 80.0974 24.1638 82.8261 25.16" stroke="#B38A3B" stroke-opacity="0.71" stroke-width="3" stroke-linecap="round"/>
<path d="M160.66 4.27783C158.536 4.06957 155.938 4.51037 154.058 5.50124C149.863 7.71225 148.781 12.4729 149.903 16.8284C151.48 22.9528 158.009 26.8959 164.078 26.3625C169.129 25.9186 173.64 23.6478 174.266 18.1361C174.809 13.3502 172.13 8.5188 167.41 7.01996C163.14 5.66382 156.795 9.58731 155.007 13.3901C152.837 18.007 157.912 22.3691 162.348 21.7642C163.988 21.5405 166.001 20.7119 166.313 18.8533C166.599 17.1574 165.261 15.6637 163.867 14.9511C162.657 14.3329 161.636 14.2869 161.04 15.4784" stroke="#B38A3B" stroke-opacity="0.71" stroke-width="3" stroke-linecap="round"/>
<path d="M148.511 16.4277C148.179 16.958 147.606 17.2797 147.087 17.5984C144.033 19.4746 140.761 21.0097 137.542 22.5764C136.172 23.2433 134.991 23.5853 133.513 23.8315" stroke="#B38A3B" stroke-opacity="0.71" stroke-width="3" stroke-linecap="round"/>
</svg>
