<svg width="238" height="195" viewBox="0 0 238 195" fill="none" xmlns="http://www.w3.org/2000/svg">
<path d="M23.985 55.6517C17.0234 61.7431 10.1085 60.1988 7.32993 50.9857C5.10323 43.6024 9.81447 36.013 17.1804 33.8769C24.1619 31.8523 29.8403 36.6463 33.5115 42.1073C40.5429 52.5665 35.0325 68.0902 34.5808 79.5327C34.1191 91.2281 34.5389 103.394 35.3909 115.079C35.8388 121.221 36.9459 127.561 38.534 133.516C39.515 137.195 40.0201 141.91 40.2837 145.732C40.4045 147.483 40.821 148.897 41.2234 150.592C42.1385 154.449 38.4675 149.553 37.9831 148.972" stroke="#B38A3B" stroke-opacity="0.71" stroke-width="3" stroke-linecap="round"/>
<path d="M204.21 51.5689C208.355 50.9661 214.42 52.4429 214.677 46.8057C214.931 41.2012 212.089 34.811 205.96 33.5853C181.158 28.6249 189.713 65.888 191.055 79.1114C191.881 87.2506 191.857 95.7532 191.962 103.932C192.078 112.884 192.703 121.799 192.545 130.762C192.413 138.308 189.492 145.685 184.445 151.24C179.388 156.806 172.664 162.223 165.392 164.526C161.767 165.673 157.798 165.303 154.051 165.303" stroke="#B38A3B" stroke-opacity="0.71" stroke-width="3" stroke-linecap="round"/>
<path d="M39.7328 152.472C42.6141 155.929 43.5534 159.526 47.3151 162.387C51.155 165.308 54.7797 166.703 58.9802 168.803" stroke="#B38A3B" stroke-opacity="0.71" stroke-width="3" stroke-linecap="round"/>
<path d="M2.98798 178.718C5.92414 170.749 17.2615 166.611 25.1192 167.215C30.6625 167.642 36.1877 170.363 41.4827 171.914C47.1796 173.582 52.7339 175.55 58.3322 177.519C89.9719 188.652 125.045 192.216 156.578 179.01C167.654 174.371 178.625 169.023 190.342 166.146C200.752 163.59 217.352 159.606 226.763 166.535C231.133 169.752 234.991 176.668 235.9 181.991C236.831 187.443 231.045 189.551 226.763 190.578C220.259 192.137 215.995 191.449 210.043 189.217" stroke="#B38A3B" stroke-opacity="0.71" stroke-width="3" stroke-linecap="round"/>
<path d="M2.98802 178.718C2.79229 180.675 1.29732 181.668 2.40477 183.708C3.46432 185.66 6.01915 187.893 7.78365 189.217C10.5136 191.264 17.0627 194.36 20.2264 191.744C23.867 188.734 20.084 185.644 17.5693 183.967" stroke="#B38A3B" stroke-opacity="0.71" stroke-width="3" stroke-linecap="round"/>
<path d="M46.1487 52.1522C50.222 50.6248 54.3777 49.3432 58.4943 47.9398C61.4305 46.9389 63.1796 52.0413 64.4888 53.9344C69.0205 60.4869 73.6614 67.7046 79.7182 73.0197C82.306 75.2907 76.7345 74.5497 75.441 74.6075C70.6416 74.8217 62.2475 76.5809 57.7814 74.0566C53.8985 71.8619 51.438 66.9924 48.9354 63.4933C46.4978 60.085 44.5021 57.4369 43.8157 53.3187" stroke="#B38A3B" stroke-opacity="0.71" stroke-width="3" stroke-linecap="round"/>
<path d="M71.8118 49.8194C73.6202 48.0111 79.4193 47.9075 81.8567 47.616C83.9105 47.3705 84.8622 47.5618 86.5876 48.9121C90.9964 52.3626 94.7956 56.4742 99.2895 59.8643C100.456 60.7446 104.885 63.2577 105.057 64.984C105.257 66.9845 92.6108 67.9003 90.5083 67.9003C88.9902 67.9003 86.966 68.3197 85.7127 67.317C79.9615 62.7161 75.2349 56.1397 70.6453 50.4027" stroke="#B38A3B" stroke-opacity="0.71" stroke-width="3" stroke-linecap="round"/>
<path d="M100.975 48.0696C103.983 47.6936 107.784 45.7623 110.793 46.5143C112.32 46.8961 113.65 48.983 114.584 50.0138C117.97 53.752 121.434 57.4467 125.406 60.5772C127.923 62.5604 130.913 64.8389 133.864 66.1505C136.36 67.2601 133.492 68.1245 131.822 68.8399C128.19 70.3965 123.677 72.3827 119.639 72.5663C116.942 72.6888 114.547 69.1882 113.029 67.3818C108.495 61.991 106.096 55.2687 103.891 48.6529" stroke="#B38A3B" stroke-opacity="0.71" stroke-width="3" stroke-linecap="round"/>
<path d="M127.804 50.4027C132.097 50.0961 136.371 49.5614 140.668 49.301C144.244 49.0843 145.976 51.3443 148.088 54.0319C151.036 57.7803 153.597 61.7952 156.805 65.3405C157.774 66.4118 160.05 68.0369 157.356 68.354C154.205 68.7246 146.944 69.7546 143.876 68.354C139.928 66.5515 136.982 60.6151 134.803 57.1749C133.693 55.4223 132.394 53.5955 131.887 51.5692" stroke="#B38A3B" stroke-opacity="0.71" stroke-width="3" stroke-linecap="round"/>
<path d="M154.051 51.5691C159.127 51.0051 164.832 48.8846 169.928 49.2361C173.135 49.4573 174.749 54.2492 176.247 56.4619C178.278 59.463 180.914 61.9893 182.76 65.1135C184.504 68.065 177.717 67.6026 175.825 67.9002C170.782 68.6935 167.054 70.5239 164.16 65.8264C162.028 62.3645 158.565 58.3624 157.615 54.3234C157.396 53.3942 157.519 52.981 156.967 52.1524" stroke="#B38A3B" stroke-opacity="0.71" stroke-width="3" stroke-linecap="round"/>
<path d="M19.3192 67.9001C16.0202 70.5807 20.2122 73.3094 22.8188 73.6031C27.7095 74.1541 31.8739 71.4893 35.6503 68.775C37.8733 67.1773 40.6681 64.0981 43.5242 63.8498C45.155 63.708 46.8445 63.8174 48.4819 63.8174" stroke="#B38A3B" stroke-opacity="0.71" stroke-width="3" stroke-linecap="round"/>
<path d="M71.812 62.0676H78.811" stroke="#B38A3B" stroke-opacity="0.71" stroke-width="3" stroke-linecap="round"/>
<path d="M99.808 59.7346H105.641" stroke="#B38A3B" stroke-opacity="0.71" stroke-width="3" stroke-linecap="round"/>
<path d="M123.138 57.9849C125.732 57.9849 130.708 58.9653 133.053 57.4016" stroke="#B38A3B" stroke-opacity="0.71" stroke-width="3" stroke-linecap="round"/>
<path d="M151.718 56.8184H158.717" stroke="#B38A3B" stroke-opacity="0.71" stroke-width="3" stroke-linecap="round"/>
<path d="M175.631 55.6518C178.338 55.6518 181.381 55.0833 183.796 56.5591C185.376 57.5242 186.572 59.0673 187.911 60.3179C190.516 62.7487 194.034 64.6377 197.406 65.7616C201.618 67.1658 202.46 66.1375 202.46 62.3917C202.46 60.5718 201.42 59.1514 199.544 59.1514" stroke="#B38A3B" stroke-opacity="0.71" stroke-width="3" stroke-linecap="round"/>
<path d="M157.029 165.596C153.561 164.124 149.34 161.523 148.302 157.547C147.359 153.931 151.504 152.15 154.2 151.211C156.005 150.582 161.552 148.62 162.05 151.61" stroke="#B38A3B" stroke-opacity="0.71" stroke-width="3" stroke-linecap="round"/>
<path d="M51.9486 166.672C55.7348 168.144 60.2125 170.384 64.3016 168.784C70.2347 166.462 75.8535 161.368 77.4915 155.116C78.2823 152.097 77.7098 141.728 71.833 144.835C69.5039 146.066 69.7407 149.322 70.5977 151.251" stroke="#B38A3B" stroke-opacity="0.71" stroke-width="3" stroke-linecap="round"/>
<path d="M90.17 26.8855C82.6285 29.232 76.8634 34.962 70.1088 38.6922C66.141 40.8834 61.5177 43.1395 57.008 43.9475C55.1019 44.289 55.5305 42.6826 56.6715 41.8514C58.8264 40.282 61.4307 39.1828 63.8212 38.0036C65.0684 37.3884 66.3159 36.7398 67.6379 36.2822C69.4948 35.6396 72.0444 34.1923 72.5691 32.1712" stroke="#B38A3B" stroke-opacity="0.71" stroke-width="3" stroke-linecap="round"/>
<path d="M102.425 19.3719C101.552 19.4861 101.226 20.1502 101.481 20.9323C101.889 22.1779 103.026 22.3061 104.245 22.1075C106.74 21.7008 107.723 18.9295 106.587 16.8419C105.72 15.248 103.377 14.7394 101.649 14.9154C100.187 15.0644 98.7194 15.7824 97.5069 16.5529C96.1067 17.4427 95.4907 18.5567 95.4594 20.1618C95.4149 22.4478 96.1796 24.1635 97.808 25.8191C100.396 28.45 104.606 29.9818 108.3 28.7344C111.277 27.7292 113.552 25.2876 115.392 22.9294C116.964 20.9164 117.571 19.064 117.453 16.5337C117.318 13.6329 116.015 11.6218 113.392 10.1572C110.181 8.36467 105.925 7.14097 102.191 7.3831C99.9574 7.52791 97.5592 8.30325 95.7739 9.62418C93.9001 11.0106 92.5426 12.9711 91.0232 14.6843C90.3048 15.4942 89.5308 16.276 89.23 17.3299C88.9381 18.3522 88.9149 19.5008 88.9356 20.5535C88.9835 22.993 90.0475 25.3917 91.4916 27.373C92.5034 28.7612 93.6915 30.1618 95.0379 31.2644C97.5189 33.2962 100.564 33.8628 103.71 34.3596C106.107 34.7382 108.846 34.8514 111.19 34.1669C113.7 33.4343 116.223 31.657 117.694 29.5563C120.656 25.3264 122.689 20.5089 122.953 15.3714C123.053 13.4339 123.116 11.5026 121.903 9.84251C120.962 8.55538 119.489 7.37604 118.263 6.32998C114.868 3.43407 109.917 2.33029 105.503 2.08541C103.256 1.96076 100.869 1.92875 98.6444 2.29731C95.9812 2.73861 93.5439 4.11923 91.2775 5.46308C88.3413 7.20404 86.1676 9.28479 84.5595 12.2698C83.3727 14.473 83.6196 16.6597 83.6362 19.038C83.6428 19.9957 83.5249 21.1801 83.9306 22.0818C84.053 22.3539 84.2384 22.5327 84.2384 22.8395" stroke="#B38A3B" stroke-opacity="0.71" stroke-width="3" stroke-linecap="round"/>
<path d="M80.4484 102.159C80.0977 95.8482 90.0805 98.6988 90.2853 103.409C90.4851 108.004 87.2081 111.972 87.273 116.533C87.3334 120.779 90.0248 125.61 93.0352 128.483C97.1545 132.413 101.981 133.873 107.597 134.432C110.421 134.714 113.225 134.655 115.921 133.695C116.778 133.39 118.298 133.031 118.159 132.132C117.994 131.073 116.245 131.104 115.196 130.882C112.473 130.309 109.508 130.252 106.872 129.308C103.3 128.028 101.036 124.474 99.3973 121.258C97.8622 118.245 97.0033 115.034 96.56 111.696C96.1622 108.701 95.692 104.815 97.9599 102.384C101.465 98.6267 108.24 98.1753 113.022 98.0718C120.952 97.9002 127.889 99.6556 133.395 105.759C135.335 107.909 137.059 110.615 137.17 113.596C137.3 117.094 135.071 120.269 132.945 122.833C131.954 124.028 130.94 124.956 129.746 125.908C128.954 126.538 131.786 125.891 132.77 125.658C135.313 125.055 138.199 124.342 139.908 122.17C142.042 119.457 141.872 115.08 142.357 111.846C142.679 109.707 143.028 107.254 144.42 105.484C146.15 103.283 149.34 102.802 151.944 103.234C154.344 103.632 156.448 104.845 157.632 107.021C158.824 109.215 158.874 112.447 156.632 114.021C154.969 115.188 152.203 114.218 152.444 112.284" stroke="#B38A3B" stroke-opacity="0.71" stroke-width="3" stroke-linecap="round"/>
</svg>
