<svg width="189" height="140" viewBox="0 0 189 140" fill="none" xmlns="http://www.w3.org/2000/svg">
<path d="M85.0297 106.826C81.2557 101.794 78.6616 96.066 76.2472 90.3009C73.6125 84.01 70.1333 78.1596 67.2728 71.9842C64.4322 65.8516 66.1539 58.9721 69.1125 53.1875C73.8941 43.8383 83.2583 41.0496 93.0122 39.6379C107.94 37.4774 123.014 37.0793 138.076 37.1423C142.422 37.1605 146.805 37.2771 151.114 37.8462C153.933 38.2185 156.865 38.0732 159.608 38.886C162.37 39.7044 165.054 40.7255 167.767 41.6855C171.591 43.0388 173.665 45.7388 175.446 49.3002C180.041 58.4912 180.411 68.2136 175.254 77.3592C171.033 84.843 166.759 92.3528 161.032 98.7954C159.209 100.847 157.388 103.205 156.153 105.674C155.463 107.055 155.319 108.455 154.425 109.706" stroke="#B38A3B" stroke-opacity="0.71" stroke-width="3" stroke-linecap="round"/>
<path d="M58.5382 102.219C54.9288 97.8879 60.6977 94.1281 64.7451 94.0606C68.6664 93.9952 72.5478 97.0662 74.4554 100.299C76.3719 103.548 76.5193 107.397 78.8707 110.394C80.4352 112.388 82.5203 114.569 85.2535 114.569C85.9985 114.569 85.8934 112.215 85.8934 111.721C85.8934 109.704 85.757 107.95 83.8778 107.114" stroke="#B38A3B" stroke-opacity="0.71" stroke-width="3" stroke-linecap="round"/>
<path d="M177.749 106.25C179.056 106.105 180.812 105.751 181.605 104.586C182.459 103.332 182.109 100.731 181.029 99.6912C177.4 96.1968 170.08 98.6135 166.647 101.099C163.609 103.298 162.061 106.69 160.536 109.993C159.617 111.985 158.888 113.915 156.889 115C154.842 116.112 154.713 115.038 154.713 113.161" stroke="#B38A3B" stroke-opacity="0.71" stroke-width="3" stroke-linecap="round"/>
<path d="M102.605 17.8103C102.562 17.1273 102.492 16.3884 102.889 15.7803C103.517 14.8175 105.525 14.8455 106.431 15.2763C108.517 16.2684 108.806 18.9293 108.681 20.9475C108.556 22.9485 107.474 24.5885 106.977 26.4839C105.582 31.8118 112.388 34.3721 116.559 34.6181C118.778 34.749 121.307 34.8014 123.501 34.3626C123.561 34.3505 123.392 34.2923 123.331 34.2916C122.683 34.2842 122.034 34.3048 121.386 34.2916C119.533 34.2538 118.227 33.2652 116.928 31.9919C114.631 29.7398 112.996 27.2017 112.996 23.9145C112.996 20.564 114.262 17.2906 117.283 15.5673C120.631 13.6578 125.105 12.5815 128.959 12.6217C131.933 12.6527 134.511 13.3562 136.753 15.3544C138.882 17.252 140.316 19.5923 140.692 22.4523C140.954 24.4437 140.209 25.7544 139.116 27.3357C138.741 27.8793 138.41 28.2868 138.251 28.9256" stroke="#B38A3B" stroke-opacity="0.71" stroke-width="3" stroke-linecap="round"/>
<path d="M56.5484 121.767C57.05 121.611 57.6317 121.367 57.2285 120.72C56.4654 119.497 54.7917 119.032 53.4622 118.907C50.7114 118.648 48.1901 119.803 47.2897 122.569C46.9514 123.608 46.7104 124.883 46.9584 125.969C47.5517 128.566 50.5585 130.634 52.5991 131.976C56.3923 134.469 60.6135 135.593 65.0051 133.955C68.468 132.662 71.1778 130.015 73.8802 127.608C79.3552 122.731 85.5616 118.957 92.9033 117.843C100.31 116.72 107.925 116.735 115.396 116.998C121.337 117.207 127.233 118 133.042 119.256C135.071 119.694 137.065 120.283 139.092 120.72C139.447 120.797 139.722 120.826 140.034 120.982" stroke="#B38A3B" stroke-opacity="0.71" stroke-width="3" stroke-linecap="round"/>
<path d="M135.64 120.198C141.645 120.533 147.382 121.624 152.998 123.781C157.263 125.419 161.586 127.18 165.683 129.212C168.081 130.402 171.011 131.68 172.762 133.789C173.871 135.126 175.18 136.186 176.65 137.111C177.49 137.64 178.431 138.183 179.44 138.297C181.252 138.502 183.171 136.936 184.305 135.707C187.501 132.242 188.216 125.408 184.462 122.046C182.207 120.028 179.447 120.045 177.574 122.56C177.04 123.278 177.305 124.169 178.01 124.592" stroke="#B38A3B" stroke-opacity="0.71" stroke-width="3" stroke-linecap="round"/>
<path d="M12.2635 74.7015C14.6414 74.3026 17.3734 74.5176 19.5366 75.5785C20.2631 75.9348 24.8667 78.5149 22.9736 76.6595C18.999 72.7639 20.6778 67.329 22.7437 62.8112C26.7518 54.0459 33.2703 46.4534 39.8768 39.5535C47.0349 32.0774 54.4904 24.5558 62.3564 17.8125C67.2873 13.5854 72.8801 9.97741 78.6005 6.90708C83.065 4.51086 85.7783 5.88863 90.1416 7.75708C92.1501 8.61713 94.2065 9.39305 96.0428 10.6038C97.0564 11.272 92.5033 13.7733 92.0677 14.0421C83.7834 19.1558 75.0905 23.8182 67.1425 29.4436C58.7773 35.3644 51.6369 42.228 44.4382 49.4454C39.7284 54.1675 34.7004 58.5212 30.7 63.8976C29.1186 66.023 26.7884 68.7376 27.023 71.5548" stroke="#B38A3B" stroke-opacity="0.71" stroke-width="3" stroke-linecap="round"/>
</svg>
