<svg width="290" height="201" viewBox="0 0 290 201" fill="none" xmlns="http://www.w3.org/2000/svg">
<path d="M18.5205 95.3304C43.2991 86.4479 65.7945 74.0858 86.9417 58.6134C97.7401 50.7127 109.741 44.6035 121.606 38.4842C126.485 35.9678 134.222 33.8283 138.167 29.9614" stroke="#B38A3B" stroke-opacity="0.71" stroke-width="3" stroke-linecap="round"/>
<path d="M43.4758 150.241C73.4022 145.009 103.096 138.598 132.712 131.821C148.782 128.143 164.76 126.175 181.201 125.231C186.433 124.93 192.745 123.238 197.904 124.324" stroke="#B38A3B" stroke-opacity="0.71" stroke-width="3" stroke-linecap="round"/>
<path d="M151.376 25.4583C142.888 26.4932 138.07 30.25 139.502 39.3209C141.053 49.1483 146.712 59.1829 151.512 67.7694C156.627 76.9198 164.198 84.9723 170.604 93.2591C174.018 97.6758 177.245 101.815 181.288 105.641C184.452 108.635 186.481 112.543 189.517 115.64C191.302 117.461 193.228 119.49 195.527 120.636C196.68 121.211 200.07 123.01 200.362 124.123" stroke="#B38A3B" stroke-opacity="0.71" stroke-width="3" stroke-linecap="round"/>
<path d="M16.8807 97.3871C12.2075 98.7913 9.10824 106.123 9.49742 110.645C10.3492 120.543 16.2531 130.772 22.4638 138.233C27.646 144.458 37.4748 157.87 47.3503 153.919" stroke="#B38A3B" stroke-opacity="0.71" stroke-width="3" stroke-linecap="round"/>
<path d="M133.357 52.1503C133.836 50.6936 136.206 51.7165 137.248 51.936C139.874 52.4887 140.508 54.7856 140.764 57.3262C141.193 61.5719 137.728 65.2577 134.231 67.0887C125.285 71.7726 114.835 74.0688 105.046 76.1881C95.3236 78.2931 86.0539 81.008 76.6222 84.1273C65.7519 87.7223 54.4123 90.1868 43.3981 93.3238C31.6129 96.6804 19.3589 99.6639 8.4699 105.434" stroke="#B38A3B" stroke-opacity="0.71" stroke-width="3" stroke-linecap="round"/>
<path d="M143.305 78.5286C149.856 78.1065 153.272 70.2926 145.855 68.7316C143.889 68.3177 141.925 67.8335 139.946 67.4877C135.911 66.7827 132.531 69.6892 129.521 72.0104C123.172 76.9068 117.437 82.4726 110.614 86.8325C103.402 91.4409 96.1301 95.9013 88.4858 99.7711C80.9404 103.591 73.132 107.113 66.0048 111.659C57.4364 117.126 49.3502 122.966 40.2228 127.503C35.8054 129.699 29.8827 132.181 27.2334 136.71C26.2754 138.348 23.7776 141.207 26.6477 141.811" stroke="#B38A3B" stroke-opacity="0.71" stroke-width="3" stroke-linecap="round"/>
<path d="M28.1635 135.174C27.5136 135.93 25.565 137.858 26.1086 139.11C26.5049 140.022 28.1883 141.368 29.1076 141.775C30.9957 142.612 33.591 141.368 34.0121 139.367" stroke="#B38A3B" stroke-opacity="0.71" stroke-width="3" stroke-linecap="round"/>
<path d="M37.2417 141.932C34.6082 141.377 32.645 142.301 32.5634 145.255C32.4528 149.264 37.7512 150.291 40.2401 148.082C41.6844 146.801 43.2994 145.841 44.9659 144.889C45.9198 144.344 47.8518 143.594 48.3958 142.664" stroke="#B38A3B" stroke-opacity="0.71" stroke-width="3" stroke-linecap="round"/>
<path d="M46.8896 143.424C49.552 140.633 54.0127 138.85 57.4306 137.191C59.7173 136.081 61.9317 134.964 64.3787 134.241C68.5532 133.008 72.8191 132.106 76.959 130.756C78.6617 130.201 83.3949 129.205 81.7911 128.408C81.6468 128.336 80.3911 128.312 80.5502 128.192C81.3123 127.613 82.5084 127.34 83.3696 127.02C85.6423 126.174 87.7746 125.107 89.9899 124.135C93.708 122.505 97.9249 122.068 101.904 121.468C106.765 120.734 111.559 120.755 116.434 120.308C121.563 119.837 126.327 118.822 131.147 117.062C141.115 113.425 152.865 111.52 160.025 102.947C163.352 98.9648 162.973 94.5338 161.123 89.9856C159.383 85.707 154.606 83.822 150.354 83.5157C149.026 83.42 146.741 83.5046 145.765 84.569C144.433 86.0215 144.965 86.6287 146.514 87.1201" stroke="#B38A3B" stroke-opacity="0.71" stroke-width="3" stroke-linecap="round"/>
<path d="M161.387 103.443C165.029 100.965 170.598 102.151 174.657 103.005C176.686 103.432 178.825 103.9 180.122 105.681C181.395 107.431 181.765 109.92 181.884 112.021C182.055 115.054 181.082 119.955 177.2 119.845C175.189 119.788 173.137 119.34 171.836 117.759" stroke="#B38A3B" stroke-opacity="0.71" stroke-width="3" stroke-linecap="round"/>
<path d="M162.405 105.004C159.13 108.74 155.893 112.609 152.093 115.832C149.359 118.15 146.232 120.001 143.235 121.955C139.825 124.18 136.245 126.083 132.713 128.102C131.049 129.053 128.821 131.502 126.894 131.724" stroke="#B38A3B" stroke-opacity="0.71" stroke-width="3" stroke-linecap="round"/>
<path d="M127.789 42.352C128.705 40.9367 131.132 41.3587 132.41 41.9173C134.101 42.6563 134.643 44.4067 134.372 46.1127C134.005 48.4231 132.973 50.0407 130.502 49.5206" stroke="#B38A3B" stroke-opacity="0.71" stroke-width="3" stroke-linecap="round"/>
<path d="M127.736 42.6046C126.194 43.2796 124.829 45.3182 123.631 46.4322C122.071 47.8833 120.424 49.2032 118.595 50.2984C116.824 51.3587 115.164 52.4005 113.297 53.3177C108.413 55.7171 103.082 57.3763 98.0934 59.5886C90.2624 63.0611 82.5916 66.6664 75.1542 70.9168C70.7713 73.4215 66.2241 75.6408 61.8012 78.0758C57.4255 80.4848 53.0332 82.9917 48.5775 85.2473C43.9708 87.5794 39.0521 89.4698 34.2336 91.3327C31.7623 92.2882 29.23 93.6647 26.5374 93.3487" stroke="#B38A3B" stroke-opacity="0.71" stroke-width="3" stroke-linecap="round"/>
<path d="M127.536 42.2986C129.12 41.9984 130.635 39.4484 131.676 38.3025C132.493 37.4036 133.043 36.0806 134.186 35.7813" stroke="#B38A3B" stroke-opacity="0.71" stroke-width="3" stroke-linecap="round"/>
<path d="M138.807 32.9348C142.553 28.3675 148.098 25.8083 153.986 26.4551C163.002 27.4454 172.081 29.4603 179.911 34.1811C186.668 38.2551 191.525 43.9567 196.694 49.7772C201.77 55.4932 205.565 62.0499 208.519 69.0675C213.533 80.9783 217.088 94.9484 208.794 106.351C206.861 109.008 204.563 113.306 200.754 113.338C190.688 113.422 184.38 103.881 178.591 97.0077C176.608 94.6534 174.603 92.305 172.918 89.7222C170.781 86.4448 169.89 82.7467 168.325 79.2002C165.147 72.0001 160.809 64.4913 162.266 56.346C163.049 51.9683 165.611 48.1534 169.481 45.9007C173.894 43.3318 178.053 44.6998 182.14 47.2315C185.664 49.4139 189.572 52.2735 191.627 55.9766C194.207 60.6261 195.826 66.6116 197.253 71.7125C198.228 75.2015 198.401 79.2006 197.387 82.7093C195.971 87.607 190.817 88.9584 186.591 86.4289C182.374 83.9056 178.966 79.302 176.35 75.2158C174.416 72.196 173.457 68.1168 175.263 64.7749C177.181 61.2249 181.346 62.5325 183.012 65.4106C183.966 67.0583 187.112 71.4429 185.165 73.1497" stroke="#B38A3B" stroke-opacity="0.71" stroke-width="3" stroke-linecap="round"/>
<path d="M196.562 122.847C198.847 123.328 202.236 124.715 204.575 123.936C207.419 122.989 210.269 119.818 212.388 117.837C216.59 113.91 217.15 107.974 217.329 102.494" stroke="#B38A3B" stroke-opacity="0.71" stroke-width="3" stroke-linecap="round"/>
<path d="M233.576 130.149C232.978 133.563 231.259 136.513 229.149 139.2C228.065 140.58 226.975 141.882 226.064 143.395C224.698 145.662 222.56 148.674 222.261 151.366C221.745 156.023 228.63 159.967 232.643 159.95C236.959 159.931 239.834 155.049 241.488 151.703C242.749 149.153 243.809 146.658 244.353 143.857C244.841 141.349 245.16 138.812 245.516 136.284C246.056 132.449 245.781 128.613 246.031 124.758C246.46 118.121 248.729 112.125 251.589 106.182C254.864 99.3758 258.285 92.6794 261.33 85.7619C263.096 81.747 264.512 77.5394 267.157 74.0042" stroke="#B38A3B" stroke-opacity="0.71" stroke-width="3" stroke-linecap="round"/>
<path d="M258.189 54.5666C259.02 53.2847 261.102 53.3377 261.589 54.9019C262.14 56.671 260.866 58.4348 260.014 59.8679C258.666 62.1334 261.283 65.5922 263.576 66.1721C264.066 66.296 263.747 65.1532 263.718 64.9821C263.395 63.0847 263.436 61.3768 264.196 59.5794C264.884 57.9485 265.875 56.1826 267.515 55.3387C269.9 54.1116 273.604 55.2625 275.956 56.0373C279.149 57.089 284.021 58.5564 284.691 62.4485C284.986 64.1611 284.486 66.0929 284.149 67.7625C283.736 69.8114 283.122 72.043 281.447 73.4487C280.543 74.2068 279.299 74.5739 278.131 74.4984C277.613 74.4649 277.007 74.2041 276.556 74.4729" stroke="#B38A3B" stroke-opacity="0.71" stroke-width="3" stroke-linecap="round"/>
<path d="M238.851 114.414C239.391 118.007 238.579 122.231 237.275 125.601C236.069 128.717 234.464 131.459 232.422 134.095" stroke="#B38A3B" stroke-opacity="0.71" stroke-width="3" stroke-linecap="round"/>
<path d="M270.422 67.3672L265.124 78.475" stroke="#B38A3B" stroke-opacity="0.71" stroke-width="3" stroke-linecap="round"/>
</svg>
