<svg width="184" height="390" viewBox="0 0 184 390" fill="none" xmlns="http://www.w3.org/2000/svg">
<path d="M2.49735 388.205C7.97251 382.188 13.5616 376.272 19.0177 370.244C21.6795 367.31 24.2209 364.244 26.7276 361.155C27.3598 360.384 27.8026 360.451 28.4922 360.86C30.3585 361.963 32.266 362.989 34.1133 364.13C37.6721 366.328 41.5279 368.015 44.5715 371.114C45.2929 371.847 45.8081 371.347 46.1051 370.475C48.2847 364.078 52.2832 358.767 55.3834 352.92C55.5351 352.63 56.2086 352.4 56.5375 352.504C62.4175 354.383 68.2627 356.393 74.1552 358.237C79.7631 359.977 85.4152 361.542 91.0452 363.197C91.8613 363.437 92.3451 363.278 92.5724 362.294C93.1628 359.729 93.8354 357.185 94.4669 354.627C95.6004 350.014 96.8035 345.418 97.8358 340.772C98.9944 335.582 100.008 330.351 101.055 325.134C101.239 324.225 101.687 323.947 102.522 323.964C104.714 324 106.909 323.931 109.104 323.96C113.044 324.028 116.985 324.056 120.919 324.291C122.184 324.364 122.396 324.03 122.253 322.82C121.963 320.728 121.789 318.62 121.732 316.506C121.711 312.586 121.893 308.667 121.949 304.748C121.986 302.102 121.963 302.139 124.373 301.523C130.381 299.985 136.39 298.445 142.382 296.839C147.464 295.485 152.523 294.005 157.598 292.607C158.436 292.377 158.99 292.045 158.692 290.985C158.318 289.62 157.913 288.269 157.555 286.88C156.155 281.526 154.812 276.158 153.365 270.82C151.876 265.331 150.337 259.858 148.709 254.416C148.434 253.491 148.5 253.065 149.24 252.635C154.707 249.416 159.597 245.122 165.574 242.881C166.434 242.543 166.576 241.925 165.962 241.151C165.688 240.847 165.439 240.518 165.218 240.169C162.237 234.727 159.253 229.289 156.341 223.808C156.167 223.47 156.426 222.625 156.742 222.307C159.246 219.805 161.886 217.456 164.345 214.903C170.228 208.795 176.042 202.601 181.871 196.449C183.316 194.924 183.319 194.941 181.81 193.354C176.494 187.769 171.214 182.143 165.857 176.602C162.966 173.61 160.001 170.689 156.948 167.887C156.056 167.066 155.917 166.499 156.52 165.546C156.738 165.207 156.874 164.795 157.077 164.434C160.06 159.181 162.085 153.315 165.976 148.643C166.608 147.876 166.292 147.291 165.45 146.954C159.441 144.667 154.483 140.372 149.001 137.068C148.838 136.917 148.712 136.726 148.635 136.511C148.557 136.296 148.531 136.063 148.558 135.835C150.371 129.289 152.3 122.781 154.075 116.235C155.528 110.889 156.788 105.506 158.148 100.143C158.78 97.6732 158.78 97.7205 156.566 97.1035C150.487 95.4178 144.436 93.597 138.338 91.9856C133.208 90.6372 128.024 89.5085 122.881 88.2108C122.641 88.1106 122.428 87.9492 122.26 87.7409C122.092 87.5326 121.974 87.2835 121.916 87.0153C121.776 84.1063 121.664 81.1906 121.72 78.2781C121.794 74.4771 122.033 70.6759 122.202 66.8782C122.249 65.8645 122.006 65.3207 120.915 65.6424C120.253 65.8589 119.567 65.982 118.875 66.0085C113.303 66.0422 107.733 66.0152 102.164 66.0557C101.269 66.0562 101.104 65.5191 100.965 64.7995C100.147 60.6037 99.4532 56.374 98.4743 52.2222C96.5577 44.1145 94.4578 36.0543 92.5033 27.9567C92.2055 26.7203 91.69 26.5821 90.697 26.8902C86.7032 28.119 82.6904 29.2871 78.6966 30.5261C71.3287 32.8145 63.9736 35.1502 56.5994 37.4082C56.1915 37.5334 55.3849 37.3042 55.2045 36.9698C52.103 31.184 48.1477 25.9122 45.963 19.5751C45.5292 18.3118 45.0138 18.356 44.1191 19.1742C43.0185 20.2436 41.8231 21.196 40.5497 22.0178C36.8883 24.2635 33.17 26.4146 29.4454 28.5454C27.3491 29.7427 27.3238 29.6886 25.7923 27.6657C25.6341 27.4597 25.4474 27.2807 25.2766 27.0882C21.0938 22.4687 16.9122 17.8537 12.7316 13.2432C9.22911 9.39695 5.68238 5.60148 2.20204 1.73159C1.76226 1.24531 1.39847 0.998888 1.02846 1.00589L1.02935 3.26284C1.58912 3.26251 2.15229 3.86694 3.29129 5.08595C7.90108 10.0127 12.5741 14.8786 17.1143 19.8729C20.1865 23.2497 23.0753 26.8227 26.2394 30.5306C24.1399 31.7515 22.2871 32.8743 20.3836 33.8925C20.1764 33.9676 19.9552 33.9876 19.7391 33.9506C19.523 33.9136 19.3187 33.8209 19.1438 33.6804C15.3977 29.4424 11.6958 25.157 7.98445 20.8818C6.0544 18.6598 4.10224 16.4649 2.20698 14.209C1.78616 13.7093 1.41289 13.4493 1.03339 13.4563L1.03408 15.2099C6.78303 21.7712 12.5003 28.292 18.3316 34.9512L11.6919 39.3475C9.24921 36.1865 6.83176 33.0424 4.41434 29.9119C3.65493 28.9325 2.89239 27.9565 2.0666 27.0414C1.9425 26.8781 1.78773 26.7445 1.61228 26.6492C1.43684 26.5539 1.24461 26.4989 1.04802 26.4879L1.04866 28.086C2.03582 29.2274 2.99449 30.2539 3.86146 31.3616C5.75997 33.8066 7.61105 36.3058 9.50007 38.7643C10.231 39.7167 10.7057 40.4259 9.33981 41.393C7.97397 42.3602 6.88977 43.7123 5.63788 44.9361C4.45129 43.3522 3.29005 41.8359 2.15723 40.2858C1.76802 39.7488 1.40424 39.5057 1.0437 39.5093L1.04423 40.8405C2.30998 42.7082 3.36689 44.2719 4.39536 45.866C4.46541 45.9946 4.50879 46.1377 4.52249 46.2858C4.53619 46.4339 4.51991 46.5834 4.47475 46.7241C3.30884 49.4278 2.10816 52.1314 1.05597 54.4971L1.05596 54.4803L1.06149 68.4477C2.60899 68.4944 4.14196 68.7803 5.61271 69.2964C9.99343 70.7466 13.9696 72.9437 17.3707 76.2055C19.9618 78.6907 21.6171 81.9096 23.0668 85.2536C24.6116 88.807 24.515 92.5507 24.3363 96.4194L19.1782 96.4225C18.779 94.6421 18.4873 92.7671 17.9331 90.9869C15.3492 82.66 10.1225 77.2336 2.07618 75.2552C1.74344 75.173 1.40497 75.1201 1.06412 75.097L1.06477 76.7255C3.4082 76.7004 5.49271 77.706 7.4983 79.0326C12.6198 82.4454 16.1227 87.241 17.2353 93.7545C17.3938 94.6801 17.5017 95.6194 17.6539 96.714L11.886 98.1196C11.6579 97.2176 11.4204 96.3122 11.1986 95.4171C10.1977 91.3632 8.2672 88.0026 4.74329 85.9302C3.61977 85.2226 2.35904 84.8003 1.05842 84.6958L1.05898 86.1216C2.9565 86.0867 4.73749 87.2749 6.65799 89.3483C8.85056 91.712 9.78792 94.8165 10.3806 98.0157C10.3776 98.2265 10.3297 98.4338 10.2404 98.6218C10.1512 98.8098 10.023 98.9735 9.86551 99.1006C8.7052 99.9899 7.48477 100.791 6.47303 101.495C5.64685 99.5829 5.00405 97.5662 3.96605 95.8167C3.16539 94.4657 2.11515 93.7906 1.06202 93.7912L1.06285 95.8928C1.59872 95.9598 2.09454 96.2291 2.46099 96.6521C4.25808 98.5262 4.82197 100.982 4.80083 103.469C4.80128 104.584 3.72326 105.669 3.19557 106.801C2.41192 108.491 1.68521 110.198 1.12594 111.465L1.06897 111.347L1.0731 121.794C5.24135 121.791 8.68626 124.05 11.3315 127.369C14.1602 130.918 14.9588 135.138 13.9771 139.767C13.7656 140.761 13.4685 141.136 12.5387 141.066C11.6088 140.995 10.7613 141.067 9.81254 141.067C9.81185 139.307 9.84286 137.78 9.81064 136.253C9.68515 130.847 6.61289 127.206 2.89641 126.002C2.30692 125.811 1.69398 125.715 1.07783 125.716L1.07844 127.271C3.53575 127.269 5.91463 128.906 7.25344 131.534C8.81696 134.608 8.69177 137.953 8.22188 141.301C8.18719 141.555 7.90581 141.818 7.67817 141.977C6.52732 142.792 5.3575 143.577 4.08016 144.449C4.33251 142.787 4.7367 141.212 4.77402 139.624C4.82401 137.95 4.65949 136.277 4.28503 134.651C3.94291 133.229 2.38655 132.236 1.08042 132.257L1.08104 133.835C1.74518 133.835 2.66264 134.655 3.01396 135.368C3.40705 136.282 3.57408 137.288 3.49901 138.29C3.39108 141.57 2.65168 144.791 1.32691 147.752C1.30163 147.806 1.23205 147.837 1.08028 147.901L1.08299 154.76C1.22531 154.759 1.36762 154.759 1.51309 154.759C4.49226 154.872 7.20694 157.912 7.36632 161.081C7.39185 161.658 7.5502 162.226 7.56623 162.8C7.59833 163.983 7.5355 165.03 6.10618 165.426C3.79145 166.063 2.12225 167.628 1.10178 170.217C1.10124 170.206 1.10123 170.194 1.10176 170.183L1.10416 176.228L1.12627 176.228C1.58801 176.227 2.2208 176.903 2.44873 177.46C4.06315 181.307 2.83429 184.795 1.10906 188.611L1.11416 201.507C1.11415 201.473 1.14258 201.443 1.15522 201.412C2.68423 205.189 4.10239 208.546 2.56055 212.284C2.29515 212.93 1.64385 213.393 1.16967 213.937L1.11907 213.886L1.12146 219.931C1.12754 219.914 1.13492 219.899 1.14355 219.884C2.18508 222.528 3.99149 223.987 6.37637 224.786C6.64207 224.906 6.87783 225.09 7.06466 225.325C7.25151 225.56 7.38422 225.838 7.45216 226.137C7.68718 228.634 7.13826 232.07 5.00425 233.859C3.90116 234.79 2.53351 235.292 1.12753 235.28L1.13022 242.075L1.66465 242C2.29835 245.014 3.0459 248.01 3.51517 251.054C3.66948 252.317 3.50288 253.6 3.03277 254.771C2.77371 255.43 1.83154 256.123 1.13581 256.188L1.13647 257.85L1.29142 257.85C2.64813 257.781 4.22579 256.598 4.45283 254.949C4.73033 252.922 4.6441 250.793 4.59899 248.715C4.57645 247.702 4.28193 246.665 4.12021 245.607C5.34445 246.441 6.65084 247.082 7.61898 248.082C8.17581 248.652 8.35971 249.794 8.44546 250.706C8.82972 254.713 8.28404 258.403 5.14791 261.182C4.03946 262.232 2.60996 262.812 1.12893 262.813L1.12953 264.34C2.87846 264.393 4.43412 263.629 5.83151 262.493C8.58205 260.261 9.83953 257.172 9.85705 253.496C9.85649 252.07 9.85592 250.645 9.85527 248.996C10.9116 248.995 12.0437 248.934 13.1602 249.038C13.4416 249.065 13.8277 249.581 13.9195 249.946C15.6902 256.98 12.2995 263.867 6.96841 266.334C5.26095 267.125 3.49035 268.258 1.72884 268.317C1.52643 268.317 1.32718 268.317 1.12795 268.317L1.13209 278.791L1.17317 278.71C1.95183 280.378 2.83823 282.608 4.02182 284.651C4.80667 286.002 5.22782 287.326 4.65596 288.78C4.07295 290.387 3.34262 291.929 2.47562 293.383C2.343 293.635 2.14744 293.843 1.91072 293.983C1.67399 294.123 1.40545 294.191 1.13501 294.177L1.13585 296.296C2.21428 296.295 3.29875 295.517 4.18997 293.98C5.15705 292.307 5.76984 290.391 6.52496 288.572L10.5615 291.428C9.61477 296.578 7.96575 301.204 2.97616 303.525C2.40229 303.799 1.78317 303.949 1.15473 303.965L1.15531 305.449C3.30587 305.512 5.09535 304.223 6.75828 302.742C9.1498 300.615 10.7642 297.656 11.3185 294.384C11.4668 293.563 11.7512 292.769 11.9722 291.951L17.6654 293.38C17.1531 301.621 13.218 307.425 6.97046 311.523C5.23276 312.713 3.21264 313.346 1.14893 313.348L1.14954 314.868C3.53412 314.908 5.68743 313.933 7.6762 312.722C12.2671 309.926 15.7538 305.872 17.6207 300.486C18.2336 298.718 18.5143 296.809 18.8488 294.944C19.0223 293.981 19.2656 293.416 20.3378 293.5C21.6629 293.601 23.0038 293.522 24.291 293.522C25.3216 300.697 23.1608 306.662 19.0484 311.949C14.936 317.235 9.31089 319.857 3.23943 321.466C2.55044 321.636 1.84298 321.706 1.13642 321.673L1.14192 335.576L1.14192 335.556C2.17068 337.904 3.33552 340.525 4.45296 343.166C4.52284 343.347 4.55594 343.542 4.55002 343.738C4.5441 343.934 4.4993 344.126 4.41862 344.302C3.43569 345.877 2.37999 347.404 1.15681 349.24L1.13783 349.213L1.13839 350.632C1.66655 350.632 2.19125 349.891 3.42403 348.387C4.26488 347.373 4.92854 346.163 5.63652 345.091L10.6447 349.896C7.4838 354 4.40505 357.985 1.14298 362.221L1.14357 363.707C1.35287 363.683 1.55462 363.61 1.73444 363.493C1.91425 363.376 2.06771 363.219 2.1838 363.031L11.8595 350.761L18.4551 355.118L1.17329 374.887L1.17401 376.685C1.62309 376.685 2.06885 376.228 2.85912 375.309C6.58921 370.965 10.3541 366.651 14.1063 362.328C15.7153 360.462 17.3718 358.63 18.9396 356.72C19.515 356.017 19.9766 355.705 20.8149 356.239C22.5579 357.346 24.3419 358.372 26.5562 359.698L1.17835 387.655L1.1789 389.047C1.58687 389.047 1.9884 388.763 2.49735 388.205ZM91.3008 361.778L56.3441 351.173C57.5102 348.973 58.4235 347.225 59.3558 345.495C59.8835 344.522 60.5159 344.19 61.6704 344.578C69.2773 347.128 76.9127 349.583 84.5418 352.058C86.4396 352.672 86.5249 352.554 86.9573 350.486C88.1253 344.917 89.3312 339.355 90.5276 333.789C91.1242 331.005 91.7619 328.231 92.3206 325.436C92.4879 324.605 92.7217 324.085 93.6325 324.118C95.6092 324.164 97.5889 324.115 99.9229 324.114C97.6952 336.914 94.2307 349.103 91.3008 361.778ZM67.527 327.367C68.7637 327.957 70.0132 328.534 71.2468 329.142C73.907 330.451 74.2264 330.329 74.7976 327.315C75.0911 325.771 75.1696 324.183 75.3492 322.585C77.2121 322.989 79.0402 323.329 80.8367 323.818C81.2068 323.916 81.751 324.618 81.7006 324.953C80.994 329.683 80.1958 334.414 79.4133 339.145C79.4134 339.226 79.2774 339.29 78.996 339.577L65.4455 334.18C66.1751 331.787 66.8195 329.682 67.5238 327.367L67.527 327.367ZM66.985 316.515C68.2505 317.602 69.4529 319.145 70.9743 319.793C74.207 321.173 74.053 323.724 73.6335 326.549C73.5547 327.069 73.4632 327.59 73.318 328.458C71.4644 327.577 69.6741 326.771 67.9185 325.853C67.7097 325.748 67.6241 325.225 67.6019 324.887C67.3794 322.11 67.1854 319.353 66.9819 316.515L66.985 316.515ZM70.9372 337.987C73.5815 339.02 76.2479 339.995 78.9049 341C79.993 341.411 80.521 341.107 80.7197 339.796C81.1108 337.191 81.7107 334.626 82.1271 332.024C82.5436 329.422 82.8367 326.814 83.2024 324.084L91.0552 324.454C89.1611 333.24 87.2671 341.971 85.373 350.764L61.1574 342.869L64.8483 335.487C66.9075 336.321 68.9097 337.185 70.9372 337.987ZM120.573 295.623C120.432 302.725 120.34 309.829 120.296 316.936C120.297 318.821 120.548 320.706 120.675 322.493L102.016 322.505C100.02 322.506 98.0247 322.47 96.0323 322.508C94.6503 322.543 93.2715 322.767 91.8894 322.784C89.3183 322.816 86.7377 322.892 84.1759 322.701C82.1171 322.55 80.0644 322.072 78.037 321.671C74.3334 320.94 71.483 318.573 68.6421 316.125C65.4183 313.343 64.1611 309.188 62.0124 305.868L64.5413 302.897C65.6963 304.663 66.6332 306.48 67.9019 307.963C72.3316 313.153 77.6428 316.478 84.332 317.552C89.7087 318.417 95.085 318.35 100.461 318.481C105.36 318.6 110.265 318.138 115.18 317.973C116.002 317.945 116.324 317.685 116.334 316.772C116.333 315.404 116.535 314.032 116.557 312.66C116.649 306.579 116.827 300.456 116.749 294.358C116.664 287.729 116.19 281.087 113.404 275.024C112.363 272.761 110.556 270.887 109.066 268.87C108.407 267.884 107.648 266.978 106.804 266.169C105.39 264.943 103.836 263.897 102.153 262.634L104.999 259.99C108.112 262.222 111.929 263.726 114.682 267.08C118.223 271.406 120.226 276.304 120.551 282.017C120.704 284.753 120.977 287.49 121.01 290.227C121.023 292.038 120.6 293.822 120.566 295.609L120.573 295.623ZM25.9697 324.104C27.6369 325.37 29.1079 326.278 30.3006 327.497C30.7847 327.99 30.8863 329.186 30.776 330.014C30.2526 333.924 29.1978 337.803 29.0918 341.716C28.9609 346.446 29.7565 351.115 32.8194 354.934C32.87 354.995 32.8384 355.127 32.8798 355.698C29.7923 353.527 26.8693 351.62 24.0917 349.473C21.776 347.68 21.3132 344.977 22.0047 342.189C22.6962 339.402 23.6882 336.654 24.5947 333.91C25.6119 330.805 26.863 327.766 25.9634 324.091L25.9697 324.104ZM30.5046 339.549C30.7058 336.434 31.6502 333.335 32.5503 330.327C33.2515 327.979 35.1582 327.261 36.9045 328.635C43.1651 333.558 47.2884 339.968 47.3741 348.503C47.4233 353.091 45.5179 357.211 42.8533 360.837C33.3545 356.542 29.8162 350.017 30.4983 339.536L30.5046 339.549ZM42.0701 331.585C40.9026 330.214 39.7003 328.884 38.498 327.533C37.7671 326.726 37.5138 325.956 38.0857 324.83C38.7936 323.455 39.2896 321.951 40.0415 320.099C41.8526 325.342 46.164 327.582 49.4291 330.905C50.5744 332.07 51.8082 333.178 52.7702 334.501C54.577 336.99 54.4104 339.771 53.1749 342.448C51.8636 345.283 50.3814 348.024 48.8962 350.961C48.772 348.779 48.8377 346.822 48.5175 344.941C47.6489 339.819 45.3354 335.425 42.0701 331.585ZM45.9072 325.937C43.4646 323.911 41.6361 321.159 40.651 318.027C40.3344 317.014 40.4004 315.838 40.2924 314.737L40.6433 314.328C45.6887 317.207 50.7657 320.011 55.7479 323.026C56.8835 323.718 57.7032 325.085 58.5322 326.251C59.1999 327.193 59.0232 328.277 58.6441 329.379C57.826 331.745 57.0964 334.134 56.2404 336.797C53.4428 332.126 49.6434 329.05 45.9072 325.937ZM44.4576 315.069C41.9271 314.006 39.738 312.43 38.3296 309.754C37.4688 308.116 36.2854 306.671 35.1652 305.026C37.2275 305.941 39.1318 306.875 41.0992 307.634C43.9997 308.751 47.0484 308.878 50.0717 308.626C52.9496 308.384 54.6074 310.022 55.9777 312.339C57.4872 314.899 58.2537 317.723 58.5964 320.699C58.7265 321.835 58.8725 322.966 59.0152 324.132C54.8611 319.813 49.7558 317.282 44.4576 315.069ZM54.9096 306.575C49.1321 307.717 43.4205 307.707 38.0557 304.798C33.1716 302.149 29.0368 298.617 27.2729 292.641L31.4813 290.091C33.4333 292.094 35.1419 294.191 37.1761 295.832C40.2364 298.31 43.8898 299.814 47.7155 300.17C49.4771 300.332 51.2486 300.328 53.0096 300.157C57.8418 299.738 60.4938 296.226 62.6142 292.1C64.3459 288.72 64.8252 285.003 65.0735 281.243C65.2809 277.914 64.3499 274.753 63.2007 271.682C63.093 271.395 62.9886 271.108 62.8493 270.733L67.3042 267.906C73.4014 275.47 73.0743 287.911 67.9066 295.871C66.4148 298.166 64.7617 300.353 63.0706 302.489C60.9685 305.18 57.9644 305.979 54.9096 306.575ZM10.9956 205.579C13.061 206.345 14.9778 206.969 17.0205 206.133C17.1876 206.089 17.3616 206.083 17.5311 206.115C17.7006 206.148 17.8618 206.218 18.0041 206.322C20.7152 208.421 22.1962 210.806 21.2078 214.428C20.9773 215.287 19.9435 216.26 19.1213 216.511C16.2121 217.374 13.2609 215.92 11.7702 213.137C11.5546 212.726 11.4933 212.243 11.5989 211.785C12.2622 209.71 11.7049 207.761 10.9956 205.579ZM11.573 178.211C11.4368 177.806 11.6232 177.15 11.8634 176.748C13.5194 173.967 16.1976 172.674 19.1043 173.548C19.5867 173.735 20.0265 174.029 20.3947 174.41C20.7628 174.792 21.0509 175.253 21.2399 175.763C22.1235 178.752 20.5878 182.217 17.9888 183.725C17.739 183.87 17.3564 184.063 17.1603 183.969C15.0852 182.882 13.1343 183.779 11.0188 184.412C11.6695 182.266 12.2759 180.336 11.573 178.211ZM24.4753 56.1555C23.6838 53.8754 22.8321 51.6054 22.2019 49.2745C20.5328 43.1094 22.6921 41.3073 26.1952 38.7611C28.284 37.2675 30.4934 35.976 32.7971 34.902C32.3412 35.4386 31.9298 36.0166 31.5675 36.6292C29.3271 41.2053 28.4087 46.0915 29.1096 51.1928C29.5315 54.2672 30.2348 57.2974 30.8179 60.3447C31.0112 61.3581 30.904 62.1218 29.9618 62.7576C28.6434 63.6537 27.4325 64.7491 25.8802 66.0069C26.7073 62.2797 25.5391 59.2295 24.4753 56.1555ZM31.7173 39.6733C33.082 35.6519 36.1771 33.1735 39.3578 30.8842C40.3347 30.1808 41.4699 29.7308 42.6587 29.0949C45.6111 33.3333 47.5389 37.8765 47.2468 43.1136C47.1212 45.3741 46.3631 47.6585 45.567 49.7943C43.937 54.0986 41.2616 57.8605 37.8167 60.6918C35.1073 62.9707 33.3646 62.4717 32.1235 59.0667C29.806 52.6622 29.5061 46.1516 31.7173 39.6733ZM38.5511 62.2794C41.004 59.1695 43.5803 56.1339 45.6979 52.7742C47.6985 49.5971 48.6173 45.8597 48.7644 41.991C48.7957 41.1261 48.5803 40.2477 48.428 38.9707C48.7711 39.4177 49.0882 39.8869 49.3773 40.3756C50.7225 43.0778 52.1277 45.7495 53.3495 48.5159C54.8689 51.9646 53.6272 54.8575 51.2625 57.2274C48.7714 59.7257 46.0209 61.9303 43.5456 64.4455C42.1104 65.9026 40.9947 67.721 39.7146 69.4043C39.2112 68.1613 38.7457 66.7019 38.04 65.3712C37.3342 64.0404 37.7735 63.2664 38.5606 62.2692L38.5511 62.2794ZM56.1376 53.1734C57.1319 56.3082 58.3948 59.1253 58.8324 62.0847C59.1147 64.0003 57.4708 65.6028 55.9501 66.7963C52.2921 69.6772 48.2576 71.8014 44.0394 73.5609C42.8062 74.0752 41.63 74.755 40.2451 75.4485C40.186 70.0156 42.9234 66.4562 46.5844 63.3963C50.0684 60.502 53.546 57.5672 56.1376 53.1734ZM46.2218 74.0596C50.9534 72.4854 55.2617 69.7192 58.7834 65.9939C58.5919 69.4774 58.2104 72.6029 56.9434 75.5364C56.5018 76.5431 55.9839 77.5096 55.3949 78.4261C54.1149 80.4541 52.4582 81.6174 50.0197 81.4296C44.7887 81.0273 39.8366 82.054 35.2647 85.0402C38.106 80.4502 40.7513 75.8907 46.2218 74.0596ZM44.3089 83.119C49.1756 82.143 53.9957 82.9037 58.6769 84.4619C59.9157 84.8583 61.0537 85.5509 62.0047 86.487C66.4341 91.0963 70.1395 96.2803 71.2711 102.959C72.3045 109.04 71.9464 114.987 68.4317 120.28C68.0587 120.838 67.7237 121.426 67.3097 122.099L63.055 119.398C63.6674 116.648 64.3812 114.062 64.8007 111.427C65.3844 107.761 64.7062 104.176 63.639 100.693C62.7404 97.8775 61.2941 95.2968 59.395 93.121C57.5251 90.9057 55.137 90.0287 52.5278 89.7836C43.9886 88.9812 37.1493 92.2964 32.013 99.6245C31.9245 99.7496 31.8202 99.8611 31.659 100.057L27.0944 97.3131C30.3137 89.0469 36.3683 84.7084 44.3089 83.119ZM76.5202 93.0566C76.8724 95.9148 77.3668 98.7188 76.28 101.47C75.3764 103.758 74.3305 105.978 73.5311 107.81C72.8056 104.648 72.118 101.097 71.1394 97.6414C70.6243 96.0346 69.8581 94.5328 68.8732 93.1997C67.0316 90.5587 67.6821 88.0851 68.9018 85.4997C70.6429 81.8024 73.716 79.5503 76.7289 76.974C75.6937 82.4447 75.8666 87.7694 76.5202 93.0566ZM107.476 142.573C107.377 140.019 108.423 138.349 110.235 136.963C113.662 134.322 117.618 133.634 121.935 133.239C117.977 137.681 115.708 142.781 113.753 148.07C112.615 151.152 111.076 153.815 108.234 155.476C106.792 156.325 105.534 157.531 104.396 158.421C105.27 155.663 106.398 152.814 107.03 149.82C107.519 147.482 107.565 144.985 107.476 142.573ZM103.985 231.144C107.936 234.5 112.425 236.646 113.97 242.25C115.161 246.561 118.68 253.485 121.958 256.595C117.141 256.358 114.624 255.68 111.309 253.682C108.854 252.204 107.345 250.258 107.511 246.927C107.797 241.467 107.428 238.338 103.985 231.144ZM115.021 316.31C110.094 317.107 105.448 316.62 101.399 313.832C97.6977 311.28 95.1566 307.44 93.621 303.025C92.7053 300.405 92.0605 297.686 91.6981 294.917C91.3968 292.552 92.5601 291.406 94.8246 291.587C99.5876 291.973 103.817 293.97 107.711 296.874C113.231 300.992 115.349 306.759 115.026 313.763C114.985 314.608 115.021 315.449 115.021 316.31ZM76.8508 313.002C73.0798 309.926 69.3785 307.067 68.0609 301.996C67.6459 300.402 67.6517 298.983 68.6062 297.509C71.7121 292.811 73.3189 287.17 73.1887 281.42C75.7873 286.774 77.8892 291.722 76.5823 297.886C75.5627 302.684 75.7829 307.772 76.8508 313.002ZM72.8795 275.318C72.2462 273.383 71.5908 271.464 70.9323 269.502C74.633 270.959 78.3242 272.312 81.9428 273.864C86.7887 275.939 90.1171 279.602 91.3243 285.129C91.5967 286.376 91.4297 287.778 91.2562 289.076C91.0544 290.606 89.9921 291.266 88.6101 291.375C84.0878 291.742 80.5576 289.717 77.713 286.127C75.2165 282.983 74.1081 279.119 72.8795 275.318ZM77.5103 301.237C77.6102 297.882 78.1971 294.547 78.5815 291.1C81.789 292.788 83.5454 295.78 84.4102 299.354C85.1135 302.266 85.3993 305.29 86.033 308.226C86.6445 311.077 87.4647 313.881 88.2027 316.739C85.7135 316.22 82.9146 315.941 80.3588 314.953C79.2961 314.541 78.258 312.69 78.0709 311.359C77.6011 308.01 77.4135 304.622 77.5103 301.237ZM87.8745 310.647C87.2949 308.367 86.9872 306.005 86.6067 303.671C86.0393 300.188 85.6868 296.64 83.2093 293.567C85.265 293.748 87.0234 293.754 88.7029 294.138C89.2437 294.26 89.7881 295.32 89.9687 296.057C91.337 301.279 92.8507 306.424 96.2363 310.639C98.3436 313.266 100.533 315.809 103.898 316.675C103.87 316.858 103.842 317.04 103.816 317.226C100.442 316.995 97.0642 316.787 93.6959 316.526C90.3277 316.264 88.6791 313.806 87.8745 310.647ZM98.341 290.632C93.9919 289.243 94.0045 289.199 93.5947 284.368C93.5565 283.922 93.5058 283.472 93.4295 282.709C98.1749 286.527 103.788 285.933 108.887 287.365C113.049 288.535 114.679 290.383 115.234 294.852C115.338 295.677 115.394 296.507 115.402 297.339C115.426 299.771 115.404 302.207 115.405 304.836C112.015 296.709 105.689 292.983 98.341 290.632ZM101.005 284.438C98.1456 284.008 95.4612 282.714 93.2675 280.709C92.388 279.908 91.774 278.777 90.7361 277.406C96.2799 277.065 101.356 276.622 106.435 276.538C108.237 276.507 110.069 277.306 111.859 277.839C112.928 278.16 113.52 278.98 113.72 280.237C114.138 282.875 114.692 285.494 115.238 288.362C110.613 285.793 105.783 285.198 101.005 284.438ZM99.6758 275.204C97.462 275.317 95.2738 275.802 93.0664 276.019C91.0361 276.216 89.17 275.62 87.3732 274.59C85.8074 273.696 84.1278 273.031 82.1825 272.117C83.9819 271.903 85.4967 271.777 86.9957 271.529C90.392 270.991 93.6169 269.586 96.3963 267.432C98.5146 265.792 100.649 265.889 102.835 266.925C106.694 268.75 109.162 272.195 111.719 275.913C107.493 274.669 103.572 275.006 99.6758 275.204ZM99.9239 262.963C96.0606 266.3 91.9852 269.154 86.9856 270.029C80.623 271.138 74.6517 270.307 69.4443 265.627L71.8461 261.291C75.1544 261.998 78.2321 263.172 81.3156 263.197C86.6382 263.245 91.6502 261.732 95.8834 257.888C99.3293 254.757 99.9444 250.638 99.8256 246.242C99.729 242.344 98.6336 238.549 96.6587 235.27C94.9182 232.386 92.501 229.968 90.2482 227.182C90.8802 226.013 91.7145 224.411 92.552 222.822C100.915 225.655 106.53 236.764 106.137 244.475C105.999 247.178 105.766 249.854 105.533 252.54C105.175 256.936 103.079 260.238 99.9239 262.963ZM59.487 213.679C59.4301 213.608 59.4427 213.476 59.3666 213.112C62.8901 214.018 66.2553 214.831 69.5796 215.808C70.0382 215.943 70.5129 216.838 70.6049 217.45C71.2707 221.815 73.6659 224.682 77.5657 225.635C81.6079 226.626 86.0285 224.955 87.3674 219.909C89.18 213.083 83.2513 208.009 77.8248 208.945C75.1526 209.406 73.1608 210.84 71.5013 213.003C71.2452 213.341 70.6983 213.76 70.4073 213.679C66.9471 212.668 63.5121 211.535 60.0202 210.428C61.8382 209.316 63.6405 208.429 65.2118 207.205C68.503 204.639 69.8804 200.743 71.1533 196.809C71.286 196.4 71.7063 195.748 71.9341 195.775C74.7236 196.111 77.6426 196.143 80.2616 197.087C87.2834 199.621 91.2198 205.044 91.7511 213.004C91.9261 215.606 92.041 218.356 91.4379 220.829C90.8507 223.252 89.5423 225.591 88.1421 227.65C86.2773 230.387 84.1373 233.004 81.1049 234.371C79.6127 235.05 78.0418 235.513 76.4344 235.745C71.6497 236.383 67.2974 234.825 63.2104 232.314C62.8624 232.101 62.4984 231.361 62.5774 230.986C64.0202 224.687 63.6921 218.799 59.487 213.679ZM22.9772 218.36C25.3686 219.687 27.7819 220.249 30.394 219.825C30.5881 219.824 30.7802 219.869 30.9559 219.957C31.1317 220.045 31.2866 220.174 31.4094 220.335C32.3966 221.781 33.4409 223.206 34.2163 224.78C35.0424 226.469 34.594 228.219 33.2884 229.51C31.9828 230.802 30.5187 231.259 28.9434 230.331C27.5432 229.452 26.1942 228.484 24.9036 227.431C24.7452 227.308 24.6141 227.149 24.5195 226.966C24.4249 226.782 24.3691 226.579 24.3561 226.37C24.7376 223.559 24.2211 220.934 22.9772 218.36ZM26.2504 218.145C25.6494 217.902 25.0579 217.629 24.4853 217.325C22.3343 216.181 22.366 216.181 22.814 213.61C23.1895 211.471 22.5657 209.556 21.2936 207.411C24.2096 207.852 26.2869 206.658 28.1584 204.849C28.2868 204.727 28.437 204.634 28.6001 204.576C28.7632 204.517 28.9357 204.495 29.1071 204.511C32.9626 205.471 35.542 210.419 34.228 214.34C33.4414 216.692 29.9195 219.643 26.2504 218.145ZM22.5173 175.009C22.4863 174.795 22.503 174.576 22.5661 174.371C22.6292 174.165 22.737 173.978 22.8805 173.826C25.8208 171.429 29.4857 170.362 32.6147 173.411C33.2229 173.994 33.7141 174.702 34.0584 175.494C34.4028 176.285 34.5932 177.143 34.6181 178.016C34.6429 178.888 34.5018 179.757 34.2032 180.57C33.9046 181.382 33.4547 182.122 32.8809 182.743C31.927 183.743 30.852 184.601 29.6845 185.296C29.4181 185.405 29.1309 185.444 28.8474 185.41C28.5638 185.375 28.2923 185.268 28.0557 185.097C26.186 183.352 24.1299 182.255 21.2806 182.588C22.9178 180.022 23.233 177.61 22.5173 175.009ZM24.3693 163.942C24.3521 163.715 24.3813 163.486 24.4549 163.272C24.5285 163.058 24.6448 162.863 24.7958 162.702C26.0579 161.613 27.4008 160.634 28.8111 159.777C30.5691 158.786 32.0145 159.174 33.3718 160.646C34.6374 162.027 35.0017 163.605 34.1137 165.41C33.3648 166.937 32.3439 168.316 31.383 169.712C31.2628 169.874 31.1099 170.005 30.9358 170.094C30.7616 170.184 30.5708 170.23 30.3775 170.23C27.6606 169.66 25.2258 170.493 22.8291 171.809C24.1338 169.437 24.6749 166.674 24.3693 163.942ZM63.1614 164.561C62.9172 162.703 62.6508 160.845 62.4982 158.98C62.5044 158.739 62.5619 158.503 62.6665 158.29C62.7711 158.077 62.92 157.892 63.1018 157.75C68.0689 154.547 73.4289 153.26 79.0968 154.801C80.9408 155.303 82.7313 156.548 84.2119 157.879C85.9424 159.435 87.3916 161.381 88.8124 163.282C91.9545 167.507 92.6996 172.361 91.6454 177.538C91.1722 179.963 90.5315 182.348 89.7285 184.672C88.7808 187.342 86.6847 188.951 84.5443 190.601C80.7314 193.539 76.3704 193.846 71.9841 194.234C71.8083 194.208 71.6413 194.136 71.4987 194.023C71.356 193.911 71.2422 193.761 71.1679 193.589C69.5334 187.069 66.4194 181.946 59.9606 179.618C63.3694 178.535 66.7718 177.418 70.2028 176.416C70.5791 176.308 71.2719 176.733 71.5693 177.128C74.1735 180.576 77.5262 181.726 81.5075 180.859C84.5117 180.205 87.2363 176.517 87.5766 173.341C87.8382 170.895 87.1732 168.864 85.8822 167.01C83.6165 163.755 78.0217 163.045 74.8316 165.524C72.5774 167.275 70.899 169.418 70.644 172.523C70.5402 173.794 69.8667 174.213 68.7473 174.461C65.9392 175.077 63.1691 175.883 60.38 176.604C60.1017 176.675 59.8171 176.706 59.2447 176.808C59.9938 175.598 60.6101 174.621 61.2137 173.634C62.9004 170.975 63.5951 167.739 63.1614 164.561ZM80.4393 142.775C79.3653 142.667 78.2843 142.668 77.2104 142.777C76.2016 142.903 75.2181 143.275 74.105 143.569C74.2407 142.66 74.4206 141.802 74.4803 140.93C74.5401 140.059 74.4796 139.133 74.4792 138.129C78.0081 136.712 81.61 136.068 85.3075 137.356C89.2391 138.729 90.6855 141.488 89.8303 146.209C89.3363 148.878 88.0786 151.318 86.2309 153.191C85.4912 153.969 84.7261 154.723 83.958 155.504L79.4061 153.111C80.1679 152.239 81.0563 151.421 81.7137 150.407C82.3764 149.416 82.9002 148.328 83.2684 147.176C84.0233 144.773 82.8208 142.956 80.4393 142.775ZM89.576 150.878C90.4335 149.506 91.0242 147.964 91.3132 146.343C91.6021 144.723 91.5833 143.057 91.2579 141.444C90.6462 138.204 86.4326 135.328 82.53 135.29C81.1379 135.228 79.7436 135.279 78.3586 135.441C77.002 135.651 75.6866 136.166 74.2794 136.565C73.7125 134.576 73.1678 132.677 72.5724 130.603C75.5192 128.932 78.6593 127.994 81.9452 128.205C85.149 128.409 88.3181 128.968 91.2631 130.642C95.059 132.802 97.976 135.531 98.2879 140.477C98.8416 149.16 95.7893 156.02 89.1658 161.184L85.2108 156.672C86.6933 154.742 88.3023 152.923 89.576 150.868L89.576 150.878ZM76.569 144.517C77.6691 144.291 78.7984 144.279 79.9024 144.482C81.5154 144.744 82.0376 145.879 81.4848 147.498C80.761 149.496 79.4441 151.185 77.7359 152.308C77.2396 152.646 76.5312 152.731 75.9113 152.779C73.3624 152.966 70.8071 153.093 68.9128 153.205C69.8325 151.691 71.2928 149.795 72.2407 147.649C73.1887 145.57 74.7919 144.924 76.569 144.507L76.569 144.517ZM93.9274 198.123C96.6085 196.344 96.5979 193.587 93.8932 191.808C92.2894 190.752 90.4549 190.091 88.7151 189.247C89.4041 188.095 90.2037 186.719 91.0476 185.381C91.1315 185.261 91.2403 185.164 91.3654 185.097C91.4906 185.03 91.6286 184.995 91.7685 184.995C95.6872 185.834 99.3216 187.271 101.698 190.996C104.075 194.722 103.506 197.124 100.225 200.832C98.0123 203.321 94.964 204.316 91.8713 204.99C91.7137 204.993 91.5577 204.956 91.4155 204.884C91.2734 204.811 91.1489 204.704 91.052 204.571C90.2166 203.268 89.4381 201.924 88.7418 200.762C90.4999 199.886 92.3212 199.192 93.9274 198.123ZM86.8784 198.979C85.9296 198.979 84.9804 197.949 84.0315 197.437C82.3423 196.539 80.6374 195.682 79.429 195.074C81.44 193.924 83.8967 192.453 86.423 191.134C86.9574 190.853 87.8176 190.934 88.406 191.183C90.0887 191.847 91.7135 192.668 93.2615 193.637C94.2105 194.271 94.1319 195.42 93.3321 196.34C91.5967 198.368 89.2534 198.94 86.8784 198.979ZM95.9005 205.302C99.8404 203.718 102.901 201.105 104.246 196.657C105.162 193.616 103.722 191.228 102.067 189.124C100.019 186.481 97.1618 184.696 94.0009 184.085C93.2867 183.905 92.5815 183.687 91.888 183.431C92.2479 181.67 92.6394 180.051 92.8917 178.386C93.0211 177.551 93.3088 177.372 94.0647 177.435C97.9329 177.798 101.611 179.39 104.623 182.007C108.318 185.188 110.986 188.987 111.854 194.014C111.996 195.153 111.879 196.312 111.514 197.393C108.934 205.841 103.268 210.575 95.3214 212.451C94.6668 212.607 93.952 212.472 93.1361 212.473C92.7369 210.598 92.325 208.652 91.8687 206.537C93.1937 206.141 94.5851 205.83 95.9005 205.302ZM52.8873 198.935C54.457 198.99 56.0269 198.829 57.5582 198.456C58.9337 198.117 60.0209 196.299 59.935 194.947C59.83 193.258 58.8871 192.11 57.47 191.479C55.4646 190.592 53.4027 190.856 51.3441 191.31C50.4333 191.51 49.5163 191.649 48.498 191.842C49.326 190.426 50.0782 189.139 50.8399 187.847C50.9631 187.641 51.1781 187.384 51.3741 187.361C55.0046 186.929 58.5908 186.681 61.7418 189.311C66.1708 193.025 65.2023 199.005 60.3045 201.721C57.4968 203.281 54.4575 203.097 51.4498 202.619C51.1841 202.578 50.9183 202.207 50.7411 201.923C50.0037 200.741 49.298 199.532 48.5005 198.208C49.987 198.46 51.4388 198.892 52.8968 198.935L52.8873 198.935ZM47.9084 196.374C46.9595 196.101 46.077 195.577 44.8497 195.024C48.7167 193.126 52.35 191.979 56.3193 192.652C57.5117 192.861 58.4164 193.512 58.4739 194.894C58.5314 196.377 57.5892 197.057 56.3654 197.348C53.453 198.056 50.6791 197.163 47.9084 196.374ZM51.6275 204.142C53.8128 204.141 55.8495 204.326 57.845 204.098C61.4059 203.687 64.8771 200.344 65.7486 197.025C66.9233 192.494 63.7147 188.174 60.384 186.669C57.9579 185.573 55.3898 185.415 52.7935 185.836C52.4397 185.862 52.0847 185.862 51.7309 185.837C51.6933 185.666 51.6647 185.494 51.6453 185.32C51.4919 181.164 51.6657 180.927 55.6284 180.878C61.2197 180.79 65.3921 183.345 67.8579 188.749C68.6904 190.573 69.757 192.583 69.7356 194.492C69.6491 199.773 67.2662 203.954 63.1434 206.95C59.8806 209.317 56.3134 209.596 52.5938 208.646C52.2301 208.555 51.7207 208.079 51.6858 207.737C51.6111 206.542 51.5938 205.343 51.6338 204.146L51.6275 204.142ZM75.9171 167.212C77.0396 166.732 78.2856 166.569 79.4746 166.264C83.6619 166.481 86.3673 170.108 85.4297 174.43C84.9846 176.485 83.3088 177.31 81.8259 178.206C78.7748 180.053 74.0971 179.502 72.4003 175.219C71.2702 172.374 72.7772 168.549 75.9171 167.212ZM57.2079 176.566C55.5798 178.067 53.3379 178.815 51.3427 179.928L49.3521 176.337C51.5272 174.609 53.8796 173.118 55.7953 171.14C59.1304 167.702 59.0678 161.256 55.8377 158.447C52.8924 155.884 49.4798 155.497 46.0015 156.861C44.079 157.616 42.3243 158.864 40.4873 159.905C39.8986 158.841 39.2561 157.673 38.6105 156.501C43.2097 150.562 51.3563 150.188 56.1585 154.027C58.2307 155.681 60.5462 156.988 61.2557 159.927C62.7889 166.264 62.0575 172.099 57.2079 176.566ZM52.0447 163.73C51.1933 162.004 49.5928 161.342 47.0821 162.27C45.4062 162.889 43.9773 164.279 42.466 165.364C41.9039 165.812 41.3636 166.29 40.8473 166.798C40.0934 163.69 40.9148 161.473 43.2956 159.893C45.8914 158.169 48.5728 157.093 51.7261 157.861C57.5933 159.304 57.8805 165.993 55.1907 169.718C53.4301 172.155 50.9828 173.529 48.39 174.659C48.1268 174.778 47.8311 174.788 47.5614 174.686C46.2961 174.011 45.0308 173.279 43.8984 172.627C46.1117 171.433 48.461 170.385 50.5952 168.984C51.4142 168.465 52.0189 167.634 52.2878 166.658C52.5567 165.682 52.4698 164.633 52.0447 163.723L52.0447 163.73ZM46.131 164.287C46.7592 163.861 47.4545 163.56 48.1831 163.398C49.252 163.177 50.5107 163.298 50.799 164.565C50.881 165.056 50.8634 165.56 50.7474 166.044C50.6314 166.527 50.4197 166.978 50.1265 167.366C47.9137 169.773 44.881 170.437 41.9718 171.28C41.1244 171.528 40.2072 171.504 39.0656 171.62C40.8742 168.637 43.2892 166.128 46.131 164.281L46.131 164.287ZM46.3916 175.633C49.3051 177.543 50.8975 181.773 50.1083 185.3C48.9497 190.491 45.6239 193.473 40.4503 194.307C40.045 193.189 39.6588 192.115 39.2535 190.993C40.7839 190.208 42.3997 189.539 43.8604 188.598C46.551 186.867 47.11 184.856 46.1947 181.377C45.6214 179.208 43.0559 177.459 40.8359 177.734C39.2547 177.931 37.6987 178.05 36.0227 178.214C35.8673 177.136 35.7055 176.014 35.5153 174.751C39.2811 172.789 42.874 173.317 46.3916 175.626L46.3916 175.633ZM38.8979 179.354C39.6885 179.353 40.4791 179.225 41.2666 179.238C43.3191 179.267 44.6225 180.462 45.2085 182.793C45.6045 184.364 44.7514 186.473 43.2274 187.362C42.0838 187.991 40.9102 188.556 39.7113 189.054C38.9082 189.392 38.2566 189.196 37.412 188.754C35.3876 187.701 33.1925 187.02 31.4497 186.339C32.4612 185.115 34.1115 183.712 34.9931 181.887C35.919 179.95 37.1015 179.338 38.8979 179.347L38.8979 179.354ZM38.803 195.447C38.634 199.741 33.4109 203.373 29.7321 201.696C29.3462 201.52 29.0456 200.899 28.8904 200.416C28.007 197.713 26.89 196.319 24.3816 195.013C26.7879 193.859 28.2799 192.084 28.8576 189.57C29.0881 188.557 29.6193 188.252 30.4542 188.106C34.9194 187.32 38.9815 190.882 38.803 195.426L38.803 195.447ZM27.2815 186.493C27.6609 187.106 27.8165 187.847 27.7187 188.574C27.3215 191.771 23.926 194.574 20.8583 194.322C20.6242 194.302 20.2764 194.268 20.1846 194.11C18.9472 191.978 16.7491 191.808 14.807 191.072C16.1379 189.507 17.9685 188.34 17.9675 185.891C17.9675 185.664 18.2836 185.39 18.5112 185.215C21.1796 183.233 25.2058 183.771 27.2815 186.487L27.2815 186.493ZM17.6069 193.648C18.1035 193.898 18.7237 194.58 18.7144 195.046C18.7051 195.513 18.0823 196.206 17.5922 196.456C13.9845 198.252 10.7106 196.798 7.07934 195.064C10.7314 193.23 14.0072 191.829 17.6069 193.642L17.6069 193.648ZM20.1853 195.941C20.2485 195.829 20.4382 195.785 20.5774 195.745C23.4234 194.939 27.8272 198.862 27.8031 202.001C27.7881 204.059 23.934 206.636 21.8496 206.059C20.9419 205.799 20.0405 205.526 19.1516 205.209C18.4083 204.943 18.1678 204.348 17.8385 203.555C17.2054 202.065 16.1107 200.805 15.1835 199.465C15.0791 199.313 14.8387 199.262 14.4845 199.07C16.7928 198.305 18.9528 198.063 20.1853 195.934L20.1853 195.941ZM31.8047 204.36C31.4344 204.013 31.0387 203.698 30.6215 203.418C33.5943 203.518 35.9185 202.669 37.9545 200.904C38.0985 200.808 38.2604 200.748 38.4287 200.727C38.5971 200.705 38.7677 200.724 38.9285 200.781C40.567 201.51 42.3066 202.097 43.7586 203.144C45.3593 204.285 45.6131 206.204 44.9087 208.258C44.3622 209.85 42.8825 210.881 41.0166 210.859C39.8778 210.852 38.7409 210.763 37.6136 210.591C36.6458 210.439 36.0005 210 35.4181 208.879C34.5382 207.17 33.0481 205.826 31.8047 204.354L31.8047 204.36ZM36.0297 211.886C37.7438 212.01 39.458 212.204 41.1784 212.247C43.5409 212.303 45.5327 210.856 46.1581 208.764C47.1277 205.52 46.5892 203.264 44.2103 201.67C42.6729 200.658 40.9617 199.925 39.2725 199.038C39.6421 197.994 40.0338 196.878 40.4161 195.794C45.7927 196.422 48.6402 199.505 49.9576 203.981C51.0501 207.667 50.0522 211.337 47.0835 213.818C43.6059 216.723 39.7163 217.465 35.525 215.312C35.7048 214.082 35.8657 212.997 36.0297 211.879L36.0297 211.886ZM50.7076 221.097C48.547 219.649 46.1651 218.586 43.9224 217.385C45.0259 216.759 46.278 216.032 47.549 215.335C47.7545 215.217 47.9945 215.188 48.2195 215.254C51.0663 216.482 53.6665 218.031 55.5524 220.74C56.872 222.634 57.3292 227.219 55.831 229.335C54.279 231.525 50.9937 232.939 48.1029 232.302C45.5062 231.733 43.3171 230.315 41.3114 228.536C41.09 228.346 40.9396 228.078 40.8873 227.779C40.7824 226.31 40.7312 224.837 40.6482 223.049C41.7618 224.025 42.6857 224.944 43.7138 225.707C44.7567 226.509 45.8689 227.203 47.0353 227.779C49.0661 228.737 51.0487 228.114 51.9905 226.377C52.4597 225.491 52.5883 224.445 52.3489 223.46C52.1095 222.475 51.5209 221.627 50.7076 221.097ZM49.8794 222.277C50.8823 223.067 51.5469 224.242 50.8074 225.594C50.0679 226.946 48.806 226.883 47.6451 226.4C44.0677 224.912 41.565 222.072 39.4732 218.681C43.3284 218.757 46.8171 219.89 49.8794 222.29L49.8794 222.277ZM43.09 231.711C46.6045 233.905 50.2164 234.774 54.1151 232.748C57.7481 230.864 58.8283 227.296 57.9791 223.286C57.0444 218.867 54.0137 216.493 50.4362 214.695C50.1199 214.536 49.8036 214.384 49.4872 214.219C49.3771 214.15 49.2715 214.073 49.1709 213.989L51.1461 210.42C58.4996 211.886 62.0919 218.877 61.9199 224.01C61.8747 225.797 61.7212 227.579 61.4603 229.345C61.189 231.105 60.4465 232.724 59.0143 233.739C57.0477 235.149 55.1477 236.886 52.9627 237.692C48.267 239.414 43.7917 238.677 39.9762 234.949C39.5111 234.49 39.027 234.038 38.5968 233.599L40.5877 229.962C41.3944 230.533 42.2296 231.177 43.09 231.724L43.09 231.711ZM72.0308 216.537C72.0553 214.391 73.7431 211.978 75.7258 211.25C78.6918 210.164 82.7087 211.31 84.6768 213.897C85.0913 214.444 85.5313 215.289 85.4366 215.9C85.137 217.857 84.8468 219.894 84.0758 221.645C83.188 223.672 81.1227 223.42 79.5889 223.462C75.0633 223.498 71.9818 220.571 72.0308 216.55L72.0308 216.537ZM83.2746 242.661C82.5338 240.928 81.3093 239.425 80.2587 237.855C80.0404 237.517 79.626 237.358 79.2116 237.048C80.8368 236.131 82.1743 235.357 83.5402 234.636C83.6855 234.582 83.8409 234.567 83.993 234.592C84.1451 234.616 84.2892 234.68 84.4131 234.777C86.5361 237.006 88.5515 239.292 89.6249 242.387C91.3378 247.332 89.0468 251.999 84.1642 252.985C80.9548 253.615 77.6429 253.223 74.6413 251.856C74.5045 250.018 74.3774 248.248 74.2502 246.487C75.5659 246.784 76.8912 247.192 78.2416 247.34C79.2266 247.44 80.2206 247.352 81.1764 247.078C83.2128 246.509 84.1546 244.728 83.2746 242.674L83.2746 242.661ZM76.2199 237.185C76.9534 237.225 77.6567 237.509 78.2316 237.998C79.2503 238.987 80.2786 240.071 80.9464 241.331C81.4275 242.239 81.8044 243.871 81.3683 244.507C80.8309 245.294 79.3922 245.721 78.358 245.687C76.9601 245.648 75.3692 245.351 74.2462 244.548C73.1232 243.745 72.4205 242.184 71.5756 240.911C70.6104 239.465 69.6769 237.986 68.9491 236.831C71.1028 236.941 73.6645 237 76.2199 237.198L76.2199 237.185ZM74.3098 253.403C75.1701 253.65 76.0557 253.909 76.9477 254.155C80.1485 255.032 83.3585 255.077 86.4352 253.731C91.5671 251.484 92.5838 247.365 90.6428 241.406C90.0964 239.815 89.3177 238.326 88.3356 236.995C87.4116 235.708 86.1462 234.695 85.0293 233.561L89.1388 228.828C94.7064 232.764 97.5455 238.392 98.3167 245.3C98.4612 246.866 98.4491 248.444 98.2806 250.007C97.8587 254.737 94.947 257.351 91.2761 259.326C87.5505 261.39 83.3208 262.18 79.1612 261.587C76.9473 261.271 74.8091 260.35 72.5729 259.682L74.3098 253.403ZM96.4955 222.306C99.3415 221.707 102.311 221.113 105.255 220.466C109.05 219.633 112.791 219.516 116.479 221.098C119.047 222.167 121.192 224.146 122.557 226.703C124.054 229.456 123.605 231.058 120.927 232.495C117.449 234.372 113.815 234.527 110.137 233.046C106.278 231.49 103.348 228.536 100.33 225.716C99.0422 224.511 97.685 223.383 96.4955 222.343L96.4955 222.306ZM121.252 253.551C119.081 249.714 117.169 245.705 115.216 241.729C114.46 240.196 113.896 238.554 113.18 236.801C117.668 236.704 120.822 239.104 123.578 242.484C126.277 245.797 129.106 248.992 131.909 252.203C132.374 252.733 133.013 253.084 133.807 253.699C131.65 254.548 129.677 255.441 127.635 256.095C124.76 257.053 122.847 256.408 121.252 253.588L121.252 253.551ZM129.839 248.204C127.678 245.722 125.767 242.986 123.58 240.535C122.176 238.958 120.471 237.685 118.876 236.254C120.277 235.577 121.864 234.681 123.546 234.102C124.036 233.936 124.887 234.594 125.444 235.064C128.178 237.427 130.734 240.037 133.603 242.184C136.811 244.591 140.584 245.633 144.478 245.999C145.281 246.073 146.113 245.752 146.932 245.613C146.995 245.751 147.055 245.889 147.115 246.028C144.368 247.56 141.652 249.163 138.863 250.608C135.062 252.563 132.405 251.159 129.839 248.204ZM144.739 244.391C142.143 244.504 139.363 243.441 136.889 242.368C132.809 240.607 129.27 237.664 126.671 233.87C124.921 231.374 125.445 229.415 128.155 228.264C133.809 225.855 139.577 225.46 145.451 227.264C149.796 228.596 152.41 232.084 154.799 235.84C155.461 236.884 155.891 238.093 156.477 239.329C153.002 242.443 148.999 244.202 144.727 244.391L144.739 244.391ZM149.021 227.295C143.255 224.228 137.239 224.093 131.101 225.674C129.757 226.013 128.448 226.544 127.092 226.775C126.5 226.873 125.596 226.651 125.238 226.201C124.131 224.817 123.219 223.25 122.036 221.456C125.129 222.319 127.697 221.314 130.258 220.347C132.819 219.379 135.346 218.245 137.961 217.453C142.211 216.163 144.688 217.226 147.08 221.164C148.582 223.608 149.92 226.162 151.084 228.808C150.388 228.308 149.755 227.694 149.008 227.295L149.021 227.295ZM127.785 219.679C124.287 220.86 121.005 220.514 117.525 218.445C121.695 215.48 125.647 212.653 129.615 209.86C131.543 208.444 133.799 207.624 136.135 207.491C136.964 207.46 137.998 208.165 138.628 208.841C140.346 210.711 141.9 212.751 143.738 214.99C137.777 215.061 132.926 217.943 127.772 219.679L127.785 219.679ZM119.877 215.173C117.738 217.042 115.05 218.041 112.288 217.996C110.706 217.997 109.154 218.315 107.183 218.536C107.73 218.107 107.961 217.894 108.217 217.735C112.293 215.205 115.441 211.686 117.384 207.137C118.696 204.068 120.881 203.016 123.736 202.9C127.576 202.742 131.011 204.267 134.648 205.951C128.938 207.978 124.28 211.329 119.873 215.173L119.877 215.173ZM119.269 198.081C118.126 203.42 115.946 208.307 112.418 212.316C109.169 216.1 104.861 218.659 100.138 219.611C98.0031 220.038 95.7734 219.915 93.4111 220.051C93.4103 218.102 93.3464 216.463 93.4628 214.841C93.4879 214.503 94.1645 213.989 94.5788 213.942C101.963 213.11 107.255 208.809 111.127 202.356C114.082 197.429 113.991 192.286 111.007 187.386C107.434 181.512 102.572 177.511 95.968 176.198C93.3682 175.682 93.3808 175.611 93.3797 172.797L93.3787 170.205C100.194 169.188 105.799 171.549 110.75 176.02C115.584 180.389 118.043 186.25 119.453 192.638C119.827 194.364 119.641 196.331 119.266 198.081L119.269 198.081ZM96.5149 167.626C99.4803 164.982 102.392 162.186 105.493 159.667C109.948 156.046 114.887 154.681 120.274 157.107C124.323 158.929 124.346 161.497 121.112 165.266C116.737 170.367 111.165 170.624 105.301 169.465C102.347 168.879 99.4057 168.232 96.5118 167.626L96.5149 167.626ZM118.112 184.043C115.656 178.912 112.416 174.61 107.253 171.66C112.911 171.589 117.788 172.448 122.034 176.486C125.672 179.99 130.028 182.534 134.753 183.912C130.01 186.016 125.508 188.276 120.444 186.258C119.453 185.826 118.63 185.044 118.112 184.043ZM132.485 181.595C128.623 179.232 124.937 176.559 121.192 173.99C120.028 173.193 118.895 172.346 117.623 171.434C121.825 168.729 125.896 169.402 130.061 171.015C133.541 172.364 137.112 173.497 140.667 174.637C141.492 174.903 142.419 174.808 143.747 174.915C141.639 177.424 139.916 179.966 137.725 181.906C136.274 183.205 134.038 182.53 132.501 181.595L132.485 181.595ZM138.807 172.672C136.276 171.997 133.853 170.864 131.345 170.068C128.992 169.319 126.601 168.695 124.203 168.129C123.571 167.981 122.856 168.259 122.034 168.36C123.14 166.697 124.091 165.227 125.093 163.791C125.779 162.804 126.703 163.023 127.642 163.309C131.409 164.452 135.214 165.42 139.167 165.194C142.491 165.01 145.764 164.464 148.743 162.726C149.514 162.276 150.206 161.671 151.206 161.285C150.144 163.218 149.123 165.178 148.007 167.074C147.283 168.324 146.486 169.524 145.621 170.667C143.807 173.013 141.35 173.353 138.829 172.672L138.807 172.672ZM140.874 163.626C136.523 164.03 132.144 163.344 128.084 161.623C125.424 160.51 124.86 158.49 126.627 156.113C130.999 150.235 136.497 146.198 143.66 145.629C148.448 145.255 152.611 147.408 156.473 150.497C153.342 157.81 148.837 162.925 140.874 163.626ZM131.429 149.228C129.317 150.871 127.436 152.866 125.526 154.789C124.556 155.767 123.718 156.257 122.405 155.416C121.231 154.67 119.903 154.198 118.486 153.533C119.574 152.857 120.699 152.4 121.477 151.575C123.329 149.608 125.011 147.448 126.778 145.386C128.28 143.635 129.677 141.742 131.362 140.217C132.908 138.814 134.773 137.904 136.981 138.636C140.65 139.85 143.82 142.037 147.366 144.292C141.066 143.364 136.022 145.644 131.419 149.228L131.429 149.228ZM122.447 148.662C119.984 151.553 116.933 153.227 113.125 153.104C115.653 147.278 117.627 141.205 121.316 136.067C123.133 133.536 124.793 132.95 127.735 133.823C128.209 133.965 128.684 134.103 129.146 134.289C130.62 134.889 132.084 135.514 133.757 136.212C128.971 139.489 126.05 144.423 122.437 148.662L122.447 148.662ZM104.776 153.491C102.321 159.608 98.8794 164.786 92.5425 167.098L90.0992 162.507C91.8095 160.702 93.7253 159.052 95.2046 157.038C97.7512 153.544 99.2883 149.332 99.6274 144.919C99.7801 143.125 99.7571 141.319 99.5588 139.53C98.924 133.577 95.0139 130.589 90.3103 128.572C84.1993 125.95 78.0671 125.994 72.0405 129.134L69.3852 124.361C72.3033 121.839 75.5094 120.141 79.2948 119.74C83.7665 119.267 88.1215 119.64 92.2305 121.702C96.3045 123.702 99.9423 126.589 102.911 130.179C105.296 133.087 105.662 136.871 106.014 140.455C106.433 144.841 106.451 149.327 104.776 153.491ZM101.327 123.541C99.8626 124.008 98.4806 123.985 97.1045 122.983C93.9695 120.697 90.5627 119.013 86.7674 118.404C85.3315 118.172 83.8736 118.068 82.2701 117.903C87.1836 115.177 91.8349 113.103 97.528 114.475C102.183 115.555 107.015 115.413 111.608 114.061C108.766 118.208 106.01 122.069 101.327 123.541ZM109.77 112.944C106.421 113.271 103.057 113.37 99.6971 113.24C96.8507 113.144 94.0042 112.636 91.0851 112.296C92.6397 108.89 95.3904 106.996 98.6727 106.109C102.199 105.157 105.839 104.689 109.393 103.832C111.29 103.371 113.134 102.539 115.113 101.835C114.589 104.673 114.205 107.603 113.469 110.428C113.008 112.209 111.202 112.808 109.77 112.944ZM114.808 96.8684C114.401 100.18 111.963 101.722 109.155 102.437C106.711 103.063 104.197 103.358 101.724 103.874C98.8776 104.467 95.9619 104.914 93.3949 107.392C93.5522 105.139 93.5009 103.365 93.8797 101.699C94.0376 101.023 95.0493 100.289 95.7956 100.069C100.659 98.6541 105.402 97.0227 109.338 93.4491C111.848 91.1771 114.213 88.7768 115.084 85.1679L115.518 85.2622C115.301 89.1445 115.277 93.0435 114.808 96.8786L114.808 96.8684ZM110.823 90.0459C107.469 93.8692 103.27 96.3652 98.4923 97.6486C97.1612 98.0297 95.7957 98.2571 94.4192 98.3268C92.5217 98.3887 91.3511 97.2846 91.616 95.3045C91.9705 92.448 92.6195 89.642 93.5513 86.9377C95.2287 82.2404 97.9185 78.1506 102.086 75.6411C105.034 73.8793 108.404 73.0896 111.772 73.3715C112.755 73.4453 113.745 73.3703 114.827 73.3697C115.294 79.576 114.911 85.391 110.823 90.056L110.823 90.0459ZM103.559 73.3596C99.0557 74.8489 96.4291 78.5771 94.0461 82.5485C91.9317 86.0738 90.8865 90.0646 89.9393 94.0757C89.6457 95.2956 89.0261 95.9514 87.7421 95.9758C86.3221 96.0003 84.8959 96.258 83.1503 96.4516C86.5135 92.0201 86.1255 86.7395 87.2337 81.9208C87.4894 80.7956 87.6502 79.64 87.9819 78.5417C89.0431 75.0306 91.5124 73.3465 94.795 73.1317C97.7583 72.9407 100.741 73.0876 103.707 73.0858C103.685 73.123 103.65 73.3392 103.559 73.3697L103.559 73.3596ZM84.8264 88.3722C84.4572 91.2723 83.3403 94.0057 81.6005 96.2667C80.7724 97.3281 79.6342 98.1093 78.5277 99.1134C78.2103 96.3194 77.7571 93.8397 77.6644 91.343C77.5206 87.5454 77.5001 83.7309 77.682 79.9399C77.7479 78.5884 78.3988 77.1858 79.0561 75.9759C79.9315 74.3637 81.7216 74.5451 83.1668 74.1793C84.8775 73.7424 86.6453 73.5758 88.4763 73.2808C86.0905 78.0225 85.5707 83.226 84.8264 88.3823L84.8264 88.3722ZM88.4579 98.6378C90.2954 98.7549 91.2477 99.7477 91.3465 101.734C91.5793 106.427 89.7876 110.148 86.506 113.14C83.4078 115.967 79.5911 117.179 75.8377 118.553C74.1555 119.162 72.4986 119.862 70.633 120.6C72.5285 115.639 74.0509 110.566 76.3577 105.946C78.8194 101.012 82.9517 98.2931 88.4579 98.6479L88.4579 98.6378ZM46.4406 91.4935C48.5783 91.0564 50.868 91.2374 53.0661 91.4287C57.2946 91.7978 59.4843 94.9927 61.2663 98.6339C63.2413 102.591 64.0094 107.109 63.463 111.556C63.173 113.965 62.3043 116.287 61.6759 118.733L56.0996 116.943C56.3958 114.213 56.7806 111.57 56.944 108.911C57.1451 105.623 55.9928 102.769 53.9488 100.361C52.2687 98.3892 49.9759 98.4075 47.759 98.6116C44.3625 98.9278 41.5042 100.551 39.146 103.175C38.4917 103.905 37.8468 104.642 37.1829 105.389L32.8043 101.063C35.9994 95.6184 40.7421 92.6727 46.4406 91.5036L46.4406 91.4935ZM45.4954 100.586C51.2474 98.7852 54.5846 100.766 55.5931 107.675C56.0497 110.807 55.5099 113.297 54.3094 116.623C53.5062 116.623 52.6649 116.576 51.83 116.624C50.9951 116.672 50.1856 116.858 49.5594 116.963C49.7293 114.791 50.0479 112.672 50.0218 110.544C49.9795 107.621 47.917 106.153 45.4285 107.391C43.5314 108.328 41.9001 109.802 40.139 111.043L38.0689 106.534C40.0983 104.032 42.3048 101.588 45.4827 100.596L45.4954 100.586ZM48.6152 112.447C48.449 113.967 48.0944 115.457 47.5607 116.877C47.2258 117.695 46.3247 118.31 45.5785 118.855C43.6815 120.234 41.7308 121.523 40.2195 122.574C40.3104 120.584 40.4738 117.912 40.5328 115.236C40.6014 112.671 44.1831 108.915 46.5803 108.985C47.8738 109.008 48.8548 110.582 48.6026 112.457L48.6152 112.447ZM51.4638 118.189C53.1018 117.88 54.9426 118.187 56.5841 118.628C59.9273 119.481 63.1536 120.787 65.9723 122.941C68.965 125.23 70.4527 128.682 71.5863 132.249C72.2586 134.404 72.7609 136.615 73.088 138.86C73.4685 141.411 72.6187 143.766 71.6234 146.054C69.7118 150.448 66.5663 153.585 62.7185 156.03C61.8174 156.605 61.3272 156.571 60.5647 155.798C58.0336 153.222 55.2117 150.953 51.6694 150.367C49.5536 150.031 47.3462 150.306 44.8256 150.307L52.1279 142.072C52.6811 141.447 53.2219 141.531 53.9463 141.879C59.447 144.504 66.4822 140.729 66.6467 132.843C66.7273 128.91 61.6242 123.974 57.2508 125.169C51.9035 126.625 49.3473 132.225 50.2662 136.735C50.3713 137.418 50.5855 138.076 50.8995 138.681C51.3393 139.417 51.1878 139.961 50.6851 140.475C48.2004 143.014 45.6998 145.546 43.098 148.183C43.0972 146.088 43.2799 144.189 43.042 142.351C42.8136 140.608 42.408 138.77 41.6073 137.257C40.4521 135.065 38.8479 133.147 37.4936 131.067C37.3734 130.869 37.2972 130.644 37.2708 130.41C37.2444 130.176 37.2685 129.938 37.3412 129.715C40.4476 123.723 44.9336 119.446 51.448 118.212L51.4638 118.189ZM51.3978 135.197C51.3362 131.548 55.5344 127.116 59.01 127.158C61.2776 127.184 64.644 130.851 64.6196 133.27C64.5863 136.987 60.5115 141.31 57.1054 141.238C54.2686 141.203 51.4337 138.201 51.382 135.221L51.3978 135.197ZM37.8962 133.705C41.2598 138.068 42.8967 142.953 41.2038 148.465C40.4742 150.83 38.8621 152.919 37.6138 155.194L34.1784 153.054C35.221 150.448 36.5388 147.88 37.2809 145.132C38.5441 140.476 35.5089 134.788 31.6852 134.168C27.6115 133.495 24.2187 134.893 21.7501 138.431C20.6344 140.03 19.7939 141.845 18.8078 143.603L15.5559 141.577C16.818 134.11 22.9896 129.94 28.2933 130.082C29.9506 130.117 31.6035 130.276 33.2397 130.559C35.169 130.896 36.6338 132.111 37.8804 133.729L37.8962 133.705ZM20.0164 144.866C21.5487 141.006 23.2234 137.194 27.3753 135.87C32.1912 134.334 35.5985 137.281 36.0843 142.251C36.4654 146.2 34.6134 149.286 32.445 152.203C32.2809 152.396 32.0555 152.517 31.8126 152.542C30.4338 152.634 29.0518 152.688 27.4864 152.767C28.7507 151.016 29.9107 149.515 30.9221 147.9C31.4829 147.024 31.8719 146.037 32.0658 144.997C32.4475 142.631 31.6436 141.091 29.8502 140.336C28.4964 139.762 26.4568 140.446 25.4613 142.149C24.4657 143.853 23.7107 145.806 22.8828 147.661C22.6142 148.263 22.4342 148.908 22.191 149.601C21.4377 148.101 20.7351 146.713 20.0451 145.322C19.9775 145.186 19.9616 145.027 20.0006 144.879L20.0164 144.866ZM25.2472 152.721C24.6371 153.309 23.9384 153.793 23.1069 154.466C23.1643 150.372 24.375 146.392 26.5812 143.044C27.2133 142.06 28.1618 141.404 29.3795 141.782C30.689 142.19 31.1766 143.656 30.4974 145.498C29.3948 148.468 27.3748 150.666 25.2314 152.735L25.2472 152.721ZM27.1455 154.538C30.1559 153.796 33.0686 153.625 35.7861 155.827C41.626 160.553 39.9659 169.136 35.3027 172.933C35.0655 173.126 34.4108 172.984 34.0977 172.765C33.4315 172.237 32.7975 171.664 32.1994 171.05C33.0813 169.799 33.9917 168.609 34.7913 167.332C36.479 164.665 36.206 162.124 34.4721 159.949C32.1465 157.035 29.1264 157.523 27.1536 158.94C25.93 159.826 24.7792 160.82 23.5683 161.791C22.8976 160.96 22.192 160.102 21.3725 159.089C22.8517 157.01 24.5904 155.181 27.1265 154.551L27.1455 154.538ZM23.0201 166.943C22.7516 167.731 22.6476 168.592 22.3253 169.353C21.1183 172.202 21.1056 171.969 18.2434 171.842C16.4566 171.762 14.6384 172.483 12.8043 172.859C13.1195 170.328 11.9358 168.085 10.2335 166.039C10.1282 165.89 10.0558 165.717 10.0218 165.534C9.98775 165.351 9.99297 165.162 10.0371 164.981C11.4209 161.602 14.2154 158.492 18.4852 159.425C20.9174 159.961 23.9046 164.284 23.0011 166.957L23.0201 166.943ZM13.7484 185.14C14.2804 185.005 14.8289 184.96 15.3739 185.007C16.4239 185.104 16.867 185.901 16.3234 186.868C15.8209 187.76 15.2552 188.754 14.4711 189.295C12.1567 190.888 9.63027 191.92 6.47394 191.645C8.424 188.539 10.4059 185.966 13.7484 185.14ZM10.4956 180.864C10.1584 183.888 8.32811 185.981 6.26054 187.851C5.61635 188.368 4.94726 188.849 4.25604 189.291C4.2892 185.166 5.069 181.733 7.9744 179.244C8.44546 178.842 9.55538 178.469 9.75788 178.702C10.008 178.993 10.2019 179.334 10.3285 179.705C10.4551 180.076 10.5118 180.47 10.4956 180.864ZM4.46937 200.887C7.36077 202.946 9.71775 205.181 10.4624 208.809C10.596 209.321 10.6189 209.858 10.5294 210.38C10.2989 211.293 9.77104 211.976 8.79672 211.338C7.98102 210.844 7.23536 210.229 6.58221 209.511C5.11094 207.772 4.09091 203.505 4.46937 200.887ZM7.88797 200.594C7.44816 200.04 7.10634 199.395 6.47028 198.405C10.4266 198.444 13.6718 199.303 15.9975 202.508C16.3361 202.978 16.6148 204.069 16.3904 204.312C16.1368 204.566 15.8385 204.764 15.5128 204.894C15.1872 205.024 14.8406 205.084 14.4932 205.07C11.6278 204.744 9.64407 202.82 7.88797 200.594ZM12.8406 216.62C15.1373 218.368 17.4555 218.644 19.9283 217.933C20.125 217.905 20.3251 217.926 20.5125 217.996C20.6998 218.066 20.8692 218.182 21.0069 218.334C23.4467 221.999 24.1723 225.428 21.2483 228.808C20.7124 229.431 20.0654 229.933 19.3453 230.285C18.6252 230.637 17.8465 230.831 17.0551 230.857C16.2636 230.883 15.4754 230.739 14.7367 230.434C13.998 230.13 13.3238 229.671 12.7538 229.084C11.7384 228.005 10.8664 226.782 10.1622 225.45C9.94383 225.065 10.1427 224.135 10.4588 223.716C12.4786 221.029 12.7755 220.133 12.8406 216.62ZM23.5472 228.209C24.7019 229.13 25.7902 230.123 26.9891 230.933C30.9845 233.634 33.6309 231.902 35.565 228.421C36.4404 226.843 36.0886 224.866 35.1107 223.255C34.2246 221.793 33.212 220.415 32.2184 218.929L34.6337 216.752C37.8855 218.507 39.9558 223.371 39.4737 227.898C39.1114 231.315 35.5899 235.385 32.437 235.826C27.9844 236.453 24.1856 235.202 21.4167 230.876C22.1184 230.017 22.817 229.135 23.5472 228.209ZM30.0902 243.473C31.1695 245.5 30.9331 247.507 29.7158 248.203C28.5743 248.846 27.056 248.114 25.999 246.111C24.3184 242.916 23.0931 239.541 23.1485 235.639C26.0124 237.624 28.392 240.309 30.0902 243.473ZM22.0942 240.694C23.1736 243.024 24.1676 245.507 25.4462 247.807C26.3956 249.55 28.4389 250.248 29.7859 249.72C31.9014 248.888 32.9093 246.624 31.8806 244.259C31.0797 242.415 29.8551 240.78 28.7887 239.075C28.4153 238.477 27.9502 237.95 27.4186 237.248C29.0726 237.331 30.4926 237.398 31.9095 237.492C32.1025 237.506 32.2833 237.597 32.4156 237.748C34.8299 241.024 36.7826 244.439 35.9305 248.926C34.687 255.485 27.9857 255.688 24.591 252.585C22.4745 250.661 21.218 248.195 20.1954 245.526C20.0917 245.201 20.1063 244.845 20.2362 244.53C20.8365 243.208 21.497 241.914 22.0942 240.694ZM23.3895 253.343C26.2371 256.578 31.4682 257.038 34.3988 254.434C37.1587 251.98 38.1504 248.58 37.3236 244.972C36.69 242.212 35.2911 239.652 34.2211 236.967L37.1963 235.073C42.739 239.884 43.141 248.756 39.4461 253.945C37.9036 256.115 36.6806 258.545 33.9896 259.266C27.6652 260.959 22.7629 260.151 18.27 254.785C16.8809 253.12 16.2601 250.732 15.2568 248.597C16.1104 248.11 16.7239 247.789 17.3088 247.42C17.8937 247.052 18.3774 246.67 18.5892 246.517C20.1904 248.821 21.5861 251.293 23.3895 253.343ZM37.7686 258.581C39.8455 256.408 41.6472 253.883 42.3892 250.919C43.0902 248.118 43.0573 245.107 43.3566 242.08C45.7516 244.508 48.2985 247.047 50.7758 249.657C51.0384 249.934 51.0925 250.728 50.9282 251.134C48.5585 256.926 51.2497 264.496 59.1974 265.059C61.8256 265.243 64.0102 263.424 65.3818 261.001C66.2824 259.38 66.681 257.498 66.5207 255.621C66.3603 253.744 65.6493 251.97 64.489 250.551C62.1159 247.704 57.5802 246.217 53.865 248.159C53.1346 248.541 52.6602 248.47 52.1888 247.943C49.8063 245.289 47.4428 242.615 44.9623 239.812C46.9673 239.811 48.7574 239.955 50.5347 239.764C51.942 239.612 53.4662 239.344 54.6613 238.61C56.7827 237.255 58.8017 235.726 60.7 234.035C61.4271 233.413 61.8604 233.277 62.5975 233.868C64.1793 235.144 65.9286 236.208 67.3807 237.629C70.4721 240.603 72.4995 244.633 73.1158 249.029C73.3568 250.701 73.0729 252.549 72.6719 254.219C71.8258 257.767 70.6349 261.217 68.631 264.232C66.4944 267.45 63.2566 269.02 59.93 270.258C57.915 270.975 55.8484 271.514 53.751 271.87C51.3034 272.318 49.0766 271.349 46.8908 270.259C42.7787 268.204 39.8583 264.841 37.5733 260.73C37.067 259.835 37.0605 259.325 37.7686 258.581ZM52.7246 251.274C54.6558 248.651 57.4672 248.17 60.4058 249.81C62.6928 251.089 63.886 253.302 64.5195 255.798C64.7234 256.871 64.5264 257.987 63.9704 258.907C62.7694 260.735 61.4419 262.601 58.9689 262.897C56.1002 262.31 53.674 260.873 52.3034 257.964C51.2336 255.715 51.1568 253.397 52.7246 251.274ZM45.6325 271.105C46.7839 271.827 47.8121 272.573 47.9771 274.124C48.1517 275.776 48.5319 277.438 48.4376 279.073C48.3435 280.79 47.1736 281.392 45.6743 280.872C44.2261 280.359 42.9622 279.379 42.0558 278.067C41.1494 276.756 40.6448 275.177 40.6113 273.547C40.5693 271.351 40.3692 269.155 40.2705 267.486C41.8301 268.559 43.6997 269.896 45.6325 271.105ZM40.2939 278.744C41.5404 279.794 42.7458 280.928 44.0618 281.887C45.5138 282.947 47.1934 283.598 48.8058 282.418C50.3234 281.299 50.2626 279.346 50.1923 277.626C50.1316 276.126 49.6883 274.643 49.4062 273.092L54.4253 273.465C55.6696 277.126 56.3985 280.923 55.1603 284.735C53.4325 290.048 50.5202 290.982 45.1906 289.272C42.1731 288.304 40.1292 285.869 38.1232 283.502L40.2939 278.744ZM42.4614 289.473C44.5551 290.929 47.0182 291.659 49.5147 291.564C53.5406 291.45 55.8701 288.269 56.7603 284.005C57.5178 280.362 57.0737 276.754 55.7819 273.166L61.4991 271.322C62.9995 274.865 64.0035 278.415 63.6192 282.355C63.194 286.7 62.1519 290.711 59.6676 294.298C56.9272 298.252 53.2022 299.39 48.942 298.781C46.4083 298.385 43.9182 297.719 41.5092 296.792C37.7705 295.402 35.1412 292.451 32.8407 289.026L37.0326 284.864C38.8422 286.424 40.538 288.143 42.4614 289.487L42.4614 289.473ZM114.928 265.231C114.928 265.204 114.928 265.171 114.928 265.231V265.231ZM114.972 265.299C117.638 265.507 120.222 265.698 122.809 265.916C123.126 265.943 123.606 266.02 123.701 266.233C124.527 268.077 125.284 269.949 126.17 272.094C124.093 272.287 122.338 272.471 120.582 272.6C120.421 272.617 120.258 272.597 120.104 272.542C119.949 272.488 119.808 272.4 119.687 272.283C118.089 269.977 116.536 267.636 114.982 265.299L114.972 265.299ZM121.676 279.975C121.385 278.063 120.985 276.168 120.64 274.3L127.837 273.039L125.181 265.833L131.48 263.586L136.707 278.51C133.365 279.137 130.323 279.713 127.281 280.273C125.921 280.524 124.558 280.761 123.195 280.968C122.461 281.08 121.838 281.04 121.676 279.975ZM137.279 276.064C135.92 271.703 134.303 267.433 132.745 262.967L139.597 259.013C142.102 267.746 144.547 276.282 147.014 284.886L122.266 290.993L122.263 282.654C126.358 281.892 130.725 281.139 135.07 280.258C138.779 279.495 138.454 279.834 137.279 276.064ZM157.37 291.252L122.131 300.734L122.127 292.581C127.668 291.192 133.053 289.821 138.448 288.493C141.388 287.772 144.342 287.108 147.302 286.461C148.431 286.213 148.76 285.689 148.389 284.453C146.274 277.335 144.209 270.201 142.141 263.066C141.824 262.006 141.748 260.847 141.314 259.857C140.63 258.307 141.285 257.492 142.439 256.816C143.912 255.94 145.392 255.07 147.378 253.897C150.719 266.406 154.013 278.686 157.37 291.252ZM158.453 231.074C160.311 234.627 162.223 238.15 164.033 241.544C160.492 243.773 156.698 246.12 152.938 248.531C147.563 251.971 142.296 255.549 136.877 258.88C134.224 260.507 131.372 261.785 128.551 263.081C123.948 265.192 119.194 264.972 114.614 263.231C111.476 262.041 108.563 260.167 105.51 258.581C105.927 257.118 106.281 255.878 106.635 254.644C108.441 255.532 110.08 256.524 111.832 257.158C118.193 259.462 124.483 259.33 130.778 256.579C138.263 253.314 145.08 248.8 151.909 244.295C153.755 243.078 155.551 241.773 157.432 240.629C158.255 240.129 158.34 239.747 157.89 238.896C154.514 232.485 151.172 226.059 147.864 219.616C145.364 214.716 142.153 210.27 138.349 206.445C135.783 203.872 132.734 202.296 129.318 201.227C126.439 200.33 123.624 199.541 120.348 199.807C120.664 198.388 120.951 197.218 121.21 196.113C128.167 195.045 134.632 196.17 140.257 200.714C143.623 203.435 145.987 207.174 148.05 211.068C151.566 217.702 154.972 224.413 158.453 231.074ZM158.227 193.665C154.462 190.309 150.722 186.912 146.942 183.516L151.025 176.492L169.536 194.932L151.052 213.391L146.913 206.298C149.907 203.671 152.888 201.071 155.853 198.448C156.77 197.636 157.684 196.811 158.528 195.915C159.318 195.097 159.018 194.374 158.227 193.665ZM157.677 194.926L146.141 205.092L141.711 199.824C143.121 198.617 144.556 197.366 146.02 196.149C147.029 195.304 146.968 194.54 145.994 193.72C144.558 192.525 143.147 191.296 141.707 190.073L146.133 184.803L157.677 194.926ZM145.507 194.933C143.806 196.238 142.346 197.388 140.841 198.48C140.696 198.555 140.537 198.595 140.376 198.599C140.216 198.602 140.056 198.569 139.908 198.501C137.399 197.296 134.907 196.051 132.595 194.907L140.617 191.169L145.507 194.933ZM167.447 180.425C171.705 184.815 175.938 189.229 180.206 193.595C180.997 194.405 181.307 195.111 180.397 196.061C176.566 200.074 172.772 204.154 168.896 208.133C164.436 212.717 159.912 217.231 155.274 221.92C154.116 219.711 153.027 217.755 152.081 215.725C152.007 215.45 151.997 215.159 152.052 214.879C152.107 214.599 152.225 214.337 152.397 214.117C158.22 208.277 164.077 202.471 169.967 196.699C171.652 195.042 171.655 194.813 169.95 193.148C165.869 189.177 161.851 185.162 157.801 181.164C156.058 179.446 154.349 177.683 152.552 176.032C151.803 175.357 151.66 174.711 152.131 173.839C153.12 172.004 154.1 170.162 155.291 167.945C159.452 172.21 163.466 176.306 167.447 180.425ZM148.613 138.565C153.832 141.819 158.966 145.191 163.955 148.387C160.046 155.755 156.001 163.404 151.946 171.032C149.734 175.175 147.63 179.39 145.228 183.402C141.236 190.07 135.162 193.223 128.005 194.224C126.706 194.404 125.346 194.04 124.011 194.007C123.138 193.984 121.728 194.474 121.481 194.083C120.848 193.036 120.696 191.637 120.325 190.265C121.906 190.166 123.345 190.189 124.753 189.972C132.693 188.744 138.887 184.433 143.426 177.46C145.803 173.813 147.99 170.024 150.132 166.201C151.896 163.065 153.482 159.817 155.119 156.603C156.067 154.707 157.037 152.801 157.884 150.858C158.039 150.52 157.808 149.618 157.507 149.425C149.934 144.612 142.424 139.67 134.693 135.171C130.581 132.771 126.004 131.192 121.219 131.091C119.182 131.048 117.14 131.769 115.087 132.017C112.058 132.38 109.354 133.595 106.66 135.583C106.255 134.151 105.916 132.948 105.584 131.776C110.569 127.894 115.964 125.262 122.317 125.481C125.506 125.584 128.627 126.486 131.43 128.115C137.215 131.453 142.919 135.004 148.613 138.565ZM114.926 124.688C115.761 123.539 116.69 122.322 117.565 121.048C118.204 120.173 118.78 119.248 119.288 118.28C119.651 117.533 120.034 117.151 120.869 117.265C122.513 117.501 124.167 117.669 126.1 117.897C125.263 119.925 124.52 121.763 123.737 123.561C123.635 123.795 123.19 123.94 122.889 123.971C120.23 124.232 117.589 124.454 114.926 124.688ZM136.878 110.093C131.928 109.153 126.985 108.153 122.158 107.199L122.155 98.9419L146.952 105.009C144.517 113.538 142.063 122.125 139.565 130.88L132.637 126.948C133.8 123.707 134.975 120.527 136.087 117.29C136.738 115.401 137.309 113.478 137.868 111.545C138.14 110.653 137.738 110.258 136.865 110.093L136.878 110.093ZM122.037 89.208L157.234 98.6134C153.82 111.14 151.127 123.643 147.072 135.896L140.805 132.042C141.339 129.869 141.752 127.865 142.327 125.909C144.222 119.333 146.193 112.773 148.116 106.201C148.801 103.852 148.748 103.906 146.483 103.364C140.841 102.015 135.208 100.606 129.574 99.2179C127.455 98.6954 125.346 98.1291 123.22 97.6438C122.433 97.4619 122.006 97.1276 122.018 96.2019C122.049 94.0159 122.026 91.8163 122.025 89.208L122.037 89.208ZM121.704 109.744C121.78 109.406 122.415 108.916 122.725 108.966C127.264 109.697 131.786 110.501 136.673 111.353C134.86 116.537 133.16 121.41 131.451 126.297L125.125 124.159C125.969 121.867 126.803 119.596 127.801 116.879L120.602 115.677C120.931 113.758 121.246 111.738 121.691 109.744L121.704 109.744ZM101.368 67.4346C106.535 67.5059 111.7 67.6346 116.864 67.6754C118.079 67.6747 119.293 67.4273 120.454 67.2982C120.456 73.9271 120.399 80.5393 120.481 87.1445C120.533 91.1483 121.059 95.1584 120.906 99.1454C120.677 105.035 121.043 111.116 118.509 116.604C116.392 121.191 113.453 125.095 108.988 127.422C107.524 128.19 106.142 129.154 104.852 129.948L102.112 127.284C103.766 126.043 105.496 125.052 106.855 123.656C110.566 119.866 113.809 115.749 115.025 110.136C116.31 104.23 116.747 98.2694 116.687 92.2284C116.63 86.4847 116.551 80.7409 116.45 74.9972C116.432 74.2005 116.336 73.4079 116.164 72.6323C116.111 72.4733 116.025 72.3296 115.911 72.2124C115.797 72.0952 115.66 72.0078 115.509 71.957C114.879 71.8102 114.235 71.7358 113.59 71.7351C106.781 71.6446 99.9652 71.4562 93.1562 71.5278C87.7609 71.5817 82.4038 72.2742 77.3446 74.3889C74.6031 75.5326 72.1275 77.1761 70.2183 79.691C69.5134 80.6138 68.432 81.2091 67.7303 82.1319C66.5829 83.6394 65.6032 85.2888 64.4337 87.06L61.8329 83.8856C63.587 81.1174 65.2745 77.8559 67.503 75.0976C70.8289 70.9327 75.5253 68.2918 80.6215 67.7208C85.0488 67.1505 89.4763 66.8978 93.942 67.3749C96.3963 67.6302 98.8914 67.399 101.368 67.4346ZM79.2231 50.2539C79.7492 53.1153 80.2594 55.7301 80.6969 58.3618C81.0139 60.3382 81.2139 62.3382 81.5436 64.3145C81.7433 65.5003 81.6867 66.166 80.2794 66.3121C78.6223 66.482 77.0001 67.0472 75.3494 67.4469C74.9563 64.93 74.5821 62.5145 74.1668 59.8253C72.747 60.3499 71.6782 60.7087 70.6379 61.1451C69.5976 61.5816 68.5541 62.1195 67.419 62.6573L65.3417 55.8168L79.2231 50.2539ZM64.7118 54.4048L61.034 47.1564L85.2528 39.229C87.1538 47.9888 89.0358 56.6742 90.9558 65.5016L83.1825 65.9353C82.5198 61.6955 81.8666 57.432 81.1882 53.1719C81.0392 52.236 80.7067 51.324 80.6336 50.3848C80.5128 48.8915 79.8644 48.581 78.6344 49.0582C74.0683 50.8246 69.496 52.5707 64.7181 54.4048L64.7118 54.4048ZM67.5021 64.742C67.5244 64.5934 67.5774 64.4521 67.6572 64.3281C67.737 64.2042 67.8416 64.1008 67.9635 64.0254C69.652 63.1797 71.3658 62.3847 73.2819 61.4713C73.463 63.4984 73.5996 65.1404 73.7647 66.7722C73.8695 67.7654 73.5471 68.3231 72.7156 68.9081C70.8692 70.21 69.1652 71.7517 67.3979 73.1921C67.2328 73.3109 67.0594 73.416 66.8793 73.5066C67.0869 70.5806 67.2787 67.6612 67.5084 64.7419L67.5021 64.742ZM91.2479 28.2379C94.213 40.8217 97.1338 53.213 100.118 65.7968C97.6258 65.7983 95.5037 65.8468 93.3911 65.7603C93.1588 65.7116 92.9412 65.6032 92.7571 65.4443C92.5729 65.2855 92.4279 65.081 92.3345 64.8486C90.4694 56.4166 88.6423 47.9766 86.8532 39.5287C86.4001 37.3937 86.3368 37.2991 84.3226 37.9659C77.564 40.2112 70.8055 42.4553 64.0469 44.6983C63.0066 45.0368 61.9536 45.4598 60.8847 45.5347C60.3629 45.5756 59.5974 45.049 59.2872 44.5424C58.2872 42.9043 57.4485 41.1648 56.3882 39.1382C67.8096 34.739 79.5415 31.8736 91.2542 28.2345L91.2479 28.2379ZM6.04911 61.1772C5.71787 63.2519 5.55742 65.3603 5.30845 67.5971C4.34793 67.4197 3.39757 67.1846 2.46188 66.8927C2.27784 66.7793 2.12145 66.6211 2.00542 66.4309C1.8894 66.2408 1.817 66.0241 1.79413 65.7984C1.70807 64.1091 1.5398 62.403 1.76685 60.7574C2.11184 57.9929 2.65313 55.2603 3.38601 52.5834C5.18621 46.3757 9.50466 42.3829 14.5287 39.2579C21.434 34.9663 28.4691 30.9076 35.4377 26.7443C38.5995 24.8571 41.6981 22.9125 44.6701 21.0929C46.8222 24.967 49.0629 29.0606 51.3542 33.1238C54.5506 38.8015 57.8577 44.4114 60.9751 50.1364C63.3456 54.4969 65.4473 59.0062 66.0565 64.1245C66.4612 67.3415 66.107 70.6158 65.0261 73.6496C63.8067 77.0291 62.154 80.2229 60.6594 83.5721L56.9588 82.4019C57.0693 82.0167 57.085 81.6214 57.2746 81.3881C59.4051 78.5217 59.8021 74.9671 60.5029 71.588C61.554 66.5193 60.5464 61.6411 58.8304 56.8714C55.7688 48.3489 51.0979 40.7665 46.7147 33.0117C45.7653 31.3432 44.7305 29.739 43.7905 28.0671C43.3918 27.3544 43.1165 27.1012 42.3008 27.5814C38.6647 29.7325 34.9242 31.6876 31.3197 33.896C27.064 36.5069 22.7829 39.1178 18.7455 42.08C15.2361 44.6533 11.847 47.561 9.65063 51.583C8.5477 53.6108 7.88447 55.902 7.05991 58.0885C6.62608 59.077 6.28945 60.111 6.05544 61.1738L6.04911 61.1772ZM11.002 69.9588C8.89213 68.8552 8.47055 66.4837 8.55827 64.3584C8.66475 61.7027 9.2804 59.0568 9.82015 56.4448C10.1011 55.1336 10.7363 53.9034 11.0838 52.9606C12.8182 56.2943 14.5147 59.7835 16.4262 63.134C17.632 65.2483 19.1761 67.1394 20.5399 69.1489C21.9607 71.2361 22.5025 73.6076 22.5794 76.1652C22.6306 77.8782 22.8748 79.5876 23.0336 81.2972C20.1315 76.0991 15.9872 72.5709 11.0083 69.9723L11.002 69.9588ZM16.5897 60.6641C14.8523 57.7898 13.1086 54.8987 12.8257 51.2803C12.7176 49.858 13.179 48.9691 14.0547 48.1374C15.8946 46.4031 17.744 44.6856 19.8021 42.7585C19.9213 48.2285 21.7795 52.8089 23.4986 57.4164C24.6193 60.4295 25.2119 63.4969 24.5997 66.7037C24.3408 68.0553 23.693 69.3362 23.1971 70.7218C20.8997 67.2465 18.6309 64.0347 16.5897 60.6641ZM28.1611 67.7185C29.3086 66.5421 30.6903 65.6189 32.0688 64.7261C33.3525 63.8908 34.4754 64.478 35.3076 65.6431C37.5891 68.8447 38.0301 72.4766 37.3327 76.3253C36.588 80.4308 34.2363 83.5981 31.8466 86.7113C30.1334 88.9355 28.2968 91.055 26.6373 93.0765C25.9273 89.0698 24.9326 84.8774 24.5008 80.6172C24.0214 75.8907 24.7153 71.2682 28.1611 67.7185ZM2.70434 120.198C2.34377 120.07 1.80278 119.607 1.81532 119.327C1.90315 117.485 2.13013 115.647 2.29069 113.813C2.6812 109.673 4.72291 106.378 7.03033 103.234C8.61077 101.112 10.8526 99.9751 13.2084 99.3013C15.5977 98.6512 18.0288 98.1912 20.4817 97.9252C24.5707 97.4227 28.0723 99.0998 31.2137 101.713C33.8901 103.935 36.5223 106.247 37.9563 109.635C38.5905 111.128 39.0142 112.712 39.2137 114.338C39.8483 119.611 38.4049 124.413 35.8861 128.868C35.6902 129.206 34.9059 129.355 34.4125 129.315C31.9741 129.124 29.5388 128.642 27.1005 128.644C24.3965 128.645 22.0409 129.998 19.8752 131.672L17.9498 133.143C18.8654 129.142 19.664 125.442 20.6019 121.785C20.7155 121.343 21.5503 120.916 22.0815 120.825C26.0945 120.147 28.8323 117.642 29.7257 113.573C30.96 107.937 28.1749 102.489 21.6379 102.628C17.7353 102.711 15.7851 105.334 14.5846 108.443C13.384 111.552 13.8851 114.931 15.9576 117.768C16.2741 118.183 16.521 118.75 16.929 118.943C18.8902 119.877 18.5934 121.273 18.0154 123.054C17.0678 125.991 16.3732 129.022 15.4574 132.452C15.1124 131.611 14.894 131.127 14.7135 130.628C12.5828 124.696 7.95808 122.053 2.70434 120.215L2.70434 120.198ZM16.0923 114.504C15.4933 111.196 16.9116 106.965 19.1248 105.548C21.4045 104.087 23.5523 105.188 25.6273 106.122C27.8067 107.104 27.7822 109.317 27.7767 111.422C27.7783 115.264 25.8819 118.258 22.9411 119.098C22.2084 119.29 21.4472 119.322 20.7026 119.194C19.958 119.065 19.2451 118.778 18.6064 118.349C17.9676 117.921 17.416 117.36 16.9841 116.699C16.5522 116.038 16.249 115.292 16.0923 114.504ZM4.86525 154.321C4.57739 154.18 4.18831 153.984 3.78975 153.798C1.62933 152.786 1.78116 152.833 2.35574 150.269C3.24916 146.271 8.49725 141.919 12.3495 142.539C15.1201 142.987 17.5809 143.934 19.1949 146.589C21.4766 150.365 21.8037 153.984 20.1261 158.275L16.8653 157.764C16.9879 155.936 17.1801 154.108 17.2205 152.28C17.2764 149.672 15.8777 147.507 13.8629 146.876C10.798 145.918 8.71098 146.541 7.25089 149.097C6.33123 150.722 5.68362 152.51 4.86525 154.321ZM6.52926 155.614C6.46599 155.502 6.42766 155.376 6.41719 155.245C6.40673 155.115 6.42441 154.983 6.46887 154.861C7.26508 152.952 7.85248 150.87 8.99668 149.214C10.1409 147.557 11.9308 147.374 13.7053 148.329C15.287 149.183 15.9707 150.652 15.9208 152.48C15.8664 153.797 15.7487 155.109 15.5681 156.413C15.4547 157.332 15.0247 157.822 14.1521 158.347C12.6028 159.28 11.3289 160.744 9.97579 162.025C9.63438 162.363 9.42268 162.833 8.92961 163.58C8.91885 160.384 8.33909 157.772 6.52926 155.614ZM2.02702 174.72C1.84353 174.595 1.78328 174.156 1.77052 173.859C1.61107 170.555 4.09232 167.147 7.10286 166.591C8.82948 166.273 9.69022 167.631 10.4908 168.877C11.8231 170.95 11.6632 174.529 10.2409 176.526C10.1137 176.742 9.9361 176.919 9.72557 177.04C6.81649 178.197 6.81332 178.191 4.79336 180.452C4.15051 178.307 3.96619 176.044 2.02702 174.72ZM7.10638 223.438C4.08595 222.933 1.61464 219.515 1.77145 216.194C1.77134 215.896 1.85339 215.46 2.03993 215.339C4.00019 214.027 4.14793 211.743 4.79539 209.593C6.30771 211.14 7.43117 213.041 9.73351 213.033C9.94225 213.033 10.1891 213.408 10.3663 213.658C12.1859 216.525 11.6342 220.952 9.08598 223.004C8.50326 223.401 7.80438 223.555 7.12219 223.438L7.10638 223.438ZM7.29367 233.145C8.32078 231.336 8.6899 229.089 9.35954 227.008C10.4705 229.396 12.413 231.081 14.8739 232.12C14.9652 232.16 15.0477 232.22 15.1163 232.297C15.1848 232.373 15.238 232.463 15.2725 232.562C15.8269 234.967 16.4699 237.379 15.4778 239.833C14.7764 241.567 13.3504 242.199 11.7533 242.241C10.1562 242.282 9.0521 241.306 8.2546 239.949C7.81155 239.192 7.58031 238.297 7.18152 237.51C6.42824 236.014 6.37399 234.777 7.30314 233.145L7.29367 233.145ZM2.66347 240.601C1.39705 237.091 1.44766 237.071 4.9228 235.812C5.69831 237.531 6.33469 239.325 7.2651 240.926C8.82214 243.597 10.9381 244.208 13.9927 243.141C16.0007 242.441 17.3028 240.325 17.2448 237.649C17.2062 235.865 17.0157 234.085 16.8948 232.304L20.1837 231.765C20.9752 233.971 21.6371 236.298 21.0688 238.711C20.2542 242.182 18.8354 245.21 15.4268 246.749C9.71624 249.33 4.28445 245.05 2.67295 240.601L2.66347 240.601ZM19.8312 292.068C16.997 291.651 14.2043 290.96 11.4876 290.002C8.60607 288.99 6.79298 286.555 5.09363 283.88C2.52403 279.827 2.16804 275.31 1.8721 270.705C1.85301 270.425 2.39045 269.945 2.75409 269.813C6.54862 268.435 10.264 266.892 12.7072 263.266C13.7945 261.65 14.5528 259.781 15.5514 257.858C16.359 260.777 17.1349 263.638 17.9394 266.499C18.0109 266.914 18.1169 267.321 18.2561 267.715C18.848 268.965 18.7408 269.796 17.5172 270.703C13.619 273.587 12.9167 281.041 16.8019 285.16C20.3644 288.939 26.1736 287.787 28.4714 284.343C30.6206 281.125 31.2196 276.344 27.812 272.474C26.249 270.701 24.4807 269.462 22.1751 269.254C21.0713 269.153 20.6663 268.545 20.4255 267.383C19.7315 263.985 18.8605 260.627 18.0179 257.096C19.8621 258.261 21.4343 259.375 23.1077 260.279C25.8344 261.751 28.7755 261.56 31.707 261.251C31.8051 261.251 31.8936 261.183 31.9916 261.163C35.8464 260.302 35.8464 260.302 37.4893 264.2C39.3412 268.591 39.8711 273.085 38.8863 277.836C38.1161 281.553 35.8432 284.078 33.371 286.478C32.2409 287.509 31.0599 288.474 29.8333 289.369C28.4152 290.502 26.8013 291.324 25.0846 291.787C23.3679 292.25 21.5825 292.346 19.8312 292.068ZM22.1219 270.781C24.5256 271.003 26.1359 272.556 27.0919 274.785C27.611 275.998 27.7476 277.4 28.058 278.714C27.8448 283.208 24.677 285.987 20.5495 285.138C18.5538 284.72 17.7023 282.906 16.8731 281.258C15.6419 278.84 15.5081 276.248 16.8101 273.825C17.9477 271.669 19.791 270.563 22.1219 270.781ZM25.541 303.589C25.9228 301.308 26.3425 299.038 26.7306 296.831C29.1733 299.962 31.7932 303.123 34.2044 306.456C37.4161 310.897 38.6704 315.88 36.9807 321.375C36.558 322.564 35.9452 323.667 35.1698 324.633C34.8641 325.089 34.4183 325.417 33.9098 325.559C33.4013 325.7 32.8625 325.647 32.3871 325.408C27.8101 323.475 25.6644 319.608 24.7389 314.712C24.0227 310.922 24.9194 307.269 25.541 303.583L25.541 303.589ZM23.756 332.242C22.4577 336.121 21.3429 340.071 20.2155 344.015C19.9628 344.907 20.0043 345.894 19.8815 347.137C17.9833 345.486 16.2116 343.903 14.4115 342.336C12.1337 340.354 12.5817 337.691 13.6213 335.579C15.6943 331.388 18.2544 327.467 20.6406 323.462C21.437 322.131 22.3157 320.853 23.2007 319.484C25.6153 323.642 25.2217 327.879 23.756 332.235L23.756 332.242ZM8.82868 324.027C9.16635 322.195 9.85837 320.725 11.5911 319.825C16.3845 317.329 20.3363 313.793 23.0223 308.331C23.1037 308.759 23.1525 309.192 23.1683 309.628C23.0235 311.362 22.8281 313.088 22.6928 314.818C22.5143 317.431 21.5804 319.921 20.0201 321.942C16.3977 326.634 13.3352 331.66 11.44 337.581C9.67987 333.169 7.93245 328.903 8.82868 324.02L8.82868 324.027ZM25.2017 357.179C20.9281 354.603 16.6355 352.052 12.4693 349.29C6.03181 345.027 2.82241 338.522 1.87371 330.684C1.60401 328.454 1.82447 326.153 1.87102 323.889C1.90184 323.745 1.96514 323.61 2.05548 323.498C2.1458 323.385 2.26042 323.298 2.38941 323.243C3.41712 322.935 4.47017 322.708 5.45047 322.465C5.65999 324.461 5.76827 326.367 6.08526 328.225C7.35315 335.485 10.7109 341.321 16.2409 345.886C21.8246 350.518 27.9803 354.136 34.1519 357.758C36.8787 359.358 39.6592 360.853 42.3764 362.456C43.1135 362.888 43.455 362.793 43.9006 362.009C45.8284 358.629 47.9081 355.327 49.7821 351.903C52.285 347.331 54.8196 342.754 57.022 338.013C59.136 333.464 60.8545 328.678 60.9473 323.482C60.9844 321.401 60.6009 319.296 60.2649 317.228C60.0147 315.565 59.6234 313.928 59.096 312.34C58.5577 310.776 57.7412 309.32 56.9689 307.645L60.4915 306.518C62.2387 310.196 64.6783 313.459 65.5845 317.685C66.8265 323.492 66.2689 328.969 63.7725 334.181C61.9271 338.044 59.7907 341.751 57.7302 345.493C54.7374 350.934 51.6751 356.332 48.6823 361.773C47.3423 364.237 46.0783 366.745 44.9343 368.965C38.4211 365.08 31.7908 361.158 25.2017 357.179Z" fill="url(#paint0_linear_105_23)"/>
<defs>
<linearGradient id="paint0_linear_105_23" x1="-202.936" y1="195.143" x2="196.953" y2="194.984" gradientUnits="userSpaceOnUse">
<stop stop-color="#BC945C"/>
<stop offset="0.28" stop-color="#966F40"/>
<stop offset="0.42" stop-color="#C79B61"/>
<stop offset="0.56" stop-color="#EEBD7B"/>
<stop offset="0.63" stop-color="#FDCA85"/>
<stop offset="0.71" stop-color="#ECBB79"/>
<stop offset="0.87" stop-color="#BE935B"/>
<stop offset="1" stop-color="#966F40"/>
</linearGradient>
</defs>
</svg>
