<svg width="295" height="590" viewBox="0 0 295 590" fill="none" xmlns="http://www.w3.org/2000/svg">
<g clip-path="url(#clip0_105_3)">
<path d="M292.861 1.27909C283.975 10.4228 274.905 19.4124 266.05 28.5715C261.73 33.0303 257.605 37.6895 253.536 42.3847C252.51 43.5559 251.792 43.4531 250.674 42.8316C247.647 41.1518 244.553 39.5902 241.557 37.8539C235.785 34.5098 229.531 31.9413 224.596 27.2256C223.426 26.1109 222.59 26.8712 222.107 28.1965C218.567 37.9207 212.077 45.9908 207.044 54.8776C206.798 55.3194 205.705 55.6687 205.172 55.5095C195.634 52.6482 186.153 49.5866 176.595 46.7767C167.499 44.1261 158.331 41.7425 149.199 39.2203C147.875 38.8556 147.09 39.097 146.721 40.5919C145.761 44.4908 144.669 48.3589 143.643 52.2475C141.801 59.2594 139.846 66.2456 138.168 73.3089C136.286 81.1992 134.639 89.1511 132.935 97.0825C132.638 98.4643 131.909 98.8856 130.555 98.8599C126.999 98.8034 123.439 98.9061 119.878 98.8599C113.486 98.752 107.093 98.7058 100.711 98.3462C98.6589 98.2332 98.3152 98.7417 98.546 100.581C99.0151 103.762 99.296 106.968 99.3874 110.182C99.4182 116.14 99.1207 122.099 99.0283 128.058C98.9667 132.08 99.0026 132.024 95.0933 132.959C85.3454 135.291 75.5976 137.628 65.8754 140.063C57.6308 142.118 49.4221 144.363 41.1878 146.484C39.8282 146.833 38.9304 147.337 39.4127 148.95C40.018 151.025 40.6747 153.08 41.2545 155.191C43.5221 163.333 45.6974 171.496 48.042 179.612C50.4534 187.96 52.9467 196.281 55.5838 204.557C56.0301 205.964 55.9224 206.612 54.7219 207.264C45.8513 212.154 37.9146 218.678 28.218 222.079C26.8226 222.593 26.5917 223.533 27.587 224.709C28.0311 225.172 28.4345 225.672 28.7927 226.204C33.6255 234.479 38.4635 242.75 43.1835 251.087C43.4657 251.601 43.045 252.885 42.532 253.368C38.4687 257.169 34.1847 260.739 30.1933 264.618C20.6455 273.9 11.2107 283.311 1.75013 292.66C-0.594476 294.977 -0.599607 294.951 1.84761 297.366C10.4667 305.862 19.0294 314.42 27.7153 322.85C32.4045 327.401 37.2117 331.845 42.1626 336.108C43.6093 337.356 43.8351 338.219 42.8552 339.668C42.5012 340.182 42.2806 340.808 41.9522 341.358C37.1091 349.341 33.8205 358.259 27.5049 365.358C26.4788 366.524 26.9919 367.412 28.3566 367.926C38.1044 371.409 46.1438 377.943 55.0348 382.972C55.2995 383.201 55.5036 383.492 55.6289 383.819C55.7542 384.147 55.7969 384.5 55.7531 384.847C52.8082 394.797 49.6735 404.691 46.7902 414.641C44.4302 422.768 42.3832 430.951 40.172 439.103C39.1459 442.858 39.1459 442.786 42.7372 443.726C52.5979 446.295 62.4124 449.069 72.3039 451.524C80.6254 453.579 89.0342 455.3 97.3763 457.278C97.7653 457.43 98.1112 457.676 98.3839 457.993C98.6566 458.309 98.8479 458.688 98.9411 459.096C99.1668 463.519 99.3464 467.952 99.254 472.38C99.1309 478.159 98.741 483.938 98.464 489.712C98.387 491.253 98.782 492.08 100.552 491.592C101.626 491.264 102.739 491.077 103.861 491.037C112.901 490.991 121.936 491.037 130.97 490.981C132.422 490.981 132.689 491.798 132.915 492.892C134.238 499.272 135.362 505.703 136.947 512.017C140.051 524.345 143.453 536.602 146.618 548.915C147.1 550.795 147.937 551.006 149.548 550.538C156.027 548.674 162.538 546.901 169.018 545.021C180.972 541.549 192.905 538.004 204.869 534.578C205.531 534.388 206.839 534.737 207.132 535.246C212.16 544.045 218.573 552.064 222.113 561.701C222.815 563.622 223.652 563.555 225.104 562.312C226.89 560.687 228.83 559.24 230.896 557.992C236.837 554.581 242.87 551.314 248.914 548.078C252.315 546.259 252.356 546.341 254.84 549.418C255.096 549.732 255.399 550.004 255.676 550.297C262.458 557.324 269.239 564.345 276.018 571.358C281.697 577.209 287.449 582.983 293.092 588.87C293.805 589.61 294.395 589.985 294.995 589.974V586.543C294.087 586.543 293.174 585.623 291.327 583.769C283.852 576.274 276.275 568.872 268.912 561.274C263.931 556.138 259.247 550.703 254.116 545.062C257.523 543.208 260.529 541.502 263.618 539.956C263.954 539.842 264.313 539.812 264.663 539.868C265.014 539.925 265.345 540.066 265.629 540.28C271.703 546.727 277.706 553.245 283.724 559.749C286.854 563.129 290.019 566.468 293.092 569.899C293.774 570.66 294.38 571.055 294.995 571.045V568.379C285.673 558.398 276.403 548.478 266.947 538.348L277.721 531.67C281.682 536.479 285.602 541.261 289.521 546.023C290.753 547.513 291.989 548.997 293.328 550.389C293.529 550.638 293.78 550.841 294.065 550.986C294.349 551.131 294.661 551.215 294.98 551.232V548.802C293.379 547.066 291.825 545.504 290.419 543.819C287.341 540.1 284.34 536.299 281.277 532.559C280.092 531.11 279.322 530.032 281.538 528.562C283.755 527.093 285.514 525.039 287.546 523.179C289.47 525.588 291.353 527.895 293.19 530.253C293.821 531.069 294.411 531.439 294.995 531.434V529.41C292.943 526.569 291.23 524.191 289.562 521.766C289.449 521.571 289.379 521.353 289.356 521.128C289.334 520.903 289.361 520.676 289.434 520.462C291.327 516.352 293.277 512.243 294.985 508.647V508.672V487.436C292.475 487.364 289.988 486.928 287.603 486.142C280.497 483.933 274.048 480.589 268.533 475.627C264.331 471.846 261.648 466.95 259.298 461.865C256.794 456.461 256.953 450.769 257.246 444.887H265.613C266.26 447.595 266.732 450.446 267.63 453.153C271.816 465.815 280.292 474.07 293.344 477.086C293.883 477.211 294.432 477.292 294.985 477.327V474.851C291.184 474.887 287.803 473.356 284.55 471.337C276.244 466.144 270.564 458.85 268.764 448.946C268.507 447.538 268.333 446.11 268.086 444.446L277.444 442.314C277.814 443.685 278.198 445.062 278.558 446.423C280.179 452.588 283.308 457.699 289.024 460.853C290.846 461.93 292.891 462.573 295.001 462.733V460.565C291.922 460.617 289.034 458.808 285.92 455.654C282.364 452.059 280.846 447.338 279.886 442.473C279.891 442.153 279.969 441.837 280.114 441.552C280.259 441.266 280.467 441.017 280.723 440.824C282.605 439.473 284.586 438.256 286.228 437.187C287.567 440.095 288.608 443.161 290.291 445.822C291.589 447.877 293.292 448.904 295.001 448.904V445.709C294.131 445.607 293.327 445.197 292.733 444.553C289.819 441.702 288.906 437.968 288.942 434.187C288.942 432.492 290.691 430.843 291.548 429.122C292.82 426.554 294 423.96 294.908 422.033L295.001 422.213V406.33C288.239 406.33 282.652 402.893 278.363 397.844C273.776 392.445 272.483 386.029 274.079 378.991C274.422 377.481 274.905 376.911 276.413 377.019C277.921 377.126 279.296 377.019 280.836 377.019C280.836 379.695 280.784 382.017 280.836 384.339C281.036 392.558 286.017 398.095 292.046 399.929C293.002 400.221 293.996 400.368 294.995 400.366V398.003C291.009 398.003 287.151 395.511 284.981 391.515C282.446 386.84 282.652 381.755 283.416 376.664C283.473 376.279 283.929 375.878 284.299 375.637C286.166 374.399 288.064 373.207 290.137 371.882C289.727 374.409 289.07 376.803 289.008 379.217C288.926 381.762 289.192 384.306 289.798 386.779C290.352 388.941 292.877 390.452 294.995 390.421V388.022C293.918 388.022 292.43 386.773 291.861 385.69C291.224 384.3 290.953 382.77 291.076 381.246C291.253 376.26 292.455 371.364 294.606 366.863C294.647 366.781 294.76 366.734 295.006 366.637V356.209C294.775 356.209 294.544 356.209 294.308 356.209C289.475 356.034 285.073 351.411 284.817 346.593C284.776 345.714 284.519 344.851 284.493 343.978C284.442 342.18 284.545 340.588 286.864 339.987C290.619 339.021 293.328 336.642 294.985 332.707C294.986 332.725 294.986 332.742 294.985 332.759V323.569H294.949C294.2 323.569 293.174 322.542 292.805 321.694C290.188 315.843 292.184 310.542 294.985 304.742V285.135C294.985 285.186 294.939 285.232 294.919 285.278C292.441 279.535 290.142 274.429 292.646 268.748C293.077 267.767 294.134 267.063 294.903 266.236L294.985 266.313V257.123C294.975 257.148 294.963 257.172 294.949 257.195C293.261 253.173 290.332 250.954 286.464 249.736C286.033 249.554 285.65 249.273 285.347 248.916C285.044 248.56 284.829 248.137 284.719 247.681C284.34 243.885 285.232 238.661 288.695 235.943C290.485 234.528 292.704 233.767 294.985 233.786V223.456L294.118 223.569C293.092 218.987 291.881 214.43 291.122 209.802C290.872 207.882 291.144 205.93 291.907 204.151C292.328 203.149 293.857 202.096 294.985 201.999V199.471H294.734C292.533 199.574 289.973 201.372 289.603 203.879C289.152 206.961 289.29 210.197 289.362 213.356C289.398 214.898 289.875 216.475 290.137 218.082C288.152 216.814 286.033 215.838 284.463 214.317C283.56 213.449 283.262 211.713 283.124 210.326C282.503 204.233 283.39 198.624 288.48 194.401C290.279 192.807 292.598 191.926 295.001 191.925V189.603C292.164 189.521 289.639 190.682 287.372 192.408C282.908 195.799 280.866 200.494 280.836 206.083C280.836 208.25 280.836 210.418 280.836 212.925C279.122 212.925 277.285 213.017 275.474 212.858C275.018 212.817 274.392 212.031 274.243 211.476C271.375 200.781 276.88 190.312 285.53 186.568C288.3 185.365 291.173 183.645 294.031 183.557C294.359 183.557 294.683 183.557 295.006 183.557V167.633L294.939 167.756C293.677 165.219 292.24 161.828 290.322 158.72C289.049 156.666 288.367 154.652 289.296 152.443C290.242 150 291.428 147.656 292.836 145.447C293.051 145.063 293.368 144.747 293.752 144.534C294.137 144.321 294.572 144.219 295.011 144.239V141.018C293.261 141.018 291.502 142.2 290.055 144.537C288.485 147.08 287.49 149.993 286.263 152.756L279.717 148.411C281.256 140.582 283.934 133.549 292.03 130.026C292.961 129.609 293.966 129.382 294.985 129.358V127.103C291.497 127.005 288.593 128.962 285.894 131.212C282.013 134.445 279.392 138.942 278.491 143.916C278.25 145.164 277.788 146.371 277.429 147.614L268.194 145.436C269.03 132.907 275.418 124.087 285.556 117.861C288.375 116.054 291.653 115.094 295.001 115.093V112.781C291.132 112.719 287.638 114.199 284.411 116.038C276.962 120.286 271.303 126.445 268.271 134.633C267.276 137.32 266.819 140.222 266.275 143.058C265.993 144.522 265.598 145.38 263.859 145.251C261.709 145.097 259.534 145.215 257.446 145.215C255.778 134.305 259.288 125.238 265.962 117.204C272.637 109.17 281.764 105.189 291.615 102.749C292.732 102.49 293.88 102.384 295.026 102.435V81.2968V81.3276C293.359 77.7574 291.471 73.7712 289.66 69.7541C289.547 69.4788 289.493 69.1826 289.503 68.885C289.512 68.5875 289.585 68.2954 289.716 68.0281C291.312 65.6343 293.025 63.3124 295.011 60.5231L295.042 60.5642V58.4067C294.185 58.4067 293.333 59.5317 291.332 61.8176C289.968 63.3587 288.89 65.1977 287.741 66.8261L279.62 59.5163C284.75 53.28 289.747 47.2236 295.042 40.7871V38.5268C294.702 38.5631 294.375 38.674 294.083 38.8516C293.791 39.0292 293.542 39.2691 293.354 39.5542L277.65 58.2012L266.953 51.5695L295.001 21.5288V18.796C294.272 18.796 293.549 19.4894 292.266 20.8867C286.212 27.4876 280.102 34.0423 274.012 40.6124C271.401 43.448 268.712 46.2322 266.168 49.1346C265.234 50.203 264.485 50.6756 263.125 49.864C260.298 48.1791 257.405 46.6175 253.814 44.5987L295.001 2.11641V0C294.339 0 293.687 0.431501 292.861 1.27909ZM148.783 41.3778L205.485 57.5334C203.592 60.8775 202.109 63.5333 200.596 66.1634C199.739 67.6429 198.713 68.1463 196.84 67.5555C184.501 63.672 172.116 59.9324 159.742 56.1619C156.664 55.2269 156.525 55.4067 155.822 58.5505C153.924 67.0162 151.964 75.4715 150.02 83.932C149.05 88.1648 148.014 92.3822 147.106 96.6304C146.834 97.8941 146.454 98.6852 144.976 98.6338C141.77 98.5619 138.558 98.6338 134.772 98.6338C138.394 79.1752 144.022 60.6464 148.783 41.3778ZM187.328 93.7178C185.322 92.8189 183.296 91.9404 181.295 91.0158C176.98 89.0227 176.462 89.2076 175.533 93.7897C175.056 96.1373 174.928 98.5517 174.636 100.981C171.614 100.365 168.648 99.8462 165.734 99.1013C165.134 98.9523 164.252 97.8839 164.334 97.3753C165.483 90.1836 166.781 82.9919 168.053 75.8003C168.053 75.677 168.274 75.5794 168.73 75.1427L190.709 83.3618C189.524 86.9987 188.477 90.199 187.333 93.7178H187.328ZM188.2 110.218C186.148 108.563 184.199 106.216 181.731 105.23C176.488 103.129 176.739 99.2503 177.421 94.9558C177.55 94.1647 177.698 93.3736 177.934 92.0535C180.941 93.3942 183.845 94.6219 186.692 96.0192C187.031 96.1784 187.169 96.9746 187.205 97.4883C187.564 101.711 187.877 105.903 188.206 110.218H188.2ZM181.803 77.5674C177.514 75.9955 173.189 74.5109 168.879 72.9801C167.114 72.3534 166.258 72.8157 165.934 74.8089C165.298 78.7694 164.323 82.6683 163.646 86.6237C162.969 90.5792 162.492 94.5449 161.897 98.6955L149.158 98.1253C152.236 84.7693 155.314 71.4955 158.393 58.1293L197.671 70.1548L191.679 81.3738C188.339 80.105 185.091 78.79 181.803 77.5674ZM101.255 141.933C101.487 131.135 101.641 120.334 101.717 109.529C101.717 106.663 101.311 103.796 101.106 101.079H131.376C134.613 101.079 137.85 101.136 141.082 101.079C143.324 101.028 145.561 100.689 147.803 100.663C151.974 100.617 156.161 100.504 160.316 100.796C163.656 101.028 166.986 101.757 170.275 102.368C176.282 103.483 180.905 107.084 185.512 110.808C190.74 115.041 192.777 121.36 196.26 126.409L192.156 130.924C190.283 128.238 188.765 125.474 186.707 123.219C179.525 115.324 170.911 110.264 160.06 108.625C151.338 107.305 142.616 107.403 133.895 107.197C125.948 107.012 117.99 107.711 110.018 107.957C108.684 107.998 108.16 108.394 108.145 109.781C108.145 111.861 107.817 113.947 107.781 116.033C107.627 125.279 107.334 134.587 107.458 143.859C107.591 153.938 108.355 164.037 112.87 173.258C114.558 176.699 117.488 179.55 119.904 182.617C120.973 184.117 122.203 185.495 123.572 186.727C125.866 188.591 128.385 190.184 131.114 192.105L126.497 196.122C121.448 192.727 115.256 190.436 110.792 185.335C105.051 178.754 101.804 171.306 101.281 162.619C101.034 158.458 100.593 154.297 100.542 150.137C100.521 147.383 101.209 144.671 101.265 141.953L101.255 141.933ZM254.742 98.716C252.038 96.7897 249.653 95.4079 247.719 93.5534C246.934 92.8034 246.769 90.985 246.949 89.7264C247.801 83.783 249.514 77.8859 249.689 71.9373C249.904 64.7456 248.616 57.6464 243.65 51.8366C243.568 51.7441 243.619 51.5438 243.553 50.6756C248.56 53.9787 253.3 56.881 257.805 60.1481C261.56 62.8758 262.31 66.9853 261.186 71.2233C260.062 75.4612 258.451 79.6375 256.979 83.8087C255.327 88.5295 253.295 93.1476 254.752 98.7366L254.742 98.716ZM247.395 75.2301C247.067 79.9663 245.533 84.6769 244.071 89.2487C242.932 92.8189 239.838 93.9079 237.006 91.8172C226.853 84.3275 220.168 74.5777 220.035 61.6018C219.958 54.6259 223.051 48.364 227.376 42.8521C242.783 49.3914 248.519 59.3159 247.406 75.2506L247.395 75.2301ZM228.628 87.3275C230.521 89.4131 232.471 91.437 234.42 93.4918C235.606 94.7195 236.016 95.8907 235.087 97.6013C233.938 99.692 233.133 101.978 231.912 104.793C228.977 96.8205 221.984 93.4096 216.69 88.3549C214.832 86.5826 212.832 84.8977 211.272 82.8841C208.342 79.0982 208.614 74.8705 210.62 70.8021C212.75 66.4922 215.156 62.3262 217.567 57.8622C217.767 61.1806 217.659 64.1549 218.178 67.0162C219.583 74.8037 223.334 81.4868 228.628 87.3275ZM222.4 95.9113C226.361 98.9943 229.325 103.179 230.922 107.942C231.435 109.483 231.327 111.271 231.501 112.945L230.932 113.567C222.749 109.185 214.514 104.916 206.434 100.329C204.592 99.276 203.263 97.1955 201.919 95.4233C200.837 93.9901 201.124 92.3411 201.74 90.6665C203.068 87.0707 204.254 83.4389 205.644 79.391C210.179 86.4953 216.341 91.175 222.4 95.9113ZM224.744 112.437C228.849 114.055 232.399 116.454 234.682 120.522C236.078 123.014 237.996 125.212 239.813 127.714C236.468 126.322 233.379 124.899 230.188 123.743C225.483 122.043 220.538 121.848 215.633 122.228C210.964 122.592 208.276 120.101 206.054 116.577C203.607 112.683 202.366 108.389 201.811 103.863C201.601 102.137 201.365 100.416 201.134 98.6441C207.87 105.214 216.151 109.067 224.744 112.437ZM207.783 125.341C217.157 123.61 226.422 123.63 235.123 128.058C243.045 132.091 249.75 137.464 252.608 146.551L245.779 150.424C242.614 147.378 239.843 144.188 236.544 141.691C231.582 137.921 225.656 135.631 219.45 135.085C216.592 134.838 213.718 134.843 210.862 135.101C203.022 135.733 198.718 141.07 195.275 147.342C192.464 152.479 191.684 158.13 191.279 163.847C190.94 168.907 192.448 173.715 194.311 178.384C194.485 178.821 194.654 179.258 194.88 179.828L187.651 184.122C177.765 172.616 178.304 153.702 186.692 141.604C189.114 138.116 191.797 134.793 194.542 131.546C197.953 127.457 202.827 126.245 207.783 125.341ZM278.958 278.934C275.608 277.768 272.499 276.818 269.184 278.087C268.913 278.154 268.631 278.163 268.356 278.113C268.081 278.064 267.819 277.957 267.589 277.799C263.192 274.604 260.791 270.977 262.397 265.47C262.771 264.166 264.449 262.686 265.783 262.306C270.503 260.996 275.289 263.21 277.706 267.443C278.056 268.068 278.155 268.803 277.983 269.498C276.906 272.652 277.809 275.616 278.958 278.934ZM278.004 320.543C278.224 321.16 277.921 322.156 277.532 322.768C274.843 326.995 270.498 328.958 265.783 327.627C265 327.343 264.287 326.895 263.69 326.314C263.093 325.733 262.626 325.032 262.32 324.257C260.888 319.711 263.382 314.446 267.599 312.155C268.004 311.934 268.625 311.641 268.943 311.785C272.309 313.439 275.474 312.078 278.906 311.117C277.85 314.379 276.865 317.312 278.004 320.543ZM256.994 506.104C258.277 509.571 259.657 513.023 260.678 516.568C263.382 525.943 259.878 528.681 254.193 532.549C250.804 534.818 247.219 536.779 243.481 538.41C244.221 537.594 244.888 536.716 245.477 535.785C249.114 528.83 250.607 521.402 249.473 513.645C248.791 508.97 247.652 504.363 246.708 499.729C246.395 498.188 246.569 497.027 248.098 496.061C250.238 494.7 252.203 493.036 254.722 491.125C253.377 496.791 255.271 501.429 256.994 506.104ZM245.235 531.157C243.019 537.27 237.996 541.035 232.835 544.513C231.25 545.581 229.408 546.264 227.479 547.23C222.692 540.783 219.568 533.874 220.045 525.912C220.25 522.475 221.482 519.003 222.774 515.756C225.421 509.213 229.764 503.496 235.354 499.195C239.751 495.733 242.578 496.493 244.589 501.671C248.344 511.41 248.827 521.309 245.235 531.157ZM234.164 496.78C230.183 501.506 226.001 506.119 222.564 511.225C219.316 516.054 217.824 521.736 217.582 527.617C217.531 528.932 217.88 530.268 218.126 532.21C217.57 531.53 217.056 530.816 216.587 530.073C214.407 525.963 212.129 521.9 210.148 517.693C207.686 512.448 209.702 508.051 213.54 504.45C217.582 500.654 222.046 497.304 226.063 493.483C228.392 491.269 230.203 488.505 232.281 485.947C233.097 487.837 233.851 490.056 234.995 492.08C236.139 494.104 235.426 495.28 234.149 496.796L234.164 496.78ZM205.628 510.609C204.018 505.842 201.97 501.558 201.262 497.058C200.806 494.145 203.474 491.71 205.941 489.897C211.877 485.52 218.424 482.294 225.268 479.623C227.269 478.842 229.177 477.81 231.424 476.757C231.517 485.017 227.074 490.426 221.133 495.075C215.479 499.472 209.835 503.931 205.628 510.609ZM221.728 478.863C214.051 481.252 207.06 485.454 201.345 491.114C201.658 485.818 202.278 481.067 204.336 476.608C205.053 475.078 205.893 473.609 206.85 472.216C208.927 469.134 211.616 467.367 215.571 467.654C224.057 468.271 232.091 466.714 239.51 462.178C234.898 469.154 230.603 476.084 221.728 478.863ZM224.837 465.091C216.941 466.57 209.122 465.409 201.529 463.036C199.52 462.432 197.674 461.378 196.132 459.954C188.949 452.942 182.942 445.057 181.11 434.901C179.438 425.655 180.022 416.614 185.728 408.569C186.333 407.722 186.877 406.828 187.549 405.806L194.449 409.915C193.454 414.097 192.294 418.026 191.612 422.033C190.663 427.607 191.761 433.057 193.49 438.353C194.946 442.635 197.29 446.56 200.37 449.87C203.402 453.24 207.275 454.576 211.508 454.951C225.36 456.178 236.457 451.144 244.794 440.007C244.938 439.817 245.107 439.648 245.369 439.35L252.772 443.526C247.544 456.091 237.719 462.682 224.837 465.091ZM172.588 449.952C172.019 445.607 171.219 441.343 172.984 437.161C174.451 433.684 176.149 430.309 177.447 427.525C178.622 432.333 179.735 437.732 181.32 442.987C182.155 445.43 183.397 447.714 184.994 449.742C187.98 453.759 186.923 457.519 184.943 461.449C182.116 467.069 177.129 470.49 172.24 474.404C173.922 466.087 173.645 457.992 172.588 449.952ZM122.403 374.64C122.562 378.524 120.863 381.061 117.924 383.167C112.362 387.179 105.944 388.222 98.9411 388.818C105.364 382.068 109.048 374.316 112.224 366.277C114.071 361.592 116.569 357.544 121.182 355.022C123.521 353.733 125.563 351.899 127.41 350.548C125.989 354.74 124.157 359.07 123.131 363.621C122.336 367.176 122.259 370.972 122.403 374.64ZM128.123 239.981C121.715 234.875 114.435 231.608 111.931 223.086C110.002 216.531 104.297 206 98.9821 201.269C106.796 201.634 110.88 202.667 116.256 205.708C120.238 207.958 122.685 210.916 122.413 215.981C121.946 224.283 122.541 229.039 128.123 239.981ZM110.274 110.485C118.267 109.278 125.804 110.022 132.371 114.265C138.374 118.149 142.493 123.99 144.982 130.704C146.465 134.687 147.51 138.821 148.096 143.032C148.583 146.628 146.695 148.369 143.022 148.092C135.295 147.501 128.436 144.46 122.12 140.042C113.168 133.775 109.736 125.007 110.264 114.358C110.331 113.074 110.274 111.795 110.274 110.485ZM172.193 115.55C178.309 120.229 184.312 124.58 186.446 132.291C187.118 134.716 187.108 136.873 185.558 139.113C180.517 146.252 177.906 154.828 178.114 163.57C173.902 155.428 170.495 147.902 172.619 138.532C174.276 131.238 173.922 123.502 172.193 115.55ZM178.612 172.847C179.638 175.79 180.7 178.708 181.767 181.693C175.764 179.473 169.777 177.414 163.908 175.051C156.048 171.891 150.651 166.318 148.696 157.914C148.255 156.018 148.527 153.886 148.809 151.914C149.137 149.587 150.861 148.585 153.103 148.421C160.44 147.866 166.165 150.948 170.777 156.409C174.825 161.191 176.621 167.068 178.612 172.847ZM171.116 133.436C170.952 138.537 169.998 143.608 169.372 148.847C164.169 146.279 161.322 141.727 159.921 136.293C158.782 131.865 158.321 127.267 157.295 122.803C156.304 118.467 154.976 114.204 153.78 109.858C157.818 110.649 162.358 111.075 166.504 112.581C168.228 113.207 169.91 116.022 170.213 118.046C170.973 123.139 171.275 128.29 171.116 133.436ZM154.309 119.12C155.248 122.587 155.745 126.178 156.361 129.728C157.279 135.024 157.849 140.417 161.866 145.092C158.531 144.815 155.679 144.804 152.954 144.219C152.077 144.034 151.195 142.421 150.902 141.301C148.686 133.359 146.233 125.536 140.744 119.125C137.327 115.128 133.777 111.26 128.318 109.94C128.364 109.663 128.41 109.385 128.451 109.103C133.926 109.457 139.405 109.776 144.869 110.176C150.333 110.577 153.006 114.317 154.309 119.12ZM137.317 149.541C144.371 151.657 144.351 151.724 145.012 159.07C145.074 159.748 145.156 160.431 145.279 161.592C137.584 155.782 128.477 156.681 120.207 154.498C113.455 152.715 110.813 149.905 109.915 143.109C109.747 141.856 109.657 140.593 109.643 139.328C109.607 135.63 109.643 131.926 109.643 127.93C115.138 140.289 125.399 145.96 137.317 149.541ZM132.992 158.957C137.63 159.613 141.983 161.582 145.541 164.633C146.967 165.85 147.962 167.571 149.645 169.657C140.652 170.17 132.417 170.838 124.178 170.962C121.253 171.008 118.283 169.79 115.379 168.979C113.645 168.491 112.686 167.242 112.362 165.332C111.685 161.32 110.787 157.338 109.905 152.977C117.406 156.886 125.24 157.796 132.992 158.957ZM135.141 172.996C138.733 172.826 142.283 172.092 145.864 171.763C149.158 171.465 152.185 172.374 155.099 173.941C157.638 175.302 160.363 176.314 163.518 177.706C160.599 178.03 158.141 178.22 155.709 178.595C150.199 179.41 144.967 181.544 140.457 184.816C137.019 187.307 133.556 187.158 130.011 185.581C123.752 182.802 119.75 177.562 115.605 171.907C122.459 173.802 128.821 173.294 135.141 172.996ZM134.731 191.607C141 186.537 147.614 182.201 155.725 180.876C166.047 179.196 175.733 180.465 184.178 187.585L180.279 194.175C174.913 193.097 169.921 191.309 164.918 191.268C156.284 191.191 148.152 193.487 141.283 199.328C135.69 204.084 134.69 210.346 134.88 217.029C135.034 222.956 136.809 228.727 140.01 233.714C142.832 238.101 146.752 241.779 150.404 246.017C149.378 247.794 148.024 250.229 146.664 252.644C133.1 248.329 123.998 231.433 124.639 219.711C124.865 215.601 125.245 211.533 125.624 207.449C126.209 200.766 129.611 195.747 134.731 191.607ZM200.298 266.575C200.39 266.683 200.37 266.883 200.493 267.438C194.778 266.056 189.319 264.818 183.927 263.328C183.183 263.123 182.413 261.762 182.264 260.832C181.187 254.195 177.303 249.834 170.978 248.38C164.421 246.87 157.248 249.407 155.073 257.077C152.128 267.453 161.743 275.174 170.547 273.756C174.882 273.058 178.114 270.88 180.807 267.592C181.223 267.078 182.111 266.441 182.583 266.565C188.195 268.106 193.767 269.832 199.431 271.517C196.481 273.207 193.557 274.553 191.007 276.412C185.666 280.311 183.429 286.234 181.362 292.213C181.146 292.835 180.464 293.826 180.094 293.785C175.569 293.271 170.834 293.22 166.586 291.782C155.196 287.924 148.814 279.674 147.957 267.571C147.675 263.616 147.49 259.435 148.47 255.674C149.425 251.991 151.549 248.436 153.821 245.308C156.848 241.147 160.322 237.171 165.242 235.096C167.663 234.064 170.212 233.362 172.819 233.01C180.582 232.045 187.641 234.418 194.27 238.24C194.834 238.563 195.424 239.688 195.296 240.258C192.951 249.834 193.48 258.787 200.298 266.575ZM259.529 259.491C255.65 257.472 251.736 256.614 247.498 257.257C247.183 257.259 246.871 257.191 246.586 257.056C246.301 256.922 246.05 256.725 245.851 256.481C244.25 254.282 242.557 252.115 241.3 249.721C239.961 247.152 240.69 244.491 242.809 242.529C244.928 240.567 247.303 239.873 249.858 241.286C252.129 242.623 254.317 244.097 256.41 245.698C256.666 245.886 256.879 246.127 257.032 246.406C257.186 246.685 257.276 246.994 257.297 247.311C256.676 251.585 257.513 255.577 259.529 259.491ZM254.219 259.815C255.194 260.185 256.153 260.601 257.082 261.063C260.57 262.804 260.519 262.804 259.79 266.714C259.18 269.965 260.191 272.878 262.253 276.14C257.523 275.467 254.152 277.28 251.115 280.028C250.907 280.214 250.663 280.356 250.398 280.444C250.134 280.532 249.854 280.566 249.576 280.542C243.322 279.078 239.14 271.553 241.275 265.594C242.552 262.018 248.268 257.534 254.219 259.815ZM260.247 325.403C260.297 325.728 260.27 326.06 260.167 326.373C260.065 326.685 259.89 326.969 259.657 327.201C254.886 330.843 248.94 332.461 243.866 327.822C242.879 326.936 242.083 325.858 241.525 324.654C240.967 323.451 240.658 322.146 240.619 320.82C240.579 319.493 240.808 318.172 241.293 316.937C241.778 315.702 242.508 314.578 243.44 313.634C244.988 312.115 246.732 310.811 248.627 309.756C249.059 309.59 249.525 309.531 249.985 309.583C250.445 309.636 250.885 309.799 251.269 310.059C254.301 312.715 257.636 314.384 262.258 313.881C259.601 317.78 259.088 321.447 260.247 325.403ZM257.236 342.226C257.263 342.572 257.216 342.92 257.096 343.245C256.977 343.571 256.788 343.866 256.543 344.111C254.495 345.767 252.316 347.253 250.027 348.555C247.175 350.06 244.83 349.469 242.629 347.23C240.577 345.129 239.987 342.73 241.429 339.987C242.645 337.665 244.302 335.569 245.861 333.447C246.056 333.201 246.305 333.003 246.587 332.867C246.87 332.731 247.179 332.661 247.493 332.661C251.9 333.529 255.85 332.266 259.739 330.267C257.621 333.872 256.742 338.073 257.236 342.226ZM194.306 341.25C194.701 344.076 195.132 346.901 195.378 349.736C195.368 350.102 195.274 350.461 195.104 350.785C194.935 351.109 194.693 351.39 194.398 351.606C186.338 356.471 177.642 358.423 168.448 356.075C165.457 355.31 162.553 353.414 160.152 351.39C157.346 349.022 154.996 346.063 152.693 343.171C147.598 336.745 146.392 329.363 148.106 321.494C148.875 317.807 149.916 314.182 151.22 310.65C152.759 306.591 156.161 304.146 159.634 301.639C165.821 297.176 172.896 296.713 180.012 296.128C180.297 296.167 180.568 296.277 180.799 296.448C181.031 296.62 181.215 296.847 181.336 297.109C183.983 307.023 189.032 314.816 199.508 318.36C193.977 320.004 188.457 321.699 182.89 323.22C182.28 323.384 181.156 322.737 180.674 322.136C176.452 316.891 171.013 315.139 164.554 316.454C159.68 317.446 155.258 323.05 154.704 327.879C154.278 331.598 155.355 334.685 157.449 337.505C161.122 342.457 170.198 343.541 175.374 339.776C179.032 337.115 181.757 333.858 182.172 329.137C182.341 327.206 183.434 326.569 185.25 326.194C189.806 325.259 194.3 324.036 198.826 322.942C199.277 322.834 199.739 322.788 200.667 322.634C199.451 324.473 198.451 325.958 197.471 327.458C194.733 331.498 193.604 336.418 194.306 341.25ZM166.263 374.358C168.005 374.522 169.759 374.522 171.501 374.358C173.137 374.168 174.733 373.602 176.539 373.156C176.318 374.537 176.026 375.842 175.928 377.167C175.831 378.493 175.928 379.9 175.928 381.426C170.203 383.578 164.359 384.554 158.362 382.592C151.985 380.501 149.64 376.304 151.03 369.128C151.833 365.07 153.875 361.362 156.874 358.515C158.074 357.334 159.316 356.188 160.563 355.002L167.945 358.644C166.709 359.969 165.267 361.212 164.2 362.753C163.124 364.258 162.274 365.913 161.676 367.664C160.45 371.317 162.399 374.08 166.263 374.358ZM151.446 362.029C150.054 364.114 149.095 366.458 148.625 368.922C148.155 371.386 148.185 373.919 148.711 376.371C149.702 381.298 156.535 385.674 162.866 385.736C165.124 385.831 167.387 385.755 169.633 385.51C171.834 385.191 173.969 384.411 176.252 383.804C177.17 386.83 178.052 389.717 179.017 392.871C174.235 395.409 169.141 396.832 163.81 396.508C158.613 396.195 153.472 395.342 148.696 392.794C142.54 389.506 137.809 385.356 137.306 377.835C136.414 364.633 141.37 354.205 152.118 346.361L158.531 353.224C156.125 356.158 153.514 358.921 151.446 362.044V362.029ZM172.542 371.712C170.758 372.055 168.926 372.073 167.135 371.763C164.518 371.363 163.672 369.637 164.57 367.176C165.745 364.139 167.882 361.571 170.654 359.866C171.46 359.353 172.609 359.224 173.615 359.152C177.75 358.87 181.895 358.68 184.968 358.51C183.475 360.812 181.105 363.693 179.566 366.955C178.027 370.115 175.426 371.096 172.542 371.728V371.712ZM144.417 290.194C140.067 292.896 140.082 297.088 144.469 299.795C147.07 301.403 150.045 302.41 152.867 303.694C151.749 305.446 150.451 307.537 149.081 309.571C148.945 309.753 148.768 309.9 148.565 310.002C148.362 310.104 148.138 310.156 147.911 310.156C141.554 308.877 135.66 306.689 131.807 301.023C127.954 295.357 128.877 291.705 134.203 286.069C137.794 282.289 142.74 280.778 147.757 279.756C148.013 279.752 148.266 279.808 148.496 279.918C148.727 280.029 148.929 280.191 149.086 280.393C150.44 282.376 151.702 284.421 152.831 286.188C149.979 287.518 147.024 288.571 144.417 290.194ZM155.853 288.9C157.392 288.9 158.931 290.467 160.47 291.247C163.21 292.614 165.975 293.919 167.935 294.843C164.672 296.59 160.686 298.824 156.587 300.828C155.72 301.254 154.324 301.131 153.37 300.751C150.64 299.74 148.005 298.49 145.495 297.016C143.956 296.051 144.084 294.304 145.382 292.907C148.198 289.825 152 288.956 155.853 288.9ZM141.221 279.278C134.828 281.683 129.862 285.653 127.677 292.414C126.189 297.037 128.523 300.669 131.206 303.869C134.528 307.889 139.162 310.606 144.289 311.538C145.447 311.812 146.591 312.145 147.716 312.535C147.131 315.211 146.495 317.672 146.085 320.204C145.874 321.473 145.407 321.745 144.181 321.648C137.906 321.093 131.941 318.669 127.056 314.687C121.064 309.848 116.739 304.069 115.333 296.426C115.104 294.693 115.294 292.932 115.887 291.289C120.078 278.446 129.272 271.255 142.165 268.409C143.227 268.172 144.386 268.378 145.71 268.378C146.357 271.229 147.024 274.188 147.762 277.404C145.613 278.005 143.355 278.477 141.221 279.278ZM210.995 288.998C208.448 288.913 205.902 289.156 203.417 289.722C201.186 290.236 199.421 292.999 199.559 295.054C199.728 297.622 201.257 299.369 203.556 300.33C206.808 301.681 210.154 301.28 213.493 300.592C214.971 300.288 216.459 300.078 218.111 299.785C216.767 301.937 215.546 303.895 214.309 305.857C214.109 306.17 213.76 306.561 213.442 306.597C207.552 307.249 201.734 307.624 196.625 303.622C189.442 297.972 191.017 288.879 198.964 284.754C203.52 282.386 208.45 282.669 213.329 283.398C213.76 283.46 214.191 284.025 214.478 284.456C215.674 286.254 216.818 288.093 218.111 290.107C215.7 289.722 213.345 289.064 210.98 288.998H210.995ZM219.07 292.896C220.609 293.313 222.041 294.109 224.031 294.951C217.757 297.833 211.862 299.574 205.423 298.547C203.489 298.229 202.022 297.237 201.929 295.136C201.837 292.881 203.366 291.849 205.351 291.407C210.077 290.333 214.576 291.694 219.07 292.896ZM213.042 281.082C209.497 281.082 206.193 280.799 202.956 281.143C197.179 281.765 191.545 286.845 190.129 291.89C188.221 298.778 193.423 305.348 198.826 307.639C202.761 309.309 206.926 309.55 211.139 308.913C211.713 308.874 212.288 308.874 212.862 308.913C212.923 309.172 212.97 309.435 213.001 309.699C213.247 316.018 212.965 316.377 206.537 316.449C197.466 316.578 190.699 312.689 186.702 304.47C185.353 301.696 183.624 298.64 183.66 295.737C183.804 287.708 187.672 281.354 194.362 276.802C199.657 273.207 205.444 272.785 211.477 274.234C212.067 274.373 212.893 275.097 212.95 275.616C213.07 277.433 213.097 279.256 213.032 281.076L213.042 281.082ZM173.615 337.207C171.793 337.937 169.772 338.183 167.843 338.646C161.05 338.312 156.664 332.795 158.187 326.225C158.911 323.101 161.63 321.848 164.036 320.487C168.987 317.682 176.575 318.525 179.325 325.038C181.156 329.363 178.709 335.178 173.615 337.207ZM203.971 323.004C206.614 320.723 210.251 319.588 213.488 317.898L216.715 323.358C213.186 325.983 209.369 328.249 206.26 331.254C200.847 336.478 200.944 346.279 206.183 350.553C210.959 354.452 216.495 355.043 222.138 352.973C225.258 351.827 228.105 349.932 231.086 348.349C232.04 349.968 233.081 351.745 234.128 353.527C226.663 362.553 213.447 363.113 205.659 357.272C202.299 354.755 198.543 352.767 197.394 348.298C194.911 338.661 196.101 329.79 203.971 323.004ZM212.339 342.524C213.719 345.149 216.315 346.156 220.389 344.748C223.108 343.808 225.427 341.697 227.879 340.048C228.791 339.368 229.668 338.641 230.506 337.87C231.727 342.596 230.393 345.966 226.53 348.365C222.318 350.985 217.967 352.618 212.852 351.447C203.335 349.248 202.873 339.077 207.239 333.416C210.097 329.713 214.068 327.627 218.275 325.911C218.702 325.73 219.182 325.715 219.619 325.87C221.671 326.898 223.724 328.012 225.56 329.004C221.969 330.817 218.157 332.41 214.694 334.536C213.365 335.325 212.384 336.588 211.947 338.072C211.51 339.556 211.65 341.15 212.339 342.534V342.524ZM221.933 341.682C220.914 342.329 219.786 342.787 218.603 343.033C216.869 343.367 214.827 343.182 214.36 341.255C214.228 340.509 214.257 339.742 214.445 339.007C214.634 338.273 214.977 337.587 215.453 336.997C219.045 333.339 223.965 332.333 228.685 331.053C230.06 330.678 231.547 330.714 233.4 330.54C230.464 335.073 226.544 338.885 221.933 341.692V341.682ZM221.517 324.432C216.792 321.524 214.212 315.093 215.494 309.73C217.377 301.84 222.774 297.309 231.168 296.045C231.824 297.746 232.45 299.379 233.107 301.085C230.624 302.276 228.002 303.294 225.632 304.722C221.266 307.352 220.358 310.408 221.841 315.699C222.769 318.997 226.93 321.658 230.532 321.242C233.097 320.944 235.621 320.764 238.34 320.518C238.592 322.156 238.853 323.862 239.161 325.783C233.051 328.762 227.222 327.956 221.517 324.442V324.432ZM233.677 318.781C232.394 318.781 231.111 318.977 229.834 318.956C226.504 318.91 224.39 317.091 223.441 313.547C222.8 311.158 224.185 307.953 226.658 306.602C228.514 305.647 230.418 304.789 232.363 304.033C233.666 303.52 234.723 303.818 236.093 304.49C239.376 306.093 242.937 307.131 245.764 308.168C244.122 310.028 241.444 312.16 240.013 314.934C238.509 317.877 236.591 318.807 233.677 318.792V318.781ZM233.841 294.314C234.118 287.785 242.593 282.268 248.56 284.821C249.186 285.088 249.673 286.034 249.925 286.768C251.356 290.878 253.167 292.999 257.236 294.987C253.331 296.739 250.91 299.436 249.971 303.258C249.596 304.799 248.734 305.261 247.38 305.482C240.136 306.674 233.548 301.254 233.841 294.345V294.314ZM252.526 307.937C251.911 307.005 251.659 305.879 251.818 304.773C252.464 299.913 257.974 295.655 262.951 296.04C263.33 296.071 263.895 296.122 264.044 296.364C266.05 299.605 269.615 299.867 272.765 300.987C270.605 303.365 267.635 305.138 267.635 308.862C267.635 309.206 267.122 309.622 266.752 309.889C262.422 312.9 255.891 312.078 252.526 307.948V307.937ZM268.225 297.068C267.419 296.687 266.414 295.65 266.429 294.941C266.445 294.232 267.455 293.179 268.251 292.799C274.104 290.071 279.414 292.285 285.304 294.926C279.378 297.71 274.063 299.836 268.225 297.078V297.068ZM264.044 293.58C263.941 293.749 263.633 293.816 263.407 293.878C258.79 295.1 251.648 289.131 251.69 284.359C251.715 281.23 257.969 277.316 261.35 278.195C262.823 278.59 264.285 279.006 265.726 279.489C266.932 279.895 267.322 280.799 267.856 282.006C268.882 284.272 270.657 286.188 272.16 288.227C272.329 288.458 272.719 288.535 273.294 288.828C269.549 289.989 266.044 290.354 264.044 293.59V293.58ZM245.2 280.768C245.8 281.296 246.442 281.776 247.118 282.201C242.296 282.047 238.525 283.337 235.221 286.018C234.987 286.163 234.724 286.255 234.451 286.287C234.178 286.319 233.901 286.29 233.641 286.203C230.983 285.093 228.161 284.2 225.806 282.607C223.21 280.871 222.8 277.953 223.944 274.83C224.832 272.41 227.233 270.844 230.26 270.88C232.107 270.891 233.951 271.028 235.78 271.291C237.35 271.522 238.397 272.19 239.341 273.895C240.767 276.494 243.183 278.539 245.2 280.778V280.768ZM238.35 269.323C235.57 269.133 232.789 268.835 229.998 268.768C226.166 268.681 222.933 270.88 221.918 274.059C220.343 278.991 221.215 282.422 225.073 284.847C227.566 286.388 230.342 287.503 233.081 288.854C232.481 290.441 231.845 292.136 231.224 293.785C222.502 292.825 217.885 288.135 215.751 281.328C213.981 275.724 215.602 270.145 220.42 266.375C226.063 261.962 232.373 260.837 239.171 264.114C238.879 265.984 238.617 267.633 238.35 269.333V269.323ZM214.545 255.305C218.049 257.508 221.912 259.126 225.55 260.955C223.759 261.905 221.728 263.01 219.665 264.068C219.332 264.247 218.943 264.291 218.578 264.191C213.96 262.322 209.743 259.964 206.685 255.844C204.546 252.962 203.807 245.991 206.239 242.776C208.758 239.447 214.089 237.3 218.778 238.271C222.99 239.139 226.54 241.296 229.793 244.003C230.152 244.292 230.396 244.701 230.48 245.154C230.65 247.389 230.732 249.628 230.865 252.346C229.059 250.861 227.561 249.464 225.894 248.303C224.202 247.082 222.398 246.026 220.507 245.149C217.213 243.69 213.996 244.635 212.467 247.276C211.706 248.622 211.496 250.213 211.884 251.711C212.272 253.209 213.226 254.498 214.545 255.305ZM215.889 253.512C214.263 252.31 213.186 250.522 214.386 248.467C215.587 246.413 217.634 246.51 219.517 247.245C225.319 249.51 229.377 253.83 232.768 258.988C226.514 258.87 220.856 257.144 215.889 253.491V253.512ZM226.91 239.175C221.21 235.836 215.351 234.51 209.025 237.587C203.13 240.449 201.375 245.873 202.75 251.971C204.264 258.69 209.179 262.301 214.981 265.039C215.494 265.28 216.007 265.512 216.52 265.763C216.699 265.868 216.87 265.985 217.033 266.113L213.827 271.537C201.899 269.303 196.076 258.669 196.358 250.866C196.432 248.149 196.683 245.44 197.107 242.755C197.548 240.079 198.754 237.618 201.078 236.077C204.269 233.935 207.352 231.295 210.897 230.072C218.516 227.457 225.776 228.582 231.963 234.253C232.717 234.952 233.502 235.64 234.2 236.308L230.968 241.836C229.659 240.967 228.305 239.986 226.91 239.154V239.175ZM179.951 262.219C179.91 265.481 177.17 269.148 173.953 270.253C169.141 271.902 162.625 270.155 159.434 266.22C158.762 265.388 158.049 264.104 158.203 263.174C158.69 260.2 159.162 257.102 160.414 254.442C161.856 251.359 165.206 251.745 167.694 251.683C175.036 251.632 180.033 256.085 179.951 262.198V262.219ZM161.727 222.49C162.928 225.125 164.913 227.411 166.617 229.8C166.971 230.313 167.643 230.555 168.315 231.027C165.678 232.42 163.508 233.596 161.291 234.69C161.055 234.772 160.803 234.795 160.557 234.757C160.31 234.72 160.076 234.623 159.875 234.474C156.433 231.084 153.165 227.606 151.425 222.901C148.65 215.38 152.369 208.286 160.291 206.792C165.498 205.837 170.87 206.437 175.739 208.518C175.959 211.312 176.164 214.004 176.37 216.68C174.235 216.228 172.086 215.606 169.895 215.38C168.297 215.227 166.685 215.361 165.134 215.776C161.83 216.639 160.301 219.346 161.727 222.469V222.49ZM173.168 230.822C171.978 230.76 170.838 230.327 169.905 229.584C168.253 228.079 166.586 226.43 165.503 224.514C164.724 223.132 164.113 220.651 164.821 219.685C165.693 218.488 168.028 217.841 169.705 217.892C171.973 217.954 174.553 218.406 176.375 219.629C178.196 220.851 179.335 223.225 180.705 225.161C182.27 227.36 183.783 229.61 184.963 231.367C181.469 231.197 177.314 231.105 173.168 230.801V230.822ZM176.277 206.165C174.882 205.79 173.445 205.394 171.998 205.019C166.806 203.684 161.599 203.612 156.607 205.656C148.28 209.067 146.628 215.329 149.773 224.391C150.659 226.81 151.921 229.075 153.514 231.099C155.012 233.057 157.064 234.598 158.875 236.324L152.205 243.515C143.176 237.526 138.574 228.968 137.327 218.463C137.094 216.082 137.114 213.683 137.389 211.307C138.076 204.115 142.801 200.144 148.758 197.144C154.803 194.01 161.665 192.814 168.412 193.718C172.004 194.201 175.472 195.603 179.099 196.62L176.277 206.165ZM140.267 253.424C135.649 254.334 130.832 255.233 126.055 256.214C119.899 257.477 113.83 257.652 107.848 255.243C103.683 253.616 100.204 250.605 97.992 246.716C95.5653 242.529 96.2938 240.094 100.639 237.911C106.283 235.06 112.178 234.829 118.144 237.084C124.403 239.452 129.154 243.947 134.049 248.236C136.137 250.07 138.338 251.786 140.267 253.368V253.424ZM100.126 205.898C103.646 211.733 106.744 217.831 109.91 223.877C111.136 226.209 112.049 228.706 113.209 231.372C105.929 231.515 100.814 227.863 96.3451 222.721C91.9688 217.682 87.3822 212.822 82.8367 207.937C82.0825 207.131 81.0461 206.596 79.7584 205.661C83.2573 204.372 86.4587 203.016 89.773 202.024C94.4366 200.571 97.5405 201.552 100.126 205.841V205.898ZM86.192 214.019C89.696 217.795 92.7948 221.956 96.34 225.685C98.6179 228.084 101.383 230.021 103.969 232.199C101.696 233.226 99.1207 234.587 96.3913 235.466C95.596 235.717 94.216 234.716 93.313 234.002C88.8803 230.406 84.7349 226.435 80.0816 223.168C74.8793 219.505 68.7587 217.918 62.4432 217.358C61.14 217.245 59.7907 217.733 58.462 217.944C58.3593 217.733 58.2619 217.523 58.1644 217.312C62.6227 214.985 67.0298 212.55 71.5548 210.357C77.7216 207.387 82.0312 209.524 86.192 214.019ZM62.0173 219.803C66.2294 219.634 70.7391 221.252 74.7511 222.885C81.369 225.567 87.1081 230.045 91.3224 235.815C94.1595 239.611 93.3079 242.591 88.9111 244.337C79.7379 247.995 70.38 248.591 60.8527 245.842C53.8035 243.813 49.5658 238.507 45.6923 232.795C44.62 231.207 43.9223 229.368 42.9732 227.488C48.6115 222.757 55.1067 220.086 62.0379 219.803H62.0173ZM55.0605 245.791C64.4133 250.46 74.1713 250.671 84.1295 248.272C86.31 247.758 88.434 246.952 90.6349 246.603C91.5943 246.454 93.0616 246.793 93.6413 247.476C95.437 249.582 96.9146 251.966 98.8333 254.693C93.8158 253.378 89.6499 254.904 85.4942 256.373C81.3386 257.842 77.2393 259.563 72.9965 260.765C66.1012 262.722 62.084 261.104 58.2054 255.114C55.7706 251.398 53.6018 247.513 51.7154 243.49C52.8441 244.25 53.8702 245.185 55.081 245.791H55.0605ZM89.5062 257.39C95.1805 255.597 100.506 256.126 106.149 259.275C99.3823 263.78 92.9693 268.075 86.5306 272.318C83.402 274.469 79.7413 275.713 75.9516 275.914C74.6074 275.96 72.9298 274.886 71.9088 273.859C69.123 271.013 66.604 267.91 63.6232 264.505C73.294 264.402 81.1641 260.025 89.5267 257.39H89.5062ZM102.332 264.248C105.803 261.409 110.165 259.892 114.645 259.964C117.211 259.964 119.73 259.481 122.926 259.147C122.038 259.799 121.664 260.123 121.248 260.364C114.635 264.207 109.525 269.554 106.37 276.469C104.241 281.133 100.696 282.73 96.0629 282.905C89.8346 283.141 84.2629 280.82 78.3629 278.256C87.6285 275.179 95.1856 270.089 102.337 264.248H102.332ZM103.307 290.236C105.164 282.119 108.704 274.691 114.43 268.599C119.704 262.849 126.694 258.962 134.356 257.519C137.82 256.871 141.436 257.061 145.269 256.856C145.269 259.82 145.372 262.311 145.182 264.777C145.141 265.291 144.043 266.071 143.371 266.143C131.391 267.402 122.803 273.936 116.518 283.742C111.721 291.232 111.865 299.05 116.703 306.504C122.495 315.437 130.38 321.524 141.093 323.528C145.31 324.314 145.289 324.422 145.289 328.701V332.641C134.233 334.182 125.142 330.586 117.113 323.785C109.274 317.138 105.287 308.225 103.004 298.511C102.399 295.886 102.702 292.896 103.312 290.236H103.307ZM140.2 336.56C135.388 340.577 130.663 344.825 125.63 348.652C118.401 354.154 110.387 356.224 101.65 352.531C95.083 349.757 95.0471 345.853 100.296 340.125C107.396 332.374 116.436 331.988 125.948 333.755C130.74 334.649 135.511 335.636 140.205 336.56H140.2ZM105.175 311.579C109.156 319.382 114.409 325.927 122.782 330.416C113.604 330.519 105.693 329.209 98.8077 323.066C92.9088 317.735 85.843 313.864 78.1782 311.764C85.8739 308.569 93.1796 305.138 101.393 308.21C103.001 308.867 104.336 310.057 105.175 311.579ZM81.8567 315.288C88.121 318.884 94.098 322.953 100.172 326.862C102.06 328.074 103.897 329.363 105.96 330.75C99.1412 334.86 92.5383 333.833 85.7815 331.377C80.138 329.322 74.3458 327.596 68.5792 325.86C67.2401 325.454 65.7369 325.598 63.5821 325.434C67.0041 321.622 69.8002 317.759 73.3556 314.811C75.7105 312.838 79.3377 313.865 81.8311 315.288H81.8567ZM71.5959 328.85C75.7002 329.877 79.6301 331.603 83.6986 332.815C87.5156 333.956 91.3942 334.906 95.2831 335.769C96.3092 335.995 97.4687 335.574 98.8026 335.42C97.0069 337.947 95.4626 340.182 93.8363 342.365C92.723 343.865 91.2249 343.531 89.7012 343.094C83.5908 341.353 77.4189 339.879 71.0059 340.218C65.6138 340.495 60.3038 341.322 55.4709 343.962C54.2191 344.646 53.0955 345.565 51.4743 346.151C53.1981 343.212 54.8553 340.233 56.6663 337.351C57.8418 335.452 59.1355 333.628 60.5398 331.891C63.4847 328.326 67.471 327.812 71.56 328.85H71.5959ZM68.2354 342.601C75.2945 341.991 82.3986 343.037 88.9829 345.658C93.2976 347.353 94.2108 350.425 91.3429 354.036C84.2475 362.969 75.3257 369.103 63.7053 369.96C55.9378 370.525 49.1861 367.248 42.9219 362.548C48.0061 351.432 55.317 343.659 68.2354 342.601ZM83.5498 364.5C86.9769 362.003 90.0295 358.973 93.1283 356.05C94.7033 354.565 96.0629 353.82 98.192 355.099C100.095 356.235 102.25 356.954 104.549 357.966C102.784 358.993 100.957 359.687 99.6953 360.94C96.6888 363.93 93.9594 367.212 91.0915 370.346C88.6546 373.007 86.3869 375.883 83.6524 378.2C81.1436 380.332 78.1166 381.714 74.5356 380.599C68.5843 378.75 63.4436 375.421 57.6924 371.989C67.9122 373.407 76.0953 369.945 83.5652 364.5H83.5498ZM98.1202 365.368C102.117 360.976 107.068 358.433 113.245 358.623C109.14 367.479 105.934 376.71 99.9466 384.518C96.9966 388.366 94.3032 389.255 89.5319 387.924C88.7623 387.708 87.9927 387.498 87.2437 387.215C84.8529 386.301 82.4775 385.351 79.7635 384.287C87.531 379.31 92.2715 371.81 98.1356 365.368H98.1202ZM126.789 358.043C130.775 348.745 136.362 340.875 146.644 337.367L150.605 344.348C147.829 347.091 144.72 349.598 142.319 352.659C138.185 357.969 135.689 364.371 135.136 371.08C134.887 373.808 134.924 376.554 135.244 379.274C136.27 388.325 142.611 392.871 150.24 395.943C160.152 399.934 170.1 399.873 179.879 395.106L184.183 402.364C179.448 406.196 174.246 408.775 168.104 409.381C160.85 410.095 153.785 409.525 147.121 406.386C140.513 403.342 134.614 398.948 129.801 393.487C125.932 389.065 125.342 383.311 124.773 377.861C124.096 371.193 124.07 364.371 126.789 358.043ZM132.366 403.581C134.741 402.873 136.983 402.909 139.215 404.434C144.299 407.912 149.825 410.475 155.981 411.405C158.31 411.759 160.676 411.919 163.277 412.17C155.304 416.311 147.757 419.46 138.522 417.369C130.971 415.723 123.134 415.934 115.682 417.985C120.294 411.682 124.768 405.816 132.366 403.581ZM118.662 419.686C124.094 419.192 129.552 419.044 135.003 419.244C139.62 419.393 144.238 420.169 148.973 420.687C146.449 425.865 141.985 428.742 136.66 430.088C130.94 431.531 125.034 432.24 119.268 433.54C116.19 434.239 113.199 435.502 109.987 436.571C110.839 432.256 111.464 427.802 112.66 423.508C113.409 420.8 116.338 419.891 118.662 419.686ZM110.479 444.122C111.141 439.088 115.097 436.745 119.653 435.661C123.618 434.711 127.697 434.264 131.709 433.483C136.327 432.584 141.057 431.906 145.223 428.141C144.966 431.567 145.048 434.264 144.433 436.797C144.176 437.824 142.534 438.939 141.324 439.273C133.433 441.42 125.737 443.896 119.35 449.326C115.276 452.778 111.439 456.425 110.023 461.911L109.32 461.767C109.674 455.865 109.715 449.937 110.479 444.107V444.122ZM116.939 454.499C122.382 448.689 129.195 444.898 136.947 442.951C139.107 442.372 141.322 442.028 143.555 441.923C146.634 441.831 148.532 443.511 148.101 446.521C147.524 450.864 146.469 455.129 144.956 459.24C142.232 466.38 137.866 472.596 131.104 476.407C126.32 479.083 120.852 480.281 115.389 479.849C113.794 479.736 112.188 479.849 110.433 479.849C109.679 470.413 110.305 461.572 116.939 454.483V454.499ZM128.713 479.875C136.019 477.615 140.282 471.949 144.15 465.913C147.583 460.555 149.281 454.488 150.82 448.391C151.297 446.536 152.303 445.54 154.386 445.504C156.689 445.468 159.003 445.077 161.835 444.785C156.376 451.519 157.002 459.548 155.201 466.873C154.786 468.584 154.524 470.341 153.986 472.01C152.262 477.348 148.255 479.906 142.929 480.229C138.122 480.517 133.284 480.291 128.472 480.291C128.508 480.234 128.564 479.906 128.713 479.859V479.875ZM159.111 457.067C159.712 452.658 161.525 448.503 164.349 445.067C165.693 443.454 167.54 442.268 169.336 440.742C169.849 444.99 170.582 448.761 170.731 452.557C170.962 458.331 170.993 464.13 170.695 469.894C170.588 471.949 169.531 474.08 168.464 475.919C167.042 478.37 164.139 478.092 161.794 478.647C159.018 479.31 156.151 479.562 153.18 480.008C157.054 472.801 157.9 464.891 159.111 457.052V457.067ZM153.226 441.456C150.245 441.276 148.701 439.766 148.542 436.745C148.168 429.61 151.077 423.954 156.402 419.408C161.43 415.114 167.622 413.275 173.712 411.189C176.441 410.265 179.13 409.201 182.157 408.081C179.078 415.622 176.606 423.333 172.86 430.355C168.864 437.855 162.158 441.985 153.226 441.441V441.456ZM221.384 452.356C217.916 453.019 214.201 452.742 210.636 452.449C203.776 451.884 200.226 447.024 197.338 441.487C194.136 435.468 192.893 428.599 193.782 421.838C194.254 418.175 195.665 414.646 196.686 410.927L205.731 413.655C205.249 417.806 204.623 421.823 204.356 425.865C204.028 430.864 205.895 435.204 209.21 438.867C211.934 441.867 215.653 441.841 219.25 441.533C224.76 441.055 229.398 438.59 233.225 434.603C234.287 433.494 235.334 432.374 236.411 431.239L243.512 437.819C238.325 446.095 230.629 450.569 221.384 452.341V452.356ZM222.923 438.533C213.591 441.266 208.178 438.25 206.547 427.746C205.808 422.984 206.685 419.198 208.635 414.143C209.938 414.143 211.303 414.215 212.657 414.143C214.012 414.071 215.325 413.789 216.341 413.629C216.064 416.932 215.546 420.153 215.587 423.389C215.653 427.833 218.998 430.067 223.036 428.187C226.114 426.764 228.762 424.525 231.619 422.639L234.975 429.497C231.681 433.298 228.1 437.012 222.944 438.518L222.923 438.533ZM217.87 420.497C218.14 418.186 218.716 415.922 219.583 413.763C220.127 412.52 221.589 411.585 222.8 410.758C225.878 408.662 229.044 406.705 231.496 405.107C231.347 408.133 231.081 412.196 230.983 416.265C230.87 420.163 225.057 425.871 221.169 425.763C219.07 425.727 217.48 423.333 217.89 420.482L217.87 420.497ZM213.252 411.765C210.595 412.232 207.609 411.765 204.946 411.092C199.523 409.792 194.29 407.804 189.719 404.527C184.866 401.044 182.454 395.794 180.618 390.369C179.528 387.092 178.715 383.729 178.186 380.316C177.57 376.438 178.95 372.858 180.566 369.38C183.67 362.702 188.775 357.935 195.019 354.221C196.481 353.348 197.276 353.399 198.513 354.575C202.617 358.495 207.193 361.947 212.939 362.841C216.372 363.354 219.953 362.938 224.042 362.938L212.19 375.452C211.292 376.402 210.415 376.274 209.24 375.745C200.318 371.748 188.903 377.481 188.631 389.47C188.498 395.45 196.773 402.96 203.869 401.147C212.544 398.938 216.695 390.426 215.207 383.568C215.037 382.53 214.69 381.529 214.181 380.609C213.468 379.489 213.714 378.662 214.53 377.882C218.562 374.024 222.62 370.176 226.843 366.169C226.843 369.354 226.545 372.241 226.93 375.036C227.299 377.686 227.956 380.481 229.254 382.782C231.127 386.116 233.728 389.034 235.924 392.198C236.118 392.499 236.242 392.841 236.285 393.197C236.327 393.553 236.288 393.914 236.17 394.253C231.127 403.361 223.847 409.859 213.278 411.729L213.252 411.765ZM213.37 385.905C213.468 391.453 206.655 398.188 201.016 398.121C197.338 398.08 191.879 392.501 191.92 388.823C191.976 383.173 198.59 376.602 204.115 376.715C208.717 376.772 213.314 381.339 213.396 385.869L213.37 385.905ZM235.272 388.186C229.818 381.549 227.166 374.121 229.916 365.743C231.101 362.147 233.718 358.973 235.744 355.515L241.316 358.772C239.623 362.733 237.483 366.637 236.278 370.813C234.226 377.892 239.146 386.542 245.348 387.488C251.956 388.515 257.461 386.393 261.468 381.015C263.279 378.585 264.644 375.827 266.245 373.156L271.519 376.238C269.466 387.59 259.452 393.924 250.848 393.703C248.16 393.649 245.478 393.406 242.824 392.974C239.695 392.46 237.319 390.611 235.298 388.15L235.272 388.186ZM264.285 371.234C261.796 377.101 259.077 382.895 252.341 384.904C244.527 387.236 239.002 382.751 238.217 375.195C237.601 369.19 240.608 364.5 244.127 360.067C244.394 359.774 244.759 359.59 245.153 359.553C247.39 359.414 249.632 359.332 252.172 359.214C250.12 361.875 248.237 364.156 246.595 366.611C245.685 367.941 245.053 369.442 244.738 371.024C244.117 374.62 245.42 376.962 248.329 378.113C250.525 378.986 253.834 377.948 255.45 375.359C257.066 372.77 258.292 369.801 259.637 366.981C260.073 366.067 260.365 365.085 260.76 364.032C261.981 366.313 263.12 368.424 264.239 370.541C264.348 370.748 264.374 370.989 264.31 371.214L264.285 371.234ZM255.804 359.286C256.794 358.392 257.928 357.658 259.277 356.635C259.182 362.859 257.215 368.91 253.634 373.998C252.608 375.493 251.069 376.489 249.094 375.914C246.97 375.293 246.179 373.063 247.282 370.263C249.073 365.748 252.351 362.409 255.83 359.265L255.804 359.286ZM252.726 356.522C247.842 357.647 243.117 357.904 238.71 354.555C229.239 347.363 231.937 334.315 239.505 328.547C239.89 328.254 240.952 328.47 241.459 328.803C242.54 329.607 243.568 330.479 244.538 331.413C243.106 333.314 241.629 335.122 240.331 337.064C237.591 341.117 238.032 344.98 240.844 348.288C244.615 352.721 249.514 351.981 252.716 349.829C254.701 348.483 256.569 346.973 258.534 345.498C259.621 346.762 260.765 348.067 262.094 349.608C259.693 352.767 256.871 355.546 252.757 356.502L252.726 356.522ZM259.426 337.665C259.862 336.468 260.032 335.158 260.555 334.002C262.515 329.672 262.535 330.026 267.178 330.221C270.077 330.345 273.027 329.25 276.003 328.68C275.49 332.528 277.408 335.939 280.169 339.052C280.339 339.278 280.457 339.541 280.512 339.819C280.567 340.097 280.558 340.385 280.487 340.659C278.24 345.796 273.704 350.522 266.778 349.099C262.833 348.283 257.99 341.707 259.457 337.644L259.426 337.665ZM274.479 310.007C273.616 310.212 272.726 310.28 271.842 310.208C270.139 310.059 269.42 308.847 270.303 307.377C271.118 306.021 272.037 304.511 273.309 303.689C277.065 301.27 281.164 299.703 286.284 300.124C283.119 304.845 279.902 308.754 274.479 310.007ZM279.753 316.511C280.302 311.913 283.272 308.734 286.628 305.893C287.673 305.107 288.759 304.377 289.88 303.704C289.824 309.977 288.557 315.196 283.842 318.977C283.078 319.588 281.277 320.153 280.948 319.798C280.543 319.356 280.228 318.838 280.023 318.274C279.818 317.71 279.726 317.111 279.753 316.511ZM289.542 286.075C284.853 282.941 281.03 279.54 279.825 274.023C279.608 273.246 279.572 272.429 279.717 271.635C280.092 270.248 280.948 269.21 282.529 270.181C283.852 270.932 285.061 271.868 286.12 272.96C288.505 275.606 290.158 282.094 289.542 286.075ZM283.996 286.516C284.709 287.359 285.263 288.34 286.294 289.845C279.876 289.783 274.612 288.474 270.841 283.599C270.292 282.885 269.841 281.225 270.205 280.855C270.617 280.469 271.101 280.169 271.629 279.971C272.158 279.774 272.72 279.683 273.284 279.705C277.932 280.203 281.148 283.131 283.996 286.516ZM275.972 262.147C272.247 259.486 268.487 259.065 264.475 260.143C264.155 260.186 263.831 260.153 263.527 260.047C263.223 259.941 262.948 259.764 262.725 259.532C258.77 253.959 257.595 248.745 262.34 243.608C263.21 242.661 264.26 241.898 265.428 241.364C266.597 240.83 267.86 240.535 269.144 240.497C270.428 240.458 271.707 240.678 272.905 241.141C274.103 241.605 275.196 242.304 276.121 243.197C277.767 244.838 279.181 246.698 280.322 248.724C280.676 249.31 280.353 250.722 279.84 251.359C276.562 255.443 276.08 256.805 275.972 262.147ZM258.61 244.517C256.738 243.115 254.973 241.604 253.029 240.372C246.549 236.262 242.255 238.892 239.115 244.183C237.694 246.582 238.263 249.587 239.848 252.037C241.285 254.262 242.927 256.358 244.538 258.618L240.618 261.926C235.344 259.255 231.989 251.858 232.774 244.974C233.364 239.781 239.079 233.596 244.194 232.928C251.418 231.978 257.579 233.884 262.068 240.464C260.929 241.769 259.796 243.109 258.61 244.517ZM248.006 221.303C246.256 218.221 246.641 215.17 248.616 214.112C250.468 213.136 252.931 214.25 254.645 217.297C257.369 222.156 259.354 227.288 259.262 233.221C254.617 230.2 250.759 226.115 248.006 221.303ZM260.976 225.536C259.226 221.992 257.615 218.216 255.542 214.718C254.003 212.067 250.689 211.004 248.504 211.805C245.071 213.069 243.435 216.511 245.102 220.106C246.4 222.911 248.386 225.397 250.114 227.992C250.72 228.901 251.474 229.702 252.336 230.771C249.653 230.642 247.349 230.539 245.051 230.396C244.738 230.374 244.444 230.235 244.23 230.005C240.315 225.022 237.15 219.829 238.535 213.007C240.556 203.036 251.428 202.733 256.933 207.454C260.365 210.382 262.402 214.132 264.059 218.19C264.227 218.686 264.203 219.227 263.992 219.706C263.018 221.714 261.945 223.682 260.976 225.536ZM258.882 206.304C254.265 201.382 245.779 200.679 241.023 204.634C236.544 208.363 234.934 213.531 236.273 219.017C237.299 223.214 239.566 227.108 241.3 231.192L236.473 234.069C227.484 226.748 226.838 213.259 232.835 205.374C235.339 202.076 237.324 198.382 241.69 197.288C251.951 194.72 259.903 195.953 267.189 204.115C269.441 206.648 270.446 210.279 272.073 213.526C270.688 214.266 269.692 214.754 268.743 215.314C267.794 215.874 267.009 216.454 266.665 216.685C264.069 213.182 261.807 209.422 258.882 206.304ZM235.559 198.326C232.189 201.629 229.264 205.466 228.059 209.971C226.92 214.23 226.971 218.807 226.484 223.409C222.6 219.716 218.47 215.853 214.453 211.882C214.027 211.461 213.94 210.254 214.207 209.637C218.054 200.833 213.694 189.321 200.801 188.458C196.537 188.175 192.992 190.939 190.766 194.622C189.304 197.085 188.656 199.947 188.915 202.8C189.173 205.654 190.326 208.352 192.207 210.511C196.055 214.841 203.412 217.106 209.44 214.158C210.626 213.577 211.395 213.685 212.16 214.487C216.023 218.524 219.855 222.593 223.877 226.856C220.625 226.856 217.721 226.635 214.838 226.923C212.555 227.154 210.082 227.56 208.142 228.675C204.7 230.732 201.424 233.056 198.343 235.625C197.163 236.57 196.46 236.776 195.265 235.877C192.7 233.935 189.863 232.317 187.508 230.154C182.495 225.629 179.208 219.501 178.211 212.817C177.822 210.274 178.283 207.464 178.935 204.927C180.31 199.533 182.244 194.288 185.497 189.706C188.965 184.816 194.218 182.432 199.616 180.552C202.885 179.464 206.238 178.647 209.64 178.107C213.611 177.429 217.223 178.903 220.768 180.562C227.438 183.691 232.173 188.807 235.878 195.059C236.698 196.42 236.709 197.196 235.559 198.326ZM211.292 209.422C208.158 213.408 203.597 214.137 198.831 211.641C195.121 209.694 193.187 206.329 192.161 202.533C191.831 200.901 192.151 199.205 193.054 197.807C195.003 195.028 197.158 192.192 201.17 191.745C205.823 192.639 209.758 194.828 211.98 199.251C213.714 202.672 213.837 206.196 211.292 209.422ZM222.81 179.278C220.943 178.179 219.275 177.044 219.009 174.686C218.726 172.174 218.111 169.647 218.265 167.16C218.419 164.551 220.317 163.636 222.749 164.427C225.098 165.21 227.147 166.701 228.617 168.696C230.087 170.69 230.904 173.091 230.957 175.569C231.024 178.908 231.347 182.247 231.506 184.785C228.977 183.151 225.945 181.117 222.81 179.278ZM231.476 167.669C229.454 166.071 227.5 164.345 225.365 162.886C223.01 161.273 220.286 160.282 217.67 162.075C215.207 163.775 215.304 166.744 215.417 169.359C215.515 171.64 216.233 173.895 216.69 176.253L208.548 175.682C206.531 170.114 205.351 164.34 207.363 158.546C210.169 150.47 214.894 149.053 223.539 151.657C228.433 153.131 231.748 156.835 235 160.436L231.476 167.669ZM227.966 151.354C224.571 149.139 220.576 148.027 216.526 148.169C209.994 148.339 206.213 153.172 204.767 159.655C203.535 165.193 204.254 170.679 206.347 176.134L197.071 178.934C194.639 173.545 193.013 168.147 193.639 162.157C194.331 155.551 196.024 149.453 200.057 144.003C204.505 137.993 210.549 136.267 217.459 137.197C221.569 137.8 225.608 138.816 229.516 140.227C235.58 142.344 239.843 146.833 243.573 152.042L236.77 158.366C233.836 155.993 231.086 153.378 227.966 151.333V151.354ZM110.392 188.145C110.392 188.186 110.392 188.237 110.392 188.145V188.145ZM110.32 188.042C105.995 187.723 101.804 187.431 97.6072 187.097C97.0941 187.056 96.3143 186.937 96.1604 186.614C94.8213 183.809 93.5952 180.963 92.1587 177.701C95.5293 177.408 98.3767 177.131 101.224 176.936C101.486 176.911 101.751 176.941 102.001 177.024C102.251 177.107 102.481 177.242 102.676 177.419C105.267 180.927 107.786 184.487 110.305 188.042H110.32ZM99.4541 165.722C99.9261 168.629 100.573 171.511 101.132 174.352L89.4549 176.263L93.7593 187.22L83.5395 190.631L75.0692 167.936C80.492 166.986 85.4275 166.112 90.363 165.265C92.5691 164.885 94.7803 164.525 96.9915 164.212C98.1818 164.042 99.1925 164.104 99.4541 165.722ZM74.1406 171.655C76.3415 178.287 78.9632 184.78 81.4873 191.571L70.3697 197.576C66.3115 184.297 62.3508 171.316 58.3542 158.232L98.505 148.97V161.648C91.8611 162.804 84.776 163.945 77.7267 165.28C71.7087 166.436 72.2372 165.922 74.1406 171.655ZM41.5572 148.544L98.7307 134.161V146.556C89.7422 148.662 81.0051 150.743 72.2526 152.756C67.4813 153.851 62.6894 154.857 57.8873 155.838C56.0558 156.213 55.5222 157.01 56.1225 158.89C59.5496 169.713 62.8946 180.562 66.2448 191.412C66.7579 193.025 66.881 194.787 67.5839 196.292C68.692 198.65 67.63 199.888 65.7574 200.915C63.3666 202.245 60.9656 203.566 57.7437 205.348C52.3311 186.326 46.9954 167.653 41.5572 148.544ZM39.7615 240.038C36.75 234.634 33.6512 229.276 30.7166 224.113C36.4627 220.728 42.6192 217.163 48.7193 213.5C57.441 208.276 65.9883 202.841 74.7819 197.781C79.0863 195.311 83.714 193.369 88.2903 191.401C95.7602 188.196 103.471 188.535 110.9 191.186C115.99 192.999 120.715 195.85 125.666 198.264C124.988 200.489 124.414 202.374 123.839 204.249C120.91 202.898 118.252 201.387 115.41 200.422C105.092 196.913 94.888 197.108 84.6733 201.285C72.5296 206.242 61.4684 213.1 50.3867 219.942C47.3905 221.791 44.4764 223.774 41.4238 225.51C40.0899 226.271 39.9514 226.851 40.6799 228.146C46.1523 237.896 51.5701 247.669 56.9331 257.467C60.9844 264.92 66.1916 271.682 72.3603 277.501C76.5211 281.415 81.4668 283.814 87.0077 285.443C91.6764 286.809 96.2425 288.011 101.558 287.611C101.045 289.768 100.578 291.545 100.157 293.225C88.87 294.843 78.3834 293.128 69.2615 286.213C63.8027 282.073 59.9703 276.386 56.6253 270.464C50.9254 260.375 45.405 250.168 39.7615 240.038ZM40.1053 296.914C46.2105 302.02 52.2747 307.187 58.4055 312.355L51.777 323.03L21.7588 294.977L51.7565 266.929L58.4671 277.717C53.6086 281.708 48.7706 285.659 43.9582 289.645C42.4704 290.878 40.9877 292.131 39.6179 293.492C38.3353 294.735 38.8227 295.835 40.1053 296.914ZM40.998 294.997L59.7189 279.551L66.9015 287.564C64.6133 289.398 62.2841 291.299 59.9087 293.148C58.2721 294.432 58.3696 295.593 59.9498 296.842C62.279 298.66 64.5672 300.53 66.9015 302.389L59.7189 310.398L40.998 294.997ZM60.7399 294.997C63.5 293.015 65.8703 291.268 68.3124 289.609C68.5478 289.496 68.8047 289.434 69.0658 289.429C69.3269 289.424 69.5861 289.474 69.8259 289.578C73.8943 291.412 77.9371 293.307 81.6874 295.049L68.6715 300.725L60.7399 294.997ZM25.1398 317.035C18.2342 310.357 11.3697 303.643 4.44874 297.001C3.16613 295.768 2.66335 294.694 4.14091 293.251C10.359 287.153 16.5155 280.953 22.8054 274.907C30.0445 267.941 37.3861 261.084 44.9125 253.959C46.7902 257.318 48.5551 260.292 50.0891 263.38C50.2091 263.798 50.2251 264.24 50.1357 264.666C50.0463 265.092 49.8541 265.49 49.576 265.825C40.1258 274.698 30.6208 283.52 21.0611 292.29C18.3266 294.807 18.3214 295.157 21.0867 297.689C27.705 303.73 34.2207 309.838 40.7876 315.92C43.6145 318.535 46.3849 321.216 49.299 323.728C50.5149 324.756 50.7458 325.737 49.9813 327.062C48.3755 329.851 46.7851 332.651 44.8509 336.021C38.1044 329.533 31.5939 323.302 25.1398 317.035ZM55.6659 380.697C47.2007 375.745 38.874 370.613 30.7833 365.748C37.1296 354.55 43.6966 342.925 50.2789 331.331C53.8702 325.033 57.2871 318.627 61.1862 312.53C67.666 302.395 77.5215 297.607 89.1317 296.092C91.2403 295.819 93.4464 296.374 95.6114 296.426C97.0274 296.461 99.3156 295.717 99.7158 296.312C100.742 297.905 100.988 300.032 101.588 302.117C99.0232 302.266 96.6888 302.23 94.4058 302.559C81.5233 304.419 71.4727 310.968 64.1054 321.566C60.2473 327.108 56.6971 332.867 53.2187 338.677C50.3559 343.444 47.7804 348.38 45.1228 353.265C43.5837 356.147 42.0087 359.044 40.6337 361.998C40.3823 362.512 40.7568 363.883 41.2442 364.176C53.5265 371.501 65.7061 379.022 78.2449 385.869C84.9145 389.522 92.3382 391.926 100.101 392.085C103.405 392.152 106.719 391.058 110.048 390.683C114.963 390.133 119.35 388.289 123.721 385.268C124.378 387.446 124.927 389.275 125.465 391.058C117.375 396.955 108.622 400.951 98.3152 400.612C93.1423 400.453 88.0792 399.079 83.5344 396.6C74.1508 391.52 64.9007 386.116 55.6659 380.697ZM110.305 401.825C108.951 403.571 107.442 405.421 106.021 407.357C104.984 408.687 104.05 410.093 103.225 411.564C102.635 412.699 102.014 413.28 100.66 413.105C97.992 412.746 95.3087 412.489 92.174 412.14C93.5336 409.057 94.7393 406.263 96.0116 403.53C96.1758 403.176 96.8992 402.955 97.3866 402.909C101.701 402.513 105.985 402.179 110.305 401.825ZM74.6844 423.996C82.7135 425.429 90.7324 426.954 98.5614 428.408V440.963L58.3388 431.716C62.2944 418.751 66.2807 405.698 70.3389 392.388L81.5746 398.373C79.6866 403.299 77.778 408.133 75.9721 413.054C74.9153 415.926 73.9866 418.848 73.0786 421.787C72.6373 423.143 73.2889 423.744 74.7049 423.996H74.6844ZM98.7461 455.762L41.6547 441.43C47.2007 422.388 51.5769 403.381 58.1644 384.755L68.3278 390.621C67.4607 393.924 66.7887 396.97 65.8549 399.945C62.7766 409.941 59.5753 419.912 56.4508 429.903C55.3375 433.473 55.4247 433.391 59.0981 434.218C68.2508 436.273 77.3881 438.42 86.5254 440.536C89.9628 441.333 93.3848 442.196 96.8325 442.935C98.11 443.213 98.8026 443.721 98.782 445.129C98.7307 448.452 98.7666 451.797 98.7666 455.762H98.7461ZM99.3002 424.54C99.1771 425.054 98.1459 425.799 97.6431 425.722C90.2809 424.607 82.9444 423.379 75.0179 422.079C77.9627 414.199 80.7229 406.792 83.4985 399.364L93.7593 402.621C92.3895 406.104 91.0351 409.556 89.4139 413.686L101.091 415.52C100.557 418.437 100.044 421.509 99.3207 424.54H99.3002ZM132.263 488.885C123.88 488.772 115.502 488.572 107.124 488.505C105.154 488.505 103.184 488.88 101.301 489.075C101.301 478.996 101.399 468.944 101.27 458.901C101.188 452.814 100.337 446.716 100.588 440.655C100.962 431.701 100.372 422.454 104.487 414.112C107.924 407.141 112.696 401.208 119.94 397.674C122.315 396.508 124.557 395.044 126.651 393.837L131.094 397.89C128.41 399.775 125.604 401.28 123.398 403.402C117.375 409.16 112.111 415.417 110.136 423.949C108.048 432.929 107.334 441.99 107.427 451.175C107.516 459.908 107.641 468.64 107.801 477.373C107.83 478.585 107.985 479.79 108.263 480.969C108.349 481.211 108.489 481.429 108.673 481.608C108.858 481.786 109.081 481.919 109.325 481.996C110.348 482.22 111.392 482.334 112.439 482.335C123.485 482.479 134.541 482.772 145.587 482.669C154.34 482.592 163.03 481.544 171.239 478.334C175.687 476.598 179.704 474.101 182.803 470.279C183.947 468.877 185.702 467.973 186.841 466.57C188.703 464.279 190.294 461.772 192.192 459.081L196.409 463.909C193.562 468.117 190.822 473.074 187.205 477.265C181.807 483.595 174.187 487.605 165.919 488.469C158.736 489.332 151.554 489.712 144.31 488.983C140.328 488.592 136.28 488.942 132.263 488.885ZM168.176 515.027C167.325 510.676 166.499 506.7 165.791 502.698C165.278 499.693 164.954 496.652 164.421 493.647C164.098 491.844 164.19 490.832 166.473 490.611C169.161 490.354 171.793 489.496 174.471 488.89C175.108 492.717 175.713 496.39 176.385 500.479C178.689 499.683 180.423 499.138 182.111 498.476C183.798 497.813 185.492 496.996 187.333 496.179L190.699 506.582L168.176 515.027ZM191.72 508.729L197.681 519.753L158.387 531.783C155.309 518.463 152.262 505.256 149.153 491.834L161.763 491.181C162.836 497.628 163.892 504.111 164.99 510.589C165.231 512.011 165.77 513.398 165.888 514.826C166.083 517.097 167.135 517.57 169.131 516.845C176.539 514.164 183.958 511.513 191.71 508.729H191.72ZM187.2 493.01C187.164 493.236 187.078 493.451 186.948 493.639C186.818 493.827 186.649 493.984 186.451 494.099C183.711 495.383 180.931 496.59 177.822 497.977C177.529 494.895 177.308 492.399 177.042 489.918C176.872 488.407 177.396 487.56 178.745 486.671C181.741 484.693 184.506 482.351 187.374 480.163C187.642 479.982 187.924 479.822 188.216 479.685C187.877 484.133 187.564 488.572 187.19 493.01H187.2ZM148.655 548.489C143.853 529.354 139.123 510.511 134.29 491.376C138.333 491.376 141.775 491.305 145.202 491.438C145.579 491.512 145.932 491.677 146.231 491.919C146.529 492.161 146.764 492.472 146.916 492.825C149.936 505.647 152.894 518.48 155.791 531.326C156.525 534.573 156.628 534.717 159.896 533.705C170.861 530.297 181.827 526.891 192.792 523.487C194.48 522.974 196.188 522.331 197.923 522.218C198.769 522.157 200.011 522.958 200.513 523.729C202.135 526.22 203.494 528.866 205.213 531.948C186.682 538.626 167.648 542.972 148.645 548.494L148.655 548.489ZM286.889 498.486C287.428 495.332 287.69 492.126 288.095 488.726C289.653 488.996 291.195 489.355 292.712 489.799C293.011 489.972 293.265 490.213 293.453 490.502C293.641 490.791 293.758 491.121 293.795 491.464C293.934 494.032 294.205 496.626 293.836 499.128C293.275 503.331 292.395 507.485 291.204 511.554C288.28 520.991 281.272 527.057 273.119 531.804C261.914 538.323 250.499 544.487 239.192 550.811C234.061 553.677 229.034 556.631 224.211 559.394C220.722 553.502 217.09 547.276 213.375 541.097C208.194 532.461 202.832 523.929 197.779 515.222C193.936 508.59 190.53 501.732 189.545 493.95C188.89 489.059 189.467 484.081 191.222 479.469C193.203 474.332 195.886 469.478 198.312 464.387L204.315 466.17C204.136 466.755 204.11 467.356 203.802 467.711C200.344 472.067 199.698 477.471 198.559 482.608C196.85 490.313 198.482 497.731 201.262 504.984C206.224 517.945 213.796 529.477 220.902 541.271C222.441 543.809 224.119 546.249 225.642 548.792C226.289 549.876 226.735 550.261 228.059 549.531C233.959 546.264 240.028 543.295 245.877 539.941C252.782 535.975 259.729 532.009 266.28 527.51C271.975 523.6 277.475 519.183 281.041 513.07C282.831 509.987 283.909 506.505 285.248 503.181C285.952 501.678 286.499 500.107 286.879 498.491L286.889 498.486ZM278.86 485.13C282.282 486.81 282.965 490.416 282.821 493.647C282.647 497.685 281.646 501.707 280.769 505.678C280.312 507.671 279.281 509.541 278.717 510.974C275.905 505.904 273.155 500.597 270.056 495.501C268.102 492.286 265.598 489.409 263.387 486.353C261.083 483.178 260.206 479.572 260.083 475.683C260.001 473.079 259.606 470.479 259.349 467.88C264.054 475.786 270.775 481.154 278.85 485.109L278.86 485.13ZM269.79 499.256C272.606 503.628 275.433 508.025 275.89 513.527C276.064 515.689 275.315 517.04 273.894 518.304C270.908 520.939 267.907 523.549 264.567 526.477C264.377 518.16 261.366 511.195 258.58 504.188C256.764 499.606 255.804 494.941 256.799 490.067C257.22 488.012 258.272 486.065 259.077 483.959C262.802 489.245 266.481 494.13 269.79 499.256ZM251.023 488.52C249.16 490.308 246.918 491.71 244.681 493.066C242.598 494.335 240.777 493.441 239.428 491.669C235.729 486.799 235.016 481.277 236.149 475.426C237.36 469.185 241.177 464.372 245.056 459.641C247.837 456.261 250.817 453.04 253.511 449.968C254.66 456.06 256.271 462.435 256.969 468.913C257.743 476.099 256.615 483.127 251.023 488.52ZM292.353 408.754C292.938 408.95 293.816 409.653 293.795 410.08C293.651 412.879 293.282 415.674 293.02 418.463C292.384 424.756 289.07 429.764 285.325 434.542C282.759 437.768 279.122 439.494 275.3 440.516C271.423 441.502 267.479 442.199 263.5 442.601C256.866 443.362 251.187 440.809 246.092 436.833C241.752 433.453 237.483 429.934 235.159 424.781C234.131 422.512 233.445 420.102 233.122 417.631C232.096 409.612 234.441 402.313 238.53 395.542C238.848 395.029 240.12 394.802 240.921 394.864C244.876 395.157 248.827 395.892 252.782 395.892C257.169 395.892 260.991 393.837 264.505 391.294L267.63 389.059C266.142 395.142 264.844 400.766 263.32 406.325C263.135 406.998 261.781 407.645 260.919 407.783C254.409 408.811 249.966 412.617 248.514 418.802C246.508 427.371 251.023 435.656 261.627 435.451C267.958 435.328 271.124 431.341 273.073 426.615C275.023 421.889 274.212 416.753 270.852 412.438C270.339 411.806 269.938 410.943 269.277 410.65C266.096 409.227 266.578 407.105 267.517 404.398C269.056 399.934 270.185 395.326 271.673 390.112C272.232 391.392 272.586 392.126 272.878 392.886C276.331 401.907 283.832 405.929 292.353 408.729V408.754ZM270.631 417.4C271.601 422.429 269.297 428.86 265.706 431.013C262.007 433.232 258.523 431.557 255.158 430.134C251.623 428.639 251.664 425.275 251.674 422.074C251.674 416.234 254.752 411.682 259.524 410.408C260.712 410.118 261.947 410.069 263.155 410.265C264.363 410.461 265.519 410.898 266.555 411.55C267.591 412.202 268.486 413.056 269.186 414.061C269.886 415.066 270.377 416.201 270.631 417.4ZM288.87 356.872C289.337 357.087 289.968 357.385 290.614 357.668C294.118 359.209 293.872 359.137 292.938 363.036C291.486 369.113 282.97 375.724 276.721 374.779C272.227 374.096 268.235 372.652 265.619 368.615C261.92 362.871 261.391 357.37 264.115 350.846L269.405 351.627C269.205 354.406 268.892 357.185 268.825 359.964C268.733 363.93 271 367.222 274.269 368.183C279.24 369.642 282.626 368.697 284.996 364.813C286.489 362.342 287.541 359.625 288.87 356.872ZM286.171 354.904C286.274 355.075 286.336 355.267 286.353 355.466C286.37 355.664 286.341 355.864 286.269 356.05C284.976 358.952 284.021 362.116 282.164 364.633C280.307 367.151 277.403 367.428 274.525 365.974C271.96 364.674 270.852 362.44 270.934 359.661C271.023 357.659 271.215 355.663 271.508 353.682C271.693 352.284 272.391 351.539 273.807 350.743C276.321 349.325 278.388 347.101 280.584 345.154C281.138 344.641 281.482 343.927 282.282 342.791C282.298 347.651 283.237 351.622 286.171 354.904ZM293.487 325.86C293.785 326.05 293.882 326.718 293.903 327.17C294.159 332.194 290.132 337.372 285.248 338.214C282.446 338.697 281.051 336.632 279.753 334.737C277.593 331.583 277.855 326.143 280.163 323.107C280.37 322.778 280.658 322.509 281 322.326C285.72 320.569 285.725 320.579 289.003 317.143C290.045 320.405 290.342 323.846 293.487 325.86ZM285.278 251.786C290.178 252.556 294.185 257.755 293.928 262.804C293.928 263.256 293.795 263.919 293.492 264.104C290.311 266.097 290.07 269.57 289.019 272.837C286.566 270.484 284.745 267.592 281.01 267.602C280.671 267.602 280.271 267.032 279.984 266.652C277.034 262.291 277.932 255.561 282.067 252.443C283.012 251.84 284.146 251.606 285.253 251.786H285.278ZM284.981 237.027C283.313 239.776 282.713 243.192 281.626 246.356C279.825 242.724 276.675 240.161 272.683 238.579C272.535 238.517 272.401 238.425 272.29 238.31C272.179 238.194 272.093 238.056 272.037 237.906C271.139 234.248 270.098 230.581 271.708 226.851C272.847 224.216 275.161 223.255 277.752 223.194C280.343 223.132 282.134 224.617 283.426 226.682C284.145 227.832 284.519 229.194 285.166 230.391C286.387 232.666 286.474 234.546 284.966 237.027H284.981ZM292.497 225.695C294.549 231.033 294.467 231.063 288.829 232.974C287.572 230.36 286.541 227.632 285.032 225.197C282.508 221.134 279.076 220.204 274.12 221.822C270.862 222.885 268.748 226.101 268.841 230.17C268.902 232.882 269.21 235.589 269.405 238.296L264.069 239.113C262.787 235.759 261.714 232.219 262.638 228.551C263.962 223.276 266.265 218.673 271.796 216.336C281.061 212.416 289.87 218.93 292.482 225.695H292.497ZM264.68 147.429C269.277 148.065 273.807 149.119 278.214 150.578C282.888 152.119 285.827 155.823 288.582 159.892C292.748 166.056 293.323 172.924 293.8 179.925C293.831 180.352 292.959 181.081 292.369 181.282C286.212 183.372 280.184 185.715 276.218 191.227C274.453 193.682 273.222 196.523 271.601 199.446C270.292 195.007 269.035 190.656 267.732 186.306C267.617 185.675 267.445 185.056 267.219 184.456C266.26 182.556 266.434 181.292 268.42 179.915C274.746 175.533 275.89 164.201 269.59 157.934C263.813 152.186 254.388 153.933 250.658 159.167C247.17 164.058 246.195 171.326 251.72 177.213C254.255 179.91 257.123 181.795 260.863 182.114C262.653 182.268 263.31 183.193 263.7 184.96C264.823 190.127 266.234 195.233 267.599 200.602C264.608 198.829 262.058 197.134 259.344 195.757C254.922 193.518 250.15 193.805 245.394 194.273C245.235 194.273 245.092 194.376 244.933 194.406C238.679 195.711 238.679 195.711 236.016 189.783C233.015 183.105 232.158 176.273 233.759 169.051C235.01 163.4 238.699 159.563 242.711 155.916C244.545 154.35 246.462 152.884 248.452 151.523C250.753 149.803 253.372 148.555 256.157 147.852C258.942 147.15 261.839 147.006 264.68 147.429ZM260.95 179.792C257.051 179.453 254.439 177.09 252.89 173.7C252.049 171.855 251.828 169.724 251.325 167.725C251.674 160.893 256.815 156.671 263.51 157.965C266.747 158.602 268.127 161.361 269.472 163.867C271.467 167.546 271.683 171.486 269.569 175.169C267.722 178.446 264.731 180.126 260.95 179.792ZM255.424 129.907C254.804 133.375 254.121 136.827 253.49 140.181C249.53 135.419 245.282 130.611 241.372 125.541C236.165 118.786 234.133 111.209 236.878 102.856C237.564 101.048 238.559 99.3724 239.818 97.9044C240.314 97.2104 241.037 96.7126 241.862 96.4976C242.687 96.2827 243.561 96.3642 244.332 96.7281C251.756 99.6715 255.235 105.553 256.733 112.997C257.892 118.76 256.435 124.313 255.424 129.918V129.907ZM258.339 86.3464C260.447 80.4492 262.258 74.4441 264.09 68.4493C264.5 67.0932 264.434 65.5932 264.634 63.7028C267.712 66.2148 270.585 68.624 273.504 71.0075C277.198 74.0229 276.47 78.0708 274.782 81.2814C271.416 87.6511 267.26 93.6099 263.387 99.6972C262.094 101.721 260.668 103.663 259.231 105.743C255.317 99.4198 255.958 92.9781 258.339 86.3566V86.3464ZM282.549 98.8496C282 101.634 280.877 103.868 278.065 105.235C270.287 109.026 263.874 114.399 259.513 122.7C259.382 122.05 259.303 121.391 259.277 120.728C259.513 118.092 259.832 115.468 260.052 112.837C260.343 108.865 261.86 105.081 264.392 102.009C270.272 94.8788 275.243 87.2402 278.322 78.2403C281.174 84.9491 284.006 91.437 282.549 98.8599V98.8496ZM256.009 48.4308C262.941 52.3503 269.903 56.2338 276.659 60.4358C287.1 66.9237 292.302 76.8174 293.836 88.735C294.272 92.1254 293.913 95.6236 293.836 99.0653C293.786 99.285 293.683 99.4892 293.537 99.6601C293.39 99.8311 293.204 99.9637 292.995 100.046C291.327 100.514 289.619 100.858 288.028 101.228C287.69 98.1921 287.515 95.2948 287.002 92.4696C284.95 81.4303 279.507 72.5537 270.539 65.6086C261.484 58.5608 251.5 53.054 241.49 47.5421C237.068 45.1072 232.558 42.8316 228.151 40.3915C226.956 39.734 226.402 39.8778 225.678 41.0696C222.549 46.2065 219.173 51.2253 216.13 56.429C212.067 63.3792 207.953 70.3346 204.377 77.5417C200.944 84.456 198.153 91.7298 198 99.6304C197.938 102.795 198.559 105.995 199.103 109.139C199.507 111.669 200.141 114.157 200.996 116.572C201.868 118.95 203.192 121.164 204.443 123.712L198.728 125.423C195.896 119.829 191.94 114.866 190.473 108.44C188.462 99.6099 189.37 91.2829 193.423 83.3618C196.419 77.4903 199.888 71.8551 203.233 66.1686C208.091 57.8981 213.062 49.6945 217.921 41.4241C220.096 37.6792 222.148 33.8677 224.006 30.4927C234.569 36.4053 245.323 42.3744 256.009 48.4308Z" fill="url(#paint0_linear_105_3)"/>
</g>
<defs>
<linearGradient id="paint0_linear_105_3" x1="626.001" y1="294.997" x2="-22.7169" y2="294.997" gradientUnits="userSpaceOnUse">
<stop stop-color="#BC945C"/>
<stop offset="0.28" stop-color="#966F40"/>
<stop offset="0.42" stop-color="#C79B61"/>
<stop offset="0.56" stop-color="#EEBD7B"/>
<stop offset="0.63" stop-color="#FDCA85"/>
<stop offset="0.71" stop-color="#ECBB79"/>
<stop offset="0.87" stop-color="#BE935B"/>
<stop offset="1" stop-color="#966F40"/>
</linearGradient>
<clipPath id="clip0_105_3">
<rect width="295" height="590" fill="white"/>
</clipPath>
</defs>
</svg>
