<svg width="135" height="245" viewBox="0 0 135 245" fill="none" xmlns="http://www.w3.org/2000/svg">
<path d="M58.4371 144.996C60.1033 145.616 61.8235 149.065 60.112 150.543C55.3187 154.683 49.0202 142.836 54.2885 139.372C56.1203 138.168 59.7051 137.929 61.7407 138.712C64.0497 139.6 65.3163 141.896 66.1814 144.059C68.7634 150.514 65.3459 157.697 63.6921 163.957C62.2628 169.369 61.5223 175.97 62.6473 181.505C64.0039 188.179 68.6039 194.314 73.3417 199.052C76.0026 201.713 79.2499 204.505 82.6224 206.258C83.7198 206.829 84.9952 207.287 85.9567 208.056C87.0934 208.966 86.9625 209.716 88.5842 209.716" stroke="#B38A3B" stroke-opacity="0.71" stroke-width="3" stroke-linecap="round"/>
<path d="M126.199 144.996C125.189 146.132 123.75 150.111 126.353 150.251C127.356 150.306 128.288 150.202 129.18 149.698C132.558 147.791 134.08 141.659 131.054 138.85C128.625 136.594 125.341 136.12 123.279 138.85C120.92 141.974 121.255 147.635 121.774 151.235C122.135 153.745 122.889 156.185 123.372 158.672C124.213 163.007 124.283 167.696 124.263 172.101C124.22 181.372 120.416 190.476 115.167 197.946C113.587 200.194 112.26 202.876 109.881 204.399C108.023 205.588 105.887 206.231 104.073 207.503C102.07 208.907 98.8176 210.128 98.8176 213.035" stroke="#B38A3B" stroke-opacity="0.71" stroke-width="3" stroke-linecap="round"/>
<path d="M84.3935 215.626C85.5869 216.327 86.4687 217.253 87.4481 218.209C87.689 218.444 87.2401 217.138 87.2358 217.124C86.7351 215.507 86.1765 213.332 88.2973 212.766C90.0381 212.302 91.8234 212.178 93.3628 213.191C94.8403 214.162 96.7873 215.621 96.8479 217.56C96.9003 219.236 95.9447 220.762 95.2793 222.231C94.3916 224.19 93.8611 226.178 93.6517 228.316C93.5154 229.709 93.4583 231.107 93.7815 232.48C94.2221 234.35 95.1369 236.204 94.6896 238.182C94.303 239.892 91.9661 244.04 89.6418 242.758C88.0208 241.864 87.7038 239.266 87.8845 237.628C88.0542 236.089 88.7236 234.633 88.9636 233.093C89.1197 232.091 89.3073 231.09 89.4413 230.085C89.6757 228.328 89.5331 226.623 89.4885 224.861" stroke="#B38A3B" stroke-opacity="0.71" stroke-width="3" stroke-linecap="round"/>
<path d="M74.2275 141.4C74.789 141.063 72.841 140.679 72.6651 140.679C71.4879 140.679 70.7027 141.092 70.1413 142.134C69.5857 143.166 69.4577 144.585 69.7674 145.727C70.3542 147.888 72.5669 147.934 74.4144 147.89C78.5153 147.792 80.3422 143.939 82.0259 140.812C83.4967 138.081 85.437 135.3 88.2219 133.708C91.0534 132.09 95.831 130.87 98.9847 132.173C103.081 133.865 105.511 138.662 108.118 141.988C109.339 143.544 109.948 144.844 111.737 145.833C113.66 146.896 116.664 146.733 117.88 144.685C119.496 141.962 117.8 139.767 114.822 139.717C114.206 139.707 113.941 140.356 113.941 140.893C113.941 141.762 115.195 141.901 115.81 142.121" stroke="#B38A3B" stroke-opacity="0.71" stroke-width="3" stroke-linecap="round"/>
<path d="M61.9471 28.5685C63.664 28.9703 70.6033 30.6616 71.8437 32.729C72.9189 34.521 68.759 29.8687 67.5355 28.1746C66.5949 26.8723 66.0742 24.7296 66.4769 23.1525C68.7167 14.3799 85.0093 17.134 86.7625 25.0235C87.563 28.626 87.5782 31.9212 87.6487 35.6586C87.7592 41.5104 92.0293 46.7306 93.4095 52.3499C95.1268 59.3421 96.9164 66.4564 98.2839 73.5218C99.4122 79.3514 98.7762 85.4855 99.6133 91.3948C100.339 96.5154 100.664 101.888 100.943 107.052C101.333 114.277 101.386 121.485 101.386 128.716" stroke="#B38A3B" stroke-opacity="0.71" stroke-width="3" stroke-linecap="round"/>
<path d="M85.9841 128.009C85.5195 128.474 83.9942 130.654 85.6427 130.741C87.7409 130.851 89.0366 130.267 90.0816 128.294C92.0682 124.541 91.4474 119.293 91.4474 115.167C91.4474 111.007 92.1582 106.919 92.1303 102.741C92.034 88.2928 89.3455 74.1393 86.4773 60.0595C85.875 57.1027 85.2885 54.2705 84.9598 51.2575C84.6719 48.619 84.3988 46.1086 83.2525 43.6886C81.666 40.3393 79.4918 38.2064 75.7405 38.2064" stroke="#B38A3B" stroke-opacity="0.71" stroke-width="3" stroke-linecap="round"/>
<path d="M69.5493 53.9117C72.7703 50.9536 77.5872 48.9103 81.2764 46.8595C87.4566 43.4239 94.1914 40.1318 99.4642 35.303C102.624 32.4094 104.379 28.5788 105.788 24.6338" stroke="#B38A3B" stroke-opacity="0.71" stroke-width="3" stroke-linecap="round"/>
<path d="M59.7217 40.8083C62.4861 37.33 63.6513 35.3764 67.3199 32.7324C70.3613 30.5405 73.9129 29.1502 77.3749 27.8186C82.0001 26.0397 86.5811 24.8945 90.2508 21.3579C92.9744 18.7332 96.1001 15.0964 96.8708 11.2574C97.1157 10.0372 96.7487 9.53877 96.1655 8.66403" stroke="#B38A3B" stroke-opacity="0.71" stroke-width="3" stroke-linecap="round"/>
<path d="M105.28 25.2483C105.293 23.2869 105.265 21.2813 105.417 19.3251C105.558 17.5209 107.574 16.3762 109.159 16.0097C111.748 15.4108 114.351 15.5496 116.032 17.7853C117.222 19.3681 118.294 21.9254 116.504 23.4661C115.279 24.5201 113.807 25.5116 112.382 26.2704C112.291 26.3192 112.01 26.4277 112.114 26.4277C112.563 26.4277 113.014 26.4363 113.457 26.5194C115.097 26.8269 118.572 28.2498 119.432 25.9559" stroke="#B38A3B" stroke-opacity="0.71" stroke-width="3" stroke-linecap="round"/>
<path d="M96.5523 10.0341C96.317 7.32765 95.5531 1.91007 99.7236 2.00113C103.565 2.08502 105.203 6.48922 103.078 9.392C102.973 9.53579 102.341 10.0233 102.292 10.2438C102.282 10.287 104.094 10.2051 104.179 10.1914C106.543 9.81013 108.614 8.20716 109.054 5.7883" stroke="#B38A3B" stroke-opacity="0.71" stroke-width="3" stroke-linecap="round"/>
<path d="M69.5756 54.1521C68.1832 54.635 66.8759 55.1507 66.3105 56.6343C65.8512 57.8395 66.1123 58.8774 66.9788 59.7975C67.6767 60.5386 68.5165 60.8426 69.5183 60.5676C70.6803 60.2486 71.8461 59.3301 72.4747 58.2986C72.7381 57.8664 72.8747 57.3826 72.9934 56.8952C73.0276 56.7547 72.9939 56.3981 73.1143 56.4784C73.2445 56.5652 73.3335 56.747 73.4516 56.8507C73.716 57.0826 74.1101 57.1714 74.3236 57.4617C74.5793 57.8094 74.6209 58.308 74.6545 58.7187C74.7124 59.4256 74.6531 60.0939 74.3427 60.7395C74.1448 61.1508 73.8217 61.416 73.5853 61.7705" stroke="#B38A3B" stroke-opacity="0.71" stroke-width="3" stroke-linecap="round"/>
<path d="M59.1999 41.2625C57.6654 41.8379 56.1065 42.0616 54.5647 42.5388C53.6426 42.8242 53.1422 43.2483 53.0135 44.2488C52.8898 45.2109 53.1603 46.1275 53.8135 46.8442C54.4697 47.5642 55.6064 47.5934 56.5128 47.4793C57.6397 47.3376 58.7265 46.6548 59.2671 45.6411C59.3574 45.4718 59.2488 45.1231 59.4381 45.0915C59.6288 45.0597 60.1614 46.2983 60.1831 46.3434C60.8134 47.6545 61.0519 48.7383 60.2503 50.0321C59.8835 50.624 59.3586 51.3084 58.6503 51.4855" stroke="#B38A3B" stroke-opacity="0.71" stroke-width="3" stroke-linecap="round"/>
<path d="M14.1123 201.292C16.8497 200.252 17.925 197.582 18.2693 194.825C18.8612 190.085 16.8831 186.527 13.9445 183.018C12.2058 180.942 10.0099 179.429 8.74683 176.961C6.31986 172.22 4.46015 165.429 5.92932 160.123C7.00838 156.227 9.529 152.758 11.6268 149.365C14.065 145.422 15.9291 141.251 16.845 136.692C18.3711 129.097 20.1112 121.534 21.4978 113.912C22.3669 109.134 23.3026 106.985 27.7943 104.779C30.6382 103.382 33.6239 102.175 36.778 101.722C40.6795 101.161 44.5307 101.325 47.9582 99.0293C49.6995 97.8631 50.8345 96.2587 50.438 94.1088C49.7785 90.533 46.1735 90.2068 43.1522 90.5933C42.1383 90.723 38.452 91.1738 39.5761 93.121C40.331 94.4286 42.0223 94.7828 43.3697 95.0186" stroke="#B38A3B" stroke-opacity="0.71" stroke-width="3" stroke-linecap="round"/>
<path d="M15.4999 200.469C19.3542 191.758 23.1839 183.269 25.1448 173.894C26.1811 168.939 26.3112 164.006 26.7064 158.992C27.2663 151.886 29.2319 145.619 32.6928 139.392C35.7137 133.956 39.412 129.788 43.8739 125.526C47.5064 122.057 51.3272 118.136 52.4624 113.053C53.2228 109.648 53.1425 105.163 49.7794 103.681C49.2748 103.459 49.141 102.375 48.9247 101.854" stroke="#B38A3B" stroke-opacity="0.71" stroke-width="3" stroke-linecap="round"/>
<path d="M11.2469 143.245C10.0983 143.722 9.37167 143.618 9.1823 142.215C9.02729 141.066 10.5562 140.806 11.46 140.639C12.3515 140.475 12.6772 140.679 12.9887 139.628C13.3427 138.435 12.7917 136.139 11.2919 137.682C10.493 138.504 9.868 138.848 8.86907 137.856C7.65199 136.647 6.38662 133.868 7.92239 132.419C8.85499 131.54 11.7919 130.646 12.9599 131.49C13.2549 131.704 14.0222 133.491 14.3008 132.817" stroke="#B38A3B" stroke-opacity="0.71" stroke-width="3" stroke-linecap="round"/>
<path d="M15.3619 200.851C14.0867 201.356 12.7086 201.993 11.2936 201.799C10.2327 201.654 9.39048 200.927 8.76458 200.105C7.66718 198.664 6.42435 195.064 8.45991 193.82C10.3324 192.676 12.7422 194.169 13.0067 196.229C13.0932 196.901 12.4063 197.959 11.8474 197.239" stroke="#B38A3B" stroke-opacity="0.71" stroke-width="3" stroke-linecap="round"/>
<path d="M81.9277 173.026C82.5767 171.209 84.9005 171.737 85.0073 173.59C85.0711 174.698 84.7287 175.809 84.8893 176.918C85.0767 178.212 85.9839 178.694 87.0974 179.139C87.6006 179.341 88.1261 179.548 88.6568 179.67C89.0424 179.759 88.1122 179.096 87.8509 178.799C86.0404 176.74 85.0004 173.573 85.5052 170.838C86.1978 167.085 90.5471 166.53 93.7217 166.317C95.9295 166.168 98.5334 166.085 100.51 167.273C102.63 168.548 104.349 171.147 105.077 173.465C106.892 179.255 98.759 184.429 94.5472 179.867" stroke="#B38A3B" stroke-opacity="0.71" stroke-width="3" stroke-linecap="round"/>
<path d="M82.8854 195.037C82.5385 194.273 80.7775 193.99 81.5495 192.887C83.0653 190.722 87.584 190.795 89.783 191.653C91.8313 192.452 93.1768 194.287 95.1124 195.24C98.5276 196.921 102.504 194.608 103.796 191.377" stroke="#B38A3B" stroke-opacity="0.71" stroke-width="3" stroke-linecap="round"/>
<path d="M88.8833 198.979C90.1294 175.927 91.6499 152.859 92.0775 129.773" stroke="#B38A3B" stroke-opacity="0.71" stroke-width="3" stroke-linecap="round"/>
<path d="M95.2716 198.269C95.8021 186.466 94.5432 174.336 97.2039 162.739C99.0945 154.499 100.595 146.421 100.595 137.935" stroke="#B38A3B" stroke-opacity="0.71" stroke-width="3" stroke-linecap="round"/>
<path d="M96.4756 116.597C96.2957 120.129 95.4529 124.727 96.739 128.136C97.4919 130.132 98.2156 132.098 98.8337 134.145C99.4406 136.156 99.492 138.008 99.492 140.082" stroke="#B38A3B" stroke-opacity="0.71" stroke-width="3" stroke-linecap="round"/>
<path d="M96.9889 114.826C96.472 114.826 96.5004 115.164 96.5004 115.626C96.5004 116.852 96.5004 113.175 96.5004 111.949C96.5004 103.817 96.5004 95.6843 96.5004 87.5519C96.5004 84.4698 96.642 81.3421 96.3376 78.2706C95.931 74.1676 94.8013 70.0801 93.4609 66.1941C90.7038 58.201 86.5526 51.1313 82.5785 43.7508" stroke="#B38A3B" stroke-opacity="0.71" stroke-width="3" stroke-linecap="round"/>
<path d="M18.2285 185.661C17.8165 183.664 17.2891 181.684 16.365 179.853C15.8208 178.775 14.9338 177.997 14.2043 177.054C13.7378 176.452 13.4027 175.794 13.0079 175.147C12.5682 174.428 11.9903 173.81 11.5722 173.074C10.1671 170.6 9.80891 167.556 9.67967 164.764C9.56313 162.247 10.2806 159.778 11.2096 157.455C11.8802 155.779 12.8151 154.27 13.7112 152.713C14.8579 150.72 15.9494 148.695 17.0829 146.695C19.8356 141.836 22.9013 137.084 23.0432 131.337C23.1246 128.04 22.6769 124.569 23.6087 121.36C24.3913 118.665 25.9181 116.154 27.43 113.819C28.2794 112.507 29.4154 111.405 30.2361 110.092" stroke="#B38A3B" stroke-opacity="0.71" stroke-width="3" stroke-linecap="round"/>
<path d="M29.8446 110.875C30.9001 109.503 32.4049 107.6 34.1517 107.119C35.6997 106.693 37.3109 106.336 38.8938 106.075C40.6617 105.784 43.117 105.868 44.332 104.349" stroke="#B38A3B" stroke-opacity="0.71" stroke-width="3" stroke-linecap="round"/>
</svg>
