<svg width="574" height="298" viewBox="0 0 574 298" fill="none" xmlns="http://www.w3.org/2000/svg">
<path d="M569.625 295.09C560.847 286.211 552.219 277.15 543.425 268.301C539.145 263.985 534.669 259.859 530.157 255.79C529.032 254.763 529.137 254.053 529.747 252.95C531.395 249.967 532.929 246.916 534.631 243.963C537.91 238.275 540.442 232.102 545.041 227.254C546.128 226.105 545.399 225.271 544.121 224.782C534.74 221.192 526.983 214.695 518.424 209.635C517.998 209.387 517.668 208.302 517.827 207.774C520.667 198.352 523.7 188.988 526.491 179.545C529.124 170.558 531.499 161.498 534.008 152.475C534.371 151.167 534.143 150.387 532.7 150.009C528.935 149.025 525.202 147.91 521.448 146.86C514.678 144.976 507.935 142.98 501.114 141.258C493.496 139.326 485.816 137.627 478.156 135.872C476.821 135.566 476.419 134.841 476.454 133.499C476.536 129.978 476.463 126.451 476.535 122.925C476.688 116.594 476.781 110.263 477.177 103.945C477.302 101.913 476.812 101.568 475.032 101.781C471.951 102.219 468.847 102.47 465.737 102.533C459.973 102.512 454.211 102.167 448.447 102.025C444.556 101.929 444.611 101.965 443.736 98.0852C441.553 88.4105 439.366 78.7357 437.084 69.0856C435.159 60.9021 433.049 52.7526 431.059 44.5787C430.731 43.2291 430.251 42.3356 428.687 42.7995C426.675 43.3814 424.682 44.0143 422.635 44.5704C414.742 46.7469 406.829 48.8318 398.96 51.0848C390.866 53.4018 382.797 55.8004 374.771 58.3416C373.406 58.7717 372.781 58.6594 372.159 57.4648C367.495 48.6372 361.244 40.7205 358.028 31.0874C357.541 29.7009 356.633 29.4642 355.488 30.44C355.037 30.8759 354.55 31.2712 354.033 31.6214C345.991 36.3375 337.953 41.0587 329.852 45.6625C329.353 45.9376 328.114 45.5099 327.651 44.9977C324.004 40.9407 320.583 36.6672 316.861 32.6807C307.954 23.1448 298.921 13.7197 289.948 4.26963C287.725 1.92761 287.75 1.92275 285.396 4.32601C277.111 12.7904 268.767 21.1983 260.547 29.7293C256.108 34.3349 251.773 39.0583 247.611 43.9255C246.393 45.3478 245.556 45.5641 244.162 44.5811C243.668 44.2261 243.064 44.0023 242.534 43.6724C234.848 38.8073 226.247 35.474 219.427 29.1581C218.306 28.1318 217.443 28.6324 216.935 29.9797C213.492 39.6047 207.111 47.5116 202.178 56.2749C201.955 56.5351 201.672 56.7348 201.354 56.8561C201.037 56.9774 200.695 57.0166 200.359 56.9703C190.756 53.9686 181.208 50.7794 171.604 47.8386C163.761 45.4318 155.86 43.3344 147.99 41.0747C144.365 40.0264 144.435 40.027 143.498 43.576C140.939 53.3207 138.181 63.0179 135.731 72.794C133.68 81.0186 131.952 89.3324 129.976 97.578C129.825 97.962 129.585 98.3025 129.276 98.5699C128.968 98.8373 128.6 99.0235 128.205 99.1124C123.924 99.2982 119.634 99.4382 115.351 99.3089C109.762 99.1377 104.174 98.7021 98.5906 98.3784C97.1004 98.2891 96.2974 98.6733 96.7561 100.431C97.0659 101.497 97.2379 102.601 97.2677 103.713C97.2441 112.667 97.131 121.615 97.1173 130.564C97.1063 132.002 96.3142 132.259 95.254 132.473C89.072 133.73 82.8418 134.788 76.7224 136.304C64.7724 139.273 52.8897 142.538 40.9541 145.568C39.1317 146.029 38.9216 146.856 39.3616 148.455C41.1165 154.889 42.7817 161.353 44.5515 167.787C47.8204 179.656 51.1589 191.506 54.383 203.385C54.5619 204.042 54.2141 205.335 53.7199 205.62C45.1693 210.525 37.3636 216.809 28.0142 220.233C26.1503 220.912 26.2086 221.741 27.4002 223.19C28.9586 224.973 30.3436 226.907 31.5356 228.964C34.7904 234.877 37.9053 240.881 40.9903 246.895C42.7237 250.279 42.6439 250.319 39.6484 252.752C39.3433 253.004 39.0777 253.301 38.7923 253.573C31.9429 260.231 25.1001 266.887 18.2639 273.541C12.5608 279.116 6.93171 284.763 1.19411 290.303C0.473101 291.003 0.105859 291.584 0.111266 292.179L3.43084 292.208C3.43771 291.309 4.33411 290.412 6.14202 288.598C13.449 281.259 20.6672 273.816 28.0726 266.589C33.0797 261.699 38.3728 257.106 43.868 252.073C45.6362 255.463 47.2632 258.455 48.7356 261.527C48.8434 261.861 48.8699 262.217 48.8127 262.564C48.7555 262.91 48.6163 263.237 48.4074 263.516C42.1248 269.478 35.7732 275.368 29.4364 281.273C26.1429 284.344 22.8889 287.45 19.5461 290.465C18.8054 291.134 18.4182 291.73 18.4235 292.34L21.0026 292.363C30.7287 283.215 40.3947 274.118 50.2659 264.839L56.6446 275.567C51.9633 279.449 47.3072 283.29 42.6709 287.132C41.2205 288.339 39.7749 289.551 38.4181 290.865C38.1764 291.062 37.9778 291.309 37.8352 291.59C37.6927 291.87 37.6094 292.178 37.5906 292.494L39.9411 292.515C41.6329 290.944 43.1553 289.418 44.7959 288.04C48.417 285.023 52.1171 282.083 55.758 279.081C57.1683 277.919 58.2178 277.166 59.6222 279.374C61.0267 281.582 63.0011 283.342 64.7847 285.371C62.4395 287.255 60.194 289.101 57.8991 290.9C57.1042 291.518 56.7419 292.099 56.7425 292.678L58.7004 292.696C61.4641 290.687 63.7779 289.01 66.136 287.38C66.3261 287.269 66.5372 287.201 66.7551 287.181C66.9731 287.161 67.1928 287.189 67.3992 287.264C71.3604 289.174 75.3212 291.14 78.7868 292.863L78.762 292.862L99.3054 293.044C99.3945 290.558 99.8351 288.099 100.614 285.743C102.804 278.724 106.088 272.365 110.93 266.944C114.619 262.815 119.376 260.199 124.313 257.915C129.56 255.482 135.065 255.688 140.752 256.028L140.689 264.316C138.065 264.933 135.304 265.376 132.678 266.242C120.397 270.28 112.347 278.605 109.331 291.506C109.206 292.04 109.124 292.583 109.085 293.13L111.48 293.151C111.474 289.386 112.981 286.05 114.958 282.845C120.045 274.663 127.145 269.1 136.739 267.401C138.103 267.159 139.486 266.998 141.098 266.769L143.089 276.055C141.76 276.41 140.425 276.779 139.105 277.123C133.13 278.676 128.162 281.732 125.067 287.366C124.012 289.162 123.374 291.182 123.203 293.27L125.3 293.288C125.274 290.239 127.045 287.394 130.12 284.336C133.625 280.845 138.204 279.381 142.917 278.473C143.227 278.48 143.531 278.56 143.806 278.706C144.082 278.852 144.321 279.06 144.506 279.315C145.798 281.192 146.961 283.163 147.982 284.799C145.16 286.1 142.185 287.105 139.598 288.749C137.6 290.018 136.594 291.696 136.581 293.388L139.672 293.415C139.777 292.555 140.18 291.762 140.807 291.179C143.587 288.317 147.207 287.444 150.864 287.512C152.504 287.527 154.086 289.274 155.744 290.137C158.219 291.419 160.72 292.61 162.576 293.526L162.402 293.616L177.767 293.751C177.818 287.054 181.185 281.55 186.102 277.345C191.36 272.848 197.576 271.622 204.372 273.262C205.831 273.616 206.379 274.098 206.263 275.591C206.147 277.084 206.241 278.447 206.23 279.972C203.641 279.949 201.395 279.878 199.148 279.909C191.196 280.037 185.801 284.924 183.981 290.879C183.692 291.824 183.542 292.807 183.537 293.797L185.823 293.817C185.853 289.869 188.292 286.069 192.175 283.954C196.716 281.483 201.634 281.73 206.553 282.531C206.925 282.59 207.309 283.045 207.54 283.413C208.724 285.274 209.862 287.164 211.129 289.228C208.687 288.8 206.376 288.129 204.041 288.048C201.58 287.945 199.117 288.186 196.72 288.766C194.624 289.296 193.144 291.783 193.157 293.882L195.478 293.903C195.486 292.835 196.705 291.372 197.758 290.818C199.107 290.198 200.589 289.944 202.062 290.078C206.885 290.296 211.612 291.528 215.95 293.697C216.029 293.738 216.073 293.851 216.166 294.095L226.253 294.184C226.255 293.956 226.257 293.727 226.259 293.493C226.464 288.708 230.97 284.388 235.633 284.175C236.483 284.141 237.32 283.895 238.165 283.877C239.905 283.841 241.445 283.957 242.008 286.258C242.914 289.986 245.195 292.69 248.989 294.365C248.972 294.365 248.955 294.365 248.939 294.364L257.829 294.443L257.829 294.407C257.835 293.665 258.837 292.658 259.659 292.299C265.339 289.757 270.453 291.779 276.042 294.603L295.01 294.771C294.96 294.77 294.916 294.724 294.872 294.703C300.446 292.298 305.403 290.065 310.88 292.593C311.826 293.029 312.499 294.081 313.293 294.851L313.218 294.931L322.108 295.01C322.084 295 322.061 294.988 322.039 294.974C325.943 293.336 328.112 290.454 329.319 286.632C329.498 286.207 329.773 285.831 330.12 285.534C330.468 285.237 330.878 285.027 331.32 284.922C334.995 284.579 340.042 285.507 342.645 288.961C344 290.746 344.72 292.95 344.684 295.209L354.678 295.297L354.575 294.437C359.015 293.46 363.432 292.3 367.916 291.587C369.775 291.357 371.661 291.642 373.376 292.413C374.342 292.838 375.349 294.362 375.435 295.48L377.88 295.502L377.882 295.253C377.799 293.072 376.079 290.521 373.657 290.134C370.679 289.66 367.547 289.77 364.49 289.814C362.999 289.836 361.47 290.296 359.912 290.541C361.155 288.585 362.115 286.495 363.598 284.953C364.445 284.066 366.126 283.786 367.469 283.661C373.368 283.098 378.787 284.025 382.834 289.102C384.363 290.897 385.197 293.202 385.18 295.582L387.426 295.601C387.527 292.792 386.423 290.282 384.77 288.021C381.524 283.571 376.998 281.509 371.591 281.431C369.494 281.412 367.397 281.394 364.972 281.372C364.985 279.675 364.909 277.855 365.077 276.063C365.12 275.611 365.885 274.998 366.423 274.855C376.791 272.106 386.877 277.648 390.434 286.247C391.576 289.001 393.219 291.861 393.282 294.693C393.28 295.018 393.277 295.338 393.275 295.658L408.68 295.794L408.561 295.727C411.026 294.499 414.316 293.105 417.337 291.231C419.335 289.988 421.288 289.329 423.418 290.268C425.774 291.227 428.032 292.421 430.159 293.834C430.528 294.05 430.831 294.367 431.035 294.75C431.238 295.132 431.333 295.564 431.311 295.999L434.426 296.026C434.44 294.293 433.31 292.54 431.06 291.087C428.612 289.511 425.802 288.5 423.137 287.262L427.391 280.815C434.953 282.407 441.736 285.119 445.083 293.168C445.479 294.094 445.691 295.09 445.707 296.1L447.889 296.12C448.009 292.665 446.138 289.772 443.982 287.08C440.884 283.209 436.553 280.574 431.749 279.639C430.543 279.39 429.379 278.922 428.179 278.556L430.356 269.428C442.47 270.363 450.954 276.765 456.9 286.859C458.627 289.667 459.531 292.921 459.507 296.237L461.743 296.257C461.832 292.426 460.427 288.953 458.673 285.741C454.619 278.327 448.704 272.669 440.806 269.596C438.214 268.587 435.41 268.11 432.671 267.547C431.257 267.256 430.43 266.857 430.567 265.135C430.733 263.008 430.635 260.852 430.651 258.784C441.218 257.226 449.963 260.779 457.684 267.458C465.406 274.138 469.188 283.212 471.474 292.989C471.716 294.098 471.809 295.236 471.751 296.371L492.2 296.551L492.171 296.551C495.637 294.93 499.507 293.094 503.407 291.335C503.674 291.225 503.961 291.174 504.249 291.186C504.537 291.199 504.819 291.273 505.077 291.405C507.38 293.006 509.613 294.723 512.297 296.713L512.257 296.744L514.344 296.762C514.35 295.913 513.269 295.06 511.072 293.059C509.592 291.694 507.821 290.611 506.254 289.459L513.387 281.478C519.381 286.612 525.202 291.613 531.389 296.912L533.575 296.932C533.543 296.595 533.438 296.27 533.269 295.979C533.099 295.689 532.869 295.44 532.594 295.251L514.674 279.537L521.171 268.999L550.02 297.036L552.663 297.059C552.669 296.338 552.003 295.615 550.661 294.333C544.322 288.281 538.027 282.173 531.717 276.085C528.994 273.474 526.321 270.788 523.532 268.243C522.506 267.309 522.054 266.563 522.849 265.223C524.501 262.437 526.033 259.585 528.014 256.045L568.799 297.202L570.846 297.22C570.851 296.564 570.439 295.915 569.625 295.09ZM531.924 152.045L515.866 208.067C512.645 206.164 510.087 204.672 507.555 203.151C506.13 202.29 505.651 201.269 506.236 199.419C510.087 187.232 513.798 174.997 517.539 162.772C518.467 159.732 518.294 159.593 515.258 158.87C507.083 156.917 498.918 154.904 490.748 152.906C486.661 151.909 482.589 150.847 478.486 149.911C477.265 149.631 476.503 149.248 476.564 147.785C476.658 144.61 476.612 141.428 476.641 137.678C495.438 141.432 513.32 147.165 531.924 152.045ZM480.999 189.775C481.884 187.796 482.749 185.796 483.659 183.822C485.619 179.566 485.444 179.051 481.019 178.092C478.751 177.599 476.417 177.452 474.068 177.141C474.688 174.154 475.212 171.221 475.955 168.341C476.103 167.748 477.144 166.883 477.635 166.969C484.583 168.168 491.531 169.515 498.478 170.837C498.597 170.838 498.69 171.057 499.109 171.513L490.992 193.212C487.483 192.007 484.394 190.943 480.999 189.78L480.999 189.775ZM465.031 190.498C466.647 188.479 468.932 186.569 469.905 184.133C471.977 178.957 475.727 179.24 479.876 179.952C480.641 180.086 481.405 180.24 482.68 180.485C481.361 183.451 480.151 186.317 478.778 189.125C478.621 189.459 477.85 189.59 477.353 189.621C473.265 189.94 469.208 190.215 465.031 190.503L465.031 190.498ZM496.665 184.44C498.218 180.205 499.687 175.934 501.2 171.679C501.82 169.936 501.379 169.084 499.453 168.747C495.627 168.083 491.862 167.084 488.041 166.379C484.22 165.675 480.387 165.168 476.376 164.544L477.024 151.931C489.921 155.094 502.739 158.256 515.646 161.419L503.716 200.22L492.908 194.189C494.16 190.892 495.457 187.687 496.665 184.44ZM435.008 104.111C445.451 104.434 455.899 104.679 466.351 104.845C469.124 104.87 471.9 104.493 474.53 104.313L474.301 134.294C474.277 137.5 474.198 140.706 474.228 143.908C474.261 146.129 474.572 148.347 474.58 150.568C474.593 154.7 474.67 158.847 474.356 162.961C474.107 166.267 473.376 169.558 472.76 172.81C471.636 178.751 468.117 183.299 464.48 187.83C460.345 192.972 454.218 194.936 449.306 198.343L444.969 194.239C447.582 192.407 450.267 190.927 452.465 188.908C460.157 181.862 465.117 173.373 466.784 162.64C468.127 154.012 468.099 145.373 468.364 136.736C468.603 128.867 467.987 120.979 467.809 113.081C467.779 111.759 467.4 111.237 466.059 111.21C464.046 111.193 462.031 110.85 460.014 110.796C451.07 110.565 442.068 110.196 433.097 110.239C423.346 110.285 413.571 110.956 404.616 115.349C401.274 116.991 398.494 119.868 395.509 122.235C394.05 123.281 392.707 124.488 391.506 125.834C389.684 128.089 388.125 130.57 386.246 133.257L382.394 128.65C385.717 123.679 387.981 117.565 392.949 113.187C399.358 107.557 406.588 104.404 414.996 103.96C419.023 103.752 423.051 103.35 427.077 103.335C429.741 103.338 432.359 104.042 434.988 104.121L435.008 104.111ZM475.654 256.503C477.538 253.841 478.893 251.49 480.701 249.59C481.433 248.819 483.193 248.672 484.409 248.861C490.152 249.755 495.844 251.503 501.598 251.726C508.553 252.001 515.431 250.786 521.089 245.917C521.179 245.836 521.372 245.889 522.212 245.83C518.979 250.762 516.136 255.432 512.941 259.866C510.274 263.562 506.293 264.269 502.201 263.12C498.11 261.971 494.082 260.34 490.058 258.846C485.504 257.169 481.052 255.117 475.634 256.513L475.654 256.503ZM498.43 249.427C493.85 249.061 489.305 247.501 484.893 246.014C481.448 244.856 480.418 241.782 482.462 238.995C489.784 229.003 499.267 222.465 511.82 222.443C518.569 222.427 524.604 225.544 529.903 229.875C523.461 245.079 513.816 250.675 498.41 249.437L498.43 249.427ZM486.869 230.735C484.837 232.593 482.864 234.506 480.862 236.42C479.665 237.583 478.529 237.98 476.881 237.045C474.867 235.889 472.662 235.072 469.948 233.838C477.683 231 481.035 224.103 485.965 218.902C487.694 217.078 489.339 215.11 491.298 213.583C494.983 210.713 499.071 211.019 502.991 213.04C507.145 215.186 511.157 217.605 515.457 220.031C512.245 220.201 509.369 220.069 506.597 220.558C499.052 221.884 492.559 225.541 486.869 230.735ZM478.612 224.493C475.599 228.39 471.528 231.291 466.909 232.831C465.414 233.326 463.686 233.204 462.065 233.362L461.468 232.793C465.768 224.725 469.96 216.606 474.459 208.642C475.492 206.827 477.514 205.528 479.239 204.212C480.634 203.152 482.227 203.451 483.842 204.075C487.31 205.422 490.815 206.626 494.72 208.038C487.813 212.469 483.24 218.532 478.612 224.493ZM462.608 226.674C461.011 230.726 458.664 234.222 454.711 236.448C452.29 237.809 450.148 239.691 447.715 241.468C449.087 238.167 450.487 235.12 451.629 231.969C453.309 227.324 453.536 222.427 453.205 217.566C452.887 212.939 455.318 210.297 458.744 208.127C462.529 205.737 466.693 204.544 471.075 204.033C472.746 203.84 474.413 203.621 476.129 203.407C469.722 210.023 465.933 218.192 462.608 226.674ZM450.253 209.765C451.857 219.063 451.767 228.24 447.417 236.821C443.456 244.632 438.208 251.228 429.395 253.981L425.7 247.184C428.671 244.075 431.778 241.358 434.218 238.112C437.903 233.229 440.163 227.379 440.738 221.237C440.999 218.409 441.016 215.562 440.788 212.73C440.236 204.961 435.105 200.652 429.064 197.188C424.115 194.36 418.655 193.539 413.127 193.089C408.235 192.71 403.572 194.163 399.041 195.968C398.617 196.137 398.193 196.301 397.64 196.52L393.54 189.323C404.747 179.63 423.04 180.325 434.679 188.736C438.035 191.164 441.23 193.85 444.35 196.597C448.28 200.011 449.416 204.848 450.253 209.765ZM301.129 278.949C302.283 275.641 303.226 272.57 302.023 269.276C301.96 269.007 301.954 268.727 302.004 268.455C302.054 268.183 302.159 267.925 302.314 267.698C305.438 263.371 308.965 261.023 314.28 262.661C315.539 263.043 316.957 264.717 317.315 266.042C318.547 270.728 316.369 275.45 312.255 277.807C311.648 278.148 310.937 278.24 310.266 278.064C307.223 276.97 304.348 277.839 301.129 278.949ZM260.885 277.649C260.287 277.862 259.325 277.554 258.736 277.162C254.667 274.463 252.802 270.143 254.124 265.484C254.405 264.712 254.844 264.009 255.41 263.423C255.977 262.836 256.658 262.38 257.41 262.083C261.819 260.704 266.894 263.219 269.078 267.415C269.289 267.818 269.568 268.436 269.426 268.75C267.8 272.069 269.093 275.216 269.997 278.624C266.849 277.549 264.019 276.548 260.885 277.649ZM81.5341 255.256C78.17 256.497 74.8201 257.834 71.3835 258.815C62.2939 261.413 59.6718 257.919 55.9728 252.256C53.8036 248.879 51.9331 245.312 50.3837 241.596C51.1671 242.335 52.0117 243.004 52.908 243.595C59.6091 247.257 66.7835 248.799 74.2959 247.742C78.8232 247.106 83.2894 246.018 87.7789 245.122C89.2721 244.825 90.3938 245.008 91.3165 246.531C92.6172 248.661 94.2125 250.622 96.042 253.133C90.5709 251.753 86.0693 253.589 81.5341 255.256ZM57.3873 243.396C51.4905 241.148 47.8859 236.141 44.5606 231C43.539 229.42 42.892 227.59 41.9723 225.671C48.2451 220.985 54.9527 217.95 62.6516 218.49C65.9746 218.723 69.3246 219.972 72.4554 221.28C78.7648 223.958 84.2626 228.308 88.3816 233.881C91.6977 238.266 90.9409 241.059 85.9165 243.007C76.4661 246.643 66.8864 247.037 57.3873 243.396ZM90.7262 232.723C86.1845 228.74 81.7536 224.559 76.84 221.111C72.1934 217.853 66.7085 216.326 61.0204 216.037C59.7486 215.975 58.4539 216.309 56.5736 216.536C57.2356 215.991 57.9299 215.488 58.6526 215.03C62.6445 212.905 66.5926 210.684 70.6775 208.758C75.7699 206.364 80.0084 208.398 83.4629 212.23C87.1047 216.267 90.311 220.716 93.9779 224.728C96.1021 227.054 98.7619 228.871 101.221 230.951C99.386 231.743 97.2335 232.471 95.2669 233.586C93.3003 234.702 92.1677 233.986 90.7114 232.708L90.7262 232.723ZM77.5645 204.342C82.1883 202.787 86.3482 200.796 90.7068 200.133C93.5279 199.706 95.8632 202.369 97.5987 204.829C101.788 210.745 104.859 217.257 107.391 224.058C108.132 226.047 109.116 227.946 110.118 230.181C102.126 230.201 96.927 225.755 92.4746 219.831C88.2636 214.193 83.9929 208.566 77.5645 204.342ZM108.154 220.559C105.901 212.935 101.889 205.975 96.4557 200.265C101.577 200.62 106.169 201.276 110.467 203.352C111.942 204.075 113.356 204.92 114.696 205.879C117.662 207.963 119.352 210.641 119.043 214.556C118.383 222.956 119.828 230.927 124.16 238.313C117.446 233.686 110.775 229.373 108.154 220.559ZM121.453 223.756C120.082 215.922 121.264 208.188 123.617 200.688C124.216 198.703 125.25 196.884 126.64 195.369C133.477 188.314 141.151 182.431 150.989 180.704C159.946 179.126 168.688 179.783 176.427 185.502C177.242 186.109 178.103 186.655 179.087 187.329L175.059 194.129C171.022 193.107 167.229 191.925 163.358 191.215C157.973 190.228 152.692 191.269 147.556 192.936C143.402 194.341 139.588 196.63 136.362 199.652C133.08 202.626 131.758 206.451 131.363 210.64C130.071 224.35 134.857 235.384 145.568 243.737C145.75 243.88 145.913 244.05 146.199 244.311L142.103 251.608C129.988 246.323 123.686 236.536 121.453 223.756ZM136.493 172.135C140.701 171.608 144.832 170.852 148.864 172.635C152.217 174.118 155.469 175.829 158.153 177.139C153.492 178.261 148.261 179.318 143.165 180.843C140.796 181.649 138.577 182.859 136.603 184.424C132.694 187.347 129.065 186.268 125.278 184.273C119.863 181.425 116.591 176.457 112.841 171.581C120.874 173.318 128.708 173.113 136.493 172.135ZM209.729 123.071C205.971 123.195 203.529 121.492 201.514 118.562C197.675 113.019 196.714 106.654 196.191 99.7123C202.672 106.132 210.143 109.847 217.896 113.061C222.414 114.93 226.311 117.439 228.716 122.029C229.946 124.357 231.705 126.395 232.998 128.236C228.953 126.793 224.778 124.942 220.383 123.887C216.95 123.069 213.278 122.96 209.729 123.071ZM339.953 129.886C344.941 123.583 348.157 116.4 356.42 113.993C362.776 112.139 373.006 106.578 377.623 101.354C377.211 109.09 376.182 113.126 373.199 118.425C370.992 122.349 368.111 124.748 363.214 124.435C355.187 123.902 350.58 124.451 339.953 129.886ZM465.362 113.313C466.469 121.24 465.692 128.699 461.537 135.167C457.735 141.079 452.054 145.11 445.54 147.517C441.675 148.952 437.668 149.951 433.59 150.496C430.107 150.948 428.437 149.063 428.733 145.427C429.363 137.78 432.357 131.012 436.678 124.794C442.809 115.98 451.318 112.656 461.615 113.27C462.857 113.347 464.095 113.302 465.362 113.313ZM459.994 174.598C455.42 180.615 451.166 186.524 443.691 188.572C441.34 189.217 439.253 189.188 437.098 187.634C430.229 182.58 421.953 179.921 413.495 180.052C421.403 175.95 428.709 172.64 437.757 174.824C444.801 176.527 452.288 176.243 459.994 174.598ZM404.517 180.466C401.661 181.457 398.831 182.484 395.935 183.516C398.128 177.589 400.166 171.677 402.496 165.884C405.612 158.126 411.044 152.828 419.189 150.963C421.026 150.543 423.086 150.83 424.992 151.126C427.241 151.472 428.197 153.187 428.339 155.409C428.82 162.681 425.795 168.325 420.478 172.847C415.821 176.815 410.122 178.544 404.517 180.466ZM442.698 173.378C437.765 173.172 432.867 172.184 427.803 171.519C430.327 166.389 434.752 163.607 440.02 162.266C444.312 161.176 448.763 160.758 453.09 159.78C457.291 158.836 461.426 157.556 465.639 156.409C464.843 160.402 464.396 164.895 462.909 168.988C462.29 170.69 459.554 172.333 457.594 172.615C452.661 173.325 447.676 173.58 442.698 173.378ZM456.675 156.854C453.314 157.754 449.836 158.216 446.398 158.796C441.268 159.66 436.045 160.178 431.493 164.117C431.786 160.816 431.818 157.991 432.405 155.298C432.591 154.431 434.158 153.57 435.243 153.29C442.943 151.163 450.53 148.801 456.773 143.418C460.665 140.068 464.434 136.585 465.752 131.189C466.02 131.237 466.288 131.286 466.561 131.329C466.177 136.748 465.827 142.172 465.398 147.58C464.969 152.989 461.332 155.604 456.675 156.854ZM427.375 139.764C425.274 146.733 425.21 146.712 418.099 147.305C417.442 147.36 416.781 147.436 415.657 147.548C421.335 139.975 420.534 130.948 422.709 122.775C424.484 116.103 427.223 113.51 433.804 112.679C435.018 112.524 436.24 112.444 437.464 112.442C441.042 112.438 444.624 112.505 448.491 112.539C436.493 117.876 430.929 127.991 427.375 139.764ZM418.299 135.4C417.629 139.988 415.691 144.284 412.713 147.781C411.524 149.183 409.852 150.154 407.822 151.803C407.393 142.891 406.809 134.73 406.752 126.568C406.729 123.671 407.93 120.739 408.737 117.87C409.222 116.157 410.437 115.217 412.288 114.913C416.174 114.277 420.032 113.421 424.258 112.585C420.419 119.98 419.481 127.732 418.299 135.4ZM404.701 137.409C404.838 140.968 405.522 144.491 405.813 148.04C406.076 151.305 405.174 154.295 403.636 157.168C402.3 159.672 401.3 162.362 399.93 165.475C399.639 162.581 399.473 160.145 399.129 157.733C398.383 152.269 396.358 147.068 393.226 142.573C390.842 139.147 391.013 135.718 392.565 132.221C395.301 126.045 400.4 122.126 405.903 118.068C404.017 124.841 404.461 131.147 404.701 137.409ZM386.7 136.844C391.558 143.097 395.702 149.684 396.923 157.729C398.469 167.967 397.169 177.55 390.217 185.854L383.871 181.935C384.955 176.629 386.722 171.7 386.8 166.746C386.94 158.195 384.78 150.121 379.182 143.267C374.622 137.688 368.572 136.643 362.106 136.774C356.371 136.877 350.775 138.585 345.926 141.713C341.661 144.471 338.073 148.322 333.946 151.904C332.234 150.872 329.889 149.51 327.564 148.143C331.841 134.744 348.254 125.874 359.589 126.609C363.563 126.868 367.496 127.278 371.444 127.689C377.904 128.326 382.734 131.737 386.7 136.844ZM313.681 201.145C313.576 201.236 313.382 201.214 312.845 201.331C314.225 195.682 315.463 190.286 316.945 184.958C317.15 184.223 318.473 183.472 319.373 183.333C325.802 182.323 330.05 178.513 331.504 172.26C333.015 165.779 330.614 158.653 323.211 156.433C313.196 153.428 305.654 162.885 306.959 171.617C307.602 175.916 309.684 179.136 312.844 181.832C313.338 182.248 313.948 183.133 313.825 183.599C312.292 189.145 310.58 194.649 308.907 200.244C307.294 197.308 306.014 194.4 304.235 191.859C300.503 186.536 294.791 184.27 289.022 182.171C288.422 181.952 287.468 181.268 287.511 180.902C288.042 176.425 288.128 171.735 289.551 167.54C293.369 156.292 301.398 150.041 313.113 149.296C316.941 149.05 320.988 148.903 324.618 149.905C328.174 150.882 331.597 153.016 334.606 155.294C338.608 158.327 342.428 161.802 344.399 166.692C345.379 169.099 346.038 171.63 346.359 174.216C347.234 181.912 344.885 188.884 341.138 195.417C340.82 195.973 339.728 196.547 339.177 196.416C329.932 194.012 321.266 194.459 313.681 201.145ZM320.086 259.871C322.068 256.047 322.927 252.177 322.338 247.975C322.338 247.662 322.407 247.355 322.539 247.073C322.671 246.792 322.863 246.545 323.101 246.35C325.24 244.783 327.35 243.125 329.675 241.9C332.17 240.596 334.739 241.34 336.621 243.456C338.503 245.571 339.156 247.93 337.77 250.448C336.46 252.686 335.018 254.84 333.452 256.9C333.269 257.153 333.033 257.361 332.763 257.511C332.492 257.66 332.192 257.747 331.885 257.765C327.755 257.114 323.888 257.908 320.086 259.871ZM319.813 254.609C319.448 255.572 319.038 256.518 318.583 257.434C316.872 260.875 316.873 260.824 313.097 260.069C309.956 259.437 307.13 260.413 303.959 262.428C304.646 257.748 302.917 254.394 300.282 251.363C300.103 251.155 299.968 250.912 299.885 250.649C299.802 250.386 299.771 250.109 299.796 249.834C301.26 243.652 308.572 239.575 314.32 241.739C317.769 243.035 322.064 248.734 319.813 254.609ZM256.318 260.02C256.003 260.067 255.682 260.037 255.38 259.933C255.079 259.829 254.806 259.653 254.583 259.421C251.096 254.664 249.575 248.76 254.101 243.774C254.966 242.805 256.015 242.026 257.184 241.483C258.352 240.941 259.617 240.646 260.9 240.618C262.184 240.59 263.46 240.829 264.651 241.32C265.842 241.81 266.924 242.543 267.83 243.474C269.288 245.02 270.536 246.759 271.543 248.644C271.7 249.074 271.754 249.536 271.699 249.991C271.644 250.446 271.483 250.881 271.229 251.259C268.637 254.239 266.997 257.528 267.449 262.111C263.697 259.445 260.153 258.906 256.318 260.02ZM240.066 256.894C239.731 256.918 239.395 256.868 239.081 256.747C238.767 256.626 238.483 256.436 238.247 256.192C236.662 254.149 235.241 251.978 233.998 249.7C232.564 246.862 233.153 244.545 235.336 242.384C237.384 240.37 239.709 239.806 242.352 241.257C244.589 242.481 246.604 244.14 248.645 245.703C248.881 245.898 249.071 246.146 249.2 246.427C249.33 246.708 249.396 247.015 249.393 247.326C248.519 251.683 249.712 255.607 251.616 259.476C248.144 257.347 244.087 256.44 240.066 256.894ZM241.486 194.573C238.75 194.94 236.014 195.343 233.269 195.562C232.915 195.549 232.568 195.454 232.256 195.283C231.944 195.112 231.674 194.87 231.467 194.576C226.822 186.551 224.999 177.922 227.34 168.836C228.103 165.88 229.959 163.02 231.935 160.659C234.247 157.899 237.127 155.597 239.942 153.341C246.198 148.349 253.348 147.218 260.948 148.983C264.509 149.776 268.007 150.838 271.415 152.16C275.329 153.719 277.669 157.109 280.067 160.57C284.339 166.737 284.733 173.748 285.245 180.801C285.205 181.083 285.097 181.35 284.929 181.578C284.761 181.806 284.54 181.986 284.286 182.104C274.675 184.641 267.099 189.575 263.59 199.921C262.042 194.429 260.444 188.947 259.015 183.42C258.861 182.814 259.495 181.707 260.08 181.234C265.186 177.097 266.922 171.726 265.698 165.317C264.776 160.481 259.388 156.053 254.721 155.463C251.126 155.01 248.132 156.05 245.388 158.099C240.569 161.696 239.452 170.675 243.056 175.835C245.602 179.481 248.732 182.207 253.296 182.658C255.163 182.843 255.771 183.93 256.12 185.732C256.99 190.253 258.139 194.715 259.163 199.206C259.264 199.654 259.305 200.112 259.447 201.033C257.677 199.813 256.249 198.809 254.805 197.826C250.917 195.08 246.166 193.919 241.486 194.573ZM209.67 166.515C209.498 168.239 209.485 169.976 209.631 171.703C209.802 173.326 210.337 174.911 210.756 176.703C209.421 176.473 208.161 176.172 206.879 176.064C205.598 175.956 204.235 176.041 202.759 176.028C200.721 170.339 199.821 164.543 201.764 158.619C203.835 152.321 207.913 150.034 214.845 151.473C218.764 152.303 222.336 154.357 225.067 157.351C226.201 158.55 227.3 159.79 228.438 161.035L224.859 168.316C223.586 167.08 222.395 165.641 220.912 164.571C219.464 163.493 217.87 162.636 216.18 162.029C212.656 160.783 209.968 162.691 209.67 166.515ZM221.709 151.945C219.702 150.548 217.442 149.578 215.062 149.092C212.682 148.605 210.231 148.613 207.855 149.114C203.082 150.053 198.797 156.784 198.689 163.054C198.58 165.29 198.636 167.531 198.856 169.758C199.148 171.941 199.887 174.061 200.456 176.328C197.522 177.212 194.723 178.061 191.664 178.989C189.246 174.232 187.908 169.174 188.261 163.897C188.603 158.752 189.467 153.668 191.968 148.958C195.195 142.889 199.246 138.239 206.525 137.805C219.303 137.034 229.354 142.032 236.861 152.744L230.173 159.037C227.354 156.629 224.7 154.019 221.694 151.945L221.709 151.945ZM212.182 172.757C211.864 170.987 211.861 169.172 212.173 167.401C212.581 164.813 214.257 163.989 216.631 164.899C219.56 166.089 222.027 168.228 223.656 170.988C224.147 171.79 224.262 172.93 224.324 173.926C224.566 178.024 224.719 182.132 224.86 185.177C222.645 183.679 219.875 181.307 216.731 179.754C213.686 178.203 212.757 175.618 212.167 172.757L212.182 172.757ZM291.254 145.596C288.673 141.264 284.618 141.244 281.966 145.565C280.391 148.128 279.395 151.066 278.131 153.85C276.445 152.728 274.432 151.424 272.474 150.05C272.3 149.914 272.158 149.737 272.061 149.535C271.965 149.333 271.915 149.111 271.917 148.886C273.202 142.601 275.364 136.781 280.874 133.014C286.385 129.246 289.911 130.192 295.322 135.514C298.952 139.104 300.376 144.015 301.327 148.993C301.329 149.247 301.273 149.497 301.165 149.724C301.056 149.952 300.897 150.15 300.701 150.304C298.772 151.629 296.785 152.861 295.067 153.964C293.801 151.128 292.805 148.192 291.254 145.596ZM292.42 156.934C292.408 158.458 290.881 159.97 290.114 161.487C288.772 164.189 287.488 166.917 286.579 168.85C284.914 165.603 282.783 161.636 280.876 157.559C280.47 156.696 280.6 155.315 280.975 154.373C281.973 151.679 283.202 149.079 284.647 146.605C285.593 145.089 287.281 145.231 288.623 146.529C291.584 149.345 292.395 153.117 292.42 156.934ZM301.838 142.524C299.561 136.172 295.757 131.219 289.234 128.997C284.773 127.483 281.242 129.765 278.126 132.395C274.211 135.651 271.548 140.217 270.607 145.287C270.334 146.432 270.003 147.562 269.617 148.673C267.033 148.071 264.657 147.42 262.21 146.992C260.985 146.772 260.725 146.308 260.828 145.094C261.412 138.884 263.803 132.996 267.692 128.192C272.418 122.298 278.041 118.063 285.446 116.736C287.124 116.524 288.827 116.727 290.412 117.329C302.803 121.59 309.691 130.757 312.347 143.552C312.567 144.605 312.36 145.752 312.35 147.063C309.587 147.679 306.719 148.314 303.603 149.019C303.038 146.884 302.598 144.644 301.838 142.524ZM291.909 211.549C292.01 209.027 291.794 206.503 291.265 204.037C290.785 201.823 288.125 200.051 286.136 200.171C283.65 200.316 281.949 201.816 281.002 204.084C279.671 207.294 280.033 210.611 280.674 213.925C280.956 215.391 281.148 216.866 281.419 218.505C279.347 217.155 277.463 215.929 275.574 214.688C275.272 214.487 274.897 214.138 274.865 213.822C274.278 207.983 273.96 202.218 277.869 197.191C283.39 190.125 292.174 191.763 296.104 199.669C298.361 204.202 298.05 209.082 297.308 213.909C297.245 214.335 296.695 214.757 296.275 215.038C294.527 216.207 292.739 217.324 290.781 218.587C291.172 216.202 291.826 213.876 291.909 211.534L291.909 211.549ZM288.076 219.514C287.662 221.035 286.88 222.446 286.05 224.41C283.31 218.171 281.67 212.317 282.713 205.949C283.035 204.036 284.006 202.591 286.039 202.517C288.221 202.445 289.208 203.968 289.621 205.939C290.623 210.628 289.273 215.073 288.076 219.514ZM299.551 213.644C299.578 210.133 299.876 206.863 299.568 203.653C299.01 197.926 294.138 192.303 289.269 190.858C282.619 188.909 276.224 194.005 273.967 199.336C272.322 203.22 272.057 207.344 272.641 211.521C272.674 212.09 272.67 212.66 272.628 213.229C272.377 213.287 272.123 213.33 271.867 213.359C265.752 213.549 265.407 213.266 265.386 206.899C265.33 197.914 269.143 191.244 277.124 187.356C279.818 186.043 282.788 184.357 285.595 184.417C293.362 184.628 299.479 188.514 303.832 195.179C307.27 200.454 307.634 206.189 306.187 212.153C306.048 212.736 305.341 213.548 304.839 213.599C303.08 213.703 301.316 213.714 299.556 213.634L299.551 213.644ZM245.554 174.114C244.862 172.304 244.638 170.299 244.206 168.385C244.58 161.66 249.951 157.362 256.295 158.927C259.311 159.671 260.503 162.374 261.801 164.769C264.477 169.697 263.605 177.205 257.283 179.873C253.085 181.65 247.478 179.177 245.554 174.114ZM259.064 204.302C261.251 206.938 262.321 210.551 263.932 213.772L258.625 216.921C256.112 213.403 253.95 209.603 251.066 206.498C246.053 201.092 236.571 201.105 232.397 206.257C228.589 210.955 227.975 216.432 229.935 222.04C231.02 225.139 232.832 227.975 234.34 230.941C232.768 231.873 231.04 232.889 229.308 233.91C220.633 226.44 220.192 213.345 225.901 205.681C228.361 202.374 230.313 198.672 234.645 197.572C243.986 195.194 252.559 196.449 259.064 204.302ZM240.117 212.423C237.567 213.768 236.574 216.33 237.905 220.377C238.793 223.078 240.818 225.393 242.395 227.836C243.047 228.746 243.743 229.62 244.482 230.457C239.901 231.626 236.651 230.276 234.36 226.429C231.857 222.235 230.31 217.912 231.482 212.855C233.68 203.448 243.523 203.077 248.967 207.45C252.528 210.312 254.515 214.263 256.143 218.444C256.316 218.869 256.327 219.344 256.173 219.776C255.164 221.8 254.07 223.823 253.097 225.634C251.37 222.061 249.858 218.272 247.827 214.824C247.074 213.501 245.859 212.518 244.427 212.073C242.995 211.627 241.452 211.753 240.107 212.423L240.117 212.423ZM240.86 221.933C240.241 220.918 239.807 219.796 239.578 218.623C239.268 216.903 239.462 214.882 241.329 214.436C242.053 214.311 242.794 214.346 243.504 214.539C244.213 214.732 244.873 215.079 245.441 215.555C248.952 219.143 249.889 224.025 251.09 228.711C251.443 230.076 251.397 231.549 251.552 233.385C247.188 230.438 243.53 226.524 240.85 221.933L240.86 221.933ZM257.55 221.668C260.398 217.013 266.64 214.512 271.818 215.828C279.437 217.761 283.779 223.145 284.938 231.469C283.288 232.105 281.703 232.711 280.048 233.347C278.914 230.877 277.95 228.272 276.587 225.912C274.075 221.565 271.125 220.64 265.996 222.063C262.798 222.955 260.193 227.053 260.568 230.624C260.837 233.167 260.992 235.669 261.209 238.364C259.622 238.599 257.971 238.844 256.11 239.132C253.274 233.055 254.098 227.289 257.54 221.668L257.55 221.668ZM262.924 233.76C262.934 232.489 262.755 231.217 262.785 229.952C262.854 226.655 264.63 224.577 268.066 223.667C270.381 223.052 273.472 224.452 274.76 226.912C275.67 228.758 276.485 230.652 277.201 232.585C277.689 233.88 277.392 234.924 276.731 236.275C275.156 239.514 274.125 243.031 273.1 245.822C271.313 244.18 269.271 241.51 266.599 240.068C263.762 238.554 262.878 236.646 262.914 233.76L262.924 233.76ZM286.592 234.131C292.906 234.461 298.179 242.903 295.664 248.791C295.401 249.409 294.483 249.883 293.771 250.126C289.784 251.509 287.718 253.284 285.764 257.297C284.099 253.415 281.509 250.994 277.819 250.031C276.331 249.647 275.89 248.789 275.687 247.446C274.588 240.261 279.881 233.782 286.563 234.131L286.592 234.131ZM273.272 252.522C274.179 251.92 275.27 251.681 276.339 251.847C281.035 252.529 285.113 258.023 284.702 262.949C284.67 263.325 284.616 263.883 284.381 264.028C281.23 265.988 280.95 269.517 279.843 272.627C277.558 270.468 275.866 267.511 272.263 267.479C271.93 267.476 271.532 266.964 271.276 266.596C268.397 262.282 269.241 255.82 273.262 252.522L273.272 252.522ZM283.669 268.164C284.043 267.369 285.054 266.382 285.74 266.403C286.425 266.425 287.436 267.435 287.798 268.226C290.393 274.047 288.211 279.287 285.612 285.098C282.963 279.205 280.946 273.923 283.659 268.164L283.669 268.164ZM287.075 264.052C286.911 263.949 286.849 263.644 286.791 263.42C285.643 258.836 291.472 251.813 296.088 251.895C299.114 251.947 302.854 258.175 301.978 261.516C301.584 262.971 301.171 264.415 300.693 265.839C300.291 267.03 299.414 267.408 298.242 267.927C296.043 268.923 294.175 270.665 292.191 272.137C291.966 272.302 291.889 272.688 291.601 273.255C290.507 269.535 290.18 266.061 287.065 264.052L287.075 264.052ZM299.611 245.497C299.095 246.088 298.627 246.719 298.21 247.386C298.395 242.61 297.177 238.864 294.608 235.569C294.469 235.336 294.382 235.075 294.353 234.805C294.324 234.534 294.354 234.26 294.441 234.002C295.534 231.38 296.42 228.592 297.978 226.274C299.678 223.717 302.503 223.336 305.516 224.495C307.85 225.395 309.348 227.787 309.29 230.784C309.265 232.614 309.119 234.44 308.851 236.249C308.615 237.802 307.961 238.832 306.304 239.753C303.779 241.143 301.783 243.519 299.601 245.497L299.611 245.497ZM310.734 238.811C310.939 236.059 311.249 233.307 311.334 230.543C311.448 226.748 309.345 223.528 306.277 222.495C301.518 220.893 298.192 221.727 295.817 225.528C294.308 227.984 293.208 230.724 291.881 233.426C290.35 232.818 288.715 232.173 287.124 231.544C288.119 222.914 292.691 218.381 299.292 216.325C304.727 214.62 310.111 216.273 313.722 221.077C317.949 226.704 318.989 232.964 315.767 239.669C313.961 239.363 312.367 239.09 310.724 238.811L310.734 238.811ZM324.476 215.353C322.318 218.805 320.723 222.617 318.926 226.204C318.021 224.423 316.968 222.401 315.959 220.349C315.789 220.018 315.749 219.632 315.848 219.271C317.692 214.714 320.005 210.557 324.014 207.563C326.818 205.469 333.567 204.797 336.659 207.233C339.86 209.756 341.897 215.054 340.922 219.69C340.051 223.855 337.937 227.353 335.293 230.551C335.011 230.905 334.614 231.143 334.175 231.223C332.012 231.371 329.845 231.433 327.215 231.542C328.665 229.766 330.028 228.294 331.163 226.653C332.357 224.988 333.392 223.21 334.255 221.344C335.692 218.094 334.802 214.9 332.259 213.363C330.962 212.597 329.425 212.377 327.973 212.748C326.52 213.119 325.266 214.053 324.476 215.353ZM326.2 216.699C327.375 215.099 329.113 214.047 331.091 215.254C333.07 216.46 332.96 218.487 332.235 220.346C330 226.073 325.79 230.056 320.775 233.371C320.937 227.178 322.649 221.587 326.22 216.7L326.2 216.699ZM339.986 227.737C343.26 222.12 344.586 216.328 341.657 210.036C338.934 204.173 333.699 202.389 327.79 203.699C321.279 205.141 317.748 209.978 315.056 215.702C314.818 216.208 314.591 216.714 314.343 217.22C314.24 217.396 314.126 217.565 314.002 217.725L308.778 214.503C311.03 202.708 321.361 197.031 328.907 197.377C331.535 197.474 334.154 197.745 336.748 198.188C339.334 198.648 341.705 199.863 343.178 202.178C345.226 205.357 347.757 208.434 348.913 211.955C351.385 219.524 350.242 226.704 344.709 232.784C344.027 233.525 343.355 234.297 342.704 234.982L337.381 231.734C338.231 230.445 339.191 229.112 340.006 227.737L339.986 227.737ZM318.049 181.029C314.894 180.961 311.366 178.216 310.322 175.021C308.763 170.24 310.502 163.802 314.333 160.674C315.143 160.016 316.391 159.321 317.289 159.481C320.163 159.989 323.156 160.483 325.72 161.746C328.691 163.2 328.293 166.515 328.334 168.98C328.328 176.252 323.982 181.163 318.069 181.03L318.049 181.029ZM356.62 163.319C354.062 164.486 351.835 166.433 349.512 168.099C349.012 168.446 348.773 169.109 348.311 169.771C346.984 167.147 345.863 164.988 344.821 162.783C344.744 162.549 344.723 162.299 344.762 162.055C344.8 161.811 344.896 161.58 345.04 161.382C348.346 158.002 351.735 154.795 356.3 153.112C363.597 150.427 370.431 154.172 371.817 162.03C372.702 167.196 372.08 172.512 370.031 177.316C367.326 177.511 364.72 177.691 362.13 177.871C362.583 175.761 363.201 173.637 363.436 171.47C363.597 169.888 363.479 168.29 363.089 166.751C362.279 163.471 359.672 161.933 356.64 163.319L356.62 163.319ZM348.473 174.58C348.542 173.402 348.97 172.276 349.695 171.358C351.164 169.735 352.772 168.098 354.634 167.042C355.976 166.281 358.381 165.698 359.31 166.407C360.461 167.281 361.07 169.599 361.007 171.26C360.93 173.506 360.474 176.058 359.277 177.851C358.081 179.645 355.776 180.753 353.892 182.093C351.754 183.624 349.566 185.104 347.857 186.257C348.048 182.798 348.168 178.683 348.493 174.58L348.473 174.58ZM372.303 177.87C372.676 176.491 373.07 175.071 373.443 173.641C374.775 168.51 374.884 163.353 372.943 158.392C369.707 150.115 363.662 148.426 354.872 151.463C352.524 152.319 350.324 153.55 348.353 155.11C346.449 156.577 344.942 158.597 343.259 160.376L336.352 153.708C342.215 144.816 350.529 140.331 360.701 139.186C363.005 138.975 365.326 139.016 367.623 139.308C374.574 140.05 378.38 144.764 381.237 150.69C384.224 156.704 385.329 163.511 384.403 170.186C383.909 173.739 382.526 177.162 381.514 180.746L372.303 177.87ZM326.857 141.799C326.012 137.218 325.179 132.439 324.266 127.7C323.09 121.591 322.967 115.578 325.343 109.674C326.948 105.563 329.887 102.143 333.666 99.9852C337.735 97.6174 340.085 98.3598 342.164 102.682C344.879 108.296 345.058 114.137 342.832 120.027C340.493 126.207 336.109 130.874 331.923 135.685C330.133 137.737 328.456 139.903 326.911 141.8L326.857 141.799ZM373.137 102.448C367.465 105.884 361.543 108.901 355.67 111.984C353.405 113.179 350.983 114.062 348.395 115.188C348.311 107.976 351.883 102.941 356.891 98.5589C361.799 94.2674 366.535 89.766 371.295 85.3055C372.081 84.5655 372.606 83.5436 373.52 82.2761C374.741 85.7527 376.028 88.9351 376.962 92.2262C378.333 96.8576 377.361 99.9236 373.192 102.448L373.137 102.448ZM365.386 88.5769C361.707 92.0153 357.658 95.049 354.024 98.5285C351.686 100.764 349.791 103.487 347.665 106.029C346.688 103.769 345.391 101.207 344.562 98.4958C344.324 97.706 345.304 96.3477 346.001 95.4594C349.513 91.0997 353.386 87.0278 356.582 82.4468C360.164 77.3254 361.746 71.2768 362.336 65.0263C362.455 63.7365 361.993 62.3959 361.799 61.078C362.004 60.9782 362.208 60.8835 362.413 60.7887C364.63 65.2244 366.952 69.6101 369.04 74.1107C371.866 80.244 369.766 84.4942 365.386 88.5769ZM359.973 64.5836C360.105 68.757 358.506 73.2098 356.895 77.1695C354.251 83.7014 349.876 89.3475 344.262 93.4723C340.568 96.25 337.692 95.381 336.036 91.0113C332.567 81.8944 332.062 72.6207 334.792 63.2079C336.808 56.2432 341.974 52.0912 347.529 48.3035C349.073 47.255 350.857 46.5796 352.683 45.6556C357.217 51.2805 359.752 57.7365 359.973 64.604L359.973 64.5836ZM334.886 57.4713C330.298 66.695 330.02 76.3581 332.266 86.2418C332.746 88.4058 333.51 90.5164 333.831 92.6993C333.968 93.6508 333.629 95.1013 332.964 95.6696C330.913 97.4302 328.596 98.8733 325.943 100.75C327.253 95.792 325.808 91.6528 324.419 87.5243C323.029 83.3958 321.395 79.321 320.264 75.1083C318.423 68.2621 320.019 64.2971 325.843 60.5067C329.456 58.1268 333.231 56.0119 337.137 54.1778C336.393 55.2893 335.481 56.2976 334.886 57.4916L334.886 57.4713ZM323.404 91.4893C325.096 97.1247 324.544 102.395 321.455 107.958C317.148 101.217 313.042 94.8281 308.986 88.4146C306.929 85.2976 305.753 81.6612 305.587 77.9059C305.553 76.5742 306.604 74.9217 307.606 73.9193C310.38 71.1843 313.4 68.7158 316.717 65.7926C316.744 75.372 320.918 83.2043 323.404 91.5096L323.404 91.4893ZM316.673 104.134C319.393 107.596 320.828 111.929 320.724 116.367C320.705 118.907 321.153 121.406 321.452 124.575C320.828 123.69 320.517 123.317 320.287 122.903C316.62 116.32 311.485 111.213 304.82 108.029C300.324 105.881 298.806 102.356 298.672 97.7657C298.49 91.5947 300.779 86.0961 303.303 80.2742C306.209 89.4777 311.077 97.0061 316.673 104.14L316.673 104.134ZM291.526 104.878C299.363 106.787 306.522 110.357 312.373 116.079C317.895 121.352 321.602 128.309 322.941 135.91C323.541 139.346 323.329 142.927 323.499 146.724C320.632 146.699 318.221 146.78 315.837 146.57C315.34 146.525 314.593 145.431 314.529 144.765C313.402 132.889 307.146 124.327 297.707 118.018C290.498 113.203 282.933 113.279 275.686 118.007C267.001 123.668 261.052 131.426 259.033 142.019C258.241 146.189 258.137 146.168 253.997 146.131L250.186 146.098C248.778 135.134 252.326 126.16 258.966 118.266C265.456 110.558 274.108 106.686 283.522 104.508C286.066 103.93 288.956 104.256 291.526 104.883L291.526 104.878ZM246.432 141.024C242.583 136.223 238.509 131.507 234.845 126.489C229.577 119.282 227.635 111.327 231.274 102.705C234.007 96.2244 237.784 96.2222 243.286 101.469C250.731 108.568 251.035 117.525 249.254 126.931C248.353 131.67 247.362 136.387 246.432 141.029L246.432 141.024ZM270.864 106.546C263.285 110.422 256.914 115.57 252.508 123.824C252.478 114.733 253.805 106.908 259.8 100.141C265.002 94.3443 268.8 87.379 270.889 79.8053C273.922 87.4548 277.186 94.7201 274.152 102.829C273.504 104.416 272.343 105.728 270.864 106.546ZM267.452 83.4186C263.926 89.5924 259.945 95.4776 256.118 101.461C254.93 103.32 253.669 105.128 252.312 107.159C248.388 100.371 249.432 93.8399 251.858 87.1686C253.889 81.5965 255.602 75.8743 257.326 70.1775C257.728 68.8547 257.6 67.3646 257.776 65.2318C261.437 68.6537 265.153 71.4561 267.979 75.0027C269.869 77.3519 268.848 80.9358 267.452 83.3932L267.452 83.4186ZM254.411 73.1399C253.386 77.1963 251.686 81.074 250.483 85.0933C249.351 88.8641 248.402 92.6976 247.538 96.542C247.311 97.5564 247.71 98.7084 247.849 100.031C245.417 98.2308 243.267 96.6822 241.168 95.0527C239.725 93.9372 240.059 92.4563 240.493 90.9508C242.224 84.9137 243.697 78.8132 243.418 72.4585C243.19 67.1155 242.43 61.8491 239.913 57.0398C239.261 55.7941 238.38 54.6734 237.826 53.0627C240.655 54.7951 243.525 56.4619 246.299 58.2802C248.128 59.4608 249.882 60.7577 251.552 62.1634C254.979 65.1106 255.446 69.0633 254.411 73.1043L254.411 73.1399ZM241.133 69.6942C241.67 76.6911 240.604 83.7184 238.019 90.2175C236.347 94.4766 233.368 95.3549 229.896 92.4835C221.308 85.3796 215.442 76.4905 214.7 64.9737C214.212 57.2755 217.434 50.6163 222.028 44.4519C232.743 49.5825 240.207 56.89 241.133 69.6942ZM219.832 84.6754C222.222 88.0912 225.131 91.1405 227.935 94.2347C229.359 95.8074 230.069 97.1603 228.816 99.2582C227.703 101.134 226.991 103.262 225.995 105.53C225.014 103.773 224.357 101.958 223.154 100.697C220.285 97.694 217.13 94.9626 214.12 92.0953C211.565 89.6589 208.799 87.3883 206.578 84.6601C204.535 82.1571 203.221 79.1472 204.327 75.6098C206.161 69.7311 209.42 64.6679 212.783 59.0009C211.334 69.1111 214.621 77.2456 219.832 84.6907L219.832 84.6754ZM218.882 99.0994C223.101 103.095 225.523 108.021 225.293 114.137C216.757 109.996 207.851 106.742 200.343 100.745C196.643 97.7902 195.804 95.1149 197.127 90.4005C197.341 89.6401 197.551 88.8797 197.83 88.1402C198.733 85.78 199.67 83.4354 200.719 80.7564C205.476 88.4922 212.695 93.2515 218.882 99.1147L218.882 99.0994ZM225.752 127.557C234.716 131.585 242.287 137.186 245.604 147.399L238.82 151.262C236.187 148.49 233.786 145.389 230.842 142.985C225.737 138.845 219.563 136.318 213.076 135.713C210.44 135.444 207.783 135.456 205.149 135.75C196.386 136.689 191.94 142.931 188.91 150.461C184.974 160.244 184.958 170.098 189.496 179.824L182.442 184.025C178.77 179.302 176.315 174.128 175.775 168.04C175.139 160.849 175.744 153.856 178.831 147.282C181.826 140.764 186.121 134.958 191.44 130.237C195.748 126.444 201.318 125.909 206.595 125.391C213.051 124.777 219.65 124.81 225.752 127.557ZM181.656 132.692C182.324 135.051 182.272 137.271 180.779 139.469C177.377 144.475 174.855 149.925 173.909 156.015C173.548 158.319 173.377 160.66 173.113 163.235C169.168 155.303 166.179 147.801 168.272 138.672C169.921 131.207 169.776 123.442 167.848 116.044C173.911 120.666 179.552 125.147 181.656 132.692ZM166.181 118.982C166.617 124.366 166.719 129.773 166.484 135.17C166.305 139.742 165.52 144.309 164.982 148.995C159.992 146.45 157.243 142.005 155.981 136.719C154.628 131.041 153.987 125.186 152.774 119.463C152.121 116.408 150.921 113.435 149.912 110.245C154.08 111.125 158.383 111.783 162.529 113.004C165.142 113.769 165.999 116.678 166.181 118.982ZM142.603 110.668C147.468 111.367 149.704 115.305 150.718 119.826C151.608 123.762 152.009 127.806 152.734 131.786C153.569 136.367 154.189 141.058 157.8 145.217C154.487 144.933 151.878 144.992 149.433 144.36C148.441 144.097 147.375 142.462 147.061 141.26C145.043 133.426 142.706 125.783 137.502 119.41C134.193 115.346 130.694 111.514 125.398 110.064L125.542 109.369C131.249 109.77 136.984 109.862 142.618 110.669L142.603 110.668ZM132.516 116.977C138.095 122.418 141.711 129.199 143.536 136.894C144.079 139.038 144.395 141.235 144.48 143.447C144.546 146.497 142.907 148.363 139.998 147.91C135.801 147.302 131.683 146.221 127.717 144.687C120.831 141.928 114.851 137.55 111.214 130.82C108.662 126.059 107.545 120.633 108.004 115.226C108.125 113.647 108.028 112.056 108.041 110.318C117.176 109.651 125.723 110.347 132.531 116.978L132.516 116.977ZM107.878 128.423C110.009 135.678 115.458 139.949 121.268 143.832C126.425 147.277 132.281 149.011 138.168 150.588C139.959 151.076 140.915 152.081 140.934 154.144C140.952 156.426 141.312 158.721 141.574 161.528C135.1 156.064 127.328 156.616 120.255 154.769C118.604 154.343 116.906 154.069 115.295 153.521C110.145 151.768 107.701 147.778 107.428 142.501C107.186 137.737 107.441 132.947 107.478 128.18C107.532 128.216 107.85 128.275 107.893 128.423L107.878 128.423ZM129.712 158.725C133.973 159.358 137.979 161.19 141.281 164.016C142.832 165.361 143.965 167.2 145.428 168.992C141.314 169.464 137.661 170.158 133.988 170.273C128.4 170.453 122.79 170.434 117.216 170.09C115.229 169.965 113.175 168.9 111.404 167.828C109.044 166.399 109.335 163.526 108.816 161.199C108.196 158.444 107.974 155.601 107.564 152.655C114.507 156.553 122.153 157.459 129.727 158.725L129.712 158.725ZM144.859 153.03C145.055 150.079 146.528 148.563 149.451 148.431C156.357 148.121 161.806 151.05 166.163 156.364C170.28 161.38 172.012 167.529 173.984 173.579C174.857 176.29 175.866 178.962 176.926 181.969C169.654 178.856 162.214 176.341 155.449 172.572C148.224 168.549 144.279 161.872 144.874 153.03L144.859 153.03ZM133.798 220.444C133.183 217.004 133.48 213.327 133.79 209.798C134.389 203.009 139.117 199.534 144.495 196.72C150.342 193.601 156.997 192.428 163.53 193.367C167.07 193.865 170.473 195.293 174.063 196.336L171.356 205.271C167.344 204.758 163.463 204.104 159.554 203.805C154.721 203.437 150.508 205.25 146.94 208.501C144.017 211.174 144.014 214.858 144.285 218.423C144.705 223.884 147.056 228.499 150.883 232.324C151.948 233.385 153.024 234.431 154.114 235.508L147.694 242.485C139.728 237.277 135.458 229.616 133.813 220.445L133.798 220.444ZM147.159 222.087C144.586 212.82 147.544 207.485 157.719 205.959C162.331 205.268 165.987 206.169 170.862 208.143C170.852 209.434 170.772 210.785 170.832 212.127C170.891 213.469 171.154 214.772 171.301 215.78C168.107 215.477 164.996 214.937 161.864 214.95C157.565 214.978 155.379 218.272 157.167 222.287C158.52 225.348 160.667 227.989 162.469 230.836L155.809 234.1C152.157 230.806 148.591 227.227 147.174 222.107L147.159 222.087ZM164.645 217.236C166.879 217.523 169.065 218.113 171.147 218.99C172.345 219.539 173.239 220.996 174.03 222.202C176.034 225.269 177.903 228.421 179.43 230.863C176.504 230.69 172.576 230.391 168.641 230.26C164.87 230.115 159.393 224.309 159.526 220.458C159.577 218.38 161.905 216.825 164.66 217.256L164.645 217.236ZM173.128 212.737C172.696 210.101 173.171 207.147 173.842 204.516C175.14 199.156 177.103 193.989 180.308 189.49C183.714 184.712 188.811 182.369 194.072 180.596C197.251 179.545 200.51 178.768 203.816 178.273C207.572 177.697 211.026 179.094 214.378 180.724C220.814 183.856 225.387 188.953 228.933 195.168C229.767 196.624 229.711 197.411 228.564 198.626C224.741 202.658 221.367 207.161 220.459 212.844C219.936 216.24 220.311 219.79 220.28 223.84L208.265 211.995C207.352 211.097 207.483 210.23 208.004 209.071C211.937 200.268 206.478 188.913 194.881 188.541C189.098 188.358 181.77 196.49 183.471 203.533C185.542 212.145 193.745 216.329 200.39 214.913C201.395 214.754 202.366 214.419 203.26 213.922C204.349 213.226 205.147 213.477 205.896 214.291C209.598 218.318 213.289 222.371 217.133 226.587C214.052 226.56 211.262 226.24 208.556 226.597C205.989 226.941 203.28 227.567 201.044 228.833C197.805 230.66 194.963 233.211 191.885 235.359C191.592 235.549 191.261 235.669 190.916 235.708C190.571 235.747 190.222 235.705 189.895 235.585C181.123 230.512 174.891 223.246 173.162 212.762L173.128 212.737ZM198.143 213.074C192.775 213.124 186.312 206.318 186.419 200.734C186.487 197.091 191.925 191.732 195.483 191.804C200.949 191.908 207.254 198.514 207.103 203.986C207.014 208.543 202.561 213.057 198.178 213.1L198.143 213.074ZM195.771 234.748C202.233 229.403 209.438 226.839 217.523 229.634C220.992 230.839 224.044 233.457 227.373 235.494L224.18 240.985C220.361 239.274 216.601 237.122 212.57 235.892C205.737 233.799 197.332 238.598 196.37 244.734C195.327 251.27 197.337 256.74 202.51 260.755C204.847 262.569 207.505 263.945 210.077 265.553L207.055 270.75C196.089 268.621 190.037 258.648 190.316 250.128C190.388 247.466 190.644 244.812 191.082 242.187C191.603 239.091 193.41 236.755 195.805 234.773L195.771 234.748ZM211.95 263.628C206.294 261.114 200.709 258.371 198.817 251.682C196.62 243.923 201 238.488 208.316 237.775C214.13 237.217 218.644 240.235 222.906 243.758C223.188 244.025 223.362 244.389 223.396 244.779C223.513 246.996 223.575 249.217 223.67 251.733C221.112 249.678 218.92 247.794 216.557 246.147C215.277 245.234 213.829 244.595 212.302 244.27C208.828 243.624 206.552 244.895 205.417 247.766C204.556 249.933 205.534 253.22 208.027 254.843C210.519 256.465 213.382 257.705 216.1 259.061C216.981 259.5 217.928 259.798 218.944 260.199C216.729 261.389 214.677 262.499 212.622 263.588C212.421 263.695 212.187 263.718 211.97 263.654L211.95 263.628ZM223.573 255.33C224.431 256.319 225.133 257.448 226.111 258.793C220.091 258.645 214.253 256.646 209.357 253.055C207.919 252.026 206.967 250.493 207.538 248.542C208.156 246.444 210.318 245.68 213.018 246.796C217.373 248.608 220.578 251.884 223.593 255.356L223.573 255.33ZM226.27 252.305C225.219 247.458 225.006 242.776 228.279 238.439C235.308 229.12 247.91 231.905 253.434 239.449C253.714 239.833 253.497 240.883 253.17 241.383C252.385 242.446 251.534 243.457 250.623 244.409C248.795 242.976 247.057 241.497 245.188 240.194C241.288 237.446 237.548 237.85 234.326 240.607C230.009 244.304 230.687 249.163 232.745 252.352C234.032 254.33 235.479 256.193 236.891 258.152C235.66 259.218 234.389 260.34 232.888 261.643C229.85 259.238 227.183 256.419 226.29 252.336L226.27 252.305ZM244.462 259.103C245.617 259.545 246.883 259.724 247.997 260.252C252.171 262.23 251.828 262.247 251.604 266.844C251.463 269.714 252.499 272.645 253.028 275.597C249.31 275.056 245.996 276.928 242.963 279.635C242.743 279.802 242.488 279.916 242.219 279.969C241.949 280.021 241.671 280.01 241.406 279.936C236.453 277.667 231.916 273.135 233.345 266.287C234.165 262.386 240.562 257.645 244.482 259.133L244.462 259.103ZM271.103 274.248C270.912 273.391 270.853 272.509 270.93 271.634C271.087 269.948 272.265 269.247 273.679 270.134C274.985 270.953 276.439 271.876 277.225 273.143C279.537 276.883 281.022 280.957 280.575 286.025C276.032 282.849 272.275 279.629 271.103 274.248ZM264.772 279.416C269.216 279.999 272.269 282.968 274.992 286.316C275.744 287.358 276.443 288.439 277.084 289.556C271.017 289.447 265.978 288.147 262.356 283.445C261.771 282.682 261.237 280.894 261.583 280.572C262.014 280.174 262.517 279.867 263.065 279.669C263.612 279.47 264.192 279.384 264.772 279.416ZM294.142 289.371C297.209 284.753 300.527 280.997 305.874 279.85C306.628 279.642 307.418 279.613 308.185 279.763C309.524 280.146 310.521 281.004 309.57 282.56C308.834 283.864 307.92 285.054 306.855 286.094C304.277 288.434 297.989 290.015 294.142 289.371ZM293.757 283.874C292.936 284.573 291.983 285.114 290.519 286.122C290.627 279.766 291.934 274.564 296.679 270.87C297.374 270.333 298.982 269.9 299.337 270.264C299.708 270.675 299.995 271.157 300.182 271.682C300.369 272.207 300.452 272.764 300.427 273.322C299.91 277.922 297.053 281.083 293.757 283.874ZM317.392 276.135C319.994 272.468 320.43 268.747 319.417 264.764C319.378 264.448 319.413 264.127 319.518 263.827C319.623 263.527 319.795 263.256 320.022 263.037C325.443 259.167 330.496 258.047 335.43 262.792C336.339 263.661 337.069 264.708 337.577 265.869C338.085 267.031 338.361 268.285 338.388 269.557C338.415 270.829 338.194 272.094 337.736 273.276C337.278 274.459 336.594 275.536 335.723 276.444C334.123 278.061 332.313 279.445 330.344 280.559C329.775 280.904 328.411 280.572 327.799 280.058C323.873 276.777 322.559 276.287 317.392 276.135ZM334.578 259.09C335.949 257.247 337.424 255.512 338.631 253.596C342.655 247.214 340.144 242.938 335.049 239.783C332.739 238.355 329.827 238.893 327.445 240.443C325.282 241.846 323.243 243.455 321.044 245.031L317.873 241.12C320.497 235.919 327.678 232.659 334.332 233.495C339.351 234.124 345.291 239.838 345.898 244.91C346.763 252.073 344.873 258.159 338.473 262.549C337.219 261.41 335.931 260.276 334.578 259.09ZM357.115 248.784C360.11 247.078 363.059 247.485 364.068 249.451C364.998 251.293 363.901 253.723 360.941 255.394C356.22 258.051 351.24 259.974 345.501 259.831C348.458 255.257 352.44 251.47 357.115 248.784ZM352.922 261.594C356.364 259.892 360.029 258.328 363.429 256.305C366.005 254.804 367.059 251.53 366.3 249.358C365.103 245.948 361.786 244.298 358.295 245.919C355.572 247.18 353.152 249.126 350.629 250.816C349.745 251.408 348.964 252.148 347.924 252.992C348.068 250.336 348.185 248.055 348.342 245.78C348.365 245.47 348.502 245.181 348.726 244.97C353.576 241.136 358.624 238.045 365.212 239.475C374.843 241.562 375.054 252.332 370.445 257.744C367.587 261.119 363.944 263.104 360.005 264.711C359.524 264.873 359.002 264.845 358.54 264.632C356.604 263.649 354.709 262.571 352.922 261.594ZM371.544 259.685C376.339 255.154 377.084 246.755 373.294 242.011C369.72 237.543 364.733 235.903 359.415 237.183C355.348 238.163 351.564 240.376 347.6 242.059L344.854 237.252C352.003 228.412 365.057 227.887 372.64 233.895C375.812 236.402 379.37 238.4 380.395 242.734C382.802 252.919 381.549 260.785 373.598 267.931C371.131 270.14 367.61 271.105 364.457 272.688C363.752 271.31 363.287 270.32 362.753 269.375C362.218 268.43 361.663 267.648 361.442 267.305C364.85 264.764 368.505 262.555 371.544 259.685ZM379.438 236.653C376.268 233.286 372.578 230.357 368.229 229.124C364.118 227.96 359.69 227.972 355.241 227.45C358.843 223.635 362.611 219.577 366.483 215.632C366.894 215.214 368.062 215.138 368.656 215.407C377.145 219.294 388.314 215.073 389.247 202.31C389.552 198.09 386.906 194.555 383.359 192.318C380.988 190.849 378.224 190.183 375.462 190.415C372.7 190.647 370.081 191.765 367.978 193.61C363.76 197.385 361.513 204.652 364.319 210.648C364.872 211.827 364.762 212.588 363.981 213.338C360.046 217.13 356.081 220.891 351.926 224.839C351.95 221.617 352.186 218.743 351.93 215.885C351.723 213.622 351.349 211.169 350.286 209.238C348.321 205.812 346.098 202.547 343.636 199.474C342.731 198.297 342.537 197.599 343.416 196.423C345.314 193.898 346.901 191.102 349.011 188.788C353.426 183.862 359.38 180.659 365.853 179.729C368.315 179.364 371.03 179.845 373.48 180.512C378.688 181.92 383.747 183.881 388.155 187.141C392.86 190.618 395.126 195.842 396.904 201.204C397.931 204.451 398.697 207.779 399.193 211.154C399.819 215.093 398.366 218.658 396.734 222.155C393.657 228.734 388.671 233.38 382.596 236.996C381.273 237.797 380.522 237.801 379.438 236.653ZM368.887 212.523C365.055 209.384 364.384 204.86 366.835 200.161C368.746 196.504 372.016 194.617 375.696 193.633C377.277 193.32 378.915 193.652 380.261 194.557C382.935 196.512 385.661 198.67 386.063 202.648C385.164 207.249 383.017 211.128 378.721 213.291C375.399 214.979 371.989 215.071 368.887 212.523ZM397.96 224.188C399.038 222.348 400.149 220.706 402.432 220.462C404.864 220.204 407.314 219.616 409.718 219.789C412.241 219.964 413.111 221.852 412.327 224.254C411.553 226.574 410.095 228.591 408.154 230.03C406.213 231.468 403.884 232.257 401.487 232.289C398.256 232.327 395.024 232.618 392.567 232.754C394.167 230.263 396.158 227.277 397.96 224.188ZM409.126 232.87C410.687 230.881 412.371 228.96 413.799 226.859C415.377 224.54 416.356 221.85 414.642 219.243C413.016 216.79 410.143 216.861 407.612 216.95C405.405 217.027 403.218 217.72 400.934 218.152L401.547 210.092C406.949 208.143 412.544 207.023 418.134 209.065C425.924 211.913 427.26 216.605 424.675 225.145C423.212 229.981 419.604 233.232 416.096 236.422L409.126 232.87ZM424.935 229.533C427.103 226.189 428.21 222.241 428.103 218.229C427.988 211.759 423.341 207.972 417.08 206.484C411.732 205.217 406.42 205.882 401.126 207.908L398.488 198.697C403.719 196.335 408.955 194.77 414.744 195.441C421.13 196.183 427.015 197.912 432.257 201.953C438.038 206.41 439.662 212.41 438.71 219.247C438.095 223.313 437.083 227.305 435.687 231.163C433.594 237.151 429.218 241.336 424.151 244.985L418.085 238.193C420.403 235.307 422.954 232.606 424.955 229.533L424.935 229.533ZM390.234 112.767C390.194 112.767 390.144 112.766 390.234 112.767V112.767ZM390.334 112.697C390.674 108.416 390.989 104.267 391.344 100.113C391.388 99.6052 391.508 98.8338 391.822 98.6841C394.546 97.3818 397.308 96.1917 400.474 94.7967C400.732 98.1377 400.979 100.96 401.146 103.782C401.168 104.042 401.137 104.304 401.055 104.551C400.973 104.798 400.841 105.024 400.668 105.216C397.254 107.752 393.792 110.217 390.334 112.682L390.334 112.697ZM412.008 102.125C409.192 102.567 406.399 103.183 403.647 103.713L401.886 92.131L391.254 96.3008L388.032 86.1494L410.051 77.9536C410.929 83.3329 411.736 88.2287 412.519 93.1243C412.87 95.3126 413.201 97.5058 413.488 99.6986C413.643 100.879 413.575 101.879 412.008 102.125ZM406.46 77.0022C400.028 79.1255 393.726 81.6667 387.138 84.1088L381.413 73.046C394.289 69.1399 406.877 65.3278 419.564 61.481L428.22 101.328L415.956 101.219C414.888 94.6291 413.838 87.6019 412.6 80.6085C411.527 74.6381 412.02 75.1659 406.46 77.0022ZM429.064 44.927L442.545 101.678L430.554 101.572C428.585 92.6512 426.638 83.9797 424.756 75.2935C423.734 70.5584 422.796 65.8037 421.883 61.0391C421.535 59.2218 420.768 58.6865 418.945 59.265C408.449 62.567 397.928 65.7875 387.407 69.0131C385.843 69.5075 384.137 69.6144 382.676 70.2977C380.387 71.3752 379.197 70.3128 378.217 68.4493C376.948 66.0699 375.69 63.6805 373.99 60.4742C392.432 55.2756 410.536 50.1502 429.064 44.927ZM340.567 42.3675C345.818 39.4308 351.024 36.4073 356.041 33.5448C359.272 39.2649 362.674 45.3931 366.171 51.4662C371.159 60.1494 376.352 68.6615 381.181 77.4143C383.538 81.6988 385.382 86.2988 387.25 90.8483C390.295 98.2743 389.908 105.909 387.288 113.244C385.495 118.27 382.702 122.925 380.328 127.808C378.182 127.119 376.362 126.533 374.553 125.948C375.882 123.058 377.363 120.439 378.319 117.632C381.791 107.443 381.679 97.3344 377.717 87.1815C373.013 75.1113 366.463 64.0971 359.927 53.0627C358.161 50.0794 356.265 47.1762 354.608 44.1379C353.883 42.8102 353.322 42.668 352.064 43.3786C342.591 48.7156 333.095 53.9982 323.576 59.2264C316.335 63.1754 309.754 68.2752 304.079 74.3354C300.261 78.423 297.903 83.3011 296.285 88.7752C294.928 93.3877 293.731 97.8999 294.078 103.168C291.995 102.641 290.279 102.164 288.657 101.733C287.177 90.5395 288.916 80.1676 295.674 71.1918C299.721 65.8204 305.251 62.0731 311.006 58.8106C320.809 53.2512 330.725 47.8706 340.567 42.3675ZM285.543 42.2224C280.558 48.2258 275.513 54.188 270.467 60.2162L260.191 53.5598L287.556 24.0676L314.462 54.0184L303.975 60.5729C300.151 55.7267 296.366 50.9011 292.546 46.1007C291.365 44.6165 290.163 43.1373 288.857 41.7689C287.664 40.4879 286.597 40.9613 285.543 42.2224ZM287.39 43.123L302.192 61.7971L294.385 68.8428C292.628 66.5608 290.807 64.2376 289.036 61.8691C287.806 60.2371 286.682 60.3237 285.463 61.8782C283.686 64.1697 281.86 66.42 280.043 68.7162L272.35 61.5338L287.39 43.123ZM287.241 62.6765C289.138 65.4272 290.81 67.7898 292.397 70.2227C292.504 70.4568 292.562 70.7118 292.565 70.9705C292.568 71.2291 292.517 71.4854 292.415 71.722C290.61 75.736 288.746 79.724 287.033 83.4237L281.64 70.4835L287.241 62.6765ZM266.192 27.228C272.704 20.4453 279.251 13.7036 285.729 6.90543C286.931 5.64558 287.973 5.15676 289.359 6.63255C295.21 12.8433 301.162 18.994 306.963 25.2755C313.647 32.505 320.226 39.8351 327.061 47.3504C323.797 49.1816 320.906 50.9042 317.908 52.3972C317.502 52.5125 317.075 52.5246 316.663 52.4324C316.252 52.3402 315.868 52.1465 315.547 51.8682C307.034 42.4324 298.572 32.9428 290.16 23.3995C287.746 20.6695 287.408 20.6615 284.937 23.3788C279.043 29.8823 273.085 36.2836 267.152 42.736C264.601 45.5136 261.986 48.2347 259.534 51.0995C258.531 52.2951 257.58 52.5154 256.303 51.7469C253.617 50.1326 250.921 48.5334 247.676 46.589C254.003 39.9622 260.08 33.567 266.192 27.228ZM204.375 56.9194C209.229 48.5772 214.257 40.3738 219.024 32.4018C229.809 38.7832 241.005 45.3867 252.172 52.0052C258.237 55.616 264.408 59.0549 270.277 62.9689C280.033 69.4733 284.59 79.2757 285.968 90.788C286.215 92.8788 285.662 95.0591 285.596 97.2031C285.55 98.6052 286.253 100.878 285.674 101.269C284.126 102.272 282.066 102.498 280.044 103.074C279.92 100.532 279.972 98.2206 279.671 95.9566C277.97 83.1811 271.71 73.1706 261.514 65.7831C256.181 61.9146 250.637 58.349 245.043 54.8542C240.453 51.978 235.697 49.385 230.991 46.7111C228.215 45.162 225.424 43.5773 222.577 42.1902C222.082 41.9369 220.753 42.2961 220.466 42.7764C213.286 54.8789 205.919 66.8781 199.2 79.2388C195.616 85.8135 193.234 93.1459 193.022 100.833C192.932 104.105 193.965 107.397 194.303 110.698C194.798 115.57 196.548 119.931 199.437 124.286C197.325 124.918 195.552 125.446 193.824 125.964C188.18 117.901 184.38 109.197 184.786 98.9917C184.979 93.8695 186.347 88.8664 188.779 84.3862C193.765 75.1355 199.062 66.0197 204.375 56.9194ZM183.522 110.857C181.843 109.5 180.066 107.991 178.203 106.566C176.924 105.528 175.571 104.59 174.154 103.761C173.06 103.167 172.503 102.547 172.683 101.207C173.051 98.5679 173.319 95.9125 173.681 92.8107C176.652 94.1836 179.347 95.4016 181.981 96.6852C182.322 96.8508 182.531 97.5692 182.572 98.0523C182.922 102.329 183.212 106.575 183.522 110.857ZM162.344 75.3868C160.897 83.3271 159.36 91.2564 157.895 98.9983L145.749 98.8911L154.999 59.1313C167.512 63.1598 180.109 67.2195 192.954 71.3526L187.079 82.4299C182.328 80.5179 177.666 78.5863 172.919 76.7556C170.149 75.6843 167.329 74.7396 164.493 73.8151C163.184 73.3665 162.598 74.0068 162.344 75.4071L162.344 75.3868ZM131.431 98.9477L145.728 42.5234C164.107 48.179 182.461 52.6758 200.43 59.3594L194.678 69.3757C191.49 68.4888 188.548 67.7971 185.678 66.8469C176.03 63.7126 166.409 60.4567 156.767 57.2768C153.322 56.1436 153.401 56.2307 152.573 59.862C150.516 68.9098 148.37 77.9416 146.253 86.9736C145.457 90.3714 144.596 93.7534 143.854 97.1618C143.576 98.4248 143.079 99.1064 141.718 99.0741C138.503 98.9949 135.267 99.0019 131.431 98.9681L131.431 98.9477ZM161.631 99.763C161.135 99.6367 160.422 98.609 160.501 98.1116C161.635 90.8292 162.878 83.5732 164.195 75.7334C171.796 78.7175 178.941 81.5145 186.106 84.327L182.877 94.4622C179.518 93.0757 176.189 91.7047 172.206 90.0637L170.344 101.613C167.525 101.06 164.557 100.526 161.631 99.7834L161.631 99.763ZM99.135 131.862C99.3078 123.56 99.565 115.264 99.693 106.966C99.7079 105.015 99.36 103.061 99.1854 101.194C108.935 101.28 118.66 101.462 128.376 101.421C134.265 101.392 140.17 100.6 146.032 100.901C154.691 101.348 163.641 100.843 171.68 104.989C178.397 108.454 184.101 113.23 187.465 120.435C188.575 122.798 189.974 125.031 191.126 127.114L187.172 131.48C185.368 128.807 183.933 126.014 181.898 123.811C176.373 117.796 170.36 112.529 162.121 110.5C153.45 108.355 144.689 107.572 135.803 107.585C127.355 107.598 118.906 107.647 110.457 107.732C109.284 107.75 108.117 107.893 106.974 108.159C106.74 108.241 106.527 108.379 106.353 108.56C106.18 108.741 106.049 108.96 105.973 109.202C105.748 110.213 105.63 111.246 105.621 112.283C105.398 123.223 105.031 134.171 105.047 145.112C105.056 153.782 106.004 162.399 109.047 170.556C110.693 174.977 113.078 178.977 116.752 182.079C118.1 183.224 118.961 184.969 120.309 186.109C122.511 187.974 124.925 189.57 127.514 191.473L122.811 195.609C118.763 192.753 113.988 189.997 109.96 186.379C103.878 180.978 100.056 173.396 99.283 165.2C98.5024 158.079 98.189 150.962 98.9495 143.793C99.3573 139.853 99.05 135.841 99.135 131.862ZM73.5741 167.209C77.7897 166.403 81.6422 165.619 85.5187 164.952C88.4297 164.469 91.374 164.175 94.2852 163.672C96.0319 163.368 97.0101 163.468 97.2065 165.731C97.4347 168.396 98.2447 171.01 98.8108 173.668C95.1038 174.265 91.546 174.833 87.5853 175.464C88.3382 177.752 88.8518 179.475 89.4801 181.152C90.1084 182.829 90.8857 184.513 91.6619 186.345L81.5734 189.589L73.5741 167.209ZM79.4885 190.582L68.7791 196.393L57.438 157.371C70.3469 154.436 83.1463 151.53 96.1548 148.565L96.6906 161.061C90.4459 162.068 84.1665 163.06 77.8918 164.092C76.5134 164.318 75.1676 164.84 73.7852 164.945C71.5873 165.119 71.1221 166.156 71.8077 168.139C74.3457 175.5 76.8538 182.87 79.4886 190.572L79.4885 190.582ZM94.729 186.24C94.5109 186.202 94.3036 186.115 94.1224 185.985C93.9412 185.855 93.7905 185.685 93.6812 185.488C92.4596 182.764 91.3128 179.999 89.9946 176.908C92.9784 176.645 95.3952 176.448 97.7975 176.205C99.2598 176.05 100.076 176.575 100.925 177.919C102.816 180.904 105.061 183.663 107.156 186.522C107.329 186.789 107.481 187.069 107.612 187.359C103.311 186.986 99.0198 186.638 94.7291 186.229L94.729 186.24ZM41.3512 147.589C59.8985 142.996 78.162 138.472 96.7096 133.848C96.679 137.852 96.7225 141.263 96.5674 144.656C96.4928 145.028 96.3304 145.377 96.0943 145.67C95.8582 145.964 95.5556 146.194 95.2127 146.341C82.7862 149.223 70.3487 152.044 57.8999 154.804C54.7537 155.503 54.6138 155.603 55.5681 158.849C58.7815 169.738 61.9932 180.628 65.2033 191.518C65.6875 193.194 66.2957 194.892 66.392 196.61C66.4452 197.449 65.6606 198.672 64.9114 199.164C62.4889 200.748 59.9194 202.072 56.9248 203.748C50.6047 185.337 46.5446 166.448 41.3463 147.579L41.3512 147.589ZM88.6775 284.931C91.7246 285.491 94.8236 285.778 98.1102 286.208C97.8367 287.749 97.4783 289.273 97.0367 290.772C96.8675 291.067 96.6327 291.316 96.3516 291.5C96.0704 291.683 95.7507 291.797 95.4185 291.831C92.9327 291.946 90.4211 292.193 88.0038 291.806C83.9422 291.214 79.9303 290.307 76.0027 289.093C66.8961 286.116 61.0802 279.123 56.5502 271.008C50.3288 259.854 44.4518 248.495 38.4201 237.242C35.686 232.136 32.8666 227.131 30.2296 222.331C35.9559 218.925 42.0063 215.381 48.0125 211.755C56.4053 206.696 64.7 201.459 73.1613 196.528C79.6059 192.778 86.2658 189.463 93.8019 188.554C98.5389 187.947 103.35 188.561 107.798 190.339C112.752 192.344 117.428 195.043 122.334 197.49L120.565 203.42C120 203.238 119.418 203.207 119.078 202.899C114.89 199.437 109.667 198.751 104.706 197.579C97.265 195.821 90.0768 197.373 83.039 200.066C70.4637 204.869 59.2501 212.271 47.7867 219.208C45.3201 220.711 42.947 222.351 40.4756 223.839C39.4221 224.47 39.046 224.909 39.7417 226.226C42.8576 232.097 45.684 238.134 48.8848 243.956C52.6689 250.829 56.4527 257.743 60.7563 264.271C64.495 269.945 68.7271 275.43 74.6137 279.014C77.5818 280.813 80.9429 281.91 84.1479 283.265C85.5962 283.975 87.1126 284.53 88.6726 284.921L88.6775 284.931ZM101.659 277.092C100.008 280.467 96.5141 281.112 93.3895 280.943C89.4849 280.735 85.6014 279.71 81.7667 278.807C79.842 278.338 78.0409 277.301 76.6587 276.729C81.5848 273.988 86.739 271.31 91.6921 268.284C94.8177 266.375 97.6195 263.92 100.593 261.756C103.682 259.502 107.177 258.664 110.939 258.575C113.46 258.516 115.977 258.147 118.494 257.915C110.81 262.507 105.566 269.118 101.679 277.082L101.659 277.092ZM88.0615 267.988C83.8112 270.74 79.536 273.503 74.2103 273.908C72.1169 274.062 70.8156 273.309 69.6039 271.89C67.0772 268.91 64.5754 265.915 61.7682 262.582C69.815 262.465 76.5763 259.542 83.3757 256.843C87.8221 255.083 92.3416 254.172 97.05 255.2C99.0345 255.634 100.91 256.692 102.941 257.508C97.7997 261.152 93.046 264.754 88.0615 267.988ZM98.5895 249.491C96.8742 247.632 95.5346 245.399 94.2395 243.172C93.0279 241.098 93.9063 239.302 95.631 237.98C100.37 234.358 105.717 233.699 111.369 234.872C117.398 236.124 122.025 239.946 126.573 243.828C129.821 246.611 132.915 249.591 135.866 252.285C129.964 253.371 123.784 254.912 117.513 255.548C110.555 256.254 103.765 255.076 98.5895 249.491ZM175.442 291.109C175.248 291.686 174.561 292.549 174.149 292.525C171.441 292.359 168.741 291.969 166.044 291.686C159.962 291.003 155.142 287.677 150.548 283.927C147.447 281.359 145.805 277.741 144.845 273.947C143.92 270.099 143.276 266.186 142.917 262.241C142.231 255.665 144.744 250.061 148.629 245.049C151.932 240.779 155.368 236.581 160.37 234.324C162.573 233.325 164.91 232.666 167.303 232.367C175.068 231.419 182.111 233.804 188.63 237.912C189.125 238.231 189.334 239.493 189.268 240.285C188.955 244.201 188.214 248.107 188.184 252.025C188.151 256.37 190.11 260.173 192.543 263.675L194.681 266.789C188.809 265.264 183.377 263.93 178.012 262.373C177.362 262.185 176.746 260.838 176.619 259.983C175.674 253.526 172.025 249.093 166.053 247.602C157.779 245.542 149.73 249.943 149.848 260.448C149.919 266.719 153.752 269.889 158.309 271.86C162.866 273.831 167.841 273.072 172.041 269.781C172.656 269.278 173.494 268.889 173.782 268.236C175.183 265.098 177.232 265.593 179.844 266.546C184.15 268.109 188.599 269.266 193.632 270.784C192.39 271.327 191.677 271.672 190.939 271.955C182.187 275.298 178.239 282.692 175.466 291.109L175.442 291.109ZM167.242 269.52C162.37 270.437 156.166 268.101 154.111 264.525C151.992 260.843 153.638 257.407 155.04 254.085C156.513 250.597 159.768 250.666 162.864 250.704C168.514 250.754 172.893 253.842 174.09 258.578C174.362 259.758 174.4 260.981 174.201 262.176C174.002 263.371 173.571 264.512 172.932 265.533C172.293 266.553 171.461 267.432 170.483 268.117C169.506 268.802 168.404 269.279 167.242 269.52ZM225.659 288.101C225.447 288.562 225.154 289.184 224.875 289.822C223.358 293.28 223.429 293.036 219.665 292.078C213.797 290.588 207.466 282.097 208.427 275.915C209.122 271.47 210.549 267.529 214.475 264.972C220.058 261.357 225.385 260.881 231.675 263.634L230.88 268.867C228.193 268.645 225.507 268.311 222.819 268.221C218.983 268.096 215.781 270.314 214.827 273.543C213.378 278.454 214.267 281.816 218.005 284.197C220.384 285.697 223.005 286.762 225.659 288.101ZM227.583 285.445C227.416 285.545 227.23 285.605 227.038 285.62C226.846 285.635 226.653 285.605 226.474 285.532C223.676 284.227 220.622 283.254 218.201 281.393C215.78 279.532 215.533 276.654 216.962 273.816C218.238 271.286 220.408 270.208 223.096 270.313C225.032 270.418 226.961 270.625 228.876 270.933C230.226 271.128 230.942 271.825 231.701 273.234C233.054 275.736 235.19 277.803 237.057 279.995C237.549 280.548 238.238 280.894 239.33 281.697C234.629 281.671 230.78 282.567 227.583 285.445ZM255.624 292.939C255.438 293.232 254.791 293.323 254.354 293.34C249.492 293.551 244.513 289.518 243.735 284.673C243.289 281.894 245.297 280.53 247.141 279.26C250.208 277.148 255.469 277.454 258.389 279.766C258.705 279.973 258.963 280.261 259.138 280.601C260.801 285.291 260.791 285.296 264.091 288.572C260.928 289.576 257.596 289.841 255.624 292.939ZM327.345 285.441C326.562 290.287 321.503 294.212 316.62 293.914C316.183 293.911 315.543 293.773 315.366 293.471C313.462 290.304 310.105 290.035 306.952 288.966C309.247 286.557 312.058 284.778 312.076 281.078C312.079 280.743 312.634 280.352 313.004 280.07C317.245 277.186 323.748 278.132 326.733 282.255C327.309 283.196 327.527 284.321 327.345 285.416L327.345 285.441ZM341.624 285.272C338.978 283.597 335.678 282.974 332.625 281.87C336.152 280.117 338.656 277.019 340.217 273.079C340.277 272.933 340.367 272.801 340.48 272.692C340.593 272.583 340.726 272.498 340.872 272.444C344.417 271.586 347.973 270.586 351.569 272.214C354.11 273.364 355.021 275.664 355.062 278.231C355.102 280.797 353.652 282.558 351.644 283.821C350.526 284.523 349.206 284.882 348.043 285.512C345.833 286.702 344.013 286.772 341.624 285.257L341.624 285.272ZM352.53 292.814C347.351 294.801 347.322 294.719 345.516 289.118C348.055 287.895 350.701 286.897 353.068 285.424C357.018 282.959 357.944 279.567 356.416 274.645C355.412 271.409 352.317 269.288 348.38 269.345C345.756 269.382 343.135 269.664 340.515 269.834L339.765 264.543C343.02 263.301 346.452 262.269 349.993 263.215C355.086 264.571 359.521 266.892 361.741 272.39C365.462 281.6 359.094 290.27 352.53 292.798L352.53 292.814ZM428.454 265.93C427.804 270.478 426.75 274.956 425.305 279.308C423.779 283.924 420.174 286.804 416.217 289.498C410.223 293.572 403.574 294.082 396.797 294.495C396.385 294.522 395.686 293.652 395.496 293.066C393.52 286.95 391.3 280.959 385.998 276.984C383.636 275.215 380.897 273.971 378.082 272.341C382.385 271.083 386.604 269.875 390.823 268.621C391.433 268.512 392.033 268.347 392.615 268.129C394.461 267.195 395.682 267.379 396.999 269.357C401.19 275.66 412.144 276.89 418.254 270.703C423.859 265.03 422.241 255.681 417.205 251.942C412.501 248.445 405.476 247.417 399.739 252.84C397.111 255.327 395.266 258.151 394.93 261.853C394.767 263.625 393.867 264.268 392.155 264.639C387.147 265.708 382.197 267.061 376.994 268.367C378.731 265.42 380.39 262.909 381.742 260.233C383.942 255.871 383.7 251.143 383.284 246.429C383.285 246.271 383.187 246.128 383.158 245.97C381.943 239.765 381.943 239.765 387.698 237.178C394.181 234.262 400.797 233.472 407.772 235.119C413.229 236.407 416.913 240.094 420.411 244.099C421.911 245.928 423.315 247.839 424.616 249.822C426.263 252.116 427.451 254.721 428.109 257.485C428.768 260.25 428.885 263.12 428.454 265.93ZM397.175 261.959C397.532 258.1 399.838 255.534 403.13 254.028C404.92 253.211 406.984 253.01 408.921 252.53C415.528 252.933 419.574 258.061 418.271 264.681C417.63 267.882 414.951 269.226 412.516 270.536C408.943 272.481 405.129 272.661 401.582 270.536C398.426 268.678 396.823 265.702 397.175 261.959ZM445.475 256.912C442.125 256.268 438.791 255.563 435.55 254.909C440.187 251.027 444.871 246.86 449.805 243.032C456.379 237.932 463.724 235.984 471.784 238.774C473.528 239.469 475.141 240.469 476.552 241.728C477.22 242.225 477.696 242.946 477.897 243.765C478.099 244.584 478.014 245.449 477.656 246.21C474.752 253.537 469.036 256.932 461.824 258.353C456.24 259.452 450.879 257.961 445.465 256.912L445.475 256.912ZM487.593 260.171C493.282 262.309 499.077 264.154 504.863 266.02C506.172 266.438 507.623 266.384 509.451 266.599C506.997 269.626 504.645 272.451 502.317 275.322C499.372 278.955 495.462 278.199 492.368 276.5C486.232 273.112 480.499 268.945 474.639 265.057C472.691 263.759 470.824 262.33 468.822 260.889C474.969 257.066 481.196 257.756 487.583 260.17L487.593 260.171ZM475.314 284.043C472.625 283.476 470.472 282.344 469.171 279.548C465.563 271.812 460.413 265.414 452.416 261.024C453.046 260.899 453.684 260.826 454.326 260.807C456.873 261.063 459.41 261.401 461.953 261.642C465.794 261.964 469.443 263.499 472.396 266.033C479.249 271.917 486.6 276.906 495.284 280.032C488.772 282.8 482.474 285.55 475.304 284.043L475.314 284.043ZM524.29 258.187C520.446 265.019 516.636 271.881 512.52 278.538C506.165 288.823 496.554 293.891 485.014 295.309C481.731 295.712 478.349 295.326 475.02 295.221C474.808 295.169 474.611 295.066 474.447 294.919C474.283 294.772 474.156 294.587 474.078 294.379C473.638 292.724 473.318 291.028 472.972 289.45C475.912 289.141 478.716 288.992 481.453 288.508C492.147 286.57 500.776 281.254 507.562 272.431C514.449 263.523 519.851 253.681 525.259 243.814C527.648 239.455 529.884 235.008 532.278 230.663C532.923 229.485 532.788 228.935 531.64 228.208C526.695 225.065 521.865 221.678 516.854 218.621C510.161 214.537 503.464 210.402 496.519 206.799C489.856 203.34 482.84 200.514 475.199 200.294C472.138 200.206 469.037 200.793 465.992 201.305C463.541 201.685 461.13 202.291 458.787 203.117C456.479 203.96 454.328 205.253 451.853 206.471L450.242 200.795C455.675 198.038 460.505 194.163 466.733 192.764C475.291 190.848 483.339 191.818 490.971 195.9C496.629 198.918 502.054 202.401 507.53 205.763C515.494 210.645 523.392 215.639 531.356 220.522C534.962 222.709 538.634 224.774 541.885 226.642C536.085 237.054 530.23 247.654 524.29 258.187Z" fill="url(#paint0_linear_154_28)" fill-opacity="0.4"/>
<defs>
<linearGradient id="paint0_linear_154_28" x1="282.965" y1="622.543" x2="288.634" y2="-19.9772" gradientUnits="userSpaceOnUse">
<stop stop-color="#BC945C"/>
<stop offset="0.28" stop-color="#966F40"/>
<stop offset="0.42" stop-color="#C79B61"/>
<stop offset="0.56" stop-color="#EEBD7B"/>
<stop offset="0.63" stop-color="#FDCA85"/>
<stop offset="0.71" stop-color="#ECBB79"/>
<stop offset="0.87" stop-color="#BE935B"/>
<stop offset="1" stop-color="#966F40"/>
</linearGradient>
</defs>
</svg>
