<svg width="461" height="111" viewBox="0 0 461 111" fill="none" xmlns="http://www.w3.org/2000/svg">
<path d="M123.495 60.3592C123.448 59.8025 123.448 59.2429 123.495 58.6862C123.646 57.3817 124.206 56.1582 125.093 55.1898C126.4 53.9583 127.998 53.0787 129.737 52.6334C130.785 52.3127 131.853 52.0616 132.934 51.8815L133.78 51.7311H134.043C134.043 51.7311 134.156 51.7311 134.269 51.7311C134.327 52.7453 134.327 53.7621 134.269 54.7763C134.226 56.3348 133.618 57.8245 132.558 58.9682C131.652 59.9132 130.621 60.7291 129.493 61.3931L128.139 62.2014C128.668 62.2919 129.202 62.3484 129.737 62.3705C131.28 62.4715 132.828 62.2605 134.288 61.7502C135.417 61.3314 136.453 60.6925 137.334 59.8705C138.339 58.8817 139.132 57.6984 139.665 56.3929C140.199 55.052 140.565 53.6504 140.756 52.2198C141.019 49.7761 141.019 47.1821 141.075 44.4752H138.274C136.902 44.4587 135.531 44.553 134.175 44.7572L133.159 44.9451L132.671 45.0391H132.37L131.242 45.3775C129.775 45.8471 128.377 46.5109 127.086 47.3512C124.714 48.7666 122.932 50.9888 122.066 53.6108C121.554 55.3475 121.715 57.2134 122.517 58.8366C122.761 59.3924 123.091 59.9062 123.495 60.3592Z" fill="url(#paint0_linear_106_186)"/>
<path d="M142.26 77.0703C142.896 76.916 143.524 76.7278 144.14 76.5064L145.061 76.168L145.513 75.9612H145.757L146.114 75.7732C147.199 75.223 148.242 74.5947 149.236 73.8935C150.232 73.198 151.116 72.5025 152.206 71.7318L150.89 69.5512C150.173 68.4565 149.389 67.408 148.54 66.412L147.882 65.6601L147.299 65.0774C147.024 64.7994 146.736 64.5359 146.434 64.2879C145.243 63.2875 143.896 62.4876 142.448 61.9194C141.069 61.3897 139.599 61.1405 138.123 61.1863C136.87 61.2495 135.643 61.5626 134.513 62.1074C133.02 62.8273 131.728 63.9058 130.753 65.2466C130.415 65.6946 130.119 66.1729 129.869 66.6752C129.869 66.6752 130.433 66.4496 131.411 66.1301C132.666 65.688 133.991 65.4716 135.322 65.4909C136.926 65.5541 138.465 66.1419 139.703 67.1639C140.456 67.7514 141.149 68.4126 141.771 69.1377L142.279 69.7392C142.41 69.8896 142.391 69.8896 142.279 69.8896C142.3 69.9163 142.312 69.9494 142.312 69.9836C142.312 70.0177 142.3 70.0509 142.279 70.0776L142.109 70.1903L141.771 70.4159L141.094 70.8671L139.778 71.713C138.407 72.7091 136.931 73.5537 135.378 74.2318C134.302 74.6854 133.108 74.7777 131.975 74.495C131.511 74.3452 131.073 74.1232 130.677 73.8371C130.8 74.3672 131.03 74.8664 131.354 75.3033C132.405 76.546 133.892 77.3396 135.51 77.5214C137.767 77.8451 140.066 77.6915 142.26 77.0703Z" fill="url(#paint1_linear_106_186)"/>
<path d="M128.778 82.7096C128.778 82.9915 128.778 83.2735 128.628 83.5555C128.602 83.6243 128.564 83.688 128.515 83.7434C128.522 83.8278 128.513 83.9128 128.487 83.9935C128.461 84.0742 128.42 84.1489 128.365 84.2134C128.291 84.2872 128.203 84.3453 128.106 84.3841C128.009 84.4228 127.905 84.4415 127.801 84.439H127.688C127.688 84.439 127.443 84.439 126.955 84.2322C125.93 83.8718 124.967 83.3584 124.097 82.7096C123.475 82.1697 123.03 81.456 122.818 80.6606C122.712 80.3031 122.631 79.9389 122.574 79.5704C122.268 79.8239 122.002 80.1217 121.784 80.4539C121.092 81.4661 120.791 82.6953 120.938 83.9126C121.205 85.7513 122.063 87.4534 123.382 88.7624C124.352 89.7589 125.452 90.6189 126.654 91.3189C128.064 92.2024 129.606 93.1987 131.204 94.0633L131.58 93.3302C132.374 91.8648 133.046 90.3371 133.592 88.7624C133.815 87.9663 133.985 87.1562 134.1 86.3375C134.1 85.924 134.1 85.5104 134.212 85.1345C134.325 84.7585 134.212 84.6081 134.212 84.345C134.129 82.5426 133.593 80.7904 132.652 79.2508C132.011 78.1904 131.05 77.3611 129.907 76.8823C129.514 76.7361 129.102 76.6475 128.684 76.6191C128.872 76.9556 129.029 77.3078 129.154 77.6718C129.406 78.513 129.457 79.4013 129.305 80.2659C129.202 81.0943 129.025 81.9121 128.778 82.7096Z" fill="url(#paint2_linear_106_186)"/>
<path d="M161.551 35.7155C162.147 36.8046 163.076 37.6741 164.202 38.1968C164.58 38.3756 164.989 38.4778 165.406 38.4975C165.23 38.1628 165.091 37.8098 164.992 37.4449C164.779 36.5932 164.779 35.7024 164.992 34.8508C165.23 33.6742 165.596 32.5271 166.083 31.4296C166.131 31.2856 166.194 31.147 166.271 31.0161C166.271 31.0161 166.271 31.0161 166.383 31.0161H166.571C166.597 31.0255 166.621 31.0404 166.64 31.0599C166.66 31.0794 166.675 31.103 166.684 31.1289C166.661 30.9605 166.661 30.7897 166.684 30.6213C166.684 30.6213 166.684 30.6213 167.493 31.0537C168.471 31.4457 169.384 31.9845 170.2 32.6515C170.791 33.2267 171.208 33.9562 171.404 34.7568C171.489 35.116 171.552 35.4801 171.592 35.8471C171.906 35.6056 172.185 35.3208 172.419 35.0012C173.149 34.0164 173.503 32.8028 173.416 31.58C173.216 29.7302 172.432 27.9921 171.178 26.6174C170.238 25.5952 169.17 24.6981 168 23.9482C166.628 22.9895 165.124 22.0684 163.563 20.9969L163.149 21.7301C162.306 23.1619 161.577 24.6578 160.968 26.2039C160.709 26.9914 160.501 27.7952 160.348 28.61C160.273 29.0235 160.216 29.4183 160.179 29.7942C160.179 30.1326 160.179 30.3206 160.179 30.6025C160.196 32.3955 160.669 34.1546 161.551 35.7155Z" fill="url(#paint3_linear_106_186)"/>
<path d="M77.9552 58.0283L78.1809 58.6862L78.3313 59.1185C78.5569 59.6449 78.7825 60.1712 79.0458 60.66C80.0243 62.5166 81.2939 64.2047 82.8063 65.6601C85.2352 68.1437 88.3084 69.9013 91.681 70.7355C93.9315 71.3018 96.3043 71.1304 98.45 70.2467C99.1897 69.9378 99.8752 69.5126 100.481 68.9873C99.7382 69.1377 98.9817 69.2071 98.2243 69.1941C96.3412 69.0949 94.518 68.4982 92.9408 67.4647C90.6926 65.9928 88.7723 64.073 87.3001 61.8254C86.4523 60.5762 85.7401 59.2403 85.1754 57.8403C85.0438 57.4832 84.9121 57.126 84.7993 56.7688V56.5245C84.7993 56.5245 84.7993 56.5245 85.025 56.5245H86.2471C87.8511 56.5605 89.4518 56.686 91.0418 56.9004C93.7433 57.202 96.3784 57.9383 98.8448 59.0809C100.511 59.7922 101.852 61.0992 102.605 62.7465C102.885 63.4224 103.05 64.1403 103.094 64.8706C103.438 64.1523 103.637 63.3728 103.677 62.5773C103.713 61.5813 103.54 60.5888 103.169 59.6637C102.65 58.433 101.903 57.3108 100.969 56.3553C98.5778 54.0165 95.6746 52.266 92.4896 51.2423C90.6589 50.6092 88.7691 50.1621 86.8488 49.9077C86.3411 49.9077 85.8335 49.7761 85.307 49.7385H84.1224C83.6524 49.7385 83.1823 49.7385 82.7123 49.7385C80.9135 49.8859 79.1285 50.1686 77.3723 50.5844V51.3551C77.2752 53.1683 77.4015 54.9865 77.7484 56.7688C77.7955 57.192 77.8645 57.6123 77.9552 58.0283Z" fill="url(#paint4_linear_106_186)"/>
<path d="M177.947 57.8403C179.543 58.4706 181.038 59.332 182.384 60.3968C183.758 61.4955 184.821 62.934 185.468 64.5699C185.661 64.0661 185.8 63.5431 185.882 63.0097C186.072 61.4668 185.865 59.9009 185.28 58.4606C184.415 56.2532 182.989 54.3094 181.143 52.8214C180.08 51.9363 178.912 51.1851 177.665 50.5844C175.519 49.5939 173.185 49.0747 170.821 49.0618C169.486 49.0618 168.076 49.0618 166.797 49.231C167.173 51.4303 167.493 53.4793 168 55.4718C168.264 56.4493 168.546 57.3516 168.865 58.3103C169.053 58.8178 169.129 58.9306 169.26 59.2313L169.617 59.9645C170.492 61.7281 171.676 63.32 173.115 64.6639C174.097 65.6243 175.339 66.2775 176.687 66.5436C177.147 66.6276 177.619 66.6276 178.079 66.5436C177.714 66.3311 177.379 66.072 177.082 65.7729C176.397 64.9773 175.896 64.0401 175.615 63.0285C175.185 61.4705 174.883 59.8799 174.713 58.2727V57.5772C174.713 57.3892 174.713 57.032 174.713 57.032C174.743 56.9499 174.804 56.8825 174.882 56.844C174.924 56.8173 174.973 56.8031 175.023 56.8031C175.073 56.8031 175.122 56.8173 175.164 56.844C175.164 56.844 175.258 56.844 175.164 56.844C175.07 56.844 175.164 56.844 175.164 56.7125C176.118 57.021 177.048 57.3979 177.947 57.8403Z" fill="url(#paint5_linear_106_186)"/>
<path d="M163.582 69.3444C163.713 69.2129 163.864 69.1189 164.014 68.9873C164.165 68.8557 164.616 68.5174 164.936 68.3106C166.086 67.5226 167.355 66.9259 168.696 66.5436C170.206 66.1592 171.776 66.0635 173.322 66.2616C173.05 65.8747 172.749 65.5101 172.419 65.1714C171.438 64.2289 170.264 63.5106 168.978 63.066C166.956 62.3941 164.783 62.3158 162.717 62.8405C162.106 62.9834 161.508 63.1784 160.931 63.4232L160.047 63.8367L159.596 64.0811L158.975 64.4947C157.279 65.6325 155.88 67.1601 154.895 68.9497C154.442 69.8242 154.083 70.7442 153.823 71.6942L153.41 73.0476C153.278 73.5363 153.146 73.9687 153.071 74.3446C154.763 74.7394 156.286 75.0965 157.772 75.3409C159.173 75.5976 160.599 75.6922 162.021 75.6229C162.341 75.6429 162.661 75.6429 162.98 75.6229H163.45H163.77C164.184 75.5101 164.578 75.3973 164.973 75.2469C165.678 74.9866 166.348 74.6393 166.966 74.213C167.91 73.5988 168.686 72.7589 169.223 71.7693C169.403 71.4647 169.554 71.1437 169.674 70.8107C168.573 71.2392 167.395 71.4375 166.214 71.3934C165.682 71.3777 165.153 71.3085 164.635 71.1866L163.77 70.9798H163.544L163.394 70.8483C163.037 70.4723 163.112 70.1339 163.394 69.9836C163.676 69.8332 163.713 69.8332 163.713 69.852C163.713 69.8708 163.713 69.852 163.713 69.7204L163.582 69.3444Z" fill="url(#paint6_linear_106_186)"/>
<path d="M185.224 34.3996C184.393 35.983 183.852 37.7017 183.625 39.475C183.411 40.9623 183.342 42.4669 183.419 43.9676C183.557 46.3764 183.915 48.7675 184.49 51.1107C185.468 55.0206 186.371 57.4079 186.277 57.4267C187.027 55.3551 187.599 53.2232 187.988 51.0543L189.285 44.4C189.68 42.0455 190.394 39.7561 191.41 37.5952C193.91 32.8018 196.524 28.798 199.382 26.8994C200.563 26.0744 201.9 25.4988 203.312 25.2076C204.383 24.982 205.041 24.9632 205.041 24.9444C204.524 24.6161 203.977 24.3391 203.406 24.1173C201.745 23.49 199.948 23.3149 198.197 23.6098C195.54 24.091 193.063 25.2867 191.034 27.0686C188.625 29.098 186.649 31.5911 185.224 34.3996Z" fill="url(#paint7_linear_106_186)"/>
<path d="M178.154 49.3626C179.581 51.2474 181.301 52.8911 183.249 54.2312C183.937 54.7309 184.674 55.1592 185.449 55.5094C183.631 53.1251 182.191 50.4748 181.181 47.652C180.141 44.9144 179.717 41.9814 179.94 39.0615C179.94 38.3284 180.147 37.4637 180.316 36.6178C180.485 35.7719 180.711 34.926 180.955 34.0801C181.493 32.3245 182.185 30.6198 183.024 28.9859C184.735 25.5648 186.991 22.3692 189.022 19.1548C191.081 16.2153 192.544 12.9008 193.327 9.39882C193.768 6.93608 193.398 4.39703 192.275 2.16173C191.894 1.39949 191.44 0.675586 190.921 0C191.071 0.807578 191.172 1.6237 191.222 2.44369C191.335 4.50686 190.88 6.56164 189.905 8.38374C188.343 11.0219 186.447 13.448 184.265 15.602C181.298 18.6617 178.767 22.1153 176.744 25.8655C175.682 27.9651 174.904 30.1966 174.431 32.5011C174.205 33.6043 174.06 34.7227 173.998 35.8471C173.914 36.9357 173.914 38.0292 173.998 39.1179C174.366 42.8621 175.809 46.4201 178.154 49.3626Z" fill="url(#paint8_linear_106_186)"/>
<path d="M145.061 60.5096C145.956 61.4302 147.025 62.1623 148.207 62.6627C149.389 63.1632 150.66 63.4217 151.943 63.4232C154.084 63.4658 156.168 62.7312 157.809 61.3555C158.466 60.7873 158.995 60.0865 159.361 59.2991C159.728 58.5118 159.923 57.6559 159.934 56.7876C159.933 55.6405 159.669 54.5088 159.163 53.4793C158.781 52.6603 158.301 51.8904 157.734 51.1859C157.926 52.027 158.052 52.8818 158.11 53.7424C158.175 54.6411 158.053 55.5433 157.753 56.3929C157.598 56.8502 157.351 57.271 157.028 57.6298C156.705 57.9885 156.312 58.2776 155.873 58.4794C154.784 58.8916 153.591 58.9443 152.47 58.6298C151.306 58.3582 150.29 57.6521 149.63 56.6561C149.343 56.1398 149.16 55.5719 149.092 54.9848C149.024 54.3977 149.073 53.8031 149.236 53.2349C149.412 52.4419 149.663 51.6676 149.988 50.9228C150.157 50.5092 150.364 50.0957 150.589 49.6633C150.771 49.2983 150.978 48.9465 151.21 48.6107C152.18 47.3207 153.415 46.2538 154.832 45.482C156.25 44.7102 157.816 44.2515 159.427 44.1368C162.537 43.8044 165.683 44.131 168.659 45.0955C170.827 45.8054 172.908 46.7576 174.863 47.934C176.292 48.7799 177.063 49.3438 177.063 49.3438C176.621 48.5706 176.124 47.8295 175.578 47.1257C174.08 45.1363 172.263 43.4086 170.2 42.0127C166.968 39.7777 163.181 38.4769 159.257 38.2532C156.754 38.1303 154.253 38.547 151.924 39.475C149.255 40.5252 146.962 42.3522 145.343 44.7196C144.943 45.3172 144.591 45.9458 144.29 46.5993C144.008 47.1633 143.745 47.7648 143.501 48.3851C143.022 49.6637 142.7 50.9955 142.542 52.3514C142.374 53.8009 142.489 55.2692 142.88 56.6749C143.284 58.1114 144.033 59.4277 145.061 60.5096Z" fill="url(#paint9_linear_106_186)"/>
<path d="M321.335 56.3929C321.871 57.728 322.677 58.9377 323.704 59.9456C324.579 60.7755 325.616 61.4155 326.75 61.8254C328.203 62.3362 329.745 62.5473 331.281 62.4457C331.817 62.4253 332.351 62.3688 332.88 62.2766L331.545 61.4683C330.407 60.81 329.369 59.9936 328.461 59.0434C327.408 57.8951 326.802 56.4082 326.75 54.8515C326.683 53.8375 326.683 52.8202 326.75 51.8063C326.783 51.7819 326.822 51.7687 326.863 51.7687C326.904 51.7687 326.943 51.7819 326.976 51.8063H327.164L328.029 51.9566C329.103 52.1367 330.165 52.3879 331.206 52.7086C332.912 53.1684 334.476 54.0472 335.756 55.265C336.644 56.2333 337.203 57.4569 337.355 58.7614C337.432 59.3157 337.469 59.8748 337.467 60.4344C337.849 59.9823 338.171 59.4832 338.426 58.9494C339.246 57.3317 339.414 55.4615 338.897 53.7236C338.022 51.1002 336.234 48.8785 333.857 47.464C332.573 46.6238 331.182 45.9599 329.721 45.4903L328.574 45.1519H328.292L327.784 45.0579L326.769 44.8699C325.412 44.6651 324.042 44.5708 322.67 44.588H319.868C319.868 47.2948 319.868 49.8889 320.207 52.3326C320.426 53.7247 320.805 55.0871 321.335 56.3929Z" fill="url(#paint10_linear_106_186)"/>
<path d="M319.079 69.1377C319.707 68.4121 320.406 67.751 321.166 67.1639C322.404 66.1419 323.943 65.5541 325.547 65.4909C326.878 65.474 328.201 65.6903 329.458 66.1301C330.435 66.4496 330.981 66.694 330.981 66.6752C330.731 66.1729 330.435 65.6946 330.097 65.2466C329.127 63.9014 327.833 62.8219 326.336 62.1074C325.207 61.5626 323.979 61.2495 322.726 61.1863C321.257 61.1404 319.792 61.3897 318.421 61.9194C316.968 62.4788 315.62 63.2796 314.434 64.2879C314.127 64.5358 313.832 64.7993 313.551 65.0774C313.438 65.1714 313.212 65.4158 312.987 65.6601C312.761 65.9045 312.535 66.1677 312.329 66.412C311.52 67.4036 310.785 68.4528 310.129 69.5512L308.85 71.5626L311.821 73.7243C312.814 74.4256 313.858 75.0538 314.942 75.6041L315.318 75.792H315.544L316.014 75.9988L316.935 76.3372C317.55 76.5642 318.178 76.7525 318.815 76.9011C321 77.535 323.294 77.7015 325.547 77.3898C327.166 77.2118 328.654 76.4175 329.702 75.1717C330.037 74.7411 330.268 74.2395 330.379 73.7055C329.987 73.9968 329.548 74.2193 329.082 74.3634C327.949 74.6462 326.754 74.5538 325.678 74.1003C324.027 73.4679 322.45 72.6547 320.978 71.6754L319.662 70.8295L318.985 70.3783L318.646 70.1528L318.477 70.04C318.456 70.0133 318.444 69.9801 318.444 69.946C318.444 69.9118 318.456 69.8787 318.477 69.852C318.477 69.852 318.477 69.852 318.571 69.7016L319.079 69.1377Z" fill="url(#paint11_linear_106_186)"/>
<path d="M332.259 76.5815C331.841 76.608 331.429 76.6967 331.037 76.8447C329.886 77.3106 328.921 78.1432 328.292 79.2132C327.343 80.749 326.805 82.5035 326.731 84.3074C326.711 84.5702 326.711 84.8341 326.731 85.0969C326.731 85.4728 326.731 85.8864 326.844 86.2999C326.956 87.1206 327.132 87.9314 327.371 88.7248C327.909 90.2991 328.576 91.8268 329.364 93.2926L329.74 94.0257C331.338 93.1235 332.898 92.146 334.309 91.2813C335.507 90.5762 336.607 89.7167 337.58 88.7248C338.885 87.4056 339.741 85.7085 340.025 83.875C340.171 82.6577 339.871 81.4285 339.179 80.4163C338.947 80.0949 338.682 79.7987 338.389 79.5328C338.389 79.5328 338.389 79.9651 338.144 80.623C337.924 81.4148 337.48 82.1263 336.866 82.672C336.011 83.2932 335.075 83.7929 334.083 84.157C333.594 84.3826 333.406 84.4014 333.331 84.3638H333.218C333.114 84.3663 333.01 84.3476 332.913 84.3089C332.816 84.2701 332.728 84.212 332.654 84.1382C332.551 84.0036 332.498 83.8376 332.504 83.6682C332.455 83.6128 332.417 83.5491 332.391 83.4803C332.391 83.1983 332.297 82.9163 332.24 82.6344C331.978 81.8427 331.777 81.032 331.639 80.2095C331.492 79.3434 331.55 78.4551 331.808 77.6154C331.91 77.2515 332.061 76.9035 332.259 76.5815Z" fill="url(#paint12_linear_106_186)"/>
<path d="M289.371 35.7155C289.371 35.7155 289.371 35.2831 289.578 34.6252C289.758 33.8229 290.17 33.091 290.762 32.5199C291.588 31.8571 292.507 31.3188 293.488 30.9221C294.278 30.4898 294.203 30.4334 294.278 30.4897C294.333 30.6538 294.364 30.8246 294.372 30.9973C294.402 30.9459 294.448 30.9062 294.504 30.8845H294.673H294.786C294.863 31.0154 294.926 31.154 294.974 31.298C295.466 32.3952 295.838 33.5422 296.083 34.7192C296.276 35.5731 296.276 36.4594 296.083 37.3133C295.974 37.6747 295.835 38.0267 295.67 38.366C296.086 38.3443 296.495 38.2421 296.873 38.0652C297.959 37.5673 298.865 36.7468 299.468 35.7155C300.343 34.14 300.803 32.3673 300.803 30.5649C300.821 30.2958 300.821 30.0258 300.803 29.7566C300.803 29.3807 300.746 28.9859 300.633 28.5724C300.498 27.7537 300.29 26.9486 300.013 26.1663C299.412 24.6168 298.682 23.1203 297.832 21.6925L297.418 20.9594C295.858 21.9368 294.353 22.9519 292.981 23.9106C291.813 24.6545 290.75 25.5523 289.822 26.5798C288.56 27.9493 287.775 29.6902 287.584 31.5424C287.483 32.7637 287.831 33.9801 288.562 34.9636C288.803 35.2437 289.074 35.4959 289.371 35.7155Z" fill="url(#paint13_linear_106_186)"/>
<path d="M357.436 62.4833C357.477 63.2765 357.668 64.0547 358 64.7766C358.078 63.5057 358.52 62.284 359.273 61.2574C360.027 60.2308 361.06 59.4427 362.249 58.9869C364.71 57.8466 367.338 57.1103 370.033 56.8064C371.624 56.5927 373.224 56.4672 374.828 56.4305H376.05C376.351 56.4305 376.257 56.4305 376.276 56.4305V56.6748C376.163 57.032 376.031 57.3891 375.9 57.7463C375.343 59.1498 374.63 60.4865 373.775 61.7314C372.308 63.9832 370.387 65.9039 368.134 67.3707C366.557 68.4042 364.734 69.0009 362.851 69.1001C362.1 69.1141 361.349 69.0448 360.613 68.8933C361.209 69.4223 361.889 69.848 362.625 70.1527C364.771 71.0364 367.144 71.2078 369.394 70.6415C372.771 69.8049 375.85 68.048 378.288 65.5661C379.795 64.1063 381.064 62.4191 382.048 60.5659C382.312 60.0772 382.537 59.5509 382.763 59.0245L382.932 58.5922L383.139 57.9343C383.29 57.4844 383.416 57.0263 383.515 56.5621C383.856 54.779 383.976 52.9607 383.872 51.1483V50.3776C382.11 49.9619 380.318 49.6791 378.513 49.5317C378.043 49.5317 377.573 49.5317 377.122 49.5317H375.919C375.392 49.5317 374.885 49.6257 374.377 49.7009C372.456 49.954 370.566 50.4012 368.736 51.0355C365.546 52.0597 362.637 53.8099 360.237 56.1485C359.303 57.104 358.557 58.2262 358.037 59.4569C357.607 60.4061 357.401 61.4417 357.436 62.4833Z" fill="url(#paint14_linear_106_186)"/>
<path d="M460.662 108.725C460.186 107.555 459.553 106.455 458.781 105.455C457.557 103.79 456.033 102.369 454.288 101.263C451.875 99.7431 449.225 98.6376 446.447 97.992C438.8 96.3259 430.886 96.2939 423.226 97.898C420.988 98.3116 418.563 98.9883 416.363 99.6086C414.163 100.229 411.775 100.83 409.406 101.3C407.096 101.803 404.738 102.055 402.374 102.052C401.874 102.034 401.377 101.971 400.888 101.864C400.708 101.833 400.531 101.783 400.362 101.714C400.193 101.714 400.23 101.714 400.212 101.714C400.212 101.714 398.218 100.718 398.181 100.68C398.176 100.618 398.176 100.555 398.181 100.492L397.861 101.112C398.164 100.559 398.434 99.9876 398.67 99.4018C399.99 99.5164 401.317 99.5164 402.637 99.4018C404.392 99.1971 406.132 98.8768 407.845 98.4432C414.295 96.8266 419.465 94.9468 423.846 94.1009C425.748 93.6894 427.692 93.5064 429.637 93.5558C431.066 93.5989 432.47 93.9449 433.755 94.5709C434.55 94.9778 435.274 95.511 435.899 96.1499C436.112 96.3769 436.313 96.6153 436.5 96.8642C436.5 96.8642 436.369 96.5822 436.049 96.0559C435.54 95.2847 434.904 94.6047 434.169 94.0445C432.932 93.1195 431.507 92.4777 429.995 92.1648C427.954 91.748 425.868 91.6026 423.79 91.7324C419.127 91.8828 413.542 93.0858 407.281 93.8941C405.709 94.0854 404.127 94.1921 402.543 94.2137C401.625 94.2341 400.707 94.1775 399.798 94.0445C399.866 92.8212 399.822 91.5943 399.666 90.379C399.394 87.4323 398.385 84.6012 396.733 82.1456C396.263 81.4737 395.734 80.8447 395.154 80.2659C394.552 79.7395 394.044 79.2696 393.386 78.7808C392.081 77.8737 390.682 77.111 389.212 76.5063C386.186 75.2234 382.961 74.4729 379.679 74.2882C377.935 74.1928 376.185 74.2557 374.452 74.4762C372.661 74.7319 370.902 75.1793 369.206 75.8108C366.762 76.6755 364.374 77.6906 361.986 78.7433C361.796 77.5642 361.494 76.4059 361.083 75.2845C359.889 72.1487 358.021 69.3127 355.612 66.9759C353.52 64.8051 350.979 63.1178 348.166 62.0322C345.689 61.0914 342.995 60.8762 340.401 61.4118C338.374 61.7513 336.479 62.6434 334.927 63.9899C333.374 65.3365 332.223 67.0853 331.601 69.0437C331.412 69.8637 331.381 70.7119 331.507 71.5438C331.528 72.3296 331.707 73.103 332.034 73.8183C332.468 74.7513 333.15 75.5476 334.005 76.1208C334.86 76.6941 335.856 77.0224 336.885 77.0703H337.317C337.317 77.0703 337.317 76.9763 337.317 76.9199H336.96C336.176 76.8293 335.423 76.5592 334.76 76.1304C334.302 75.8422 333.896 75.4802 333.557 75.0589C333.223 74.646 332.944 74.191 332.729 73.7055V73.4799C332.292 72.3308 332.319 71.0568 332.804 69.9272C333.543 68.5108 334.763 67.4043 336.245 66.8068C339.423 65.4345 343.917 66.3556 347.527 69.1001C349.429 70.4894 350.812 72.4742 351.457 74.7394C352.264 77.2195 352.445 79.8607 351.983 82.4276C351.87 83.0256 351.72 83.6158 351.532 84.1946C351.241 85.0667 350.869 85.9099 350.422 86.7134C349.067 89.0601 347.18 91.0561 344.913 92.5407C343.615 93.2764 342.215 93.8149 340.758 94.1385C333.845 95.3104 326.739 94.3396 320.395 91.3565C316.927 89.8789 313.745 87.8048 310.994 85.2284C308.227 82.667 306.179 79.4269 305.052 75.8296L297.681 76.9763C299.585 81.8895 302.641 86.2734 306.594 89.7587C309.928 92.6638 313.746 94.9607 317.875 96.5446C321.677 98.0491 325.671 99.0171 329.74 99.4207C333.616 99.8375 337.535 99.5767 341.322 98.6499C343.198 98.1837 344.992 97.4358 346.643 96.4318C347.483 95.9392 348.26 95.3458 348.956 94.6649C349.615 94.0715 350.243 93.4441 350.836 92.7851C351.657 91.8338 352.387 90.808 353.017 89.7211C354.147 87.8176 354.912 85.7203 355.273 83.5366C355.349 83.0103 355.405 82.484 355.443 81.9577C355.601 79.3599 355.23 76.7572 354.352 74.307C354.107 73.6155 353.825 72.9378 353.506 72.2769C353.176 71.6075 352.772 70.977 352.303 70.3971C351.448 69.3052 350.434 68.3483 349.294 67.5587C347.268 66.0958 344.933 65.1182 342.469 64.7014C341.223 64.5084 339.955 64.5084 338.708 64.7014C339.945 63.915 341.344 63.42 342.8 63.2539C344.256 63.0878 345.731 63.255 347.113 63.7427C349.542 64.7362 351.72 66.2581 353.487 68.1978C355.559 70.3435 357.149 72.9071 358.15 75.7168C358.633 77.164 358.923 78.6681 359.015 80.1907C359.1 81.834 358.941 83.4809 358.545 85.078C358.277 86.2208 357.899 87.335 357.417 88.4052C356.729 89.9101 355.878 91.3348 354.879 92.6535C353.165 94.9065 351.117 96.8843 348.805 98.5184C347.459 99.4922 346.038 100.36 344.556 101.112C340.886 102.99 336.903 104.181 332.804 104.628C328.413 105.139 323.969 104.935 319.643 104.026C315.073 103.131 310.687 101.472 306.669 99.1199C304.125 97.6321 301.786 95.8185 299.712 93.725C299.855 92.6908 299.93 91.6485 299.938 90.6046C300.081 86.4118 298.882 82.2827 296.516 78.8185C296.346 78.5741 296.158 78.3485 295.989 78.1229L295.481 77.5026C295.124 77.1079 294.767 76.7131 294.391 76.3372C293.641 75.544 292.843 74.797 292.003 74.1002C290.269 72.6411 288.377 71.3801 286.362 70.3407C282.365 68.3144 277.994 67.1307 273.52 66.8632V58.9118C273.524 57.238 273.315 55.5705 272.9 53.9492C272.656 53.0557 272.361 52.177 272.016 51.3175L271.433 50.0205L271.019 49.231C270.469 48.2542 269.84 47.3238 269.139 46.4489C266.462 43.1031 262.786 40.6993 258.647 39.5878C257.692 39.3323 256.717 39.1563 255.733 39.0615C254.765 38.9635 253.791 38.9321 252.819 38.9675C251.945 39.0241 251.077 39.1498 250.224 39.3434C250.756 38.6923 251.246 38.008 251.69 37.2945C252.596 35.726 253.231 34.0167 253.571 32.2379C253.665 31.7868 253.74 31.3168 253.796 30.8469V30.5085C253.796 30.3582 253.796 30.1326 253.796 29.9258V28.6664C253.796 26.9934 253.796 25.3392 253.683 23.591L251.202 24.4369C250.362 24.6692 249.539 24.958 248.738 25.3016C248.319 25.469 247.911 25.6636 247.516 25.8843L247.027 26.1287L246.689 26.3355C245.816 26.8819 244.997 27.5114 244.245 28.2152C242.844 29.4626 241.64 30.9138 240.672 32.5199C239.79 34.0605 239.095 35.7013 238.604 37.4073C238.372 35.7425 238.02 34.0966 237.551 32.4823L237.25 31.5236C237.134 31.1154 236.996 30.7138 236.836 30.3206C236.402 29.1794 235.893 28.0679 235.313 26.9934C234.768 26.0159 230.481 18.0457 230.481 18.0457C229.071 20.4894 226.194 26.0535 225.668 26.9934C225.082 28.0676 224.567 29.179 224.126 30.3206C223.882 30.9973 223.844 31.1477 223.712 31.5236L223.411 32.4823C222.952 34.0988 222.6 35.7441 222.359 37.4073C221.867 35.7013 221.173 34.0605 220.29 32.5199C219.348 30.906 218.162 29.4475 216.774 28.1964C216.027 27.4944 215.215 26.865 214.349 26.3167L214.01 26.1099L213.54 25.8655C213.138 25.6483 212.723 25.4538 212.299 25.2828C211.5 24.9364 210.677 24.6474 209.836 24.4181L207.091 23.6098C207.091 25.358 206.959 27.0122 206.978 28.6852V29.9446C206.978 30.1514 206.978 30.377 206.978 30.5273V30.8657C207.03 31.334 207.112 31.7986 207.222 32.2567C207.553 34.038 208.189 35.7487 209.103 37.3133C209.548 38.0268 210.037 38.7111 210.569 39.3622C209.716 39.1673 208.848 39.0416 207.975 38.9863C207.008 38.9512 206.041 38.9826 205.079 39.0803C204.094 39.1718 203.119 39.3479 202.165 39.6066C198.065 40.7251 194.429 43.1221 191.786 46.4489C191.078 47.3189 190.449 48.2499 189.905 49.231L189.473 50.0205L188.89 51.3175C188.543 52.1742 188.254 53.0535 188.025 53.9492C187.604 55.5698 187.389 57.2372 187.386 58.9118V66.9195C182.911 67.1823 178.539 68.3662 174.544 70.3971C172.53 71.4378 170.638 72.6987 168.903 74.1566C168.067 74.8582 167.27 75.605 166.515 76.3936C166.139 76.7695 165.782 77.1643 165.443 77.559L164.936 78.1793C164.748 78.4049 164.56 78.6305 164.39 78.8748C162.023 82.3391 160.825 86.4682 160.968 90.6609C160.976 91.7049 161.051 92.7472 161.194 93.7814C159.12 95.8748 156.781 97.6885 154.237 99.1763C146.345 103.74 137.203 105.669 128.139 104.684C124.098 104.168 120.182 102.933 116.576 101.037C115.096 100.28 113.676 99.4127 112.326 98.4432C110.019 96.804 107.972 94.8269 106.253 92.5783C105.227 91.2701 104.351 89.8515 103.639 88.3488C103.151 87.2791 102.767 86.1649 102.492 85.0217C102.102 83.4236 101.95 81.7767 102.041 80.1343C102.115 78.6094 102.406 77.1028 102.906 75.6604C103.901 72.8518 105.484 70.2882 107.55 68.1414C109.326 66.1711 111.516 64.6177 113.962 63.5924C115.347 63.1044 116.825 62.9371 118.284 63.1032C119.743 63.2693 121.146 63.7643 122.386 64.551C121.139 64.3598 119.871 64.3598 118.625 64.551C116.161 64.9678 113.826 65.9454 111.8 67.4083C110.668 68.208 109.655 69.1636 108.791 70.2467C108.322 70.8266 107.918 71.4571 107.588 72.1265C107.269 72.7874 106.987 73.4651 106.742 74.1566C105.874 76.6091 105.503 79.21 105.651 81.8073C105.686 82.3365 105.749 82.8636 105.839 83.3863C106.194 85.5689 106.953 87.6662 108.077 89.5707C108.707 90.6576 109.437 91.6834 110.258 92.6347C110.841 93.2926 111.499 93.9505 112.138 94.5145C112.838 95.1912 113.614 95.7842 114.451 96.2814C116.104 97.2823 117.897 98.03 119.772 98.4996C123.559 99.4263 127.478 99.6871 131.354 99.2703C135.424 98.8689 139.417 97.9009 143.219 96.3942C147.345 94.8044 151.162 92.508 154.5 89.6083C158.447 86.1176 161.502 81.7353 163.413 76.8259L156.023 75.6792C154.896 79.2765 152.848 82.5166 150.082 85.078C147.33 87.6544 144.148 89.7285 140.68 91.2061C134.342 94.1889 127.243 95.1598 120.336 93.9881C118.878 93.6678 117.477 93.1291 116.181 92.3903C114.947 91.6212 113.817 90.699 112.815 89.6459C111.971 88.7333 111.239 87.7237 110.634 86.6383C110.187 85.8347 109.816 84.9915 109.525 84.1194C109.322 83.5436 109.165 82.9528 109.055 82.3524C108.603 79.7849 108.784 77.1462 109.581 74.6642C110.225 72.3939 111.616 70.4071 113.53 69.0249C117.102 66.2804 121.615 65.3593 124.811 66.7316C126.297 67.3544 127.51 68.4879 128.233 69.9272C128.738 71.07 128.778 72.3642 128.346 73.5363V73.7619C128.138 74.2511 127.859 74.7071 127.519 75.1153C127.186 75.5357 126.786 75.8978 126.334 76.1868C125.667 76.6518 124.901 76.9544 124.097 77.0703H123.739C123.749 77.12 123.749 77.1709 123.739 77.2207H124.097C124.952 77.1803 125.787 76.9491 126.541 76.5439C127.604 75.9549 128.448 75.0385 128.948 73.9311C129.28 73.2179 129.459 72.4431 129.474 71.6566C129.62 70.8259 129.587 69.9739 129.38 69.1565C128.758 67.198 127.607 65.4493 126.054 64.1027C124.502 62.7562 122.608 61.8641 120.581 61.5246C117.996 60.954 115.303 61.1301 112.815 62.0322C110.033 63.1164 107.518 64.7902 105.444 66.9383C103.03 69.274 101.156 72.1099 99.9542 75.2469C99.5496 76.3689 99.2537 77.5271 99.0704 78.7057C96.6637 77.6154 94.2758 76.6379 91.8503 75.7732C90.1481 75.1417 88.3831 74.6942 86.5856 74.4386C84.8525 74.2178 83.1029 74.1549 81.3585 74.2506C78.0825 74.433 74.8631 75.1835 71.8444 76.4687C70.3697 77.1358 68.9756 77.9682 67.689 78.95C67.0121 79.4388 66.5045 79.9087 65.8088 80.4351C65.2335 81.0189 64.7053 81.6475 64.2294 82.3148C62.6253 84.6765 61.6187 87.3922 61.2962 90.2286C61.1342 91.4433 61.0839 92.6703 61.1458 93.8941C60.2433 94.0265 59.3313 94.0831 58.4194 94.0633C56.8291 94.0424 55.2411 93.9357 53.6624 93.7438C47.4011 92.9355 41.8356 91.7324 37.1726 91.582C35.088 91.4532 32.9956 91.5986 30.9489 92.0144C29.4376 92.3308 28.0133 92.9722 26.7748 93.8941C26.0326 94.4466 25.3958 95.1279 24.8945 95.9055C24.7218 96.1653 24.5648 96.4352 24.4245 96.7138C24.6158 96.4626 24.823 96.2241 25.0449 95.9995C25.6654 95.3562 26.3901 94.8223 27.1884 94.4205C28.4677 93.7965 29.8647 93.4506 31.2874 93.4054C33.2388 93.3574 35.189 93.5404 37.0974 93.9505C41.4783 94.7964 46.6302 96.6762 53.0795 98.2928C54.793 98.7248 56.5328 99.045 58.2878 99.2515C59.614 99.3662 60.9477 99.3662 62.2739 99.2515C62.4951 99.8401 62.759 100.412 63.0636 100.962L62.744 100.342C62.7487 100.404 62.7487 100.467 62.744 100.53C62.744 100.53 60.7133 101.545 60.7133 101.564C60.7133 101.582 60.7133 101.564 60.7133 101.564C60.7133 101.564 60.7133 101.564 60.5817 101.564C60.4047 101.63 60.2222 101.68 60.0364 101.714C59.5542 101.821 59.0634 101.884 58.5698 101.902C56.1993 101.905 53.8353 101.653 51.5189 101.15C49.1498 100.68 46.8371 100.079 44.5808 99.4582C42.3245 98.8379 39.9365 98.1612 37.7178 97.7477C30.0509 96.1437 22.1316 96.1757 14.4779 97.8416C11.7061 98.4872 9.06217 99.5928 6.65609 101.112C4.90132 102.213 3.37028 103.635 2.14348 105.304C1.4046 106.31 0.803842 107.41 0.357244 108.575C0.0564033 109.346 -0.0376092 109.759 -0.0564117 109.759C0.629843 108.239 1.57098 106.846 2.72636 105.643C4.11032 104.272 5.73588 103.17 7.521 102.391C9.95286 101.269 12.5494 100.545 15.2112 100.248C22.5604 99.5144 29.9822 100.256 37.041 102.428C39.1092 103.011 41.0647 103.763 43.3398 104.609C45.6149 105.455 47.9652 106.225 50.4847 106.921C53.1819 107.723 55.966 108.196 58.7767 108.331C59.6187 108.359 60.4617 108.315 61.2962 108.199C61.7852 108.116 62.2687 108.003 62.744 107.861C63.3443 107.676 63.9191 107.417 64.455 107.09C65.3305 106.572 66.0612 105.841 66.5797 104.966C66.9971 105.274 67.4371 105.551 67.8959 105.793C68.8304 106.264 69.844 106.557 70.8855 106.658C72.7097 106.837 74.5476 106.498 76.1878 105.68C77.2063 105.24 78.1258 104.599 78.8914 103.795C79.6571 102.992 80.2533 102.043 80.6445 101.005C81.0357 99.9667 81.214 98.8603 81.1686 97.7517C81.1233 96.6431 80.8554 95.555 80.3807 94.5521C80.1938 94.0886 79.9674 93.6421 79.7038 93.2174C79.7113 93.1424 79.7113 93.0669 79.7038 92.9919C79.6606 93.0022 79.6155 93.0022 79.5722 92.9919C79.9768 94.2056 80.029 95.5092 79.7226 96.7514C79.4958 97.8155 79.0313 98.8146 78.3638 99.674C77.6963 100.533 76.8432 101.231 75.8681 101.714C75.2754 101.974 74.6351 102.108 73.9879 102.108C73.3406 102.108 72.7004 101.974 72.1076 101.714C70.7416 101.069 69.6015 100.027 68.836 98.7251C68.6171 98.3205 68.4467 97.8915 68.3283 97.4469C68.0276 96.3199 68.0276 95.1339 68.3283 94.0069C68.8594 92.2054 69.7915 90.5473 71.0547 89.1572C71.4053 88.7628 71.7755 88.3864 72.164 88.0293C73.232 86.9912 74.5161 86.2017 75.9245 85.7172C77.9927 84.9949 80.1963 84.7445 82.3738 84.9841C87.3576 85.731 92.1042 87.6086 96.2501 90.473C99.0362 92.2642 101.711 94.2227 104.26 96.3378C104.486 96.6198 104.692 96.9018 104.937 97.1837C107.772 100.491 111.195 103.244 115.034 105.304C119.113 107.578 123.574 109.087 128.196 109.759C138.374 111.182 148.74 109.305 157.772 104.402C159.752 103.305 161.638 102.048 163.413 100.643C163.449 100.74 163.493 100.834 163.544 100.924C164.901 103.857 167.001 106.385 169.636 108.256C171.929 109.841 174.618 110.759 177.402 110.906C179.733 111.068 182.072 110.735 184.265 109.929C186.075 109.239 187.679 108.101 188.928 106.62C190.527 104.649 191.355 102.164 191.259 99.6274C191.218 98.7859 191.105 97.9494 190.921 97.1273C190.986 97.9782 190.986 98.8329 190.921 99.6838C190.741 102.112 189.669 104.389 187.912 106.075C185.479 107.977 182.458 108.973 179.37 108.89C176.282 108.808 173.319 107.653 170.99 105.624C169.044 103.814 167.594 101.536 166.778 99.0071C166.665 98.6499 166.571 98.274 166.477 97.9168C165.79 95.4736 165.567 92.9232 165.819 90.3978V90.2286C166.047 87.1756 167.261 84.2794 169.279 81.9765C171.822 79.3756 174.899 77.3566 178.297 76.0586C181.696 74.7606 185.335 74.2143 188.965 74.4574C191.019 74.5601 193.061 74.8177 195.076 75.2281C197.16 75.6745 199.204 76.2906 201.187 77.0703C205.251 78.5957 209.023 80.8085 212.337 83.6118C215.736 86.4732 218.508 90.0058 220.478 93.9881C222.471 98.0849 223.475 102.592 223.411 107.146C227.017 105.026 229.67 101.6 230.82 97.5785C231.864 101.472 234.264 104.865 237.589 107.146C237.522 102.589 238.533 98.0805 240.541 93.9881C242.521 90.0017 245.306 86.4687 248.72 83.6118C252.037 80.8124 255.807 78.6001 259.87 77.0703C261.826 76.3299 263.838 75.7454 265.886 75.3221C267.901 74.9128 269.944 74.6552 271.997 74.5514C275.627 74.3058 279.268 74.8509 282.666 76.149C286.065 77.4472 289.142 79.4675 291.683 82.0704C293.703 84.3407 294.936 87.2018 295.199 90.2286C295.192 90.2721 295.192 90.3167 295.199 90.3602C295.434 92.8857 295.211 95.4328 294.541 97.8792C294.429 98.2364 294.353 98.6124 294.222 98.9695C293.406 101.498 291.956 103.776 290.01 105.586C287.683 107.619 284.719 108.776 281.63 108.858C278.541 108.941 275.52 107.943 273.088 106.037C271.319 104.357 270.24 102.079 270.061 99.6462C269.974 98.7962 269.974 97.9397 270.061 97.0898C269.864 97.9096 269.751 98.7472 269.722 99.5898C269.598 102.147 270.429 104.66 272.054 106.639C273.302 108.119 274.907 109.258 276.717 109.947C278.904 110.778 281.243 111.137 283.58 111C286.398 110.865 289.121 109.94 291.439 108.331C294.085 106.466 296.192 103.938 297.55 101C297.586 100.902 297.63 100.808 297.681 100.718C299.452 102.128 301.339 103.385 303.322 104.477C312.348 109.378 322.708 111.256 332.88 109.835C337.5 109.157 341.96 107.648 346.041 105.379C349.88 103.32 353.304 100.566 356.138 97.2589L356.796 96.413C359.345 94.2979 362.02 92.3394 364.806 90.5482C368.954 87.6867 373.7 85.8094 378.683 85.0593C380.86 84.8196 383.064 85.0701 385.132 85.7924C386.537 86.2835 387.82 87.0721 388.892 88.1045C389.275 88.4617 389.639 88.8382 389.983 89.2323C391.266 90.584 392.224 92.2105 392.784 93.9881C393.094 95.1139 393.094 96.3024 392.784 97.4281C392.674 97.8754 392.504 98.3055 392.277 98.7063C391.521 100.016 390.378 101.06 389.005 101.695C388.413 101.957 387.773 102.093 387.125 102.093C386.477 102.093 385.837 101.957 385.245 101.695C384.268 101.212 383.412 100.515 382.742 99.6557C382.071 98.7965 381.603 97.7975 381.371 96.7326C381.075 95.4894 381.127 94.1886 381.522 92.9731H381.39L381.296 93.1986C381.041 93.6277 380.814 94.0736 380.619 94.5333C379.941 96.0404 379.7 97.7079 379.924 99.3455C380.166 100.715 380.738 102.006 381.589 103.106C382.441 104.206 383.547 105.083 384.812 105.661C386.459 106.48 388.303 106.819 390.133 106.639C391.169 106.538 392.176 106.245 393.104 105.774C393.563 105.532 394.003 105.255 394.42 104.947C394.929 105.85 395.66 106.607 396.545 107.146C397.085 107.478 397.667 107.737 398.275 107.917C398.744 108.059 399.221 108.172 399.704 108.256C400.545 108.371 401.394 108.415 402.242 108.387C405.047 108.253 407.825 107.779 410.515 106.977C413.035 106.282 415.404 105.492 417.66 104.665C419.917 103.838 421.91 103.067 423.978 102.485C431.012 100.32 438.408 99.5783 445.732 100.304C448.394 100.601 450.991 101.325 453.423 102.447C455.22 103.271 456.846 104.425 458.217 105.849C459.381 107.046 460.323 108.44 461 109.966C460.919 109.544 460.806 109.13 460.662 108.725ZM97.8671 87.127C93.0896 84.1585 87.6639 82.3913 82.0542 81.9765C79.4665 81.8897 76.8935 82.3978 74.5331 83.4615C72.4951 84.402 70.7243 85.8364 69.3813 87.6345L69.0052 88.0857C67.6465 89.8125 66.7126 91.8343 66.2789 93.9881C66.0341 95.4095 66.177 96.8705 66.6925 98.2176C66.911 98.8064 67.2083 99.3628 67.5762 99.8718C68.1073 100.587 68.7409 101.221 69.4565 101.752C70.1503 102.281 70.9336 102.683 71.7692 102.936C73.5403 103.467 75.4408 103.367 77.1467 102.654C77.6967 102.318 78.2021 101.913 78.6509 101.451C77.9436 102.814 76.7487 103.861 75.3041 104.383C73.8487 104.897 72.2777 104.988 70.7727 104.646C69.9808 104.455 69.2294 104.124 68.554 103.669C68.1048 103.355 67.689 102.996 67.313 102.597L66.6549 101.864C66.3455 101.45 66.0629 101.017 65.8088 100.567C65.5052 100.009 65.2535 99.4236 65.0567 98.8191C64.402 96.8858 64.1649 94.8356 64.361 92.8039C64.431 91.9631 64.5567 91.128 64.737 90.3038C65.2117 88.0923 66.2258 86.0324 67.689 84.3074C68.0665 83.8934 68.4819 83.5158 68.93 83.1795C69.4135 82.8096 69.9156 82.4645 70.4342 82.1456C71.521 81.5197 72.6673 81.0033 73.8563 80.6042C76.4299 79.7734 79.1247 79.3795 81.8285 79.4388C83.2198 79.4537 84.6059 79.6112 85.9651 79.9087C86.6403 80.048 87.306 80.2301 87.9581 80.4538C88.6162 80.6794 89.3119 80.9614 90.0264 81.2621C92.8844 82.484 95.8364 83.969 98.7696 85.548L99.1268 85.7548L99.2397 86.4315C99.3901 87.0518 99.5593 87.6533 99.7473 88.3112C99.1644 87.8601 98.5252 87.4842 97.8671 87.127ZM238.886 45.3211C239.187 44.2872 239.544 43.0842 240.033 41.7495C240.932 39.2273 242.199 36.8518 243.793 34.7004C244.71 33.5143 245.771 32.4471 246.952 31.5236C247.547 31.0581 248.176 30.6371 248.832 30.2642L249.077 30.1138H249.208V30.4522C249.208 30.8281 249.209 31.2041 249.115 31.5612C248.957 32.9495 248.609 34.3095 248.08 35.6027C247.005 37.9153 245.641 40.0819 244.019 42.0503C243.926 42.1521 243.838 42.2588 243.756 42.3698C242.249 43.5444 240.942 44.9534 239.882 46.5429C239.2 47.564 238.626 48.6539 238.171 49.7949C238.53 48.322 238.794 46.8277 238.961 45.3211H238.886ZM211.509 30.0762H211.641L211.904 30.2266C212.558 30.604 213.187 31.0247 213.785 31.486C214.961 32.4145 216.022 33.4811 216.943 34.6628C218.531 36.8186 219.798 39.193 220.704 41.7119C221.174 43.0466 221.55 44.2496 221.832 45.2835C221.914 46.7718 222.09 48.2535 222.359 49.7197C221.89 48.5817 221.31 47.4925 220.629 46.4677C219.605 44.8857 218.336 43.477 216.868 42.2947L216.605 41.9751C214.97 40.0127 213.598 37.8452 212.525 35.5275C211.993 34.2363 211.651 32.875 211.509 31.486C211.49 31.1166 211.49 30.7464 211.509 30.377V30.0762ZM208.219 68.1602C207.088 67.3049 206.025 66.3621 205.041 65.3405C205.741 66.6106 206.566 67.8072 207.505 68.9121C208.206 69.7163 208.987 70.4469 209.836 71.0926C203.446 68.1855 196.492 66.7283 189.473 66.8256C190.004 65.303 190.865 63.916 191.992 62.7628C193.12 61.6096 194.487 60.7184 195.997 60.1524L197.37 59.7389L197.99 59.5885L199.213 59.3253C200.854 59.0239 202.511 58.8167 204.176 58.705C205.779 58.6022 207.387 58.6022 208.99 58.705C210.348 58.7469 211.695 58.9681 212.995 59.3629C214.131 59.724 215.181 60.3139 216.08 61.0963C216.979 61.8787 217.708 62.8369 218.222 63.9119C218.608 64.742 218.742 65.6674 218.606 66.5727C218.469 67.4781 218.07 68.3233 217.456 69.0029C216.842 69.6825 216.042 70.1665 215.155 70.3943C214.268 70.6222 213.334 70.584 212.468 70.2843C210.929 69.8539 209.487 69.1328 208.219 68.1602ZM243.211 75.6792L241.612 76.9011C241.612 76.4687 241.612 76.0176 241.462 75.5853C241.014 72.9501 239.879 70.4796 238.171 68.4234C236.661 66.659 234.717 65.318 232.531 64.5323C232.531 64.5323 232.888 65.0774 233.414 66.0549C234.144 67.3374 234.707 68.7083 235.088 70.1339C235.583 72.047 235.736 74.0325 235.539 75.9988C235.291 78.4372 234.845 80.8514 234.204 83.2171C234.035 83.8562 233.866 84.4765 233.715 85.0969C232.873 86.2374 232.095 87.4234 231.384 88.6496C230.996 89.3265 230.705 90.054 230.519 90.8113C230.27 90.0584 229.942 89.3338 229.541 88.6496C228.836 87.4237 228.064 86.2376 227.228 85.0969C227.059 84.4577 226.89 83.8374 226.739 83.2171C226.084 80.8537 225.631 78.4389 225.386 75.9988C225.198 74.0324 225.351 72.0485 225.837 70.1339C226.226 68.7111 226.788 67.3412 227.51 66.0549C228.037 65.0774 228.394 64.5323 228.394 64.5323C227.834 64.7422 227.288 64.987 226.758 65.2654C225.244 66.051 223.896 67.1235 222.791 68.4234C221.084 70.4778 219.954 72.9498 219.519 75.5853C219.519 76.0176 219.407 76.4687 219.35 76.9011C218.824 76.4875 218.297 76.074 217.752 75.6792C216.319 74.6433 214.825 73.6954 213.277 72.8408C213.892 72.9992 214.522 73.0875 215.157 73.104C216.653 73.1214 218.118 72.6748 219.35 71.8257C220.756 70.7781 221.817 69.3344 222.396 67.6798C222.976 66.0253 223.048 64.2354 222.603 62.5397C222.158 60.6942 221.259 58.9886 219.989 57.5771C218.686 56.1593 217.139 54.9877 215.42 54.1184C213.596 53.2679 211.647 52.7157 209.648 52.483C207.779 52.2253 205.894 52.1059 204.007 52.1258C202.03 52.12 200.056 52.2708 198.103 52.577L196.58 52.8401L195.828 53.0093L196.054 52.5394C197.77 49.2107 200.656 46.6333 204.158 45.3023C204.817 45.0476 205.496 44.8464 206.188 44.7008C206.857 44.5508 207.536 44.4503 208.219 44.4C209.488 44.3313 210.759 44.4775 211.98 44.8323C214.317 45.5564 216.428 46.8707 218.109 48.6483C220.718 51.5471 222.378 55.1744 222.866 59.0433C223.084 60.5246 223.191 62.02 223.186 63.5172C223.586 62.0413 223.844 60.5307 223.957 59.0057C224.045 57.5051 223.975 55.9994 223.75 54.5131C224.477 56.6424 225.592 58.6183 227.04 60.3404C227.5 60.8585 228.003 61.3364 228.545 61.769C228.883 62.1637 229.071 62.3517 229.052 62.3517C229.033 62.3517 229.052 62.3517 229.052 62.0886C229.315 62.2577 229.466 62.3329 229.447 62.3517C229.428 62.3705 229.165 61.9758 228.77 61.2615C227.793 58.1629 227.262 54.9415 227.191 51.6935C227.07 47.9067 227.411 44.1192 228.206 40.4149C228.641 38.3243 229.27 36.279 230.086 34.3057C230.35 33.7229 230.462 33.4598 230.519 33.3658C230.681 33.6707 230.825 33.9845 230.951 34.3057C231.767 36.279 232.397 38.3243 232.832 40.4149C233.627 44.1192 233.968 47.9067 233.847 51.6935C233.776 54.9415 233.244 58.1629 232.267 61.2615C231.873 61.9758 231.572 62.3517 231.591 62.3517L231.985 62.0886V62.3517C231.985 62.3517 232.173 62.1637 232.493 61.769C233.038 61.3413 233.542 60.863 233.997 60.3404C235.452 58.6198 236.574 56.6438 237.307 54.5131C237.085 56.0315 237.034 57.5701 237.156 59.0997C237.269 60.6246 237.527 62.1353 237.927 63.6112C237.922 62.114 238.029 60.6186 238.247 59.1373C238.744 55.271 240.403 51.6464 243.004 48.7422C244.692 46.929 246.824 45.5878 249.19 44.8511C250.41 44.4963 251.681 44.3501 252.95 44.4188C253.634 44.4691 254.312 44.5696 254.981 44.7196C255.673 44.8627 256.353 45.0639 257.012 45.3211C259.795 46.3493 262.206 48.1895 263.931 50.6032C264.373 51.1988 264.769 51.8272 265.115 52.483L265.341 52.9529L264.589 52.7837L263.066 52.5206C261.119 52.2151 259.151 52.0642 257.181 52.0694C255.294 52.0489 253.409 52.1683 251.54 52.4266C249.54 52.6567 247.591 53.209 245.768 54.062C244.043 54.9215 242.494 56.0944 241.199 57.5207C239.897 58.9331 238.978 60.6541 238.529 62.5209C238.083 64.2183 238.157 66.0103 238.74 67.6656C239.323 69.3208 240.389 70.7634 241.8 71.8069C243.03 72.6606 244.496 73.1076 245.993 73.0852C246.628 73.0689 247.259 72.9806 247.874 72.822C246.263 73.6927 244.705 74.6594 243.211 75.7168V75.6792ZM251.183 71.055C252.022 70.4044 252.797 69.6742 253.495 68.8745C254.443 67.776 255.268 66.5785 255.959 65.303C254.979 66.3221 253.923 67.2647 252.8 68.1226C251.544 69.0814 250.123 69.8014 248.607 70.2467C247.731 70.578 246.775 70.638 245.865 70.4187C244.954 70.1994 244.131 69.7111 243.502 69.0173C242.873 68.3236 242.467 67.4566 242.338 66.5292C242.209 65.6018 242.362 64.657 242.778 63.8179C243.293 62.7413 244.022 61.781 244.921 60.9956C245.82 60.2103 246.869 59.6163 248.005 59.2501C249.306 58.857 250.652 58.6359 252.01 58.5922C253.619 58.4893 255.233 58.4893 256.842 58.5922C258.507 58.7051 260.165 58.9122 261.806 59.2125L263.01 59.4757L263.649 59.6261L265.003 60.0396C266.52 60.6073 267.894 61.5032 269.025 62.6633C270.156 63.8234 271.017 65.219 271.546 66.7504C264.521 66.6749 257.566 68.1579 251.183 71.0926V71.055ZM395.962 98.7815C395.751 99.3834 395.493 99.9679 395.191 100.53C394.931 101.028 394.622 101.501 394.27 101.94L393.612 102.673C393.236 103.071 392.82 103.43 392.371 103.744C391.697 104.203 390.945 104.534 390.152 104.722C388.647 105.063 387.076 104.972 385.621 104.458C384.173 103.932 382.977 102.878 382.274 101.507C382.723 101.97 383.228 102.374 383.778 102.71C385.491 103.423 387.397 103.523 389.174 102.992C390.007 102.731 390.789 102.331 391.487 101.808C392.2 101.274 392.833 100.641 393.367 99.9282C393.741 99.4199 394.045 98.8635 394.27 98.274C394.779 96.9252 394.915 95.4642 394.665 94.0445C394.279 91.8723 393.369 89.827 392.014 88.0857L391.638 87.6345C390.299 85.8319 388.527 84.3965 386.486 83.4615C384.125 82.3978 381.552 81.8897 378.965 81.9765C373.356 82.3942 367.93 84.1612 363.152 87.127L361.271 88.2549C361.459 87.6533 361.648 87.0518 361.779 86.3751C361.779 86.1495 361.779 85.924 361.911 85.6984L362.249 85.4916C365.201 83.9126 368.153 82.4276 370.992 81.2057C371.707 80.905 372.403 80.623 373.079 80.3974C373.725 80.1738 374.385 79.9917 375.054 79.8523C376.413 79.5548 377.799 79.3973 379.19 79.3824C381.894 79.3231 384.589 79.717 387.163 80.5478C388.352 80.9469 389.498 81.4633 390.585 82.0892C391.106 82.4036 391.608 82.7489 392.089 83.1231C392.537 83.4594 392.952 83.837 393.33 84.251C394.813 85.9702 395.847 88.0305 396.338 90.2474C396.537 91.0681 396.663 91.9047 396.714 92.7475C396.891 94.8017 396.635 96.8701 395.962 98.8191V98.7815Z" fill="url(#paint15_linear_106_186)"/>
<path d="M79.7979 93.443C79.9687 93.834 80.1131 94.2359 80.2303 94.6461C80.0799 94.2137 79.9107 93.7438 79.7979 93.443Z" fill="url(#paint16_linear_106_186)"/>
<path d="M380.77 94.6461C380.891 94.2348 381.042 93.8327 381.221 93.443C381.108 93.7438 380.92 94.2137 380.751 94.7213C380.751 94.7025 380.77 94.6837 380.77 94.6461Z" fill="url(#paint17_linear_106_186)"/>
<path d="M286.287 58.2727C286.133 59.8315 285.837 61.373 285.403 62.8781C285.15 63.9545 284.64 64.954 283.918 65.7917C283.621 66.0908 283.286 66.3499 282.921 66.5624C283.381 66.6464 283.853 66.6464 284.313 66.5624C285.667 66.2977 286.915 65.6445 287.904 64.6827C289.336 63.3378 290.515 61.7459 291.383 59.9833L291.759 59.2501C291.871 58.9494 291.965 58.8366 292.135 58.3291C292.454 57.4268 292.736 56.4493 293 55.4906C293.507 53.4981 293.827 51.4491 294.203 49.2498C292.924 49.2498 291.533 49.1182 290.198 49.0806C287.828 49.0955 285.489 49.6145 283.335 50.6032C282.088 51.2039 280.92 51.9551 279.857 52.8402C278.022 54.3388 276.598 56.2794 275.72 58.4794C275.129 59.9183 274.928 61.4873 275.137 63.0285C275.195 63.5665 275.335 64.0926 275.551 64.5887C276.197 62.9528 277.26 61.5143 278.634 60.4156C279.968 59.3524 281.45 58.491 283.034 57.8591C283.934 57.4747 284.857 57.1482 285.798 56.8816V57.0132C285.843 56.9848 285.895 56.9698 285.949 56.9698C286.002 56.9698 286.054 56.9848 286.099 57.0132C286.169 57.0623 286.227 57.1265 286.268 57.2012C286.291 57.3822 286.291 57.5654 286.268 57.7463L286.287 58.2727Z" fill="url(#paint18_linear_106_186)"/>
<path d="M297.587 70.8483H297.493H297.287L296.422 71.055C295.897 71.1757 295.362 71.2449 294.823 71.2618C293.643 71.3027 292.466 71.1045 291.364 70.6791C291.495 71.0075 291.645 71.3276 291.815 71.6378C292.35 72.5307 293.075 73.2945 293.94 73.8747C294.554 74.3085 295.224 74.6563 295.933 74.9085C296.326 75.0589 296.728 75.1845 297.136 75.2845H297.456H297.907C298.226 75.3039 298.547 75.3039 298.866 75.2845C300.295 75.3545 301.727 75.2599 303.134 75.0025C304.601 74.7582 306.143 74.401 307.816 74.0063C307.741 73.6303 307.628 73.198 307.477 72.7092L307.064 71.3558C306.821 70.4004 306.461 69.4786 305.992 68.6113C305.013 66.8179 303.613 65.289 301.912 64.1563L301.31 63.7428L300.84 63.9119L299.956 63.4984C299.38 63.2508 298.782 63.0558 298.17 62.9157C296.104 62.391 293.932 62.4693 291.909 63.1412C290.628 63.5839 289.46 64.3026 288.487 65.2466C288.143 65.572 287.84 65.9381 287.584 66.3368C289.124 66.1384 290.687 66.2341 292.191 66.6188C293.53 67.005 294.8 67.6014 295.952 68.3858L296.854 69.0625L297.305 69.4196L297.512 69.6076C297.512 69.7204 297.512 69.7204 297.512 69.7392C297.512 69.758 297.644 69.7392 297.813 69.8708C297.982 70.0024 298.114 70.3595 297.813 70.7355L297.587 70.8483Z" fill="url(#paint19_linear_106_186)"/>
<path d="M277.6 43.9489C277.668 42.4481 277.598 40.9444 277.393 39.4562C277.147 37.6932 276.607 35.984 275.795 34.3997C274.355 31.606 272.381 29.1217 269.985 27.0874C267.951 25.3126 265.477 24.1179 262.822 23.6286C261.065 23.3339 259.262 23.509 257.594 24.1362C257.029 24.3691 256.482 24.6456 255.959 24.9633C255.959 24.9633 256.617 24.9633 257.688 25.2264C259.1 25.5176 260.437 26.0932 261.618 26.9182C264.476 28.798 267.109 32.8207 269.59 37.6141C270.602 39.763 271.317 42.0396 271.715 44.3812L273.012 51.0356C273.401 53.2044 273.973 55.3363 274.724 57.408C274.724 57.408 275.532 55.0019 276.51 51.092C277.092 48.7494 277.457 46.3583 277.6 43.9489Z" fill="url(#paint20_linear_106_186)"/>
<path d="M271.997 19.1548C274.028 22.3692 276.284 25.5648 277.995 28.9859C278.827 30.6201 279.513 32.3248 280.045 34.0801C280.302 34.9143 280.515 35.7613 280.684 36.6178C280.853 37.4637 281.004 38.3284 281.079 39.0615C281.296 41.9827 280.865 44.9159 279.819 47.652C278.802 50.468 277.369 53.1163 275.57 55.5094C276.334 55.1507 277.064 54.7229 277.751 54.2312C279.705 52.8924 281.432 51.2487 282.865 49.3626C285.174 46.4046 286.595 42.8519 286.964 39.1179C287.039 38.0289 287.039 36.9361 286.964 35.8471C286.724 32.3678 285.784 28.9728 284.2 25.8655C282.176 22.1153 279.646 18.6617 276.679 15.602C274.503 13.4423 272.608 11.0171 271.038 8.38374C270.098 6.55107 269.67 4.49919 269.797 2.44369C269.846 1.62258 269.953 0.805959 270.117 0C269.586 0.671398 269.126 1.39582 268.744 2.16173C267.631 4.40027 267.262 6.93591 267.691 9.39882C268.459 12.9063 269.923 16.2239 271.997 19.1548Z" fill="url(#paint21_linear_106_186)"/>
<path d="M285.497 47.1257C284.959 47.8355 284.463 48.5761 284.012 49.3438C284.012 49.3438 284.802 48.7798 286.231 47.934C288.185 46.767 290.267 45.8273 292.435 45.1331C295.405 44.1685 298.544 43.8418 301.649 44.1744C303.26 44.2937 304.828 44.7542 306.248 45.5256C307.668 46.2969 308.907 47.3614 309.884 48.6483C310.091 48.9678 310.26 49.2686 310.486 49.7009C310.712 50.1333 310.918 50.5468 311.088 50.9604C311.426 51.7016 311.684 52.4767 311.858 53.2725C312.176 54.4209 312.035 55.6478 311.464 56.6936C310.793 57.6869 309.772 58.3914 308.606 58.6674C307.491 58.9818 306.304 58.9291 305.221 58.517C304.762 58.3197 304.35 58.0288 304.01 57.6631C303.67 57.2973 303.41 56.8647 303.247 56.3929C302.951 55.5293 302.83 54.6157 302.89 53.7048C302.948 52.8429 303.08 51.9876 303.285 51.1483C302.715 51.8544 302.229 52.624 301.837 53.4417C301.339 54.4742 301.076 55.604 301.066 56.75C301.077 57.6183 301.272 58.4742 301.639 59.2615C302.005 60.0489 302.534 60.7497 303.191 61.3179C304.84 62.6919 306.929 63.4259 309.076 63.3856C310.344 63.377 311.597 63.1186 312.765 62.6251C313.933 62.1316 314.992 61.4127 315.882 60.5096C316.894 59.4481 317.636 58.1586 318.044 56.75C318.442 55.3456 318.564 53.8773 318.402 52.4266C318.245 51.0684 317.917 49.7356 317.424 48.4603C317.198 47.84 316.916 47.2384 316.653 46.6745C316.338 46.0246 315.98 45.3966 315.581 44.7947C313.962 42.4274 311.67 40.6004 309 39.5502C306.694 38.6392 304.22 38.2291 301.743 38.3472C297.819 38.5737 294.034 39.8743 290.8 42.1067C288.771 43.4808 286.98 45.176 285.497 47.1257Z" fill="url(#paint22_linear_106_186)"/>
<path d="M337.693 68.9685C337.001 69.0485 336.363 69.38 335.9 69.8999C335.436 70.4198 335.18 71.0918 335.18 71.7882C335.18 72.4845 335.436 73.1565 335.9 73.6764C336.363 74.1963 337.001 74.5278 337.693 74.6078C338.385 74.5278 339.023 74.1963 339.487 73.6764C339.95 73.1565 340.206 72.4845 340.206 71.7882C340.206 71.0918 339.95 70.4198 339.487 69.8999C339.023 69.38 338.385 69.0485 337.693 68.9685Z" fill="url(#paint23_linear_106_186)"/>
<path d="M229.804 72.5588C229.056 72.5588 228.339 72.8559 227.81 73.3847C227.281 73.9135 226.984 74.6307 226.984 75.3785C226.984 76.1263 227.281 76.8435 227.81 77.3723C228.339 77.9011 229.056 78.1981 229.804 78.1981C230.552 78.1981 231.27 77.9011 231.799 77.3723C232.328 76.8435 232.625 76.1263 232.625 75.3785C232.625 74.6307 232.328 73.9135 231.799 73.3847C231.27 72.8559 230.552 72.5588 229.804 72.5588Z" fill="url(#paint24_linear_106_186)"/>
<path d="M247.516 62.0322C246.768 62.0322 246.051 62.3292 245.522 62.858C244.993 63.3868 244.696 64.104 244.696 64.8518C244.696 65.5996 244.993 66.3168 245.522 66.8456C246.051 67.3744 246.768 67.6715 247.516 67.6715C248.264 67.6715 248.982 67.3744 249.511 66.8456C250.039 66.3168 250.337 65.5996 250.337 64.8518C250.337 64.104 250.039 63.3868 249.511 62.858C248.982 62.3292 248.264 62.0322 247.516 62.0322Z" fill="url(#paint25_linear_106_186)"/>
<path d="M386.448 93.255H386.072C385.38 93.335 384.742 93.6665 384.278 94.1864C383.815 94.7063 383.559 95.3783 383.559 96.0747C383.559 96.771 383.815 97.443 384.278 97.9629C384.742 98.4828 385.38 98.8143 386.072 98.8943H386.448C386.846 98.9403 387.249 98.9017 387.63 98.781C388.012 98.6603 388.364 98.4602 388.663 98.1939C388.962 97.9277 389.201 97.6012 389.365 97.2359C389.529 96.8707 389.613 96.4749 389.613 96.0747C389.613 95.6744 389.529 95.2787 389.365 94.9134C389.201 94.5482 388.962 94.2217 388.663 93.9554C388.364 93.6891 388.012 93.4891 387.63 93.3684C387.249 93.2477 386.846 93.209 386.448 93.255Z" fill="url(#paint26_linear_106_186)"/>
<path d="M307.101 51.2799H306.819C306.127 51.3599 305.489 51.6914 305.026 52.2113C304.562 52.7312 304.306 53.4033 304.306 54.0996C304.306 54.7959 304.562 55.4679 305.026 55.9878C305.489 56.5077 306.127 56.8392 306.819 56.9192H307.101C307.793 56.8392 308.432 56.5077 308.895 55.9878C309.358 55.4679 309.614 54.7959 309.614 54.0996C309.614 53.4033 309.358 52.7312 308.895 52.2113C308.432 51.6914 307.793 51.3599 307.101 51.2799Z" fill="url(#paint27_linear_106_186)"/>
<path d="M365.276 61.1675C364.753 61.1675 364.251 61.3754 363.88 61.7456C363.51 62.1157 363.302 62.6178 363.302 63.1412C363.302 63.6647 363.51 64.1667 363.88 64.5369C364.251 64.907 364.753 65.115 365.276 65.115C365.8 65.115 366.302 64.907 366.672 64.5369C367.043 64.1667 367.251 63.6647 367.251 63.1412C367.251 62.6178 367.043 62.1157 366.672 61.7456C366.302 61.3754 365.8 61.1675 365.276 61.1675Z" fill="url(#paint28_linear_106_186)"/>
<path d="M349.464 51.2799C348.971 51.328 348.513 51.5576 348.181 51.9242C347.848 52.2908 347.664 52.7681 347.664 53.2631C347.664 53.7581 347.848 54.2353 348.181 54.6019C348.513 54.9685 348.971 55.1982 349.464 55.2462C349.956 55.1982 350.414 54.9685 350.746 54.6019C351.079 54.2353 351.263 53.7581 351.263 53.2631C351.263 52.7681 351.079 52.2908 350.746 51.9242C350.414 51.5576 349.956 51.328 349.464 51.2799Z" fill="url(#paint29_linear_106_186)"/>
<path d="M331.112 54.3815C330.619 54.4296 330.162 54.6592 329.83 55.0258C329.497 55.3924 329.313 55.8697 329.313 56.3647C329.313 56.8597 329.497 57.3369 329.83 57.7035C330.162 58.0701 330.619 58.2998 331.112 58.3478C331.605 58.2998 332.062 58.0701 332.395 57.7035C332.728 57.3369 332.912 56.8597 332.912 56.3647C332.912 55.8697 332.728 55.3924 332.395 55.0258C332.062 54.6592 331.605 54.4296 331.112 54.3815Z" fill="url(#paint30_linear_106_186)"/>
<path d="M324.325 67.0887C323.801 67.0985 323.301 67.3122 322.933 67.6843C322.564 68.0564 322.355 68.5576 322.35 69.0813V69.3633C322.35 69.8867 322.558 70.3888 322.929 70.7589C323.299 71.1291 323.801 71.337 324.325 71.337C324.848 71.337 325.35 71.1291 325.721 70.7589C326.091 70.3888 326.299 69.8867 326.299 69.3633V69.0813C326.294 68.5576 326.085 68.0564 325.716 67.6843C325.348 67.3122 324.848 67.0985 324.325 67.0887Z" fill="url(#paint31_linear_106_186)"/>
<path d="M334.497 77.5402C333.973 77.5402 333.471 77.7482 333.101 78.1183C332.73 78.4885 332.522 78.9905 332.522 79.514C332.522 80.0374 332.73 80.5395 333.101 80.9096C333.471 81.2798 333.973 81.4877 334.497 81.4877C335.02 81.4877 335.522 81.2798 335.893 80.9096C336.263 80.5395 336.471 80.0374 336.471 79.514C336.471 78.9905 336.263 78.4885 335.893 78.1183C335.522 77.7482 335.02 77.5402 334.497 77.5402Z" fill="url(#paint32_linear_106_186)"/>
<path d="M281.116 60.8855C280.593 60.8855 280.091 61.0935 279.72 61.4636C279.35 61.8338 279.142 62.3358 279.142 62.8593C279.142 63.3827 279.35 63.8848 279.72 64.2549C280.091 64.6251 280.593 64.833 281.116 64.833C281.64 64.833 282.142 64.6251 282.512 64.2549C282.883 63.8848 283.091 63.3827 283.091 62.8593C283.091 62.3358 282.883 61.8338 282.512 61.4636C282.142 61.0935 281.64 60.8855 281.116 60.8855Z" fill="url(#paint33_linear_106_186)"/>
<path d="M292.699 33.8357C292.175 33.8357 291.673 34.0437 291.303 34.4138C290.932 34.784 290.724 35.286 290.724 35.8095C290.724 36.3329 290.932 36.835 291.303 37.2051C291.673 37.5753 292.175 37.7832 292.699 37.7832C293.222 37.7832 293.724 37.5753 294.095 37.2051C294.465 36.835 294.673 36.3329 294.673 35.8095C294.673 35.286 294.465 34.784 294.095 34.4138C293.724 34.0437 293.222 33.8357 292.699 33.8357Z" fill="url(#paint34_linear_106_186)"/>
<path d="M123.532 68.9685C124.224 69.0485 124.863 69.38 125.326 69.8999C125.789 70.4198 126.045 71.0918 126.045 71.7882C126.045 72.4845 125.789 73.1565 125.326 73.6764C124.863 74.1963 124.224 74.5278 123.532 74.6078C122.841 74.5278 122.202 74.1963 121.739 73.6764C121.276 73.1565 121.02 72.4845 121.02 71.7882C121.02 71.0918 121.276 70.4198 121.739 69.8999C122.202 69.38 122.841 69.0485 123.532 68.9685Z" fill="url(#paint35_linear_106_186)"/>
<path d="M213.709 62.0322C214.457 62.0322 215.175 62.3292 215.704 62.858C216.233 63.3868 216.53 64.104 216.53 64.8518C216.53 65.5996 216.233 66.3168 215.704 66.8456C215.175 67.3744 214.457 67.6715 213.709 67.6715C212.961 67.6715 212.244 67.3744 211.715 66.8456C211.186 66.3168 210.889 65.5996 210.889 64.8518C210.889 64.104 211.186 63.3868 211.715 62.858C212.244 62.3292 212.961 62.0322 213.709 62.0322Z" fill="url(#paint36_linear_106_186)"/>
<path d="M74.7776 93.255H75.2101C75.902 93.335 76.5403 93.6665 77.0036 94.1864C77.467 94.7063 77.723 95.3783 77.723 96.0747C77.723 96.771 77.467 97.443 77.0036 97.9629C76.5403 98.4828 75.902 98.8143 75.2101 98.8943H74.834C74.4363 98.9403 74.0333 98.9017 73.6516 98.781C73.2699 98.6603 72.918 98.4602 72.619 98.1939C72.3201 97.9277 72.0809 97.6012 71.9171 97.2359C71.7533 96.8707 71.6686 96.4749 71.6686 96.0747C71.6686 95.6744 71.7533 95.2787 71.9171 94.9134C72.0809 94.5482 72.3201 94.2217 72.619 93.9554C72.918 93.6891 73.2699 93.4891 73.6516 93.3684C74.0333 93.2477 74.4363 93.209 74.834 93.255H74.7776Z" fill="url(#paint37_linear_106_186)"/>
<path d="M154.181 51.2799H154.463C155.155 51.3599 155.793 51.6914 156.256 52.2113C156.72 52.7312 156.976 53.4033 156.976 54.0996C156.976 54.7959 156.72 55.4679 156.256 55.9878C155.793 56.5077 155.155 56.8392 154.463 56.9192H154.181C153.489 56.8392 152.85 56.5077 152.387 55.9878C151.924 55.4679 151.668 54.7959 151.668 54.0996C151.668 53.4033 151.924 52.7312 152.387 52.2113C152.85 51.6914 153.489 51.3599 154.181 51.2799Z" fill="url(#paint38_linear_106_186)"/>
<path d="M95.8928 61.1675C96.4164 61.1675 96.9186 61.3754 97.2888 61.7456C97.6591 62.1157 97.8671 62.6178 97.8671 63.1412C97.8671 63.6647 97.6591 64.1667 97.2888 64.5369C96.9186 64.907 96.4164 65.115 95.8928 65.115C95.3692 65.115 94.867 64.907 94.4968 64.5369C94.1265 64.1667 93.9185 63.6647 93.9185 63.1412C93.9185 62.6178 94.1265 62.1157 94.4968 61.7456C94.867 61.3754 95.3692 61.1675 95.8928 61.1675Z" fill="url(#paint39_linear_106_186)"/>
<path d="M111.762 51.2799C112.255 51.328 112.712 51.5576 113.045 51.9242C113.378 52.2908 113.562 52.7681 113.562 53.2631C113.562 53.7581 113.378 54.2353 113.045 54.6019C112.712 54.9685 112.255 55.1982 111.762 55.2462C111.269 55.1982 110.812 54.9685 110.479 54.6019C110.147 54.2353 109.962 53.7581 109.962 53.2631C109.962 52.7681 110.147 52.2908 110.479 51.9242C110.812 51.5576 111.269 51.328 111.762 51.2799Z" fill="url(#paint40_linear_106_186)"/>
<path d="M130.113 54.3815C130.606 54.4296 131.063 54.6592 131.396 55.0258C131.729 55.3924 131.913 55.8697 131.913 56.3647C131.913 56.8597 131.729 57.3369 131.396 57.7035C131.063 58.0701 130.606 58.2998 130.113 58.3478C129.621 58.2998 129.163 58.0701 128.831 57.7035C128.498 57.3369 128.314 56.8597 128.314 56.3647C128.314 55.8697 128.498 55.3924 128.831 55.0258C129.163 54.6592 129.621 54.4296 130.113 54.3815Z" fill="url(#paint41_linear_106_186)"/>
<path d="M136.901 67.0887C137.408 67.122 137.884 67.3459 138.233 67.7156C138.582 68.0852 138.778 68.5731 138.781 69.0813V69.3633C138.781 69.8867 138.573 70.3888 138.203 70.7589C137.833 71.1291 137.331 71.337 136.807 71.337C136.283 71.337 135.781 71.1291 135.411 70.7589C135.041 70.3888 134.833 69.8867 134.833 69.3633V69.0813C134.835 68.8139 134.891 68.5497 134.997 68.3041C135.102 68.0586 135.256 67.8365 135.449 67.651C135.641 67.4654 135.869 67.3202 136.118 67.2236C136.368 67.1271 136.634 67.0812 136.901 67.0887Z" fill="url(#paint42_linear_106_186)"/>
<path d="M126.729 77.5402C127.253 77.5402 127.755 77.7482 128.125 78.1183C128.495 78.4885 128.703 78.9905 128.703 79.514C128.703 80.0374 128.495 80.5395 128.125 80.9096C127.755 81.2798 127.253 81.4877 126.729 81.4877C126.205 81.4877 125.703 81.2798 125.333 80.9096C124.963 80.5395 124.755 80.0374 124.755 79.514C124.755 78.9905 124.963 78.4885 125.333 78.1183C125.703 77.7482 126.205 77.5402 126.729 77.5402Z" fill="url(#paint43_linear_106_186)"/>
<path d="M180.109 60.8855C180.633 60.8855 181.135 61.0935 181.505 61.4636C181.876 61.8338 182.084 62.3358 182.084 62.8593C182.084 63.3827 181.876 63.8848 181.505 64.2549C181.135 64.6251 180.633 64.833 180.109 64.833C179.586 64.833 179.084 64.6251 178.713 64.2549C178.343 63.8848 178.135 63.3827 178.135 62.8593C178.135 62.3358 178.343 61.8338 178.713 61.4636C179.084 61.0935 179.586 60.8855 180.109 60.8855Z" fill="url(#paint44_linear_106_186)"/>
<path d="M168.527 33.8357C169.051 33.8357 169.553 34.0437 169.923 34.4138C170.293 34.784 170.501 35.286 170.501 35.8095C170.501 36.3329 170.293 36.835 169.923 37.2051C169.553 37.5753 169.051 37.7832 168.527 37.7832C168.003 37.7832 167.501 37.5753 167.131 37.2051C166.761 36.835 166.553 36.3329 166.553 35.8095C166.553 35.286 166.761 34.784 167.131 34.4138C167.501 34.0437 168.003 33.8357 168.527 33.8357Z" fill="url(#paint45_linear_106_186)"/>
<defs>
<linearGradient id="paint0_linear_106_186" x1="131.424" y1="44.4734" x2="131.424" y2="62.3951" gradientUnits="userSpaceOnUse">
<stop stop-color="#B38A3B"/>
<stop offset="0.526042" stop-color="#F4CF87" stop-opacity="0.851744"/>
<stop offset="0.895833" stop-color="#E2AB40" stop-opacity="0.734375"/>
<stop offset="1" stop-color="#C1850F"/>
</linearGradient>
<linearGradient id="paint1_linear_106_186" x1="141.038" y1="61.1809" x2="141.038" y2="77.6864" gradientUnits="userSpaceOnUse">
<stop stop-color="#B38A3B"/>
<stop offset="0.526042" stop-color="#F4CF87" stop-opacity="0.851744"/>
<stop offset="0.895833" stop-color="#E2AB40" stop-opacity="0.734375"/>
<stop offset="1" stop-color="#C1850F"/>
</linearGradient>
<linearGradient id="paint2_linear_106_186" x1="127.582" y1="76.6191" x2="127.582" y2="94.0633" gradientUnits="userSpaceOnUse">
<stop stop-color="#B38A3B"/>
<stop offset="0.526042" stop-color="#F4CF87" stop-opacity="0.851744"/>
<stop offset="0.895833" stop-color="#E2AB40" stop-opacity="0.734375"/>
<stop offset="1" stop-color="#C1850F"/>
</linearGradient>
<linearGradient id="paint3_linear_106_186" x1="166.804" y1="20.9969" x2="166.804" y2="38.4975" gradientUnits="userSpaceOnUse">
<stop stop-color="#B38A3B"/>
<stop offset="0.526042" stop-color="#F4CF87" stop-opacity="0.851744"/>
<stop offset="0.895833" stop-color="#E2AB40" stop-opacity="0.734375"/>
<stop offset="1" stop-color="#C1850F"/>
</linearGradient>
<linearGradient id="paint4_linear_106_186" x1="90.5112" y1="49.7385" x2="90.5112" y2="71.063" gradientUnits="userSpaceOnUse">
<stop stop-color="#B38A3B"/>
<stop offset="0.526042" stop-color="#F4CF87" stop-opacity="0.851744"/>
<stop offset="0.895833" stop-color="#E2AB40" stop-opacity="0.734375"/>
<stop offset="1" stop-color="#C1850F"/>
</linearGradient>
<linearGradient id="paint5_linear_106_186" x1="176.374" y1="49.0618" x2="176.374" y2="66.6066" gradientUnits="userSpaceOnUse">
<stop stop-color="#B38A3B"/>
<stop offset="0.526042" stop-color="#F4CF87" stop-opacity="0.851744"/>
<stop offset="0.895833" stop-color="#E2AB40" stop-opacity="0.734375"/>
<stop offset="1" stop-color="#C1850F"/>
</linearGradient>
<linearGradient id="paint6_linear_106_186" x1="163.196" y1="62.4973" x2="163.196" y2="75.6449" gradientUnits="userSpaceOnUse">
<stop stop-color="#B38A3B"/>
<stop offset="0.526042" stop-color="#F4CF87" stop-opacity="0.851744"/>
<stop offset="0.895833" stop-color="#E2AB40" stop-opacity="0.734375"/>
<stop offset="1" stop-color="#C1850F"/>
</linearGradient>
<linearGradient id="paint7_linear_106_186" x1="194.215" y1="23.4705" x2="194.215" y2="57.4267" gradientUnits="userSpaceOnUse">
<stop stop-color="#B38A3B"/>
<stop offset="0.526042" stop-color="#F4CF87" stop-opacity="0.851744"/>
<stop offset="0.895833" stop-color="#E2AB40" stop-opacity="0.734375"/>
<stop offset="1" stop-color="#C1850F"/>
</linearGradient>
<linearGradient id="paint8_linear_106_186" x1="183.722" y1="0" x2="183.722" y2="55.5094" gradientUnits="userSpaceOnUse">
<stop stop-color="#B38A3B"/>
<stop offset="0.526042" stop-color="#F4CF87" stop-opacity="0.851744"/>
<stop offset="0.895833" stop-color="#E2AB40" stop-opacity="0.734375"/>
<stop offset="1" stop-color="#C1850F"/>
</linearGradient>
<linearGradient id="paint9_linear_106_186" x1="159.765" y1="38.2321" x2="159.765" y2="63.425" gradientUnits="userSpaceOnUse">
<stop stop-color="#B38A3B"/>
<stop offset="0.526042" stop-color="#F4CF87" stop-opacity="0.851744"/>
<stop offset="0.895833" stop-color="#E2AB40" stop-opacity="0.734375"/>
<stop offset="1" stop-color="#C1850F"/>
</linearGradient>
<linearGradient id="paint10_linear_106_186" x1="329.53" y1="44.586" x2="329.53" y2="62.4705" gradientUnits="userSpaceOnUse">
<stop stop-color="#B38A3B"/>
<stop offset="0.526042" stop-color="#F4CF87" stop-opacity="0.851744"/>
<stop offset="0.895833" stop-color="#E2AB40" stop-opacity="0.734375"/>
<stop offset="1" stop-color="#C1850F"/>
</linearGradient>
<linearGradient id="paint11_linear_106_186" x1="319.915" y1="61.1809" x2="319.915" y2="77.5426" gradientUnits="userSpaceOnUse">
<stop stop-color="#B38A3B"/>
<stop offset="0.526042" stop-color="#F4CF87" stop-opacity="0.851744"/>
<stop offset="0.895833" stop-color="#E2AB40" stop-opacity="0.734375"/>
<stop offset="1" stop-color="#C1850F"/>
</linearGradient>
<linearGradient id="paint12_linear_106_186" x1="333.389" y1="76.5815" x2="333.389" y2="94.0257" gradientUnits="userSpaceOnUse">
<stop stop-color="#B38A3B"/>
<stop offset="0.526042" stop-color="#F4CF87" stop-opacity="0.851744"/>
<stop offset="0.895833" stop-color="#E2AB40" stop-opacity="0.734375"/>
<stop offset="1" stop-color="#C1850F"/>
</linearGradient>
<linearGradient id="paint13_linear_106_186" x1="294.192" y1="20.9594" x2="294.192" y2="38.366" gradientUnits="userSpaceOnUse">
<stop stop-color="#B38A3B"/>
<stop offset="0.526042" stop-color="#F4CF87" stop-opacity="0.851744"/>
<stop offset="0.895833" stop-color="#E2AB40" stop-opacity="0.734375"/>
<stop offset="1" stop-color="#C1850F"/>
</linearGradient>
<linearGradient id="paint14_linear_106_186" x1="370.67" y1="49.5317" x2="370.67" y2="70.969" gradientUnits="userSpaceOnUse">
<stop stop-color="#B38A3B"/>
<stop offset="0.526042" stop-color="#F4CF87" stop-opacity="0.851744"/>
<stop offset="0.895833" stop-color="#E2AB40" stop-opacity="0.734375"/>
<stop offset="1" stop-color="#C1850F"/>
</linearGradient>
<linearGradient id="paint15_linear_106_186" x1="230.472" y1="18.0457" x2="230.472" y2="111.029" gradientUnits="userSpaceOnUse">
<stop stop-color="#B38A3B"/>
<stop offset="0.526042" stop-color="#F4CF87" stop-opacity="0.851744"/>
<stop offset="0.895833" stop-color="#E2AB40" stop-opacity="0.734375"/>
<stop offset="1" stop-color="#C1850F"/>
</linearGradient>
<linearGradient id="paint16_linear_106_186" x1="80.0141" y1="93.443" x2="80.0141" y2="94.6461" gradientUnits="userSpaceOnUse">
<stop stop-color="#B38A3B"/>
<stop offset="0.526042" stop-color="#F4CF87" stop-opacity="0.851744"/>
<stop offset="0.895833" stop-color="#E2AB40" stop-opacity="0.734375"/>
<stop offset="1" stop-color="#C1850F"/>
</linearGradient>
<linearGradient id="paint17_linear_106_186" x1="380.986" y1="93.443" x2="380.986" y2="94.7213" gradientUnits="userSpaceOnUse">
<stop stop-color="#B38A3B"/>
<stop offset="0.526042" stop-color="#F4CF87" stop-opacity="0.851744"/>
<stop offset="0.895833" stop-color="#E2AB40" stop-opacity="0.734375"/>
<stop offset="1" stop-color="#C1850F"/>
</linearGradient>
<linearGradient id="paint18_linear_106_186" x1="284.63" y1="49.0806" x2="284.63" y2="66.6254" gradientUnits="userSpaceOnUse">
<stop stop-color="#B38A3B"/>
<stop offset="0.526042" stop-color="#F4CF87" stop-opacity="0.851744"/>
<stop offset="0.895833" stop-color="#E2AB40" stop-opacity="0.734375"/>
<stop offset="1" stop-color="#C1850F"/>
</linearGradient>
<linearGradient id="paint19_linear_106_186" x1="297.7" y1="62.5725" x2="297.7" y2="75.3068" gradientUnits="userSpaceOnUse">
<stop stop-color="#B38A3B"/>
<stop offset="0.526042" stop-color="#F4CF87" stop-opacity="0.851744"/>
<stop offset="0.895833" stop-color="#E2AB40" stop-opacity="0.734375"/>
<stop offset="1" stop-color="#C1850F"/>
</linearGradient>
<linearGradient id="paint20_linear_106_186" x1="266.792" y1="23.4894" x2="266.792" y2="57.408" gradientUnits="userSpaceOnUse">
<stop stop-color="#B38A3B"/>
<stop offset="0.526042" stop-color="#F4CF87" stop-opacity="0.851744"/>
<stop offset="0.895833" stop-color="#E2AB40" stop-opacity="0.734375"/>
<stop offset="1" stop-color="#C1850F"/>
</linearGradient>
<linearGradient id="paint21_linear_106_186" x1="277.269" y1="0" x2="277.269" y2="55.5094" gradientUnits="userSpaceOnUse">
<stop stop-color="#B38A3B"/>
<stop offset="0.526042" stop-color="#F4CF87" stop-opacity="0.851744"/>
<stop offset="0.895833" stop-color="#E2AB40" stop-opacity="0.734375"/>
<stop offset="1" stop-color="#C1850F"/>
</linearGradient>
<linearGradient id="paint22_linear_106_186" x1="301.242" y1="38.3273" x2="301.242" y2="63.3872" gradientUnits="userSpaceOnUse">
<stop stop-color="#B38A3B"/>
<stop offset="0.526042" stop-color="#F4CF87" stop-opacity="0.851744"/>
<stop offset="0.895833" stop-color="#E2AB40" stop-opacity="0.734375"/>
<stop offset="1" stop-color="#C1850F"/>
</linearGradient>
<linearGradient id="paint23_linear_106_186" x1="337.693" y1="68.9685" x2="337.693" y2="74.6078" gradientUnits="userSpaceOnUse">
<stop stop-color="#B38A3B"/>
<stop offset="0.526042" stop-color="#F4CF87" stop-opacity="0.851744"/>
<stop offset="0.895833" stop-color="#E2AB40" stop-opacity="0.734375"/>
<stop offset="1" stop-color="#C1850F"/>
</linearGradient>
<linearGradient id="paint24_linear_106_186" x1="229.804" y1="72.5588" x2="229.804" y2="78.1981" gradientUnits="userSpaceOnUse">
<stop stop-color="#B38A3B"/>
<stop offset="0.526042" stop-color="#F4CF87" stop-opacity="0.851744"/>
<stop offset="0.895833" stop-color="#E2AB40" stop-opacity="0.734375"/>
<stop offset="1" stop-color="#C1850F"/>
</linearGradient>
<linearGradient id="paint25_linear_106_186" x1="247.516" y1="62.0322" x2="247.516" y2="67.6715" gradientUnits="userSpaceOnUse">
<stop stop-color="#B38A3B"/>
<stop offset="0.526042" stop-color="#F4CF87" stop-opacity="0.851744"/>
<stop offset="0.895833" stop-color="#E2AB40" stop-opacity="0.734375"/>
<stop offset="1" stop-color="#C1850F"/>
</linearGradient>
<linearGradient id="paint26_linear_106_186" x1="386.586" y1="93.2362" x2="386.586" y2="98.9131" gradientUnits="userSpaceOnUse">
<stop stop-color="#B38A3B"/>
<stop offset="0.526042" stop-color="#F4CF87" stop-opacity="0.851744"/>
<stop offset="0.895833" stop-color="#E2AB40" stop-opacity="0.734375"/>
<stop offset="1" stop-color="#C1850F"/>
</linearGradient>
<linearGradient id="paint27_linear_106_186" x1="306.96" y1="51.2799" x2="306.96" y2="56.9192" gradientUnits="userSpaceOnUse">
<stop stop-color="#B38A3B"/>
<stop offset="0.526042" stop-color="#F4CF87" stop-opacity="0.851744"/>
<stop offset="0.895833" stop-color="#E2AB40" stop-opacity="0.734375"/>
<stop offset="1" stop-color="#C1850F"/>
</linearGradient>
<linearGradient id="paint28_linear_106_186" x1="365.276" y1="61.1675" x2="365.276" y2="65.115" gradientUnits="userSpaceOnUse">
<stop stop-color="#B38A3B"/>
<stop offset="0.526042" stop-color="#F4CF87" stop-opacity="0.851744"/>
<stop offset="0.895833" stop-color="#E2AB40" stop-opacity="0.734375"/>
<stop offset="1" stop-color="#C1850F"/>
</linearGradient>
<linearGradient id="paint29_linear_106_186" x1="349.464" y1="51.2799" x2="349.464" y2="55.2462" gradientUnits="userSpaceOnUse">
<stop stop-color="#B38A3B"/>
<stop offset="0.526042" stop-color="#F4CF87" stop-opacity="0.851744"/>
<stop offset="0.895833" stop-color="#E2AB40" stop-opacity="0.734375"/>
<stop offset="1" stop-color="#C1850F"/>
</linearGradient>
<linearGradient id="paint30_linear_106_186" x1="331.112" y1="54.3815" x2="331.112" y2="58.3478" gradientUnits="userSpaceOnUse">
<stop stop-color="#B38A3B"/>
<stop offset="0.526042" stop-color="#F4CF87" stop-opacity="0.851744"/>
<stop offset="0.895833" stop-color="#E2AB40" stop-opacity="0.734375"/>
<stop offset="1" stop-color="#C1850F"/>
</linearGradient>
<linearGradient id="paint31_linear_106_186" x1="324.325" y1="67.0887" x2="324.325" y2="71.337" gradientUnits="userSpaceOnUse">
<stop stop-color="#B38A3B"/>
<stop offset="0.526042" stop-color="#F4CF87" stop-opacity="0.851744"/>
<stop offset="0.895833" stop-color="#E2AB40" stop-opacity="0.734375"/>
<stop offset="1" stop-color="#C1850F"/>
</linearGradient>
<linearGradient id="paint32_linear_106_186" x1="334.497" y1="77.5402" x2="334.497" y2="81.4877" gradientUnits="userSpaceOnUse">
<stop stop-color="#B38A3B"/>
<stop offset="0.526042" stop-color="#F4CF87" stop-opacity="0.851744"/>
<stop offset="0.895833" stop-color="#E2AB40" stop-opacity="0.734375"/>
<stop offset="1" stop-color="#C1850F"/>
</linearGradient>
<linearGradient id="paint33_linear_106_186" x1="281.116" y1="60.8855" x2="281.116" y2="64.833" gradientUnits="userSpaceOnUse">
<stop stop-color="#B38A3B"/>
<stop offset="0.526042" stop-color="#F4CF87" stop-opacity="0.851744"/>
<stop offset="0.895833" stop-color="#E2AB40" stop-opacity="0.734375"/>
<stop offset="1" stop-color="#C1850F"/>
</linearGradient>
<linearGradient id="paint34_linear_106_186" x1="292.699" y1="33.8357" x2="292.699" y2="37.7832" gradientUnits="userSpaceOnUse">
<stop stop-color="#B38A3B"/>
<stop offset="0.526042" stop-color="#F4CF87" stop-opacity="0.851744"/>
<stop offset="0.895833" stop-color="#E2AB40" stop-opacity="0.734375"/>
<stop offset="1" stop-color="#C1850F"/>
</linearGradient>
<linearGradient id="paint35_linear_106_186" x1="123.532" y1="68.9685" x2="123.532" y2="74.6078" gradientUnits="userSpaceOnUse">
<stop stop-color="#B38A3B"/>
<stop offset="0.526042" stop-color="#F4CF87" stop-opacity="0.851744"/>
<stop offset="0.895833" stop-color="#E2AB40" stop-opacity="0.734375"/>
<stop offset="1" stop-color="#C1850F"/>
</linearGradient>
<linearGradient id="paint36_linear_106_186" x1="213.709" y1="62.0322" x2="213.709" y2="67.6715" gradientUnits="userSpaceOnUse">
<stop stop-color="#B38A3B"/>
<stop offset="0.526042" stop-color="#F4CF87" stop-opacity="0.851744"/>
<stop offset="0.895833" stop-color="#E2AB40" stop-opacity="0.734375"/>
<stop offset="1" stop-color="#C1850F"/>
</linearGradient>
<linearGradient id="paint37_linear_106_186" x1="74.6958" y1="93.2362" x2="74.6958" y2="98.9131" gradientUnits="userSpaceOnUse">
<stop stop-color="#B38A3B"/>
<stop offset="0.526042" stop-color="#F4CF87" stop-opacity="0.851744"/>
<stop offset="0.895833" stop-color="#E2AB40" stop-opacity="0.734375"/>
<stop offset="1" stop-color="#C1850F"/>
</linearGradient>
<linearGradient id="paint38_linear_106_186" x1="154.322" y1="51.2799" x2="154.322" y2="56.9192" gradientUnits="userSpaceOnUse">
<stop stop-color="#B38A3B"/>
<stop offset="0.526042" stop-color="#F4CF87" stop-opacity="0.851744"/>
<stop offset="0.895833" stop-color="#E2AB40" stop-opacity="0.734375"/>
<stop offset="1" stop-color="#C1850F"/>
</linearGradient>
<linearGradient id="paint39_linear_106_186" x1="95.8928" y1="61.1675" x2="95.8928" y2="65.115" gradientUnits="userSpaceOnUse">
<stop stop-color="#B38A3B"/>
<stop offset="0.526042" stop-color="#F4CF87" stop-opacity="0.851744"/>
<stop offset="0.895833" stop-color="#E2AB40" stop-opacity="0.734375"/>
<stop offset="1" stop-color="#C1850F"/>
</linearGradient>
<linearGradient id="paint40_linear_106_186" x1="111.762" y1="51.2799" x2="111.762" y2="55.2462" gradientUnits="userSpaceOnUse">
<stop stop-color="#B38A3B"/>
<stop offset="0.526042" stop-color="#F4CF87" stop-opacity="0.851744"/>
<stop offset="0.895833" stop-color="#E2AB40" stop-opacity="0.734375"/>
<stop offset="1" stop-color="#C1850F"/>
</linearGradient>
<linearGradient id="paint41_linear_106_186" x1="130.113" y1="54.3815" x2="130.113" y2="58.3478" gradientUnits="userSpaceOnUse">
<stop stop-color="#B38A3B"/>
<stop offset="0.526042" stop-color="#F4CF87" stop-opacity="0.851744"/>
<stop offset="0.895833" stop-color="#E2AB40" stop-opacity="0.734375"/>
<stop offset="1" stop-color="#C1850F"/>
</linearGradient>
<linearGradient id="paint42_linear_106_186" x1="136.807" y1="67.088" x2="136.807" y2="71.337" gradientUnits="userSpaceOnUse">
<stop stop-color="#B38A3B"/>
<stop offset="0.526042" stop-color="#F4CF87" stop-opacity="0.851744"/>
<stop offset="0.895833" stop-color="#E2AB40" stop-opacity="0.734375"/>
<stop offset="1" stop-color="#C1850F"/>
</linearGradient>
<linearGradient id="paint43_linear_106_186" x1="126.729" y1="77.5402" x2="126.729" y2="81.4877" gradientUnits="userSpaceOnUse">
<stop stop-color="#B38A3B"/>
<stop offset="0.526042" stop-color="#F4CF87" stop-opacity="0.851744"/>
<stop offset="0.895833" stop-color="#E2AB40" stop-opacity="0.734375"/>
<stop offset="1" stop-color="#C1850F"/>
</linearGradient>
<linearGradient id="paint44_linear_106_186" x1="180.109" y1="60.8855" x2="180.109" y2="64.833" gradientUnits="userSpaceOnUse">
<stop stop-color="#B38A3B"/>
<stop offset="0.526042" stop-color="#F4CF87" stop-opacity="0.851744"/>
<stop offset="0.895833" stop-color="#E2AB40" stop-opacity="0.734375"/>
<stop offset="1" stop-color="#C1850F"/>
</linearGradient>
<linearGradient id="paint45_linear_106_186" x1="168.527" y1="33.8357" x2="168.527" y2="37.7832" gradientUnits="userSpaceOnUse">
<stop stop-color="#B38A3B"/>
<stop offset="0.526042" stop-color="#F4CF87" stop-opacity="0.851744"/>
<stop offset="0.895833" stop-color="#E2AB40" stop-opacity="0.734375"/>
<stop offset="1" stop-color="#C1850F"/>
</linearGradient>
</defs>
</svg>
