<svg width="277" height="82" viewBox="0 0 277 82" fill="none" xmlns="http://www.w3.org/2000/svg">
<path d="M204.721 42.9892C204.984 43.2156 207.188 47.0461 207.319 47.3595C208.103 49.1689 208.645 51.1135 208.925 53.1226V53.5231V54.1673C208.925 54.62 208.925 55.0553 208.998 55.508C208.998 56.396 208.998 57.2491 208.998 58.1545C208.852 59.8957 208.633 61.5497 208.429 63.3779C206.896 62.9949 205.422 62.6292 203.948 62.2114C203.203 61.985 202.488 61.7587 201.744 61.4975L201.204 61.2886L200.868 61.1493L200.299 60.9055C198.826 60.2507 197.404 59.4408 196.051 58.4853C193.507 56.869 191.461 54.3252 190.213 51.2248C189.759 49.9144 189.632 48.4753 189.848 47.0809C190.015 46.1215 190.349 45.2142 190.826 44.4169C191.19 43.768 191.627 43.1821 192.125 42.6758C191.937 43.3681 191.8 44.0789 191.716 44.8C191.604 45.611 191.654 46.4421 191.862 47.2256C192.07 48.0092 192.43 48.7232 192.913 49.3095C194.485 50.9358 196.339 52.1252 198.343 52.7918C199.525 53.2619 200.81 53.6972 202.152 54.0977L202.663 54.2544H202.882H202.984V53.9932C202.929 52.5687 202.743 51.1558 202.43 49.7796C202.133 48.4664 201.732 47.1897 201.233 45.9666C200.875 44.9397 200.383 43.9875 199.773 43.1459C199.314 42.496 198.751 41.9612 198.117 41.5727C197.483 41.1841 196.791 40.9495 196.081 40.8824C195.483 40.8633 194.887 40.9573 194.315 41.161C194.739 40.5633 195.267 40.0822 195.862 39.7507C196.614 39.3255 197.438 39.1111 198.27 39.1239C199.405 39.1546 200.521 39.4815 201.539 40.0815C202.748 40.7956 203.829 41.7832 204.721 42.9892Z" fill="url(#paint0_linear_105_468)"/>
<path d="M276.854 45.4267C276.314 48.4591 275.099 51.2619 273.336 53.5403C271.477 56.049 269.245 58.1267 266.754 59.6692C266.097 60.0696 265.411 60.4527 264.71 60.7835C264.01 61.1143 263.353 61.4103 262.608 61.6889C261.13 62.2233 259.623 62.642 258.098 62.9425C254.907 63.5301 251.678 63.7633 248.45 63.6389C244.98 63.5272 241.525 63.0317 238.131 62.159C236.326 61.7157 234.546 61.1341 232.804 60.4178C231.052 59.6866 229.345 58.8682 227.622 58.0325C224.197 56.3262 220.709 54.4573 217.157 52.426C215.391 51.4162 213.596 50.3541 211.786 49.2223L210.939 48.6826C210.136 47.0981 205.772 42.0314 205.466 40.9519C208.487 41.6832 211.581 40.9519 212.107 41.2653C212.895 41.8747 213.727 42.4493 214.544 43.0065C216.194 44.1556 217.872 45.2525 219.536 46.3146C222.864 48.4388 226.163 50.4411 229.388 52.2519C231.008 53.1747 232.614 53.993 234.176 54.8114C235.687 55.577 237.237 56.2283 238.817 56.7615C241.888 57.7727 245.029 58.4487 248.202 58.7812C254.347 59.408 260.244 59.0249 264.988 56.6744C267.263 55.546 269.346 53.929 271.132 51.9037C272.771 50.1467 274.002 47.9161 274.708 45.4267C275.004 44.3678 275.091 43.2418 274.962 42.1364C274.833 41.0309 274.491 39.9761 273.964 39.0541C273.457 38.1663 272.837 37.379 272.125 36.721C271.49 36.0354 270.783 35.4503 270.023 34.9798C268.776 34.246 267.371 33.9845 265.997 34.2303C264.622 34.4762 263.343 35.2177 262.331 36.3553C261.975 36.7608 261.711 37.2672 261.563 37.8274C261.415 38.3875 261.388 38.9832 261.485 39.559C261.678 40.4415 262.115 41.2205 262.725 41.7703C263.208 42.2226 263.744 42.5865 264.316 42.8498C263.733 42.6442 263.177 42.3393 262.667 41.9444C262.005 41.4601 261.493 40.7331 261.207 39.8724C261.038 39.2423 261.002 38.5718 261.104 37.9214C261.206 37.2709 261.442 36.6609 261.791 36.1464C262.797 34.7272 264.147 33.7142 265.655 33.2466C267.163 32.779 268.755 32.8796 270.213 33.5347C271.127 33.8848 271.996 34.3827 272.796 35.0147C273.67 35.6803 274.461 36.4891 275.146 37.4174C275.907 38.4637 276.469 39.6929 276.796 41.0216C277.088 42.4667 277.108 43.9712 276.854 45.4267Z" fill="url(#paint1_linear_105_468)"/>
<path d="M62.3681 43.0065C63.2 42.4146 64.0466 41.8226 64.8493 41.2654C65.6521 40.7082 70.9504 40.5515 72.5122 40.2033C72.5122 40.2033 69.7098 45.0089 67.9875 47.3768C67.1831 48.1375 66.2745 48.7266 65.3018 49.1179C63.5211 50.2323 61.755 51.2769 60.0181 52.2868C56.5151 54.2891 53.0851 56.1347 49.6843 57.8236C47.9911 58.6768 46.298 59.5648 44.5757 60.209C42.8564 60.9703 41.096 61.5927 39.3066 62.072C35.9477 62.9625 32.528 63.487 29.0895 63.639C25.8753 63.794 22.656 63.6017 19.4709 63.0644C17.943 62.7931 16.4316 62.4034 14.9461 61.8979C14.2309 61.6367 13.4866 61.3407 12.8152 61.0273C12.1437 60.7139 11.3556 60.3657 10.7717 60C8.23527 58.5209 5.94927 56.4963 4.02845 54.0279C2.21609 51.7895 0.918972 49.0307 0.262724 46.0187C-0.00690641 44.5621 -0.00690641 43.0528 0.262724 41.5962C0.509634 40.2291 1.00818 38.9445 1.72231 37.8354C2.37964 36.8547 3.15708 35.9977 4.02845 35.2933C4.82061 34.6243 5.68466 34.0855 6.59732 33.6915C8.21198 32.9254 9.98452 32.7675 11.6767 33.2388C13.0663 33.6444 14.3097 34.5722 15.2235 35.8853C15.5988 36.3966 15.8619 37.011 15.9892 37.6735C16.1166 38.3359 16.1042 39.0256 15.9533 39.681C15.687 40.5779 15.1721 41.3395 14.4937 41.84C13.9675 42.2502 13.3915 42.5614 12.786 42.7628C13.3489 42.5021 13.8793 42.1506 14.3623 41.7181C14.9458 41.2124 15.3801 40.4992 15.603 39.681C15.7138 39.1207 15.7065 38.5364 15.5817 37.9804C15.4569 37.4244 15.2185 36.9139 14.8878 36.4947C13.9043 35.3468 12.6494 34.5861 11.2923 34.3152C9.93518 34.0444 8.54109 34.2764 7.29792 34.9799C6.52482 35.3612 5.79824 35.8648 5.13774 36.4773C4.42144 37.1113 3.7828 37.8614 3.24028 38.7059C2.67775 39.587 2.29077 40.6093 2.10869 41.6954C1.92661 42.7814 1.9542 43.9026 2.18938 44.974C2.80743 47.4648 3.96541 49.717 5.54642 51.5033C7.285 53.5735 9.32848 55.2439 11.5745 56.4307C16.2744 58.9031 22.1419 59.4081 28.3305 58.8335C31.526 58.5241 34.6915 57.8714 37.7886 56.8834C39.3863 56.366 40.9559 55.7322 42.4885 54.9856C44.0649 54.2021 45.685 53.3315 47.3197 52.4087C50.5892 50.5805 53.9317 48.5608 57.3033 46.4192C58.9818 45.2874 60.6749 44.1731 62.3681 43.0065Z" fill="url(#paint2_linear_105_468)"/>
<path d="M90.9613 48.1776C91.4208 47.8544 91.9107 47.5973 92.4209 47.4115C92.1453 47.9054 91.9013 48.4234 91.6911 48.9611C91.1845 50.2222 91.0212 51.6407 91.2241 53.018C91.5931 54.8547 92.3464 56.55 93.4134 57.9454C94.0489 58.8324 94.7315 59.6699 95.4569 60.4526L96.0407 61.0794L96.1866 61.2187C96.1866 61.2187 96.1866 61.358 96.3764 61.3232C96.9095 60.4486 97.397 59.5357 97.836 58.5896C98.5444 57.1523 98.803 55.4621 98.5658 53.8189C98.3338 52.4506 97.9459 51.1266 97.4127 49.8839L96.7851 48.3866C97.2281 48.598 97.6574 48.8482 98.0695 49.1352C99.2792 49.9368 100.341 51.0203 101.193 52.3215C101.882 53.3453 102.379 54.5324 102.653 55.8038C102.916 57.3023 102.916 58.8497 102.653 60.3482C102.407 61.8092 102.015 63.2297 101.485 64.5791C100.492 67.0167 99.2518 69.3673 97.9965 71.8223L95.8801 70.2204C94.8506 69.4435 93.8745 68.5702 92.961 67.6087L92.2895 66.86L91.9538 66.477L91.7495 66.3203C91.5014 66.0069 91.2678 65.6761 91.0489 65.3626C90.1725 64.0588 89.4415 62.6249 88.8741 61.0969C87.7755 58.4527 87.5013 55.4285 88.1005 52.5653C88.5626 50.7287 89.5828 49.1639 90.9613 48.1776Z" fill="url(#paint3_linear_105_468)"/>
<path d="M115.687 44.7652L116.212 45.6009L116.475 46.0362L116.592 46.2625L116.767 46.6456C117.321 47.7643 117.809 48.9279 118.226 50.1279C118.635 51.3293 119.015 52.5132 119.423 53.7843L117.497 54.8638C116.438 55.4698 115.346 55.9876 114.227 56.4134C113.935 56.5178 113.658 56.6397 113.366 56.7268L112.928 56.8487L112.651 56.9357L111.614 57.1272C110.235 57.3457 108.834 57.2928 107.469 56.9705C106.181 56.6877 104.954 56.0953 103.864 55.2294C102.955 54.4516 102.181 53.4698 101.587 52.3391C100.832 50.8401 100.401 49.1411 100.332 47.3943C100.299 46.8146 100.299 46.2329 100.332 45.6532C100.332 45.6532 100.638 46.1755 101.222 47.0287C101.958 48.1453 102.852 49.0999 103.864 49.8493C105.135 50.6502 106.591 50.9315 108.009 50.6502C108.86 50.5492 109.701 50.351 110.52 50.0582L111.191 49.8145H111.352C111.352 49.8145 111.468 49.8145 111.512 49.6926C111.556 49.5707 111.512 49.6926 111.512 49.6926V49.4837L111.366 49.0832L111.074 48.2823L110.491 46.7675C109.829 44.9927 108.996 43.3157 108.009 41.7704C107.416 40.7449 106.561 39.9754 105.572 39.5766C105.155 39.4314 104.72 39.3783 104.287 39.4199C104.626 39.0041 105.04 38.6882 105.499 38.4971C106.89 37.9727 108.398 38.1164 109.702 38.8975C111.548 39.9185 113.198 41.3825 114.548 43.1981C114.951 43.696 115.331 44.2191 115.687 44.7652Z" fill="url(#paint4_linear_105_468)"/>
<path d="M106.55 28.0156C105.627 27.7619 104.677 27.6738 103.733 27.7545C103.008 27.8905 102.333 28.2781 101.791 28.8688C101.511 29.142 101.248 29.4388 101.003 29.7568C100.81 28.9268 100.788 28.0536 100.938 27.211C101.088 26.3685 101.406 25.5814 101.864 24.9164C102.961 23.4188 104.428 22.3761 106.053 21.9391C107.265 21.6152 108.506 21.4806 109.746 21.5386C111.206 21.5386 112.87 21.5386 114.504 21.6779V22.5659C114.395 24.3263 114.165 26.0732 113.818 27.7893C113.606 28.6408 113.343 29.473 113.03 30.2791C112.865 30.6854 112.704 31.0684 112.549 31.4283C112.388 31.7417 112.286 31.8984 112.154 32.1247C111.228 33.7061 109.977 34.9771 108.52 35.8159C107.526 36.4011 106.402 36.5962 105.309 36.3731C104.943 36.2889 104.593 36.1299 104.273 35.903C104.568 35.7005 104.851 35.4736 105.119 35.224C105.713 34.6154 106.182 33.8532 106.491 32.9953C106.912 31.8188 107.23 30.5935 107.44 29.3389C107.44 29.1822 107.44 28.9384 107.44 28.8514C107.449 28.8174 107.449 28.7809 107.44 28.7469C107.408 28.695 107.361 28.658 107.309 28.6425C107.286 28.6287 107.261 28.6215 107.236 28.6215C107.21 28.6215 107.185 28.6287 107.163 28.6425C107.177 28.6102 107.184 28.5744 107.184 28.538C107.184 28.5016 107.177 28.4658 107.163 28.4335C107.133 28.2942 107.279 28.1201 106.55 28.0156Z" fill="url(#paint5_linear_105_468)"/>
<path d="M68.0166 54.1323V53.4881V53.0877C68.2898 51.0765 68.8318 49.1306 69.6222 47.3245C70.3163 45.7369 71.1851 44.2672 72.2057 42.9542C73.1209 41.7316 74.2263 40.7323 75.4605 40.0117C76.4787 39.4117 77.5946 39.0848 78.73 39.0541C79.5577 39.0408 80.3768 39.2553 81.1237 39.6809C81.7209 40.0163 82.2528 40.4966 82.6855 41.0912C82.1122 40.8911 81.5166 40.7972 80.9194 40.8127C79.5259 40.9934 78.2473 41.8185 77.358 43.111C76.7229 43.9463 76.2053 44.8989 75.8254 45.9316C75.3203 47.1515 74.9193 48.429 74.6286 49.7447C74.3153 51.1208 74.1293 52.5338 74.0739 53.9582V54.2542H74.1761H74.3804L74.8913 54.0975C76.2536 53.7029 77.5234 53.2676 78.7008 52.7917C80.7101 52.1285 82.5701 50.9388 84.1451 49.3094C84.6253 48.7214 84.9827 48.0067 85.1881 47.2232C85.3935 46.4397 85.4412 45.6095 85.3273 44.7999C85.2522 44.0786 85.1203 43.3674 84.9332 42.6757C85.4314 43.1819 85.8685 43.7679 86.2323 44.4168C86.7188 45.2402 87.0523 46.1782 87.2102 47.1678C87.434 48.5618 87.3071 50.0036 86.8453 51.3117C85.5957 54.4107 83.5506 56.9539 81.007 58.5722C79.6542 59.5277 78.2328 60.3376 76.7596 60.9924L76.1757 61.2362L75.84 61.3755L75.3 61.5844C74.5848 61.8456 73.8404 62.0719 73.1106 62.2983C71.651 62.7162 70.1914 63.0818 68.6297 63.4648C68.4253 61.7237 68.1918 59.9826 68.0604 58.2414C68.0165 57.36 68.0165 56.4763 68.0604 55.5949C67.9583 55.0552 67.9729 54.6199 68.0166 54.1323Z" fill="url(#paint6_linear_105_468)"/>
<path d="M72.7749 23.4363C70.3778 23.4319 68.0064 24.0249 65.8127 25.1774C64.5636 25.8111 63.3787 26.6113 62.2805 27.5628C62.0178 27.7891 61.7404 28.0503 61.4923 28.294L61.3172 28.4682C61.3172 28.4682 61.3172 28.4682 61.4631 28.6074L62.3973 29.3213C63.6316 30.1998 64.9032 31.0018 66.2068 31.7241C68.3862 32.9976 70.7215 33.8498 73.1252 34.2487C74.7176 34.5589 76.35 34.1558 77.7083 33.117C78.2615 32.6628 78.7537 32.111 79.1679 31.4803C79.0673 32.3175 78.8398 33.1258 78.4965 33.8657C78.0468 34.7839 77.4401 35.5788 76.7158 36.1988C75.7378 37.0186 74.6382 37.6094 73.4755 37.9399C70.5392 38.6673 67.5014 38.5719 64.6012 37.6614C62.9099 37.1752 61.2624 36.4929 59.6824 35.6242L58.3834 34.98L57.4639 34.3358C57.1136 34.0746 56.7633 33.796 56.4276 33.5C55.142 32.3584 53.9274 31.1074 52.7932 29.7566L53.1581 29.0601C53.9659 27.3722 54.9465 25.8106 56.0772 24.4113C56.3692 24.0457 56.6903 23.7148 57.0114 23.384L57.493 22.9139L57.8288 22.6179C58.2374 22.2697 58.6753 21.9389 59.0986 21.6429C60.6942 20.5326 62.4215 19.7167 64.2217 19.2227C67.2521 18.3984 70.4146 18.5912 73.3587 19.7799C75.3281 20.5624 77.0362 22.0754 78.2337 24.0979C78.64 24.7989 78.9458 25.5756 79.1387 26.3962C78.6564 25.8385 78.1227 25.3479 77.5477 24.9336C76.0986 23.9316 74.4498 23.4143 72.7749 23.4363Z" fill="url(#paint7_linear_105_468)"/>
<path d="M193.789 37.174C192.247 40.9605 189.53 43.8828 186.214 45.3225C183.506 46.4818 180.525 46.3318 177.909 44.9046C176.989 44.3768 176.17 43.6302 175.5 42.7108C174.705 41.8927 174.127 40.8157 173.837 39.6116C173.55 38.4109 173.55 37.1385 173.837 35.9378C174.036 35.1548 174.368 34.4291 174.812 33.806C175.257 33.1829 175.804 32.6758 176.42 32.3162C176.829 32.0819 177.26 31.9066 177.704 31.7939C177.296 31.991 176.913 32.2546 176.566 32.5774C176.222 32.8894 175.917 33.2588 175.661 33.6743C175.495 34.0135 175.354 34.3688 175.238 34.7364C175.017 35.3619 174.861 36.0166 174.771 36.6865C174.734 37.6315 174.932 38.5685 175.339 39.38C175.747 40.1915 176.346 40.8414 177.062 41.2482C178.043 41.6984 179.107 41.8247 180.142 41.6139C181.31 41.3685 182.406 40.7689 183.324 39.8727C185.484 37.7197 186.933 34.7205 187.411 31.4108C187.526 30.5767 187.556 29.7288 187.498 28.8862C187.469 28.4989 187.415 28.1148 187.338 27.737C187.236 27.2669 187.119 26.8142 186.987 26.3441C186.501 24.5406 185.716 22.8712 184.681 21.4341C182.208 18.4138 179.011 16.3821 175.53 15.6187C173.778 15.2331 171.983 15.2331 170.231 15.6187C168.269 16.0109 166.35 16.665 164.51 17.5688C156.891 21.2426 150.746 28.329 148.921 36.2338C148.467 38.1608 148.231 40.1519 148.221 42.1536C148.241 44.044 148.492 45.9209 148.965 47.7253C149.83 51.1054 151.328 54.2071 153.344 56.7966C155.062 58.9779 157.159 60.6837 159.489 61.7937C161.3 62.6523 163.219 63.1408 165.167 63.2388C166.882 63.3386 168.6 63.2042 170.29 62.8383C168.659 63.6152 166.952 64.1418 165.21 64.4054C163.108 64.7247 160.974 64.6069 158.905 64.0571C156.097 63.2685 153.476 61.7262 151.242 59.5476C148.489 56.8542 146.321 53.4079 144.922 49.5012C144.133 47.2547 143.641 44.876 143.463 42.4496C143.281 39.8766 143.404 37.2859 143.827 34.7538C144.832 29.3399 147.064 24.3591 150.279 20.3546C153.609 16.112 157.673 12.7849 162.189 10.6042C164.498 9.482 166.915 8.70986 169.385 8.30593C171.938 7.84525 174.543 7.99319 177.048 8.74121C179.319 9.47898 181.502 10.5615 183.543 11.9623C185.611 13.3864 187.418 15.2932 188.856 17.5688C190.186 19.7461 191.135 22.2215 191.644 24.8467C191.76 25.4735 191.862 26.0829 191.935 26.6923C192.029 27.3831 192.073 28.0821 192.067 28.7817C192.042 30.065 191.885 31.3397 191.6 32.5774C190.607 36.9116 188.283 40.6412 185.09 43.0242C184.752 43.2665 184.401 43.4817 184.039 43.6684C184.54 43.517 185.028 43.3131 185.499 43.059C188.113 41.561 190.153 38.9348 191.206 35.7114C191.833 33.9112 192.26 32.0204 192.475 30.0876C192.731 28.0676 192.731 26.0135 192.475 23.9936C191.855 19.6959 190.113 15.7416 187.498 12.6936C184.625 9.34227 181.122 6.85886 177.281 5.45046C173.439 3.98193 169.378 3.5129 165.371 4.07496C161.648 4.65635 158.041 6.01797 154.716 8.09699C148.817 11.6023 143.835 16.9674 140.31 23.6105C140.062 24.0806 139.857 24.5507 139.653 25.0034C141.125 29.3712 141.754 34.0785 141.492 38.7758C141.381 40.804 141.087 42.812 140.616 44.7653C140.848 42.7816 140.926 40.7766 140.85 38.7758C140.677 34.899 139.91 31.0928 138.588 27.5455C137.251 31.0872 136.484 34.8965 136.325 38.7758C136.25 40.7761 136.323 42.7804 136.544 44.7653C135.012 38.2325 135.356 31.2758 137.522 25.0034C137.303 24.5507 137.099 24.0806 136.865 23.6105C133.341 16.9674 128.358 11.6023 122.459 8.09699C119.084 5.99883 115.421 4.63676 111.644 4.07496C107.617 3.47999 103.53 3.92535 99.6605 5.38082C95.8185 6.78673 92.315 9.27047 89.4434 12.6239C87.4842 14.8189 86.008 17.5554 85.1451 20.5919C84.2822 23.6284 84.059 26.8716 84.4954 30.0353C84.7153 31.9689 85.1471 33.8597 85.7798 35.6592C86.849 38.8751 88.9055 41.4839 91.5306 42.9546C92.0019 43.2063 92.4901 43.4101 92.9902 43.564C92.6345 43.3735 92.2885 43.1584 91.9538 42.9197C88.7608 40.5367 86.4367 36.8071 85.4441 32.4729C85.151 31.2372 84.994 29.9613 84.977 28.6772C84.9656 27.9781 85.0047 27.279 85.0938 26.5879C85.1814 25.9785 85.2835 25.3691 85.4003 24.7423C85.9247 22.1523 86.8775 19.7135 88.2027 17.5688C89.6415 15.2995 91.4483 13.3987 93.5156 11.9797C95.5511 10.5791 97.7292 9.49652 99.9962 8.75862C102.506 8.01058 105.115 7.86264 107.674 8.32333C110.142 8.72382 112.56 9.49004 114.869 10.6042C119.389 12.7716 123.462 16.08 126.809 20.3024C130.025 24.3031 132.253 29.2861 133.246 34.7016C133.681 37.2318 133.809 39.8237 133.625 42.3974C133.419 44.8293 132.897 47.2083 132.078 49.449C130.692 53.3594 128.528 56.8077 125.772 59.4954C123.535 61.6763 120.909 63.2187 118.095 64.0049C116.031 64.5547 113.902 64.6725 111.804 64.3531C110.062 64.0896 108.355 63.563 106.725 62.7861C108.409 63.1515 110.123 63.2859 111.833 63.1866C113.785 63.0869 115.709 62.5984 117.526 61.7414C119.853 60.6347 121.946 58.9284 123.656 56.7444C125.672 54.1545 127.169 51.0529 128.035 47.673C128.508 45.8686 128.759 43.9918 128.779 42.1014C128.771 40.0982 128.53 38.1061 128.064 36.1815C126.298 28.2594 120.153 21.1729 112.534 17.5688C110.689 16.6685 108.765 16.0201 106.798 15.6361C105.042 15.2507 103.241 15.2507 101.485 15.6361C98.0038 16.3995 94.8066 18.4312 92.3333 21.4515C91.3117 22.8672 90.5287 24.5048 90.0272 26.2745C89.9104 26.7446 89.7937 27.1973 89.6915 27.6674C89.6073 28.0434 89.5536 28.4282 89.5309 28.8165C89.4662 29.659 89.4956 30.508 89.6185 31.3412C90.0801 34.6577 91.5316 37.6632 93.7053 39.8031C94.6178 40.6993 95.7088 41.299 96.8727 41.5442C97.9128 41.7583 98.9822 41.6319 99.967 41.1786C100.668 40.7771 101.257 40.1431 101.663 39.3525C102.069 38.562 102.276 37.6484 102.259 36.7213C102.162 36.0533 102.005 35.3995 101.791 34.7712C101.616 34.2837 101.47 33.9355 101.368 33.7091C101.112 33.2936 100.807 32.9242 100.463 32.6122C100.114 32.2936 99.7309 32.0303 99.3248 31.8287C99.7681 31.9444 100.199 32.1197 100.609 32.351C101.225 32.709 101.771 33.2158 102.213 33.8393C102.655 34.4628 102.984 35.1893 103.178 35.9726C103.487 37.1689 103.496 38.4466 103.206 39.6494C102.916 40.8523 102.338 41.9282 101.543 42.7456C100.88 43.6729 100.059 44.4208 99.135 44.9394C96.5185 46.3667 93.5379 46.5166 90.83 45.3573C87.5184 43.9154 84.8069 40.9931 83.2693 37.2088C82.4017 35.1755 81.7778 33.0069 81.4156 30.7666C80.9695 28.3853 80.8414 25.935 81.0362 23.5061C81.554 18.2116 83.5185 13.2676 86.6264 9.43767C89.8714 5.40138 93.9177 2.40706 98.3906 0.731983C102.815 -0.946106 107.5 -1.41036 112.096 -0.626106C116.318 0.138588 120.379 1.85201 124.065 4.42319C130.231 8.54768 135.257 14.7248 138.529 22.2002C141.795 14.7254 146.817 8.54793 152.979 4.42319C156.666 1.85126 160.727 0.132286 164.948 -0.643517C169.548 -1.42802 174.238 -0.963791 178.668 0.714569C183.136 2.39022 187.178 5.38467 190.417 9.42026C193.535 13.2441 195.506 18.1902 196.022 23.4886C196.202 25.9178 196.075 28.3655 195.643 30.7492C195.274 32.9817 194.65 35.1433 193.789 37.174Z" fill="url(#paint8_linear_105_468)"/>
<path d="M175.836 52.3043C176.688 51.0031 177.75 49.9195 178.96 49.118C179.37 48.838 179.794 48.588 180.23 48.3693L179.602 49.8667C179.081 51.1137 178.698 52.4365 178.463 53.8017C178.22 55.4449 178.479 57.1378 179.193 58.5724C179.632 59.5185 180.12 60.4314 180.653 61.306C180.784 61.306 180.828 61.306 180.843 61.2015L180.989 61.0622L181.572 60.4354C182.297 59.6571 182.975 58.8193 183.601 57.9282C184.666 56.5286 185.424 54.8355 185.805 53.0008C186.024 51.6159 185.871 50.1838 185.367 48.9091C185.164 48.367 184.92 47.8483 184.637 47.3595C185.15 47.5376 185.641 47.7951 186.097 48.1256C187.51 49.1059 188.555 50.6947 189.016 52.5655C189.634 55.4272 189.359 58.4591 188.243 61.097C187.673 62.586 186.942 63.9792 186.068 65.2409L185.367 66.3205L185.178 66.5468L184.856 66.9299L184.17 67.6785C183.26 68.6445 182.284 69.5181 181.251 70.2902L179.135 71.8921C177.792 69.3674 176.61 67.0169 175.573 64.5793C175.025 63.1871 174.623 61.7192 174.377 60.2091C174.113 58.7106 174.113 57.1632 174.377 55.6647C174.663 54.4363 175.16 53.2921 175.836 52.3043Z" fill="url(#paint9_linear_105_468)"/>
<path d="M165.415 57.0925L164.364 56.9009L164.101 56.8139L163.663 56.692C163.357 56.6049 163.079 56.4831 162.802 56.3786C161.684 55.9528 160.591 55.435 159.533 54.829L157.606 53.7495C158.015 52.4784 158.394 51.2945 158.803 50.0931C159.221 48.8931 159.708 47.7296 160.262 46.6108L160.452 46.2278L160.584 46.0014L160.832 45.5661L161.357 44.7304C161.722 44.1732 162.087 43.6509 162.466 43.1634C163.811 41.3402 165.462 39.8749 167.312 38.8628C168.611 38.0808 170.115 37.937 171.501 38.4623C171.962 38.6576 172.381 38.9729 172.727 39.3851C172.295 39.3432 171.859 39.3963 171.443 39.5418C170.453 39.9406 169.598 40.7101 169.005 41.7356C168.061 43.2519 167.258 44.8866 166.612 46.6108L166.028 48.1256L165.75 48.9265L165.604 49.327V49.5359C165.604 49.5359 165.75 49.6752 165.78 49.6578H165.94L166.612 49.9016C167.43 50.1959 168.271 50.3942 169.122 50.4936C170.55 50.7037 171.996 50.3489 173.238 49.4837C174.247 48.7296 175.14 47.7757 175.88 46.663C176.449 45.8099 176.756 45.2701 176.77 45.2876C176.803 45.8673 176.803 46.449 176.77 47.0287C176.694 48.7765 176.258 50.4749 175.5 51.9735C174.915 53.1123 174.14 54.0959 173.224 54.8638C172.137 55.7262 170.916 56.3184 169.633 56.6049C168.26 57.0475 166.834 57.2123 165.415 57.0925Z" fill="url(#paint10_linear_105_468)"/>
<path d="M170.64 32.9427C170.944 33.804 171.414 34.5676 172.012 35.1713C172.278 35.4259 172.561 35.653 172.859 35.8504C172.532 36.0743 172.177 36.233 171.808 36.3205C170.72 36.5434 169.6 36.3483 168.611 35.7633C167.139 34.9319 165.872 33.6603 164.933 32.0721C164.79 31.8498 164.658 31.6172 164.539 31.3756C164.378 31.01 164.203 30.6269 164.057 30.2265C163.745 29.4203 163.481 28.5882 163.269 27.7367C162.922 26.0206 162.693 24.2737 162.583 22.5132V21.6253C164.218 21.5208 165.853 21.486 167.341 21.486C168.582 21.4289 169.823 21.5636 171.034 21.8864C172.633 22.3324 174.073 23.3681 175.15 24.8464C175.843 25.8561 176.211 27.1283 176.186 28.4331C176.175 28.8584 176.116 29.28 176.011 29.6867C175.797 29.3867 175.562 29.1072 175.311 28.851C174.764 28.2598 174.084 27.8724 173.355 27.7367C172.41 27.656 171.461 27.744 170.538 27.9978C169.75 28.1197 169.896 28.2938 169.852 28.3983C169.831 28.4656 169.831 28.5399 169.852 28.6072C169.826 28.5943 169.799 28.5876 169.772 28.5876C169.744 28.5876 169.717 28.5943 169.691 28.6072C169.639 28.6228 169.592 28.6597 169.56 28.7117C169.554 28.7462 169.554 28.7817 169.56 28.8162C169.575 28.9804 169.599 29.1433 169.633 29.3037C169.862 30.5549 170.2 31.7744 170.64 32.9427Z" fill="url(#paint11_linear_105_468)"/>
<path d="M219.58 34.3882C219.244 34.6494 218.806 34.9454 218.66 35.0324L217.42 35.7811C215.842 36.6551 214.194 37.3376 212.501 37.8182C209.606 38.7286 206.573 38.824 203.641 38.0968C202.478 37.7695 201.378 37.1784 200.401 36.3557C199.673 35.741 199.065 34.9449 198.62 34.0226C198.261 33.2914 198.032 32.4792 197.949 31.6372C198.342 32.26 198.809 32.8114 199.335 33.2739C200.699 34.3139 202.336 34.7169 203.933 34.4056C206.332 34.004 208.662 33.1519 210.837 31.881C212.144 31.1659 213.415 30.3637 214.647 29.4782L215.581 28.7643L215.741 28.625L215.581 28.4509C215.318 28.2072 215.055 27.946 214.778 27.7196C213.683 26.772 212.503 25.972 211.26 25.3343C209.062 24.1814 206.685 23.5884 204.283 23.5931C202.599 23.564 200.939 24.0815 199.481 25.0905C198.903 25.4988 198.369 25.9899 197.891 26.5531C198.083 25.7325 198.389 24.9558 198.795 24.2548C199.99 22.2361 201.692 20.7237 203.656 19.9368C206.6 18.7481 209.762 18.5552 212.793 19.3796C214.621 19.8541 216.378 20.6585 218.004 21.765C218.427 22.0609 218.85 22.3918 219.273 22.74L219.609 23.036L220.091 23.5061C220.412 23.8369 220.733 24.1677 221.025 24.5334C222.156 25.9321 223.137 27.4938 223.944 29.1822L224.309 29.8787C223.182 31.2592 221.973 32.5395 220.689 33.7092C220.281 33.8484 219.945 34.127 219.58 34.3882Z" fill="url(#paint12_linear_105_468)"/>
<path d="M136.69 47.3421C137.386 46.9188 138.128 46.614 138.894 46.4367C138.31 46.9494 137.772 47.5329 137.289 48.1778C136.113 49.8969 135.409 52.0066 135.274 54.2196C135.111 57.4321 135.484 60.6513 136.369 63.6913C136.855 65.4846 137.455 67.2309 138.164 68.9148L138.456 69.559C138.456 69.6809 138.456 69.559 138.456 69.6634L138.631 69.35L138.967 68.7232C139.796 67.1702 140.51 65.533 141.098 63.8306C142.109 61.0292 142.403 57.9339 141.945 54.9334C141.629 52.7388 141.013 50.6211 140.12 48.6653C139.405 47.2202 138.909 46.4541 138.923 46.4367C139.584 46.8802 140.222 47.3685 140.835 47.8992C142.58 49.4155 144.028 51.3637 145.083 53.6102C145.83 55.2812 146.324 57.0967 146.542 58.9729C146.798 61.1517 146.734 63.367 146.353 65.5195C145.979 67.812 145.356 70.0363 144.499 72.1359L144.163 72.9368L143.915 73.285L143.594 73.9292C143.156 74.8172 142.645 75.7748 142.134 76.6628C141.083 78.404 139.989 80.1451 138.865 81.8862L138.412 81.3291C137.202 79.9475 136.066 78.4762 135.012 76.924C134.469 76.0332 133.981 75.0963 133.552 74.1208C133.333 73.6681 133.129 73.1109 132.983 72.7453L132.691 71.8921C131.982 69.6992 131.492 67.4141 131.231 65.0843C130.698 61.1135 131.06 57.0448 132.282 53.2968C133.111 50.7499 134.674 48.6388 136.69 47.3421Z" fill="url(#paint13_linear_105_468)"/>
<path d="M138.383 59.356C137.822 59.356 137.284 59.09 136.887 58.6165C136.49 58.143 136.267 57.5009 136.267 56.8313C136.267 56.1617 136.49 55.5196 136.887 55.0461C137.284 54.5726 137.822 54.3067 138.383 54.3067C138.945 54.3067 139.483 54.5726 139.88 55.0461C140.277 55.5196 140.5 56.1617 140.5 56.8313C140.5 57.5009 140.277 58.143 139.88 58.6165C139.483 59.09 138.945 59.356 138.383 59.356Z" fill="url(#paint14_linear_105_468)"/>
<path d="M96.8872 39.0542C96.3271 39.0496 95.791 38.7822 95.3949 38.3097C94.9989 37.8372 94.7747 37.1977 94.7708 36.5295V36.1639C94.8151 35.5283 95.0579 34.9357 95.4513 34.5038C95.8447 34.0718 96.3599 33.8321 96.8945 33.8321C97.4292 33.8321 97.9443 34.0718 98.3377 34.5038C98.7311 34.9357 98.974 35.5283 99.0182 36.1639V36.5295C99.0106 37.1993 98.7832 37.8388 98.3848 38.3108C97.9864 38.7828 97.4487 39.0497 96.8872 39.0542Z" fill="url(#paint15_linear_105_468)"/>
<path d="M9.37053 41.9443C8.80923 41.9443 8.27092 41.6783 7.87401 41.2049C7.47711 40.7314 7.25414 40.0893 7.25414 39.4197C7.25414 38.7501 7.47711 38.108 7.87401 37.6345C8.27092 37.161 8.80923 36.895 9.37053 36.895C9.93184 36.895 10.4702 37.161 10.8671 37.6345C11.264 38.108 11.4869 38.7501 11.4869 39.4197C11.4869 40.0893 11.264 40.7314 10.8671 41.2049C10.4702 41.6783 9.93184 41.9443 9.37053 41.9443Z" fill="url(#paint16_linear_105_468)"/>
<path d="M71.7532 31.1147C71.2203 31.062 70.7236 30.7723 70.3615 30.303C69.9994 29.8337 69.7984 29.2192 69.7984 28.5814C69.7984 27.9436 69.9994 27.3291 70.3615 26.8598C70.7236 26.3905 71.2203 26.1008 71.7532 26.048C72.286 26.1008 72.7828 26.3905 73.1449 26.8598C73.507 27.3291 73.708 27.9436 73.708 28.5814C73.708 29.2192 73.507 29.8337 73.1449 30.303C72.7828 30.7723 72.286 31.062 71.7532 31.1147Z" fill="url(#paint17_linear_105_468)"/>
<path d="M79.9269 49.17C79.5398 49.17 79.1685 48.9866 78.8948 48.6601C78.6211 48.3336 78.4673 47.8907 78.4673 47.4289V47.0633C78.4673 46.5853 78.6264 46.127 78.9098 45.789C79.1931 45.4511 79.5773 45.2612 79.978 45.2612C80.3786 45.2612 80.7629 45.4511 81.0462 45.789C81.3295 46.127 81.4886 46.5853 81.4886 47.0633V47.4289C81.4891 47.6682 81.4483 47.905 81.3686 48.1246C81.289 48.3442 81.1722 48.5419 81.0257 48.7053C80.8791 48.8686 80.7059 48.9942 80.5169 49.0742C80.3278 49.1542 80.127 49.1868 79.9269 49.17Z" fill="url(#paint18_linear_105_468)"/>
<path d="M95.3839 55.3164H95.0774C94.6748 55.3164 94.2887 55.1256 94.004 54.786C93.7193 54.4465 93.5594 53.9859 93.5594 53.5056C93.5594 53.0254 93.7193 52.5648 94.004 52.2252C94.2887 51.8856 94.6748 51.6948 95.0774 51.6948H95.3839C95.7865 51.6948 96.1726 51.8856 96.4572 52.2252C96.7419 52.5648 96.9018 53.0254 96.9018 53.5056C96.9018 53.9859 96.7419 54.4465 96.4572 54.786C96.1726 55.1256 95.7865 55.3164 95.3839 55.3164Z" fill="url(#paint19_linear_105_468)"/>
<path d="M106.287 48.0908C105.886 48.0908 105.502 47.901 105.219 47.563C104.935 47.225 104.776 46.7667 104.776 46.2887C104.776 45.8108 104.935 45.3524 105.219 45.0145C105.502 44.6765 105.886 44.4867 106.287 44.4867C106.688 44.4867 107.072 44.6765 107.355 45.0145C107.638 45.3524 107.798 45.8108 107.798 46.2887C107.798 46.7667 107.638 47.225 107.355 47.563C107.072 47.901 106.688 48.0908 106.287 48.0908Z" fill="url(#paint20_linear_105_468)"/>
<path d="M103.864 32.9253C103.461 32.9253 103.075 32.7345 102.791 32.3949C102.506 32.0553 102.346 31.5948 102.346 31.1145C102.346 30.6343 102.506 30.1737 102.791 29.8341C103.075 29.4945 103.461 29.3037 103.864 29.3037C104.267 29.3037 104.653 29.4945 104.937 29.8341C105.222 30.1737 105.382 30.6343 105.382 31.1145C105.382 31.5948 105.222 32.0553 104.937 32.3949C104.653 32.7345 104.267 32.9253 103.864 32.9253Z" fill="url(#paint21_linear_105_468)"/>
<path d="M180.507 39.0542C181.067 39.0496 181.603 38.7822 181.999 38.3097C182.395 37.8372 182.619 37.1977 182.623 36.5295V36.1639C182.579 35.5283 182.336 34.9357 181.943 34.5038C181.549 34.0718 181.034 33.8321 180.5 33.8321C179.965 33.8321 179.45 34.0718 179.056 34.5038C178.663 34.9357 178.42 35.5283 178.376 36.1639V36.5295C178.383 37.1993 178.611 37.8388 179.009 38.3108C179.408 38.7828 179.945 39.0497 180.507 39.0542Z" fill="url(#paint22_linear_105_468)"/>
<path d="M268.024 41.9443C268.585 41.9443 269.123 41.6783 269.52 41.2049C269.917 40.7314 270.14 40.0893 270.14 39.4197C270.14 38.7501 269.917 38.108 269.52 37.6345C269.123 37.161 268.585 36.895 268.024 36.895C267.462 36.895 266.924 37.161 266.527 37.6345C266.13 38.108 265.907 38.7501 265.907 39.4197C265.907 40.0893 266.13 40.7314 266.527 41.2049C266.924 41.6783 267.462 41.9443 268.024 41.9443Z" fill="url(#paint23_linear_105_468)"/>
<path d="M205.641 31.1147C206.174 31.062 206.67 30.7723 207.033 30.303C207.395 29.8337 207.596 29.2192 207.596 28.5814C207.596 27.9436 207.395 27.3291 207.033 26.8598C206.67 26.3905 206.174 26.1008 205.641 26.048C205.108 26.1008 204.611 26.3905 204.249 26.8598C203.887 27.3291 203.686 27.9436 203.686 28.5814C203.686 29.2192 203.887 29.8337 204.249 30.303C204.611 30.7723 205.108 31.062 205.641 31.1147Z" fill="url(#paint24_linear_105_468)"/>
<path d="M197.453 49.17C197.84 49.17 198.211 48.9866 198.485 48.6601C198.758 48.3336 198.912 47.8907 198.912 47.4289V47.0633C198.912 46.5853 198.753 46.127 198.47 45.789C198.186 45.4511 197.802 45.2612 197.402 45.2612C197.001 45.2612 196.617 45.4511 196.333 45.789C196.05 46.127 195.891 46.5853 195.891 47.0633V47.4289C195.89 47.6682 195.931 47.905 196.011 48.1246C196.091 48.3442 196.207 48.5419 196.354 48.7053C196.5 48.8686 196.674 48.9942 196.863 49.0742C197.052 49.1542 197.253 49.1868 197.453 49.17Z" fill="url(#paint25_linear_105_468)"/>
<path d="M182.01 55.3164H182.317C182.719 55.3164 183.105 55.1256 183.39 54.786C183.675 54.4465 183.835 53.9859 183.835 53.5056C183.835 53.0254 183.675 52.5648 183.39 52.2252C183.105 51.8856 182.719 51.6948 182.317 51.6948H182.01C181.608 51.6948 181.222 51.8856 180.937 52.2252C180.652 52.5648 180.492 53.0254 180.492 53.5056C180.492 53.9859 180.652 54.4465 180.937 54.786C181.222 55.1256 181.608 55.3164 182.01 55.3164Z" fill="url(#paint26_linear_105_468)"/>
<path d="M171.107 48.0908C171.508 48.0908 171.892 47.901 172.175 47.563C172.459 47.225 172.618 46.7667 172.618 46.2887C172.618 45.8108 172.459 45.3524 172.175 45.0145C171.892 44.6765 171.508 44.4867 171.107 44.4867C170.706 44.4867 170.322 44.6765 170.039 45.0145C169.756 45.3524 169.596 45.8108 169.596 46.2887C169.596 46.7667 169.756 47.225 170.039 47.563C170.322 47.901 170.706 48.0908 171.107 48.0908Z" fill="url(#paint27_linear_105_468)"/>
<path d="M173.53 32.9253C173.933 32.9253 174.319 32.7345 174.603 32.3949C174.888 32.0553 175.048 31.5948 175.048 31.1145C175.048 30.6343 174.888 30.1737 174.603 29.8341C174.319 29.4945 173.933 29.3037 173.53 29.3037C173.127 29.3037 172.741 29.4945 172.457 29.8341C172.172 30.1737 172.012 30.6343 172.012 31.1145C172.012 31.5948 172.172 32.0553 172.457 32.3949C172.741 32.7345 173.127 32.9253 173.53 32.9253Z" fill="url(#paint28_linear_105_468)"/>
<path d="M138.383 40.8652C137.983 40.8652 137.598 40.6754 137.315 40.3374C137.032 39.9995 136.873 39.5411 136.873 39.0632C136.873 38.5852 137.032 38.1269 137.315 37.7889C137.598 37.4509 137.983 37.2611 138.383 37.2611C138.784 37.2611 139.168 37.4509 139.451 37.7889C139.735 38.1269 139.894 38.5852 139.894 39.0632C139.894 39.5411 139.735 39.9995 139.451 40.3374C139.168 40.6754 138.784 40.8652 138.383 40.8652Z" fill="url(#paint29_linear_105_468)"/>
<defs>
<linearGradient id="paint0_linear_105_468" x1="199.372" y1="63.3779" x2="199.372" y2="39.1233" gradientUnits="userSpaceOnUse">
<stop stop-color="#B38A3B"/>
<stop offset="0.526042" stop-color="#F4CF87" stop-opacity="0.851744"/>
<stop offset="0.895833" stop-color="#E2AB40" stop-opacity="0.734375"/>
<stop offset="1" stop-color="#C1850F"/>
</linearGradient>
<linearGradient id="paint1_linear_105_468" x1="241.248" y1="63.6714" x2="241.248" y2="32.957" gradientUnits="userSpaceOnUse">
<stop stop-color="#B38A3B"/>
<stop offset="0.526042" stop-color="#F4CF87" stop-opacity="0.851744"/>
<stop offset="0.895833" stop-color="#E2AB40" stop-opacity="0.734375"/>
<stop offset="1" stop-color="#C1850F"/>
</linearGradient>
<linearGradient id="paint2_linear_105_468" x1="36.2863" y1="63.6909" x2="36.2863" y2="32.9729" gradientUnits="userSpaceOnUse">
<stop stop-color="#B38A3B"/>
<stop offset="0.526042" stop-color="#F4CF87" stop-opacity="0.851744"/>
<stop offset="0.895833" stop-color="#E2AB40" stop-opacity="0.734375"/>
<stop offset="1" stop-color="#C1850F"/>
</linearGradient>
<linearGradient id="paint3_linear_105_468" x1="95.3202" y1="71.8223" x2="95.3202" y2="47.4115" gradientUnits="userSpaceOnUse">
<stop stop-color="#B38A3B"/>
<stop offset="0.526042" stop-color="#F4CF87" stop-opacity="0.851744"/>
<stop offset="0.895833" stop-color="#E2AB40" stop-opacity="0.734375"/>
<stop offset="1" stop-color="#C1850F"/>
</linearGradient>
<linearGradient id="paint4_linear_105_468" x1="109.865" y1="57.2593" x2="109.865" y2="38.1865" gradientUnits="userSpaceOnUse">
<stop stop-color="#B38A3B"/>
<stop offset="0.526042" stop-color="#F4CF87" stop-opacity="0.851744"/>
<stop offset="0.895833" stop-color="#E2AB40" stop-opacity="0.734375"/>
<stop offset="1" stop-color="#C1850F"/>
</linearGradient>
<linearGradient id="paint5_linear_105_468" x1="107.672" y1="36.4629" x2="107.672" y2="21.5255" gradientUnits="userSpaceOnUse">
<stop stop-color="#B38A3B"/>
<stop offset="0.526042" stop-color="#F4CF87" stop-opacity="0.851744"/>
<stop offset="0.895833" stop-color="#E2AB40" stop-opacity="0.734375"/>
<stop offset="1" stop-color="#C1850F"/>
</linearGradient>
<linearGradient id="paint6_linear_105_468" x1="77.6505" y1="63.4648" x2="77.6505" y2="39.0535" gradientUnits="userSpaceOnUse">
<stop stop-color="#B38A3B"/>
<stop offset="0.526042" stop-color="#F4CF87" stop-opacity="0.851744"/>
<stop offset="0.895833" stop-color="#E2AB40" stop-opacity="0.734375"/>
<stop offset="1" stop-color="#C1850F"/>
</linearGradient>
<linearGradient id="paint7_linear_105_468" x1="65.9805" y1="38.4229" x2="65.9805" y2="18.7202" gradientUnits="userSpaceOnUse">
<stop stop-color="#B38A3B"/>
<stop offset="0.526042" stop-color="#F4CF87" stop-opacity="0.851744"/>
<stop offset="0.895833" stop-color="#E2AB40" stop-opacity="0.734375"/>
<stop offset="1" stop-color="#C1850F"/>
</linearGradient>
<linearGradient id="paint8_linear_105_468" x1="138.525" y1="64.5806" x2="138.525" y2="-1.01424" gradientUnits="userSpaceOnUse">
<stop stop-color="#B38A3B"/>
<stop offset="0.526042" stop-color="#F4CF87" stop-opacity="0.851744"/>
<stop offset="0.895833" stop-color="#E2AB40" stop-opacity="0.734375"/>
<stop offset="1" stop-color="#C1850F"/>
</linearGradient>
<linearGradient id="paint9_linear_105_468" x1="181.759" y1="71.8921" x2="181.759" y2="47.3595" gradientUnits="userSpaceOnUse">
<stop stop-color="#B38A3B"/>
<stop offset="0.526042" stop-color="#F4CF87" stop-opacity="0.851744"/>
<stop offset="0.895833" stop-color="#E2AB40" stop-opacity="0.734375"/>
<stop offset="1" stop-color="#C1850F"/>
</linearGradient>
<linearGradient id="paint10_linear_105_468" x1="167.2" y1="57.1304" x2="167.2" y2="38.1511" gradientUnits="userSpaceOnUse">
<stop stop-color="#B38A3B"/>
<stop offset="0.526042" stop-color="#F4CF87" stop-opacity="0.851744"/>
<stop offset="0.895833" stop-color="#E2AB40" stop-opacity="0.734375"/>
<stop offset="1" stop-color="#C1850F"/>
</linearGradient>
<linearGradient id="paint11_linear_105_468" x1="169.385" y1="36.4102" x2="169.385" y2="21.4732" gradientUnits="userSpaceOnUse">
<stop stop-color="#B38A3B"/>
<stop offset="0.526042" stop-color="#F4CF87" stop-opacity="0.851744"/>
<stop offset="0.895833" stop-color="#E2AB40" stop-opacity="0.734375"/>
<stop offset="1" stop-color="#C1850F"/>
</linearGradient>
<linearGradient id="paint12_linear_105_468" x1="211.1" y1="38.5796" x2="211.1" y2="18.8771" gradientUnits="userSpaceOnUse">
<stop stop-color="#B38A3B"/>
<stop offset="0.526042" stop-color="#F4CF87" stop-opacity="0.851744"/>
<stop offset="0.895833" stop-color="#E2AB40" stop-opacity="0.734375"/>
<stop offset="1" stop-color="#C1850F"/>
</linearGradient>
<linearGradient id="paint13_linear_105_468" x1="138.844" y1="81.8862" x2="138.844" y2="46.4367" gradientUnits="userSpaceOnUse">
<stop stop-color="#B38A3B"/>
<stop offset="0.526042" stop-color="#F4CF87" stop-opacity="0.851744"/>
<stop offset="0.895833" stop-color="#E2AB40" stop-opacity="0.734375"/>
<stop offset="1" stop-color="#C1850F"/>
</linearGradient>
<linearGradient id="paint14_linear_105_468" x1="138.383" y1="59.356" x2="138.383" y2="54.3067" gradientUnits="userSpaceOnUse">
<stop stop-color="#B38A3B"/>
<stop offset="0.526042" stop-color="#F4CF87" stop-opacity="0.851744"/>
<stop offset="0.895833" stop-color="#E2AB40" stop-opacity="0.734375"/>
<stop offset="1" stop-color="#C1850F"/>
</linearGradient>
<linearGradient id="paint15_linear_105_468" x1="96.8945" y1="39.0542" x2="96.8945" y2="33.8321" gradientUnits="userSpaceOnUse">
<stop stop-color="#B38A3B"/>
<stop offset="0.526042" stop-color="#F4CF87" stop-opacity="0.851744"/>
<stop offset="0.895833" stop-color="#E2AB40" stop-opacity="0.734375"/>
<stop offset="1" stop-color="#C1850F"/>
</linearGradient>
<linearGradient id="paint16_linear_105_468" x1="9.37053" y1="41.9443" x2="9.37053" y2="36.895" gradientUnits="userSpaceOnUse">
<stop stop-color="#B38A3B"/>
<stop offset="0.526042" stop-color="#F4CF87" stop-opacity="0.851744"/>
<stop offset="0.895833" stop-color="#E2AB40" stop-opacity="0.734375"/>
<stop offset="1" stop-color="#C1850F"/>
</linearGradient>
<linearGradient id="paint17_linear_105_468" x1="71.7532" y1="31.1147" x2="71.7532" y2="26.048" gradientUnits="userSpaceOnUse">
<stop stop-color="#B38A3B"/>
<stop offset="0.526042" stop-color="#F4CF87" stop-opacity="0.851744"/>
<stop offset="0.895833" stop-color="#E2AB40" stop-opacity="0.734375"/>
<stop offset="1" stop-color="#C1850F"/>
</linearGradient>
<linearGradient id="paint18_linear_105_468" x1="79.978" y1="49.1743" x2="79.978" y2="45.2612" gradientUnits="userSpaceOnUse">
<stop stop-color="#B38A3B"/>
<stop offset="0.526042" stop-color="#F4CF87" stop-opacity="0.851744"/>
<stop offset="0.895833" stop-color="#E2AB40" stop-opacity="0.734375"/>
<stop offset="1" stop-color="#C1850F"/>
</linearGradient>
<linearGradient id="paint19_linear_105_468" x1="95.2306" y1="55.3164" x2="95.2306" y2="51.6948" gradientUnits="userSpaceOnUse">
<stop stop-color="#B38A3B"/>
<stop offset="0.526042" stop-color="#F4CF87" stop-opacity="0.851744"/>
<stop offset="0.895833" stop-color="#E2AB40" stop-opacity="0.734375"/>
<stop offset="1" stop-color="#C1850F"/>
</linearGradient>
<linearGradient id="paint20_linear_105_468" x1="106.287" y1="48.0908" x2="106.287" y2="44.4867" gradientUnits="userSpaceOnUse">
<stop stop-color="#B38A3B"/>
<stop offset="0.526042" stop-color="#F4CF87" stop-opacity="0.851744"/>
<stop offset="0.895833" stop-color="#E2AB40" stop-opacity="0.734375"/>
<stop offset="1" stop-color="#C1850F"/>
</linearGradient>
<linearGradient id="paint21_linear_105_468" x1="103.864" y1="32.9253" x2="103.864" y2="29.3037" gradientUnits="userSpaceOnUse">
<stop stop-color="#B38A3B"/>
<stop offset="0.526042" stop-color="#F4CF87" stop-opacity="0.851744"/>
<stop offset="0.895833" stop-color="#E2AB40" stop-opacity="0.734375"/>
<stop offset="1" stop-color="#C1850F"/>
</linearGradient>
<linearGradient id="paint22_linear_105_468" x1="180.5" y1="39.0542" x2="180.5" y2="33.8321" gradientUnits="userSpaceOnUse">
<stop stop-color="#B38A3B"/>
<stop offset="0.526042" stop-color="#F4CF87" stop-opacity="0.851744"/>
<stop offset="0.895833" stop-color="#E2AB40" stop-opacity="0.734375"/>
<stop offset="1" stop-color="#C1850F"/>
</linearGradient>
<linearGradient id="paint23_linear_105_468" x1="268.024" y1="41.9443" x2="268.024" y2="36.895" gradientUnits="userSpaceOnUse">
<stop stop-color="#B38A3B"/>
<stop offset="0.526042" stop-color="#F4CF87" stop-opacity="0.851744"/>
<stop offset="0.895833" stop-color="#E2AB40" stop-opacity="0.734375"/>
<stop offset="1" stop-color="#C1850F"/>
</linearGradient>
<linearGradient id="paint24_linear_105_468" x1="205.641" y1="31.1147" x2="205.641" y2="26.048" gradientUnits="userSpaceOnUse">
<stop stop-color="#B38A3B"/>
<stop offset="0.526042" stop-color="#F4CF87" stop-opacity="0.851744"/>
<stop offset="0.895833" stop-color="#E2AB40" stop-opacity="0.734375"/>
<stop offset="1" stop-color="#C1850F"/>
</linearGradient>
<linearGradient id="paint25_linear_105_468" x1="197.402" y1="49.1743" x2="197.402" y2="45.2612" gradientUnits="userSpaceOnUse">
<stop stop-color="#B38A3B"/>
<stop offset="0.526042" stop-color="#F4CF87" stop-opacity="0.851744"/>
<stop offset="0.895833" stop-color="#E2AB40" stop-opacity="0.734375"/>
<stop offset="1" stop-color="#C1850F"/>
</linearGradient>
<linearGradient id="paint26_linear_105_468" x1="182.163" y1="55.3164" x2="182.163" y2="51.6948" gradientUnits="userSpaceOnUse">
<stop stop-color="#B38A3B"/>
<stop offset="0.526042" stop-color="#F4CF87" stop-opacity="0.851744"/>
<stop offset="0.895833" stop-color="#E2AB40" stop-opacity="0.734375"/>
<stop offset="1" stop-color="#C1850F"/>
</linearGradient>
<linearGradient id="paint27_linear_105_468" x1="171.107" y1="48.0908" x2="171.107" y2="44.4867" gradientUnits="userSpaceOnUse">
<stop stop-color="#B38A3B"/>
<stop offset="0.526042" stop-color="#F4CF87" stop-opacity="0.851744"/>
<stop offset="0.895833" stop-color="#E2AB40" stop-opacity="0.734375"/>
<stop offset="1" stop-color="#C1850F"/>
</linearGradient>
<linearGradient id="paint28_linear_105_468" x1="173.53" y1="32.9253" x2="173.53" y2="29.3037" gradientUnits="userSpaceOnUse">
<stop stop-color="#B38A3B"/>
<stop offset="0.526042" stop-color="#F4CF87" stop-opacity="0.851744"/>
<stop offset="0.895833" stop-color="#E2AB40" stop-opacity="0.734375"/>
<stop offset="1" stop-color="#C1850F"/>
</linearGradient>
<linearGradient id="paint29_linear_105_468" x1="138.383" y1="40.8652" x2="138.383" y2="37.2611" gradientUnits="userSpaceOnUse">
<stop stop-color="#B38A3B"/>
<stop offset="0.526042" stop-color="#F4CF87" stop-opacity="0.851744"/>
<stop offset="0.895833" stop-color="#E2AB40" stop-opacity="0.734375"/>
<stop offset="1" stop-color="#C1850F"/>
</linearGradient>
</defs>
</svg>
