<svg width="493" height="58" viewBox="0 0 493 58" fill="none" xmlns="http://www.w3.org/2000/svg">
<path d="M280.137 27.1934C280.319 25.3225 280.799 23.5584 281.487 21.9312C281.689 22.2869 281.899 22.6374 282.074 23.0086C283.197 25.3576 283.764 27.9968 283.601 30.6947C283.503 32.4867 283.098 34.2718 282.483 35.9796C282.325 36.4059 282.164 36.8306 281.981 37.2468L281.868 37.5156L281.867 37.52L281.867 37.5312C281.864 37.5468 281.86 37.5706 281.849 37.6013C281.837 37.6041 281.811 37.579 281.788 37.5578C281.815 37.624 281.708 37.3749 281.664 37.2624L281.496 36.8378C281.388 36.555 281.285 36.2691 281.187 35.9825C280.993 35.4071 280.823 34.8272 280.674 34.2424C280.087 31.9046 279.897 29.4962 280.137 27.1934ZM235.947 12.6624C235.137 14.1183 234.463 15.6658 233.985 17.2962C233.319 19.5567 233.037 21.979 233.26 24.3112C233.47 26.6436 234.198 28.8306 235.218 30.633C236.244 32.4544 237.521 33.8711 238.829 35.0537C240.153 36.2396 241.599 37.1739 243.102 37.7153C244.602 38.2668 246.15 38.4103 247.574 38.1556C250.443 37.6547 252.695 35.6814 253.888 33.4153C254.485 32.2786 254.829 31.0281 254.801 29.8394C254.785 28.6464 254.323 27.5974 253.724 26.9753C253.662 26.9106 253.597 26.86 253.534 26.8011C253.273 26.3999 252.976 26.0653 252.672 25.8177C252.001 25.2679 251.316 25.0805 250.788 25.0609C250.506 25.0565 250.282 25.0877 250.086 25.1327C250.526 25.2368 250.93 25.4254 251.286 25.687C251.472 25.8249 251.648 25.9796 251.807 26.1567C252.008 26.3831 252.184 26.6392 252.334 26.9234C252.705 27.4071 253.014 28.0571 253.116 28.8306C253.242 29.7437 253.039 30.7861 252.416 31.5907C251.756 32.4587 250.818 33.1127 249.691 33.314C247.46 33.7343 244.514 32.4544 242.582 29.8322C242.107 29.1699 241.732 28.4609 241.5 27.6336C241.228 26.7349 241.024 25.7955 240.915 24.8333C240.689 22.9074 240.87 20.8774 241.549 18.9842C241.889 18.0403 242.339 17.1245 242.895 16.2723C243.173 15.8473 243.477 15.4337 243.801 15.0398C244.045 14.7443 244.396 14.3703 244.808 13.9664C244.938 13.8611 245.089 13.767 245.234 13.6686C245.215 13.653 245.197 13.6318 245.179 13.6151C246.78 12.1405 249.334 10.3092 252.577 9.44145C256.42 8.60732 260.736 8.8477 265.062 10.052C269.372 11.2713 273.794 13.4489 277.492 16.884C278.003 17.3636 278.493 17.8756 278.967 18.4059C278.962 18.4143 278.957 18.4227 278.951 18.4315C277.623 20.7849 276.67 23.57 276.281 26.5351C275.881 29.4977 276.05 32.6147 276.727 35.5813C276.897 36.3225 277.097 37.0555 277.324 37.7788C277.438 38.14 277.559 38.4972 277.687 38.8534L277.884 39.3821C277.962 39.5862 277.987 39.6525 278.146 40.0293C279.198 42.5752 280.487 44.5166 281.759 46.7588C282.73 45.1494 283.68 43.7148 284.614 42.0182C284.839 41.5852 285.077 41.1672 285.287 40.7103L285.61 40.0337L285.801 39.6102C286.028 39.0994 286.237 38.5719 286.437 38.0375C287.228 35.8924 287.791 33.5262 287.926 31.0421C288.163 27.3002 287.31 23.5134 285.789 20.4527C285.284 19.4231 284.701 18.4889 284.089 17.5958C284.61 16.9542 285.156 16.3465 285.741 15.8049C287.195 14.4449 288.83 13.332 290.464 12.5345C292.163 11.7354 293.896 11.0464 295.571 10.5261C298.931 9.4821 302.159 9.00801 305.103 9.05585C311.019 9.12048 315.649 11.1728 318.594 12.9596C321.563 14.7711 323.013 16.1767 323.029 16.1399C323.009 16.1739 321.724 14.5685 318.882 12.3602C316.064 10.1827 311.459 7.47767 305.202 6.79265C302.095 6.43821 298.628 6.62954 294.99 7.45101C293.165 7.86607 291.329 8.43984 289.42 9.18109C287.464 9.98017 285.57 11.0983 283.755 12.6118C283.047 13.2068 282.368 13.8879 281.712 14.6136C281.159 14.0242 280.592 13.4671 280.011 12.9496C275.576 9.04039 270.616 6.88673 265.815 5.77825C261.002 4.70362 256.244 4.72637 251.95 5.98237C249.809 6.61675 247.786 7.57053 246.012 8.87728C244.977 9.6368 244.072 10.5077 243.252 11.4316C243.248 11.4288 243.246 11.4248 243.243 11.422C243.233 11.4304 243.223 11.4376 243.212 11.446C242.969 11.668 242.77 11.8777 242.588 12.0831C242.352 12.3491 242.142 12.6079 241.917 12.8877C241.533 13.3742 241.175 13.889 240.844 14.4209C240.182 15.4888 239.638 16.6518 239.239 17.8645C238.783 19.2302 238.555 20.6568 238.486 22.062C238.482 22.1461 238.484 22.2251 238.48 22.308C238.447 23.3152 238.48 24.3112 238.62 25.2564C238.787 26.4337 239.069 27.5451 239.419 28.5834C239.78 29.7127 240.366 30.7243 241 31.5317C242.287 33.1621 243.819 34.2184 245.368 34.8584C246.919 35.4884 248.535 35.6715 250.01 35.2859C250.477 35.1694 250.919 34.9793 251.336 34.7487C250.238 35.6291 248.886 36.2452 247.407 36.3721C244.967 36.6196 242.322 35.4027 240.106 33.1311C238.986 31.9931 237.93 30.6736 237.162 29.1461C236.389 27.6168 235.889 25.87 235.783 24.0298C235.561 20.5077 236.804 16.7855 238.872 13.6502C239.351 12.9664 239.858 12.2857 240.395 11.6174C240.897 11.0252 241.424 10.4543 241.978 9.90957C241.963 9.89448 241.95 9.87609 241.935 9.85771C243.529 8.17826 245.362 6.68419 247.535 5.6474C255.139 2.05761 262.886 1.79603 268.163 3.06481C273.521 4.30851 276.3 7.06261 276.293 6.98958C276.284 7.00358 275.699 6.24674 274.418 5.17769C273.143 4.11145 271.13 2.77817 268.426 1.81003C263.069 -0.152169 254.63 -1.29144 246.494 2.54167C242.469 4.46164 239.266 7.27232 236.952 10.9998C236.598 11.5389 236.264 12.0927 235.947 12.6624Z" fill="url(#paint0_linear_106_104)"/>
<path d="M261.533 40.6693C261.177 39.6269 260.647 38.648 260.009 37.9278C259.371 37.199 258.669 36.7405 258.04 36.4649C256.77 35.9246 255.772 35.953 255.102 35.9809C254.432 36.0219 254.075 36.116 254.074 36.1116L254.943 36.7321C255.481 37.1372 256.269 37.7405 256.931 38.603C257.609 39.485 257.957 40.4962 258.037 41.8468C258.086 42.5246 258.08 43.3281 258.053 44.189C257.983 44.2619 257.928 44.2396 257.907 44.214L257.892 44.1972C257.894 44.1972 257.899 44.21 257.894 44.2284L257.888 44.2463C257.882 44.2463 257.895 44.2507 257.875 44.2523L257.732 44.2268L257.18 44.1228C256.448 43.9665 255.754 43.7738 255.119 43.5318C253.847 43.0521 252.832 42.3981 252.178 41.5596C251.511 40.7343 251.23 39.6621 251.142 38.8674C251.054 38.0683 251.086 37.5718 251.078 37.5762C251.085 37.5818 250.795 37.9163 250.452 38.7197C250.121 39.4977 249.73 40.928 250.155 42.7482C250.562 44.5546 251.798 46.3637 253.408 47.5913C254.215 48.2174 255.118 48.7254 256.084 49.1066C256.327 49.1979 256.573 49.2881 256.821 49.3638L257.01 49.4204L257.327 49.5017C257.546 49.5512 257.767 49.6031 257.988 49.6441C258.879 49.8195 259.77 49.8646 260.63 49.8646L262.444 49.8674C262.411 47.7788 262.4 45.7755 262.234 43.8863C262.1 42.7921 261.894 41.7171 261.533 40.6693Z" fill="url(#paint1_linear_106_104)"/>
<path d="M265.494 24.9357L265.256 24.7949L265.107 24.7176L264.809 24.5684L264.214 24.3001C263.819 24.1311 263.426 23.9864 263.034 23.8623C261.479 23.3742 259.965 23.2323 258.678 23.4911C257.386 23.7259 256.393 24.4995 255.997 25.1973C255.583 25.8895 255.576 26.338 255.56 26.3285C255.561 26.3436 255.847 26.0258 256.393 25.8233C256.939 25.6136 257.702 25.6502 258.591 26.0274C259.484 26.3931 260.519 27.0586 261.634 27.8924L262.483 28.5479L262.917 28.8968L263.133 29.0755L263.244 29.1655C263.273 29.195 263.256 29.1883 263.263 29.1978C263.271 29.3046 263.223 29.3414 263.196 29.3498L263.18 29.3525C263.18 29.3525 263.193 29.3525 263.205 29.3668L263.212 29.3808C263.219 29.3808 263.226 29.3793 263.151 29.4877L262.819 29.9546C262.379 30.5539 261.933 31.0703 261.482 31.4822C260.589 32.3152 259.642 32.7387 258.65 32.7777C257.666 32.8228 256.744 32.5277 256.12 32.2856C255.49 32.0365 255.129 31.8495 255.129 31.855C255.134 31.8539 255.288 32.2758 255.701 32.9624C256.12 33.6318 256.805 34.6247 258.087 35.3859C258.723 35.7559 259.518 36.0399 260.414 36.0905C261.306 36.1455 262.283 35.954 263.205 35.5334C264.132 35.1143 265.004 34.4755 265.782 33.702C265.975 33.5078 266.165 33.3052 266.347 33.0943C266.416 33.017 266.571 32.8299 266.716 32.6358C266.864 32.4515 267.001 32.2562 267.14 32.062C267.694 31.2756 268.17 30.4287 268.611 29.5862L269.427 28.0264C268.769 27.4398 268.148 26.8923 267.511 26.3564C266.871 25.8249 266.178 25.348 265.494 24.9357Z" fill="url(#paint2_linear_106_104)"/>
<path d="M221.261 25.1142C221.406 25.3113 221.561 25.497 221.629 25.5745C221.813 25.7838 222.002 25.9863 222.195 26.1805C222.974 26.9557 223.847 27.5929 224.773 28.012C225.698 28.4326 226.671 28.6224 227.564 28.5689C228.461 28.5183 229.254 28.2345 229.89 27.8627C231.172 27.102 231.858 26.1104 232.277 25.4392C232.691 24.7514 232.844 24.3295 232.849 24.3323C232.847 24.3279 232.488 24.5149 231.858 24.7626C231.233 25.0046 230.313 25.3013 229.328 25.2563C228.335 25.2171 227.387 24.7936 226.496 23.9607C226.048 23.5473 225.601 23.0341 225.159 22.432L224.827 21.9674C224.752 21.8577 224.759 21.8594 224.766 21.8594L224.775 21.8454C224.785 21.8311 224.795 21.8298 224.795 21.831L224.781 21.8254C224.755 21.8186 224.707 21.782 224.715 21.6763C224.722 21.6651 224.703 21.6735 224.735 21.6441L224.844 21.5539L225.063 21.3753L225.495 21.0264L226.345 20.3708C227.46 19.5355 228.494 18.8728 229.387 18.506C230.276 18.1288 231.039 18.092 231.585 18.3017C232.132 18.5044 232.416 18.8222 232.418 18.807C232.403 18.8154 232.395 18.368 231.983 17.6758C231.584 16.9779 230.592 16.2044 229.298 15.9695C228.013 15.7092 226.499 15.8527 224.943 16.3408C224.553 16.4648 224.16 16.6095 223.763 16.777L223.17 17.047L222.87 17.1961L222.723 17.2735L222.482 17.4142C221.801 17.8264 221.106 18.3017 220.466 18.8321C219.83 19.3696 219.21 19.9183 218.55 20.506L219.367 22.0632C219.808 22.9089 220.284 23.7542 220.839 24.5405C220.977 24.7347 221.114 24.9285 221.261 25.1142Z" fill="url(#paint3_linear_106_104)"/>
<path d="M254.683 24.7403C255.259 24.6714 256.191 24.3392 257.036 23.3224C257.883 22.3252 258.532 20.7437 258.747 18.9757C258.8 18.5311 258.834 18.0742 258.836 17.6096C258.837 17.3552 258.843 17.2061 258.807 16.7926C258.77 16.421 258.73 16.047 258.664 15.6714C258.426 14.1454 257.868 12.8116 257.36 11.3658L257.174 11.4232L255.147 12.0914L254.169 12.4276L253.692 12.6007C253.548 12.6569 253.339 12.733 253.289 12.7598C252.747 13.0014 252.22 13.2885 251.709 13.6063C251.499 13.1294 250.859 11.8044 250.584 11.3658C250.38 11.4192 247.736 13.027 246.494 13.6179C246.801 13.8795 247.071 14.1761 247.296 14.5179C247.798 15.2607 248.139 16.2551 248.336 17.4142C248.135 17.9785 248.085 18.5495 248.046 19.0304C247.721 23.1677 249.976 23.3574 249.968 23.3646C249.976 23.3714 248.253 21.5807 250.181 18.8238C250.789 18.4833 251.654 18.2695 252.717 18.0598L254.443 17.7236C254.553 17.697 254.503 17.7224 254.522 17.7252L254.531 17.7464C254.536 17.7588 254.537 17.7704 254.537 17.7815C254.541 17.8011 254.536 17.8138 254.536 17.8138C254.536 17.8082 254.566 17.7588 254.633 17.7632C254.65 17.7632 254.67 17.7687 254.689 17.7771C254.701 17.7448 254.756 17.9757 254.782 18.0965C254.852 18.382 254.909 18.6648 254.961 18.9418C255.171 20.0587 255.238 21.0743 255.125 21.9368C255.022 22.8017 254.691 23.5261 254.366 23.9974C254.041 24.4727 253.785 24.7148 253.79 24.722C253.79 24.7092 254.094 24.8093 254.683 24.7403Z" fill="url(#paint4_linear_106_104)"/>
<path d="M246.901 40.5144C246.391 39.8883 245.866 39.551 245.441 39.3385C244.581 38.9349 244.096 38.9317 244.098 38.9138C244.086 38.9222 244.502 39.2738 245.03 40.0223C245.565 40.7663 246.047 41.9801 245.781 43.3291C245.551 44.6895 244.73 46.2889 243.598 47.9557C243.034 48.7926 242.393 49.6495 241.703 50.5227L241.44 50.8505C241.408 50.8899 241.328 50.9929 241.332 50.9829L241.322 50.9785C241.31 50.9745 241.301 50.9673 241.296 50.9589C241.283 50.9433 241.285 50.9279 241.285 50.9279C241.285 50.9279 241.283 50.9433 241.272 50.9589C241.263 50.9661 241.254 50.9717 241.241 50.9745L241.221 50.9773C241.214 50.9689 241.217 50.9901 241.202 50.9589L241.12 50.7914C240.678 49.876 240.334 48.9289 240.078 47.9695C239.823 47.0102 239.662 46.0441 239.569 45.0919C239.459 44.197 239.471 43.4179 239.578 42.6639C239.788 41.177 240.431 40.0997 241.092 39.572C241.751 39.0319 242.272 38.9317 242.259 38.9138C242.258 38.9417 241.805 38.6645 240.853 38.7814C240.383 38.8448 239.789 39.0529 239.184 39.517C238.58 39.9785 237.983 40.6929 237.502 41.6144C237.026 42.5216 236.653 43.6979 236.489 44.9216C236.309 46.0863 236.23 47.4001 236.336 48.7858C236.441 50.171 236.729 51.6329 237.24 53.0492L237.339 53.3179L237.512 53.733C237.632 54.0213 237.77 54.3011 237.903 54.5811C238.179 55.1398 238.484 55.6729 238.806 56.1748C239.452 57.1681 240.132 56.6673 240.839 57.6589L240.873 57.7024C241.677 56.757 242.457 57.2567 243.22 56.3129C243.597 55.8315 243.971 55.3463 244.322 54.8511L244.586 54.4782L244.747 54.2377L245.012 53.8214C245.713 52.7046 246.321 51.5511 246.817 50.3708C247.798 48.0358 248.388 45.4882 248.031 43.2122C247.854 42.0885 247.409 41.1332 246.901 40.5144Z" fill="url(#paint5_linear_106_104)"/>
<path d="M237.293 36.6363C237.22 35.4126 236.898 34.8779 236.923 34.8739C236.903 34.8611 236.935 35.5389 236.607 36.5099C236.289 37.4872 235.497 38.5706 234.184 39.3386C232.884 40.1265 231.13 40.6836 229.15 41.0124C228.161 41.1743 227.11 41.2852 226.047 41.3136L225.249 41.3191C225.059 41.3191 225.119 41.308 225.108 41.3024L225.103 41.2852C225.099 41.2612 225.11 41.2489 225.111 41.2461L225.112 41.2461C225.112 41.2461 225.102 41.2545 225.085 41.2446L225.074 41.2346C225.074 41.2278 225.068 41.239 225.071 41.2194L225.116 41.032C225.188 40.7581 225.268 40.4837 225.355 40.2134C225.711 39.1205 226.192 38.0742 226.729 37.1243C227.808 35.2255 229.112 33.7203 230.381 32.7864C231.647 31.8339 232.896 31.4838 233.803 31.4682C234.713 31.4431 235.249 31.6385 235.247 31.6189C235.239 31.6385 234.875 31.1448 233.947 30.6424C233.035 30.1361 231.45 29.762 229.574 30.2712C227.709 30.762 225.631 32.052 223.832 34.1805C222.935 35.2479 222.101 36.5223 221.44 38.0442C221.275 38.4286 221.123 38.8249 220.983 39.2357L220.877 39.5706L220.736 40.0814C220.643 40.4303 220.563 40.7848 220.5 41.1393C220.204 42.5895 220.271 43.9217 220.265 45.3125L220.268 45.9034C221.446 46.1622 222.5 46.4984 223.727 46.5605C224.03 46.5717 224.331 46.5845 224.633 46.5756C224.926 46.5773 225.291 46.5562 225.404 46.5434C225.743 46.5155 226.075 46.4716 226.404 46.4209C227.713 46.2144 228.931 45.8459 230.063 45.3815C232.318 44.4433 234.241 43.0759 235.551 41.4331C236.205 40.6173 236.692 39.7297 236.97 38.88C237.252 38.029 237.323 37.2427 237.293 36.6363Z" fill="url(#paint6_linear_106_104)"/>
<path d="M242.365 44.4292C244.079 44.4292 244.079 41.2557 242.365 41.2557C240.652 41.2557 240.652 44.4292 242.365 44.4292Z" fill="url(#paint7_linear_106_104)"/>
<path d="M253.663 38.0826C251.948 38.0826 251.948 41.2559 253.663 41.2559C255.376 41.2559 255.376 38.0826 253.663 38.0826Z" fill="url(#paint8_linear_106_104)"/>
<path d="M257.783 27.9278C256.069 27.9278 256.069 31.1011 257.783 31.1011C259.497 31.1011 259.497 27.9278 257.783 27.9278Z" fill="url(#paint9_linear_106_104)"/>
<path d="M252.732 20.3107L252.6 20.3107C251.875 20.3107 251.271 21.0336 251.271 21.8973C251.271 22.7626 251.875 23.4839 252.6 23.4839L252.732 23.4839C253.457 23.4839 254.062 22.7626 254.062 21.8973C254.062 21.0336 253.457 20.3107 252.732 20.3107Z" fill="url(#paint10_linear_106_104)"/>
<path d="M229.474 19.9926C227.761 19.9926 227.761 23.1677 229.474 23.1677C231.187 23.1677 231.187 19.9926 229.474 19.9926Z" fill="url(#paint11_linear_106_104)"/>
<path d="M232.396 37.4493C234.111 37.4493 234.111 34.2746 232.396 34.2746C230.683 34.2746 230.683 37.4493 232.396 37.4493Z" fill="url(#paint12_linear_106_104)"/>
<path d="M249.011 30.4666C251.411 30.4666 251.411 26.0229 249.011 26.0229C246.612 26.0229 246.612 30.4666 249.011 30.4666Z" fill="url(#paint13_linear_106_104)"/>
<path d="M430.583 21.0224C451.389 20.6736 472.195 20.4682 493 19.9926C472.195 19.5188 451.389 19.3135 430.583 18.9645L373.671 18.4298C374.032 19.4893 374.281 20.4766 374.265 21.5511L430.583 21.0224Z" fill="url(#paint14_linear_106_104)"/>
<path d="M359.719 21.6864C359.482 21.2079 359.277 20.7058 359.152 20.1671C359.012 19.5551 358.977 18.9235 358.995 18.2946C350.137 18.2217 337.187 18.4554 328.331 18.4299C329.337 19.589 332.494 20.3107 335.333 21.8115C343.461 21.7861 351.59 21.7554 359.719 21.6864Z" fill="url(#paint15_linear_106_104)"/>
<path d="M130.404 21.7242C135.629 21.7593 148.438 21.7876 153.661 21.8043C153.923 21.097 159.17 18.728 159.552 18.4115C153.092 18.4314 136.169 18.2233 129.709 18.2707C129.874 18.6914 130.034 19.1348 130.202 19.6141C130.421 20.2417 130.467 20.9814 130.404 21.7242Z" fill="url(#paint16_linear_106_104)"/>
<path d="M7.70062e-06 20.122L0.0200043 20.122C0.0320359 20.156 0.044777 20.1432 0.0591508 20.1236L0.48793 20.1332L1.46114 20.1532L9.2656 20.3119L24.8699 20.5526L56.0784 21.0279L113.902 21.5739C113.813 20.4766 113.847 19.437 114.048 18.4114L56.0784 18.9589L24.8699 19.4342L9.2656 19.6747L1.46114 19.8338L0.48793 19.8533L0.0591508 19.8632C0.044777 19.8438 0.0320359 19.8322 0.0200044 19.8645L7.71325e-06 19.8645C7.71062e-06 19.9182 0.00234993 19.9573 0.00367745 19.9925C0.00234993 20.0291 7.70324e-06 20.0686 7.70062e-06 20.122Z" fill="url(#paint17_linear_106_104)"/>
<path d="M206.366 23.0086C206.541 22.6374 206.751 22.2869 206.953 21.9312C207.641 23.5584 208.121 25.3225 208.303 27.1934C208.542 29.4962 208.354 31.9046 207.764 34.2424C207.617 34.8272 207.447 35.4071 207.253 35.9825C207.154 36.2691 207.052 36.555 206.943 36.8378L206.775 37.2624C206.732 37.3749 206.625 37.624 206.651 37.5578C206.628 37.579 206.603 37.6041 206.591 37.6013C206.579 37.5706 206.574 37.5468 206.573 37.5312L206.572 37.52L206.572 37.5156L206.458 37.2468C206.275 36.8306 206.115 36.4059 205.957 35.9796C205.341 34.2718 204.937 32.4867 204.839 30.6947C204.676 27.9968 205.242 25.3576 206.366 23.0086ZM183.335 9.05584C186.281 9.00801 189.509 9.4821 192.869 10.5261C194.544 11.0464 196.277 11.7354 197.976 12.5345C199.609 13.332 201.245 14.4449 202.699 15.8049C203.284 16.3465 203.829 16.9542 204.35 17.5958C203.738 18.4889 203.155 19.4231 202.651 20.4527C201.13 23.5134 200.277 27.3002 200.514 31.0421C200.649 33.5262 201.211 35.8924 202.002 38.0375C202.202 38.5719 202.412 39.0994 202.638 39.6102L202.829 40.0337L203.153 40.7103C203.362 41.1672 203.6 41.5852 203.824 42.0182C204.76 43.7148 205.71 45.1494 206.681 46.7588C207.953 44.5166 209.242 42.5753 210.294 40.0293C210.452 39.6525 210.478 39.5862 210.556 39.3821L210.752 38.8534C210.881 38.4973 211.002 38.14 211.115 37.7788C211.343 37.0555 211.543 36.3225 211.713 35.5813C212.39 32.6147 212.557 29.4977 212.158 26.5351C211.77 23.57 210.816 20.7849 209.488 18.4315C209.483 18.4227 209.478 18.4143 209.473 18.4059C209.947 17.8756 210.437 17.3636 210.947 16.884C214.646 13.4489 219.068 11.2713 223.378 10.052C227.704 8.84771 232.019 8.60733 235.862 9.44146C235.995 9.47663 236.12 9.52289 236.248 9.5667C236.282 9.47213 236.312 9.38205 236.348 9.28516C236.584 8.6268 237.017 8.11327 237.394 7.56226C237.643 7.19614 237.975 6.90512 238.331 6.64756C237.729 6.40303 237.118 6.16787 236.49 5.98238C232.196 4.72638 227.438 4.70362 222.625 5.77826C217.823 6.88673 212.864 9.04039 208.428 12.9496C207.848 13.4671 207.281 14.0242 206.726 14.6136C206.071 13.8879 205.391 13.2068 204.685 12.6118C202.87 11.0983 200.975 9.98017 199.02 9.18109C197.11 8.43984 195.275 7.86606 193.449 7.45101C189.812 6.62954 186.344 6.4382 183.236 6.79264C176.981 7.47766 172.376 10.1827 169.557 12.3602C166.715 14.5685 165.431 16.1739 165.411 16.1399C165.427 16.1767 166.877 14.7711 169.846 12.9596C172.791 11.1728 177.421 9.12047 183.335 9.05584Z" fill="url(#paint18_linear_106_104)"/>
<path d="M310.873 14.1298C303.145 13.156 294.571 14.7825 286.886 19.9323L288.478 23.2295C295.315 18.4286 303.111 16.6419 310.298 17.2695C313.905 17.5717 317.381 18.4354 320.656 19.6791C322.291 20.3051 323.882 21.0141 325.417 21.8043C326.961 22.609 328.53 23.4208 330.061 24.1661C336.206 27.1723 342.096 29.5567 347.691 31.0476C353.264 32.5037 358.639 33.1661 363.357 31.8483C365.693 31.1855 367.825 29.9139 369.37 28.0965C370.878 26.289 371.99 24.1366 372.214 21.851C372.462 19.5639 371.625 17.4493 370.467 16.1877C369.306 14.8933 367.916 14.2617 366.67 14.0776C365.413 13.8905 364.287 14.1592 363.415 14.6067C362.536 15.0553 361.914 15.6785 361.468 16.2172C360.596 17.3325 360.357 18.0826 360.338 18.0642C360.354 18.0826 360.618 17.3664 361.491 16.3285C362.332 15.328 364.069 14.0325 366.461 14.4192C367.626 14.6079 368.91 15.2211 369.965 16.4002C371.019 17.5533 371.771 19.3864 371.592 21.3924C371.438 23.3926 370.434 25.3786 369.043 27.0302C367.644 28.679 365.721 29.8549 363.541 30.4499C359.149 31.6457 353.973 30.9084 348.571 29.3374C343.143 27.7348 337.391 25.2155 331.362 22.0648C329.854 21.2757 328.333 20.4426 326.787 19.5733C325.202 18.6886 323.558 17.8601 321.847 17.136C318.429 15.6825 314.748 14.6011 310.873 14.1298Z" fill="url(#paint19_linear_106_104)"/>
<path d="M118.935 28.0964C120.478 29.9139 122.612 31.1855 124.948 31.8482C129.666 33.1661 135.039 32.5037 140.614 31.0476C146.209 29.5567 152.099 27.1723 158.243 24.1661C159.774 23.4208 161.343 22.609 162.888 21.8043C164.423 21.0141 166.012 20.3051 167.648 19.6791C170.923 18.4354 174.4 17.5717 178.005 17.2695C185.194 16.6419 192.988 18.4286 199.826 23.2295L201.417 19.9323C193.733 14.7826 185.158 13.1561 177.432 14.1298C173.555 14.6011 169.876 15.6825 166.458 17.136C164.746 17.8601 163.101 18.6886 161.517 19.5733C159.971 20.4426 158.45 21.2757 156.941 22.0648C150.914 25.2155 145.16 27.7348 139.734 29.3373C134.331 30.9084 129.153 31.6457 124.763 30.4498C122.582 29.8549 120.66 28.679 119.262 27.0302C117.869 25.3786 116.867 23.3926 116.711 21.3924C116.532 19.3864 117.284 17.5533 118.339 16.4002C119.394 15.2211 120.678 14.6079 121.843 14.4192C124.235 14.0325 125.971 15.328 126.813 16.3285C127.685 17.3664 127.95 18.0825 127.967 18.0642C127.948 18.0825 127.709 17.3325 126.837 16.2172C126.39 15.6785 125.766 15.0553 124.888 14.6067C124.017 14.1592 122.891 13.8905 121.635 14.0776C120.388 14.2617 118.996 14.8933 117.838 16.1877C116.68 17.4493 115.843 19.5638 116.09 21.851C116.314 24.1366 117.426 26.2889 118.935 28.0964Z" fill="url(#paint20_linear_106_104)"/>
<path d="M368.095 20.6174C368.095 19.2078 367.139 18.0643 365.958 18.0643C364.777 18.0643 363.82 19.2078 363.82 20.6174C363.82 22.0253 364.777 23.1677 365.958 23.1677C367.139 23.1677 368.095 22.0253 368.095 20.6174Z" fill="url(#paint21_linear_106_104)"/>
<path d="M120.551 20.7748C120.551 22.2713 121.567 23.4839 122.82 23.4839C124.074 23.4839 125.09 22.2713 125.09 20.7748C125.09 19.278 124.074 18.0642 122.82 18.0642C121.567 18.0642 120.551 19.278 120.551 20.7748Z" fill="url(#paint22_linear_106_104)"/>
<defs>
<linearGradient id="paint0_linear_106_104" x1="278.107" y1="46.7588" x2="278.107" y2="-5.23056e-05" gradientUnits="userSpaceOnUse">
<stop stop-color="#B38A3B"/>
<stop offset="0.526042" stop-color="#F4CF87" stop-opacity="0.851744"/>
<stop offset="0.895833" stop-color="#E2AB40" stop-opacity="0.734375"/>
<stop offset="1" stop-color="#C1850F"/>
</linearGradient>
<linearGradient id="paint1_linear_106_104" x1="256.206" y1="49.8674" x2="256.206" y2="35.9685" gradientUnits="userSpaceOnUse">
<stop stop-color="#B38A3B"/>
<stop offset="0.526042" stop-color="#F4CF87" stop-opacity="0.851744"/>
<stop offset="0.895833" stop-color="#E2AB40" stop-opacity="0.734375"/>
<stop offset="1" stop-color="#C1850F"/>
</linearGradient>
<linearGradient id="paint2_linear_106_104" x1="262.278" y1="36.0997" x2="262.278" y2="23.3638" gradientUnits="userSpaceOnUse">
<stop stop-color="#B38A3B"/>
<stop offset="0.526042" stop-color="#F4CF87" stop-opacity="0.851744"/>
<stop offset="0.895833" stop-color="#E2AB40" stop-opacity="0.734375"/>
<stop offset="1" stop-color="#C1850F"/>
</linearGradient>
<linearGradient id="paint3_linear_106_104" x1="225.699" y1="28.5778" x2="225.699" y2="15.8416" gradientUnits="userSpaceOnUse">
<stop stop-color="#B38A3B"/>
<stop offset="0.526042" stop-color="#F4CF87" stop-opacity="0.851744"/>
<stop offset="0.895833" stop-color="#E2AB40" stop-opacity="0.734375"/>
<stop offset="1" stop-color="#C1850F"/>
</linearGradient>
<linearGradient id="paint4_linear_106_104" x1="252.666" y1="24.7648" x2="252.666" y2="11.3658" gradientUnits="userSpaceOnUse">
<stop stop-color="#B38A3B"/>
<stop offset="0.526042" stop-color="#F4CF87" stop-opacity="0.851744"/>
<stop offset="0.895833" stop-color="#E2AB40" stop-opacity="0.734375"/>
<stop offset="1" stop-color="#C1850F"/>
</linearGradient>
<linearGradient id="paint5_linear_106_104" x1="242.212" y1="57.7024" x2="242.212" y2="38.7525" gradientUnits="userSpaceOnUse">
<stop stop-color="#B38A3B"/>
<stop offset="0.526042" stop-color="#F4CF87" stop-opacity="0.851744"/>
<stop offset="0.895833" stop-color="#E2AB40" stop-opacity="0.734375"/>
<stop offset="1" stop-color="#C1850F"/>
</linearGradient>
<linearGradient id="paint6_linear_106_104" x1="228.781" y1="46.5786" x2="228.781" y2="30.0286" gradientUnits="userSpaceOnUse">
<stop stop-color="#B38A3B"/>
<stop offset="0.526042" stop-color="#F4CF87" stop-opacity="0.851744"/>
<stop offset="0.895833" stop-color="#E2AB40" stop-opacity="0.734375"/>
<stop offset="1" stop-color="#C1850F"/>
</linearGradient>
<linearGradient id="paint7_linear_106_104" x1="242.365" y1="44.4292" x2="242.365" y2="41.2557" gradientUnits="userSpaceOnUse">
<stop stop-color="#B38A3B"/>
<stop offset="0.526042" stop-color="#F4CF87" stop-opacity="0.851744"/>
<stop offset="0.895833" stop-color="#E2AB40" stop-opacity="0.734375"/>
<stop offset="1" stop-color="#C1850F"/>
</linearGradient>
<linearGradient id="paint8_linear_106_104" x1="253.662" y1="41.2559" x2="253.662" y2="38.0826" gradientUnits="userSpaceOnUse">
<stop stop-color="#B38A3B"/>
<stop offset="0.526042" stop-color="#F4CF87" stop-opacity="0.851744"/>
<stop offset="0.895833" stop-color="#E2AB40" stop-opacity="0.734375"/>
<stop offset="1" stop-color="#C1850F"/>
</linearGradient>
<linearGradient id="paint9_linear_106_104" x1="257.783" y1="31.1011" x2="257.783" y2="27.9278" gradientUnits="userSpaceOnUse">
<stop stop-color="#B38A3B"/>
<stop offset="0.526042" stop-color="#F4CF87" stop-opacity="0.851744"/>
<stop offset="0.895833" stop-color="#E2AB40" stop-opacity="0.734375"/>
<stop offset="1" stop-color="#C1850F"/>
</linearGradient>
<linearGradient id="paint10_linear_106_104" x1="252.667" y1="23.4839" x2="252.667" y2="20.3107" gradientUnits="userSpaceOnUse">
<stop stop-color="#B38A3B"/>
<stop offset="0.526042" stop-color="#F4CF87" stop-opacity="0.851744"/>
<stop offset="0.895833" stop-color="#E2AB40" stop-opacity="0.734375"/>
<stop offset="1" stop-color="#C1850F"/>
</linearGradient>
<linearGradient id="paint11_linear_106_104" x1="229.474" y1="23.1677" x2="229.474" y2="19.9926" gradientUnits="userSpaceOnUse">
<stop stop-color="#B38A3B"/>
<stop offset="0.526042" stop-color="#F4CF87" stop-opacity="0.851744"/>
<stop offset="0.895833" stop-color="#E2AB40" stop-opacity="0.734375"/>
<stop offset="1" stop-color="#C1850F"/>
</linearGradient>
<linearGradient id="paint12_linear_106_104" x1="232.397" y1="37.4493" x2="232.397" y2="34.2746" gradientUnits="userSpaceOnUse">
<stop stop-color="#B38A3B"/>
<stop offset="0.526042" stop-color="#F4CF87" stop-opacity="0.851744"/>
<stop offset="0.895833" stop-color="#E2AB40" stop-opacity="0.734375"/>
<stop offset="1" stop-color="#C1850F"/>
</linearGradient>
<linearGradient id="paint13_linear_106_104" x1="249.012" y1="30.4666" x2="249.012" y2="26.0229" gradientUnits="userSpaceOnUse">
<stop stop-color="#B38A3B"/>
<stop offset="0.526042" stop-color="#F4CF87" stop-opacity="0.851744"/>
<stop offset="0.895833" stop-color="#E2AB40" stop-opacity="0.734375"/>
<stop offset="1" stop-color="#C1850F"/>
</linearGradient>
<linearGradient id="paint14_linear_106_104" x1="433.335" y1="21.5511" x2="433.335" y2="18.4298" gradientUnits="userSpaceOnUse">
<stop stop-color="#B38A3B"/>
<stop offset="0.526042" stop-color="#F4CF87" stop-opacity="0.851744"/>
<stop offset="0.895833" stop-color="#E2AB40" stop-opacity="0.734375"/>
<stop offset="1" stop-color="#C1850F"/>
</linearGradient>
<linearGradient id="paint15_linear_106_104" x1="344.025" y1="21.8115" x2="344.025" y2="18.2805" gradientUnits="userSpaceOnUse">
<stop stop-color="#B38A3B"/>
<stop offset="0.526042" stop-color="#F4CF87" stop-opacity="0.851744"/>
<stop offset="0.895833" stop-color="#E2AB40" stop-opacity="0.734375"/>
<stop offset="1" stop-color="#C1850F"/>
</linearGradient>
<linearGradient id="paint16_linear_106_104" x1="144.631" y1="21.8043" x2="144.631" y2="18.2637" gradientUnits="userSpaceOnUse">
<stop stop-color="#B38A3B"/>
<stop offset="0.526042" stop-color="#F4CF87" stop-opacity="0.851744"/>
<stop offset="0.895833" stop-color="#E2AB40" stop-opacity="0.734375"/>
<stop offset="1" stop-color="#C1850F"/>
</linearGradient>
<linearGradient id="paint17_linear_106_104" x1="57.0242" y1="21.5738" x2="57.0242" y2="18.4114" gradientUnits="userSpaceOnUse">
<stop stop-color="#B38A3B"/>
<stop offset="0.526042" stop-color="#F4CF87" stop-opacity="0.851744"/>
<stop offset="0.895833" stop-color="#E2AB40" stop-opacity="0.734375"/>
<stop offset="1" stop-color="#C1850F"/>
</linearGradient>
<linearGradient id="paint18_linear_106_104" x1="201.871" y1="46.7588" x2="201.871" y2="5.00425" gradientUnits="userSpaceOnUse">
<stop stop-color="#B38A3B"/>
<stop offset="0.526042" stop-color="#F4CF87" stop-opacity="0.851744"/>
<stop offset="0.895833" stop-color="#E2AB40" stop-opacity="0.734375"/>
<stop offset="1" stop-color="#C1850F"/>
</linearGradient>
<linearGradient id="paint19_linear_106_104" x1="329.572" y1="32.558" x2="329.572" y2="13.8621" gradientUnits="userSpaceOnUse">
<stop stop-color="#B38A3B"/>
<stop offset="0.526042" stop-color="#F4CF87" stop-opacity="0.851744"/>
<stop offset="0.895833" stop-color="#E2AB40" stop-opacity="0.734375"/>
<stop offset="1" stop-color="#C1850F"/>
</linearGradient>
<linearGradient id="paint20_linear_106_104" x1="158.732" y1="32.558" x2="158.732" y2="13.8621" gradientUnits="userSpaceOnUse">
<stop stop-color="#B38A3B"/>
<stop offset="0.526042" stop-color="#F4CF87" stop-opacity="0.851744"/>
<stop offset="0.895833" stop-color="#E2AB40" stop-opacity="0.734375"/>
<stop offset="1" stop-color="#C1850F"/>
</linearGradient>
<linearGradient id="paint21_linear_106_104" x1="365.958" y1="23.1677" x2="365.958" y2="18.0643" gradientUnits="userSpaceOnUse">
<stop stop-color="#B38A3B"/>
<stop offset="0.526042" stop-color="#F4CF87" stop-opacity="0.851744"/>
<stop offset="0.895833" stop-color="#E2AB40" stop-opacity="0.734375"/>
<stop offset="1" stop-color="#C1850F"/>
</linearGradient>
<linearGradient id="paint22_linear_106_104" x1="122.82" y1="23.4839" x2="122.82" y2="18.0642" gradientUnits="userSpaceOnUse">
<stop stop-color="#B38A3B"/>
<stop offset="0.526042" stop-color="#F4CF87" stop-opacity="0.851744"/>
<stop offset="0.895833" stop-color="#E2AB40" stop-opacity="0.734375"/>
<stop offset="1" stop-color="#C1850F"/>
</linearGradient>
</defs>
</svg>
