<?xml version="1.0" encoding="UTF-8"?>
<!DOCTYPE svg PUBLIC "-//W3C//DTD SVG 1.1//EN" "http://www.w3.org/Graphics/SVG/1.1/DTD/svg11.dtd">
<!-- Creator: CorelDRAW 2019 (64-Bit) -->
<svg xmlns="http://www.w3.org/2000/svg" xml:space="preserve" width="420mm" height="297mm" version="1.1" style="shape-rendering:geometricPrecision; text-rendering:geometricPrecision; image-rendering:optimizeQuality; fill-rule:evenodd; clip-rule:evenodd"
viewBox="0 0 42000 29700"
 xmlns:xlink="http://www.w3.org/1999/xlink">
 <defs>
  <style type="text/css">
   <![CDATA[
    .fil1 {fill:#D9B852}
    .fil0 {fill:#F5E59F}
    .fil2 {fill:#FDF2B6}
   ]]>
  </style>
 </defs>
 <g id="Layer_x0020_1">
  <metadata id="CorelCorpID_0Corel-Layer"/>
  <g id="_2498111555008">
   <g>
    <path class="fil0" d="M-3744.95 8358.44l25.59 46.17c4.76,60.94 31.79,191.2 83.93,205.66 48.17,-29.25 84.34,-91.85 124.95,-129.63 707.22,-657.94 2642.37,-720.43 3497.73,-672.9 2206.02,122.57 5061.15,1010.01 7197.41,1748.12 1958.28,676.61 5550.71,1924.78 7514.52,2291.83 1212.44,226.61 1892.67,348 3199.32,453.54 2875.24,232.24 5424.44,-35.65 7989.62,-831.05 3741.65,-1160.2 6882.66,-2786.35 10985.66,-2249.47 1809.34,236.75 3529.58,746.14 4570.25,2149.09 244.76,329.97 430.8,688.78 578.65,1066.1l33.18 -89.83c6.1,-36.2 27.48,-88.68 47.62,-133.22 -317.06,-906.26 -829.78,-1726.98 -1816.36,-2358.49 -916.85,-586.87 -2168.01,-911.72 -3431.31,-1074.78 -1419.96,-183.29 -2776.72,-110.03 -4150.34,146.6 -1815.42,339.16 -3472.4,986.69 -5183.81,1567.47 -568.43,192.9 -1114.42,376.17 -1691.72,553.46 -2640.7,810.95 -5121.83,1038.2 -8052.11,805.35 -3885.02,-308.7 -7180.31,-1589.27 -10726.06,-2779.86 -1128.79,-379.02 -2269.37,-753.89 -3443.81,-1064.06 -1201.77,-317.4 -2536.64,-608.93 -3857.97,-650.46 -742.84,-23.35 -2900.34,57.53 -3390.09,835.28 -71.96,114.29 -47.14,139.98 -104.85,165.08zm46313.68 6244.03l14.26 77.51c1.01,-31.16 1.54,-66.23 1.54,-107.01 -3.8,11.39 -9.21,21.2 -15.8,29.5zm580.08 2327.39l23.11 55 8.17 -225.79 -18.02 -13.78c-11.41,45.6 -7.13,92.69 -7.13,139.58 0,16.43 -2.15,31.51 -6.13,44.99zm2562.03 5504.45l12.46 80.97c0.94,-18.06 6.66,-18.62 -12.19,-79.7l-0.27 -1.27zm34.74 216.38l3.57 19.25 -3.57 -19.25zm-3132.5 -8248.98l-4.06 -21.99c-1.01,10.66 -2.67,20.65 -5.24,29.66l9.3 -7.67z"/>
   </g>
   <path class="fil1" d="M-3744.95 8358.44c57.71,-25.1 32.89,-50.79 104.85,-165.08 489.75,-777.75 2647.25,-858.63 3390.09,-835.28 1321.33,41.53 2656.2,333.06 3857.97,650.46 1174.44,310.17 2315.02,685.04 3443.81,1064.06 3545.75,1190.59 6841.04,2471.16 10726.06,2779.86 2930.28,232.85 5411.41,5.6 8052.11,-805.35 577.3,-177.29 1123.29,-360.56 1691.72,-553.46 1711.41,-580.78 3368.39,-1228.31 5183.81,-1567.47 1373.62,-256.63 2730.38,-329.89 4150.34,-146.6 1263.3,163.06 2514.46,487.91 3431.31,1074.78 986.58,631.51 1499.3,1452.23 1816.36,2358.49 8.45,-18.68 16.69,-35.97 23.48,-50.07 19.18,-39.83 35.48,-80.51 55.07,-119.45 -226.99,-726.94 -563.45,-1408.33 -1145.18,-1990.12 -187.52,-187.53 -400.91,-363.87 -625.46,-513.15 -61.21,-40.7 -107.49,-72.75 -170.59,-114.07 -63.57,-41.64 -116.74,-68.72 -179.66,-104.99 -120.54,-69.5 -242.98,-127.81 -374.97,-194.34 -65.46,-33 -135.59,-61.73 -197.41,-87.25 -811.16,-334.8 -1607.83,-511.69 -2491.64,-639.55 -637.96,-92.29 -1398.03,-144.95 -2155.99,-122.28 -611.83,18.3 -1467.04,122.72 -2046.21,231.03 -830.09,155.24 -1503.85,341.01 -2276.22,570.33 -1178.45,349.89 -2635.81,899.15 -3827.32,1296.45 -760.01,253.41 -1437.89,448.11 -2217.44,644.92 -156.91,39.62 -307.85,74.35 -463.53,105.78 -315.83,63.76 -621.07,122.53 -959.37,179.24 -316.25,53.02 -938.53,133.35 -1271.44,151.84 -61.28,3.4 -192.38,11.52 -262.63,22.03l-813.74 40.22c-103.36,0.14 -152.36,17.06 -268.2,16.46 -399.16,-2.05 -1040.67,15.35 -1408.39,-15.09 -90.06,-7.45 -192.79,4.17 -283.9,-0.75 -88.86,-4.8 -157.73,-14.03 -269.39,-15.27 -90.49,-1 -160.2,-13.15 -268.69,-15.97l-522.44 -46.87c-700.91,-53.22 -1380.62,-144.57 -2025.4,-251.84 -652.7,-108.59 -1281.32,-243.99 -1882.85,-394.38 -309.36,-77.35 -609.44,-157.72 -901.47,-237.15 -1986.35,-540.26 -4105.22,-1311.94 -6031.79,-1954.34l-1719.68 -557.56c-293.67,-96.47 -580.55,-173.91 -877.95,-260.66 -289.47,-84.44 -588.67,-168.72 -893.8,-244.82 -1164.6,-290.48 -2504.78,-570.26 -3795.39,-591.46l-309.5 0c-314.12,5.35 -624.16,27.43 -926.82,69.93 -176.89,24.84 -320.1,48.13 -487.76,81.55 -589.58,117.53 -1463.64,333.53 -1582.07,979.83 -5.28,28.85 -7.78,53.53 -8.5,75.67l0 28.2c2,59.77 15.81,103.6 15.81,173.54zm48734.34 11575.29l0 -200.07c16.91,101.48 22.13,100.54 0,200.07zm-2380.37 -5554.01l4.06 21.99 28.95 -23.89 -4.59 -104.91c-9.65,-59.47 -17.64,1.56 -17.64,-121.05l-11.66 46.65c-6.29,51.07 6.18,125.43 0.88,181.21zm1799.2 4111.13l-16.18 -29.47c-3.58,49.42 -2.38,104.81 -2.38,193.2l11.67 -42.79c5.49,-41.02 -5.34,-83.67 6.89,-120.94zm-1867.95 -4894.72c-12.85,-69.81 -25.82,-139.56 -39.03,-209.2 -1.51,29.58 -2.92,60.85 8.84,85.56 18.94,39.79 9.86,139.19 9.86,185.59l20.33 -61.95z"/>
   <path class="fil2" d="M-3729.13 8796.67l93.7 -186.4c-52.14,-14.46 -79.17,-144.72 -83.93,-205.66 -22.88,22.29 -35.55,55.82 -41.4,94.64l0 130.41c6.82,63.52 20.85,125.34 31.63,167.01z"/>
   <path class="fil2" d="M-2938.42 21749.2l86.35 -219.25c-25.8,-20.47 -4.96,8.96 -32.84,-36.96 -0.65,-1.08 -17.32,-41.92 -18.58,-45.46 -13.39,-37.36 -16.5,-58.55 -34.93,-85.69 -50.22,83.46 -7.92,298.3 0,387.36z"/>
  </g>
 </g>
</svg>
